<svg width="371" height="407" viewBox="0 0 371 407" fill="none" xmlns="http://www.w3.org/2000/svg">
<path d="M354.587 219.076C345.19 245.845 332.834 270.995 318.312 295.094C303.417 319.81 285.917 342.538 265.495 362.946C253.491 374.941 240.333 385.523 225.502 393.891C211.127 402.002 195.835 407.086 179.179 406.996C169.386 406.943 159.816 405.112 150.537 401.92C131.208 395.272 112.823 386.393 94.2404 377.992C81.6445 372.297 69.0935 366.496 56.9153 359.927C45.0224 353.512 34.1004 345.879 25.3205 335.439C15.5293 323.797 9.59401 310.264 5.39975 295.798C0.278019 278.134 -0.711345 260.133 0.420688 241.9C1.46501 225.08 4.11907 208.54 8.4369 192.247C13.313 173.847 19.8394 156.067 27.9448 138.85C36.6622 120.334 47.0021 102.786 59.0518 86.241C68.4902 73.2816 78.8809 61.1275 90.5392 50.139C110.187 31.6202 132.109 16.5598 157.758 7.45897C172.567 2.20446 187.843 -0.516386 203.572 0.0813233C216.678 0.579363 229.485 3.06448 242.101 6.67059C259.615 11.6769 276.257 18.8748 292.769 26.4271C303.6 31.3807 314.467 36.2665 324.577 42.6271C338.17 51.1788 349.812 61.6816 357.63 75.9651C363.829 87.2907 367.234 99.4755 368.85 112.227C369.95 120.912 370.576 129.618 370.289 138.373C369.9 150.192 368.597 161.9 366.475 173.548C363.666 188.971 359.653 204.055 354.587 219.076ZM138.96 278.839C140.947 268.529 143.871 258.463 147.055 248.477C155.992 220.45 168.042 193.783 182.386 168.126C191.212 152.337 200.739 136.991 211.455 122.412C227.377 100.751 245.126 80.8784 267.678 65.7927C279.325 58.0016 291.888 52.6054 305.939 50.9369C308.858 50.5903 311.807 50.9228 315.36 50.4171C313.745 49.5966 312.726 49.059 311.691 48.5557C298.507 42.1485 285.101 36.2338 271.574 30.5977C257.12 24.5757 242.514 19.014 227.189 15.5081C212.576 12.165 197.863 11.2434 183.057 13.5646C166.423 16.1726 150.989 22.2896 136.352 30.4886C116.056 41.8577 98.9576 57.1415 83.5723 74.3704C68.0844 91.7143 55.1474 110.872 44.4242 131.522C32.9864 153.548 23.8444 176.45 17.9377 200.588C12.8275 221.472 10.1754 242.597 11.7315 264.146C12.5914 276.054 14.4832 287.737 18.2526 299.104C23.8864 316.095 33.2634 330.413 47.8404 341.064C57.849 348.376 68.9982 353.678 80.1068 359.009C99.1016 368.124 118.39 376.597 137.751 384.901C141.288 386.418 144.827 387.983 148.712 389.004C148.616 387.524 147.742 386.778 147.124 385.94C140.915 377.512 137.393 367.944 135.491 357.782C133.106 345.042 132.721 332.181 133.37 319.231C134.047 305.725 136.033 292.441 138.96 278.839ZM210.52 143.284C203.295 154.089 196.56 165.187 190.25 176.556C172.132 209.197 157.934 243.357 149.93 279.927C145.306 301.059 142.482 322.364 144.8 344.05C145.902 354.355 147.847 364.482 152.88 373.721C160.052 386.887 171.179 394.029 186.162 394.413C193.614 394.603 200.813 392.443 207.758 389.734C219.044 385.331 228.964 378.59 238.557 371.364C252.391 360.942 264.497 348.701 275.676 335.515C292.713 315.42 307.085 293.544 319.547 270.357C332.879 245.551 343.791 219.81 350.865 192.483C354.712 177.621 357.404 162.57 358.346 147.28C359.047 135.905 359.113 124.465 357.443 113.119C355.871 102.43 353.267 91.9977 347.85 82.5717C340.393 69.5968 329.143 62.6114 313.983 62.2755C306.024 62.0992 298.423 63.813 291.075 66.6393C276.526 72.2346 264.34 81.5479 252.98 91.8962C236.502 106.906 223.331 124.732 210.52 143.284Z" fill="#13120A"/>
<path d="M174.187 237.789C184.43 209.884 197.785 183.774 213.944 159.069C224.457 142.997 235.865 127.638 249.508 114.061C260.665 102.959 272.591 92.8432 287.38 86.7878C297.581 82.6108 308.075 80.775 318.748 84.7761C328.374 88.3848 334.527 95.6582 338.272 105.018C342.53 115.66 344.044 126.846 344.317 138.227C344.865 161.097 340.831 183.285 334.115 205.041C326.985 228.138 316.886 249.935 305.047 270.967C297.846 283.759 290.005 296.138 281.157 307.849C268.063 325.177 253.8 341.435 236.472 354.723C226.368 362.47 215.683 369.326 203.012 372.002C191.552 374.422 180.692 373.167 171.924 364.383C166.735 359.184 163.895 352.588 161.844 345.65C158.185 333.275 157.65 320.64 158.387 307.822C159.266 292.542 162.146 277.64 166.038 262.903C168.27 254.451 171.206 246.211 174.187 237.789ZM171.972 304.728C172.937 303.809 173.925 302.913 174.863 301.967C190.149 286.531 203.787 269.775 215.576 251.506C231.778 226.399 245.119 199.954 253.62 171.209C258.333 155.27 261.5 139.078 261.545 122.383C261.547 121.285 261.876 120.08 261.076 119.108C259.928 119.211 259.355 119.977 258.719 120.613C253.239 126.098 248.053 131.871 243.209 137.901C227.143 157.9 213.536 179.494 201.927 202.369C193.131 219.702 185.691 237.581 179.707 256.072C175.369 269.481 172.222 283.166 170.457 297.141C170.105 299.927 169.295 302.811 170.005 305.634C170.918 305.841 171.253 305.271 171.972 304.728ZM236.478 273.344C233.535 273.538 231.664 275.399 230.011 277.555C226.267 282.438 222.957 287.632 219.095 292.438C216.356 295.846 217.045 300.082 220.62 302.76C225.811 306.648 231.081 310.436 236.414 314.128C240.199 316.748 243.934 316.221 246.783 312.582C250.884 307.345 254.973 302.084 258.55 296.464C261.283 292.171 260.753 288.933 256.805 285.784C251.726 281.732 246.311 278.151 240.847 274.647C239.653 273.882 238.366 273.277 236.478 273.344ZM264.89 269.136C271.761 272.615 275.363 271.466 278.863 264.695C279.588 263.291 280.424 261.94 281.084 260.507C282.961 256.432 285.651 252.752 287.019 248.436C288.067 245.128 286.83 241.413 283.806 239.789C277.873 236.603 271.869 233.538 265.786 230.65C262.172 228.934 258.292 230.314 256.377 233.833C253.277 239.529 249.956 245.108 247.273 251.029C245.094 255.836 246.16 259.421 250.792 261.897C255.34 264.328 259.959 266.626 264.89 269.136ZM301.984 215.32C303.989 210.114 306.057 204.932 307.975 199.695C309.115 196.583 307.964 193.994 305.618 191.865C304.492 190.843 303.116 190.209 301.717 189.666C296.595 187.679 291.387 185.891 286.353 183.701C282.49 182.02 277.381 183.809 275.752 188.267C273.553 194.285 270.994 200.171 268.703 206.157C267.366 209.65 268.766 213.353 272.15 215.093C278.234 218.22 284.621 220.665 291.123 222.751C295.269 224.081 298.948 222.193 300.794 218.215C301.179 217.385 301.493 216.521 301.984 215.32ZM289.396 161.681C293.685 166.707 298.921 169.408 305.741 169.098C318.884 168.5 327.612 154.049 321.791 142.266C316.921 132.409 304.814 128.364 295.774 133.573C285.354 139.578 282.505 151.621 289.396 161.681Z" fill="#13120A"/>
<path d="M249.888 295.924C247.3 299.504 244.792 302.921 242.342 306.38C241.394 307.719 240.549 307.997 239.101 306.907C235.183 303.959 231.154 301.16 227.156 298.32C226.136 297.595 225.283 296.955 226.293 295.534C229.616 290.86 232.87 286.137 236.166 281.443C236.345 281.188 236.663 281.03 237.079 280.697C241.919 284.211 246.746 287.72 251.578 291.221C252.339 291.773 252.407 292.389 251.866 293.133C251.23 294.006 250.615 294.895 249.888 295.924Z" fill="#E29E5B"/>
<path d="M268.588 262.756C264.124 260.325 259.833 257.96 255.513 255.649C254.424 255.066 253.76 254.554 254.502 253.17C256.935 248.634 259.294 244.058 261.638 239.475C262.404 237.975 263.385 237.693 264.869 238.458C269.296 240.74 273.746 242.978 278.202 245.203C279.587 245.894 279.966 246.804 279.206 248.212C276.643 252.961 274.088 257.715 271.585 262.495C270.747 264.096 269.787 263.492 268.588 262.756Z" fill="#E29E5B"/>
<path d="M278.013 209.823C276.076 209.193 275.837 208.098 276.492 206.472C278.355 201.852 280.155 197.207 281.931 192.553C282.496 191.071 283.254 190.419 284.909 191.09C289.525 192.961 294.166 194.772 298.821 196.543C300.484 197.175 300.936 198.075 300.245 199.784C298.439 204.246 296.71 208.741 295.048 213.259C294.305 215.276 293.315 215.995 291.14 215.059C286.872 213.225 282.513 211.604 278.013 209.823Z" fill="#E29E5B"/>
<path d="M312.055 159.13C306.083 163.477 299.063 162.454 294.991 156.783C291.402 151.784 292.82 144.209 298.072 140.328C302.165 137.303 309.069 138.06 312.726 141.934C317.03 146.496 317.461 152.87 313.751 157.394C313.278 157.97 312.713 158.472 312.055 159.13Z" fill="#E29E5B"/>
</svg>
