<svg version="1.1" id="Layer_1" xmlns="http://www.w3.org/2000/svg" xmlns:xlink="http://www.w3.org/1999/xlink" x="0px" y="0px"
	 width="100%" viewBox="0 0 1024 672" enable-background="new 0 0 1024 672" xml:space="preserve">
<path fill="#000000" opacity="1.000000" stroke="none" 
	d="
M687.021240,421.064148 
	C689.058289,405.505676 681.675476,393.099701 673.530212,380.978607 
	C672.148987,378.923187 670.491272,377.023010 667.797363,375.301270 
	C661.000305,381.126831 652.609802,383.395844 643.708191,384.184296 
	C642.264526,384.312164 640.927246,384.907532 640.711731,386.385254 
	C639.127319,397.246887 638.550598,408.084320 641.706421,418.971954 
	C646.080688,416.327148 646.850647,413.034607 645.050415,405.237213 
	C644.254761,401.790771 644.150269,398.836670 648.539246,397.961853 
	C651.080322,397.455383 652.990112,397.541901 653.489502,400.946869 
	C654.912781,410.651459 657.236816,420.130981 661.177979,429.182770 
	C662.066895,431.224335 662.523804,433.284912 665.093933,433.821259 
	C667.269836,434.275330 668.281433,435.835419 667.726929,437.867523 
	C667.159668,439.945862 665.446594,441.161255 663.243774,441.240021 
	C659.501648,441.373932 656.908936,439.305450 655.176086,436.276947 
	C653.375610,433.130066 651.921204,429.785156 650.408142,426.715027 
	C647.985901,426.023193 646.845764,428.021149 645.102844,428.475311 
	C639.025085,430.058929 633.355652,426.609985 632.863953,420.255676 
	C632.047424,409.703674 629.413940,399.154388 632.293030,388.513641 
	C632.696777,387.021667 632.414673,385.178894 631.190857,384.337036 
	C624.079346,379.444946 624.251465,371.087158 621.538025,364.179138 
	C616.805664,352.131256 612.631592,339.864349 608.189575,327.701599 
	C607.927246,326.983429 607.363525,326.375305 606.750977,325.421661 
	C604.428162,333.038940 605.959106,340.297363 606.239502,347.472809 
	C606.587952,356.388367 605.210815,364.139923 596.159485,368.353943 
	C594.375793,369.184357 594.359741,370.414490 594.991089,372.055603 
	C599.203735,383.006683 594.766113,392.958771 591.140808,402.910919 
	C589.675659,406.933105 587.915283,410.918091 584.837524,414.168365 
	C583.628784,415.444916 582.999268,417.147888 583.721985,419.234222 
	C589.498169,435.911194 598.354248,450.898285 608.818542,464.974731 
	C623.160461,484.267303 639.781555,501.458038 657.692444,517.444031 
	C660.523865,519.971130 663.493408,522.461853 663.561035,526.869019 
	C663.590149,528.765076 665.601990,529.278320 666.950012,530.222656 
	C673.432068,534.763733 681.187622,537.172241 686.589844,543.653503 
	C691.858948,549.975159 692.201294,556.098999 689.708740,563.474365 
	C686.151794,573.999084 680.519531,583.323914 674.763672,592.693481 
	C669.407349,601.412842 665.193726,610.870972 656.087341,618.275818 
	C669.495178,617.624939 681.592041,618.343811 693.643372,617.134460 
	C696.512878,616.846558 699.384644,616.894287 702.012085,617.984009 
	C703.732056,618.697388 706.185059,619.587097 705.822205,621.994934 
	C705.455322,624.429260 703.267761,625.220093 700.905273,625.341736 
	C692.116089,625.794128 683.329590,626.298279 674.540588,626.753174 
	C667.916443,627.096130 661.189026,628.222778 654.716919,627.892334 
	C645.716980,627.432739 636.807190,628.043152 627.873840,628.189087 
	C611.451416,628.457397 595.033936,629.785095 578.621826,629.664490 
	C567.513245,629.582825 556.452576,630.729187 545.358032,630.237122 
	C544.698303,630.207886 543.973389,630.224060 543.398682,629.959045 
	C541.335693,629.007629 538.342590,628.354309 538.723572,625.569580 
	C539.047852,623.199280 541.798767,622.931580 543.988892,622.660034 
	C556.569580,621.099487 569.200134,620.519470 581.870789,620.676270 
	C584.678650,620.710999 587.487305,620.681396 589.909851,620.681396 
	C590.459412,619.791443 590.793335,619.505249 590.771545,619.249268 
	C589.780701,607.578186 591.654602,604.256531 602.509094,599.312744 
	C608.102722,596.765015 613.722656,594.238708 619.677551,592.586121 
	C620.466431,592.367126 621.317444,592.125793 621.955444,591.648499 
	C626.940002,587.919373 629.871338,573.754517 626.652344,567.875854 
	C624.533325,568.398315 622.181030,568.659363 620.100281,569.552734 
	C614.452087,571.977722 610.110901,569.577393 605.567200,566.516357 
	C594.673767,559.177673 586.338257,549.159424 577.185913,540.000977 
	C562.848633,525.654114 549.126282,510.775208 537.332581,494.188293 
	C534.613037,490.363434 533.913635,485.573517 530.679504,481.418213 
	C525.143250,485.864899 521.785095,491.661377 517.819885,496.858887 
	C498.441376,522.259888 480.591797,548.750854 462.404541,575.001038 
	C459.660095,578.962219 456.634735,582.738281 453.596649,586.484314 
	C448.441345,592.840942 445.880859,593.445068 438.078094,590.532349 
	C437.162109,590.190430 436.187073,590.006714 434.660553,589.592712 
	C432.811310,596.978455 430.752411,604.161011 427.063995,610.613159 
	C422.495819,618.604126 418.831696,627.619568 408.917206,630.772949 
	C404.940613,632.037842 400.730286,632.181152 396.562622,632.200439 
	C376.770905,632.291992 356.979065,632.353882 337.187347,632.442200 
	C334.678406,632.453430 332.199066,632.367615 329.796570,631.520569 
	C328.207611,630.960266 327.209961,629.952454 327.349884,628.212585 
	C327.473297,626.677124 328.507935,625.873840 329.976990,625.643616 
	C334.068024,625.002441 338.142792,624.067261 342.259033,623.811157 
	C356.881470,622.901367 371.527405,623.409607 386.164368,623.458862 
	C388.030670,623.465149 389.791504,623.272949 391.481171,622.476135 
	C391.828156,621.121704 390.764160,620.696045 389.962189,620.271057 
	C370.097717,609.745056 352.403137,595.940918 334.061829,583.131104 
	C325.823547,577.377380 319.058716,569.958191 313.332428,561.688171 
	C309.196564,555.715027 312.196228,547.121399 319.000885,544.288269 
	C328.694519,540.252380 338.011993,542.365967 346.853668,546.424316 
	C360.262360,552.578979 374.191254,557.627258 386.474304,565.440430 
	C388.763550,564.069397 389.071960,562.142639 391.277496,559.408508 
	C389.593323,558.323730 387.602600,557.521240 386.289093,556.095032 
	C383.606689,553.182373 383.480103,549.974854 385.960785,546.625488 
	C401.207275,526.040100 415.544647,504.818665 429.549988,483.382477 
	C442.645081,463.339447 456.470459,443.827393 470.666595,424.559387 
	C474.409637,419.479065 477.555695,413.957977 480.954651,408.625763 
	C481.769592,407.347260 482.348877,406.050720 481.869507,404.402130 
	C479.164459,395.099487 478.679321,385.464874 477.811798,375.897949 
	C477.638489,373.986603 476.960388,372.976562 475.263397,372.095276 
	C471.086823,369.926300 467.677856,366.671356 464.495636,363.290436 
	C461.380402,359.980743 458.863647,356.329468 460.088135,351.194061 
	C460.519653,349.384369 459.812592,347.303131 459.452606,343.539246 
	C454.897278,349.419556 449.476105,352.237976 445.278381,356.655914 
	C441.052216,361.103821 436.701202,365.458008 432.131378,369.547607 
	C427.537354,373.658875 422.190247,375.511871 416.209625,372.584198 
	C411.947144,383.524231 408.558502,394.118530 405.341644,404.767609 
	C403.608154,410.506195 399.788116,412.970032 393.873016,413.232025 
	C390.337677,413.388550 388.486267,411.104523 385.764801,409.054413 
	C384.818665,411.847656 383.590729,414.320099 381.929230,416.534790 
	C378.559814,421.026184 371.873138,421.816956 367.963440,417.855896 
	C365.933960,415.799774 363.749908,414.540070 361.113556,413.408752 
	C356.084991,411.250824 354.518372,406.612274 354.581879,401.475403 
	C354.691376,392.622589 358.978149,385.114899 363.130096,377.773682 
	C368.366760,368.514557 374.741699,360.100159 382.941833,353.007355 
	C385.989410,350.371307 386.939392,345.569855 389.513733,342.047546 
	C400.500275,327.015259 411.353149,311.877502 422.278595,296.806519 
	C437.186462,276.241974 448.331818,253.496506 461.835419,232.150162 
	C466.699524,224.461060 469.614960,215.506638 476.416229,209.074356 
	C485.384277,200.592911 495.065369,193.488983 508.220001,193.504013 
	C508.452545,193.504272 508.685547,193.088989 508.958038,192.829849 
	C508.362244,191.082993 506.928528,191.006729 505.386230,190.836304 
	C487.373749,188.846146 473.319275,180.357132 462.372467,165.843246 
	C449.673767,149.006622 448.962463,131.239700 456.051208,112.193748 
	C460.161133,101.151291 466.681396,91.552696 473.071808,81.845444 
	C474.630890,79.477104 475.757843,77.585236 473.452850,74.792183 
	C471.474854,72.395370 472.316376,69.425751 473.875366,66.829788 
	C479.177429,58.001175 487.116150,52.449917 497.047180,50.986176 
	C512.046631,48.775402 527.220215,49.231747 542.313721,50.633469 
	C548.011292,51.162605 548.974609,53.843639 546.085938,60.791954 
	C533.294189,58.890461 520.353699,58.140728 506.738220,60.356743 
	C507.684052,61.575756 508.141541,62.215691 508.649841,62.812401 
	C512.063965,66.820633 511.322571,70.167038 506.320343,71.084038 
	C500.970215,72.064804 496.287079,74.487907 491.365417,76.474686 
	C485.017487,79.037231 481.667145,84.557121 478.435303,89.830414 
	C472.549438,99.434380 465.869751,108.653671 462.671234,119.741425 
	C457.777802,136.704529 461.501495,151.531555 473.037445,164.664627 
	C481.310852,174.083481 491.640381,179.536331 504.040894,181.133926 
	C510.580994,181.976517 516.971802,180.976913 523.305298,179.472961 
	C527.675598,178.435150 531.990295,177.146896 536.384094,176.230774 
	C538.812805,175.724380 541.292480,176.335892 541.989441,179.075623 
	C542.637329,181.622650 541.317017,183.824799 538.869446,184.659088 
	C534.003479,186.317688 529.074585,187.870346 524.066895,189.004242 
	C521.176575,189.658722 519.551880,190.857529 519.391052,193.837326 
	C519.145020,198.397690 516.909851,201.618011 512.729980,203.313751 
	C514.236694,208.622696 519.104980,212.189224 525.528809,212.733765 
	C533.027222,213.369415 540.124451,212.083801 546.626038,208.088699 
	C552.423340,204.526382 557.851013,200.506760 563.226990,195.656631 
	C559.960815,191.612442 555.203308,189.397110 554.426575,184.012482 
	C553.965210,180.813858 554.300598,176.976196 550.369141,174.987473 
	C549.232910,174.412704 549.698608,172.427612 550.618713,171.367249 
	C555.962585,165.208755 559.533569,157.722305 565.493225,151.985703 
	C568.168091,149.410995 570.882812,148.680252 574.426331,148.814285 
	C583.007935,149.138885 590.921631,147.517120 597.126709,140.696945 
	C600.923645,136.523636 601.983093,131.733063 600.278381,126.836517 
	C598.660278,122.188950 594.018982,121.421379 589.514771,121.122887 
	C585.597717,120.863304 581.909363,121.720482 578.248535,122.928528 
	C575.025452,123.992134 572.079529,123.834221 571.144653,119.947411 
	C570.267578,116.300453 572.803894,114.343933 575.774048,113.371559 
	C579.246887,112.234634 582.896790,111.631195 586.594543,111.686295 
	C590.341919,111.742111 591.337524,110.164024 590.875977,106.367409 
	C588.128479,83.767082 574.316772,70.546051 554.204590,62.657127 
	C551.744751,61.692272 548.876404,61.251541 549.645752,58.019173 
	C550.444214,54.664143 553.438110,54.213936 556.499939,54.804379 
	C569.008667,57.216564 578.876709,64.089058 586.692749,73.752602 
	C590.578796,78.557289 594.230774,83.542168 596.325256,89.811943 
	C598.377014,95.953819 599.697449,101.910294 599.466553,108.277824 
	C599.355652,111.335526 600.206604,113.737175 602.873596,115.542793 
	C610.523438,120.721985 613.229980,131.679123 608.699341,139.866089 
	C602.585144,150.914612 593.079041,156.683731 580.436462,157.368637 
	C577.339905,157.536377 573.370972,155.966660 571.317139,158.302826 
	C567.630676,162.496185 564.361023,167.310089 562.045654,172.380020 
	C559.919617,177.035294 563.803528,183.232956 568.365051,186.141479 
	C576.251343,191.169952 585.339294,193.272675 593.669189,197.242386 
	C609.372986,204.726257 621.483459,215.712418 630.513916,230.463898 
	C642.153748,249.477875 652.201782,269.238678 660.641296,289.898590 
	C667.990173,307.888702 670.378113,327.053375 675.164246,345.645020 
	C675.866882,348.374420 676.665527,351.079132 677.364075,353.809540 
	C678.754211,359.242889 678.366699,364.380585 674.602234,368.565735 
	C686.591064,385.118042 700.909180,400.545319 692.461060,424.160309 
	C690.100403,422.779846 688.828857,422.036285 687.282104,421.158386 
	C687.007019,421.024048 687.021240,421.064148 687.021240,421.064148 
M596.841309,347.337708 
	C597.117249,334.538605 597.383301,321.739288 597.676147,308.940552 
	C597.750244,305.703735 596.987854,302.789520 595.390076,299.900848 
	C590.801941,291.605957 586.479370,283.164581 582.009460,274.803772 
	C580.861145,272.655823 580.515259,270.391052 580.763245,268.034454 
	C580.937256,266.380371 581.183838,264.515533 583.124939,264.034149 
	C585.114990,263.540649 586.183472,265.152527 586.998413,266.569702 
	C595.195068,280.823486 603.664124,294.961426 610.291321,310.024872 
	C618.997009,329.812500 626.630554,350.037811 633.414795,370.574860 
	C634.204346,372.965088 635.168884,375.236206 638.174988,375.755981 
	C648.303711,377.507263 663.339172,370.657471 668.478271,361.914642 
	C669.275269,360.558777 669.643066,359.307037 669.179749,357.685425 
	C665.388550,344.414337 662.748596,330.876556 659.735840,317.418213 
	C653.293518,288.639130 639.081116,263.175873 624.674805,237.832657 
	C613.612671,218.372360 597.208923,205.820648 575.947021,199.288116 
	C572.599426,198.259613 570.038208,198.253128 567.762817,201.513794 
	C565.295715,205.049164 561.626831,207.488861 558.309326,210.211197 
	C549.648804,217.318008 539.191650,220.013931 528.536377,222.058594 
	C518.888123,223.910004 506.358887,215.280258 504.274628,205.600525 
	C503.299774,201.073105 500.141998,199.564926 496.494873,202.607986 
	C488.243286,209.492950 479.106079,215.696381 475.297638,226.590759 
	C474.709778,228.272415 473.463348,229.721451 472.538391,231.288071 
	C467.725494,239.439636 462.943604,247.609619 458.102814,255.744553 
	C450.870422,267.898651 444.162048,280.413391 436.210876,292.079590 
	C424.130798,309.804016 411.224030,326.967407 398.545746,344.279236 
	C396.484955,347.093140 397.002686,349.105133 399.402191,351.048126 
	C403.797363,354.607117 408.373077,357.856567 413.384125,360.575409 
	C423.543121,366.087433 423.459198,366.213654 431.931183,358.325897 
	C438.018341,352.658508 443.538605,346.390015 450.275635,341.409088 
	C457.306244,336.211029 463.528992,330.495300 464.094879,320.790405 
	C464.294617,317.364868 465.522064,313.985107 466.402313,310.616302 
	C468.418823,302.898834 471.926361,295.257019 472.234131,287.481812 
	C472.677032,276.291962 474.492401,265.364807 475.800171,254.335022 
	C476.082031,251.957779 475.865875,248.728485 479.387482,248.746658 
	C482.978394,248.765152 483.109985,251.779510 483.351074,254.548523 
	C483.864136,260.441895 481.832367,266.100983 481.770813,271.886902 
	C481.642700,283.928558 479.997375,295.582825 476.576874,307.218475 
	C472.420776,321.356476 468.632172,335.701233 468.597321,350.678436 
	C468.591949,352.989410 468.915253,355.075928 470.503052,356.645630 
	C474.279327,360.378723 478.138611,363.923950 483.279053,365.956726 
	C493.863708,370.142242 505.020844,370.535797 516.096497,371.203186 
	C529.205261,371.992981 542.337280,372.626953 555.465454,370.933319 
	C565.583008,369.628113 575.187805,366.346741 585.002075,363.864929 
	C594.286316,361.517151 596.996155,357.970978 596.841309,347.337708 
M542.737122,380.349335 
	C524.037415,381.910614 505.536438,380.217163 486.846222,376.126648 
	C487.134003,383.630951 487.267395,390.288696 489.679932,397.503510 
	C492.710754,393.789459 495.048462,390.579132 497.757935,387.721313 
	C499.684601,385.689148 502.002411,381.877411 504.993713,384.476715 
	C507.447479,386.608795 505.200775,390.021484 503.404602,392.464417 
	C499.567108,397.683563 495.537598,402.765717 491.815369,408.064545 
	C480.935425,423.552734 470.839996,439.647278 459.175018,454.513947 
	C446.401459,470.793457 437.558777,489.575897 424.634399,505.735809 
	C417.093903,515.163940 412.216370,526.552551 404.503113,535.993958 
	C400.740631,540.599487 397.172852,545.364075 393.223846,550.432800 
	C395.457703,552.404724 397.435120,554.411438 399.667358,556.076538 
	C410.472534,564.136047 421.968964,571.137207 433.448608,578.182678 
	C445.862610,585.801514 444.457916,586.104065 452.628601,574.337708 
	C464.074615,557.854736 475.333649,541.235474 486.657745,524.666748 
	C501.403198,503.092102 517.851807,482.862152 534.046753,462.441650 
	C547.841187,445.048004 564.281860,429.868866 576.587646,411.143463 
	C583.259460,400.991119 587.089783,390.129822 588.522766,378.299347 
	C589.176086,372.906250 587.101013,371.683075 581.718811,373.424408 
	C569.352783,377.425262 556.822876,380.585846 542.737122,380.349335 
M538.538330,479.062805 
	C546.107300,491.404968 554.422363,503.147034 564.226746,513.892212 
	C577.107788,528.009338 590.099731,541.989441 604.379211,554.710815 
	C607.347961,557.355530 610.437683,559.906616 614.174927,561.519775 
	C615.413330,562.054321 616.498108,562.842773 617.903015,562.079834 
	C623.712402,558.925110 629.909485,556.605835 635.083679,552.151489 
	C641.767578,546.397522 646.443359,539.127991 651.682251,532.261536 
	C654.135437,529.046204 654.422668,526.157654 650.705322,523.340820 
	C648.080688,521.351929 646.051819,518.596558 643.619873,516.330444 
	C627.166321,500.999146 611.682800,484.847351 599.032715,466.104309 
	C592.335266,456.181030 585.448181,446.455597 581.038391,435.190552 
	C579.756226,431.915039 579.698914,428.123352 577.163330,424.780151 
	C565.461487,441.345276 550.775635,454.737701 538.425842,470.162872 
	C535.812195,473.427307 535.238525,475.584595 538.538330,479.062805 
M395.017639,613.401672 
	C399.019073,615.383850 403.069397,617.274902 407.002899,619.383789 
	C409.230560,620.577942 410.739563,619.946350 412.186218,618.185730 
	C420.265137,608.353516 424.177307,596.595032 428.390381,584.602417 
	C418.794922,580.180908 410.913910,574.025696 402.500702,568.710693 
	C396.264252,564.770813 394.085876,565.021606 389.766083,571.017517 
	C387.737427,573.833252 385.910370,573.779602 383.495697,572.454163 
	C368.746490,564.358093 353.017242,558.464172 337.482513,552.170654 
	C333.116028,550.401611 328.186829,549.467651 323.404449,551.470886 
	C321.198975,552.394714 319.451660,553.972107 320.804352,556.470032 
	C322.681915,559.937256 324.403687,563.472107 327.588165,566.197632 
	C337.324371,574.530396 347.678802,582.022644 357.900238,589.724731 
	C369.490112,598.457947 381.869110,605.807556 395.017639,613.401672 
M632.385437,594.500610 
	C631.066895,597.015869 628.843323,598.389526 626.286560,599.351746 
	C618.388794,602.323853 610.067688,604.268921 602.808350,608.783264 
	C601.097046,609.847473 598.407166,610.727783 599.107422,613.435486 
	C599.709595,615.763611 602.074158,616.274536 604.270081,616.725586 
	C613.284790,618.577332 622.471191,618.775635 631.566162,618.669617 
	C640.030823,618.570984 648.159912,615.808533 653.838379,609.134521 
	C658.005920,604.236267 661.546204,598.745911 664.702148,593.038025 
	C670.315735,582.885193 677.108765,573.396301 680.809753,562.195984 
	C682.595093,556.792969 682.694092,552.668091 677.975220,548.396484 
	C674.588989,545.331116 670.917786,542.821289 667.096252,540.693420 
	C659.558105,536.495972 659.280823,536.696838 653.931641,543.668884 
	C648.773621,550.391907 643.727234,557.170349 636.354736,561.707581 
	C634.457153,562.875427 634.859253,564.416870 635.532288,566.055176 
	C636.894043,569.370117 636.850647,572.718079 636.551147,576.298096 
	C636.045166,582.345215 633.781555,587.921143 632.385437,594.500610 
M380.203033,367.697876 
	C372.973969,376.503479 366.967285,386.030975 363.505951,396.959412 
	C362.365356,400.560577 362.536224,404.248444 364.710327,408.073944 
	C365.442230,405.689545 366.363708,403.835938 366.541168,401.913666 
	C367.374420,392.887939 371.949646,385.289185 375.697723,377.388000 
	C376.919647,374.812103 379.458649,372.727051 382.141846,374.161133 
	C384.853485,375.610291 384.128754,378.508881 382.834961,381.188477 
	C379.075562,388.974487 375.788696,396.960114 373.871368,405.439331 
	C373.401825,407.515900 372.702698,409.601105 374.278351,411.635254 
	C376.654388,410.737000 376.584229,408.522461 377.141998,406.730286 
	C379.966766,397.654266 384.234314,389.186035 388.313934,380.659027 
	C389.679108,377.805603 392.446808,374.833344 395.855469,377.145721 
	C398.933289,379.233582 397.882751,382.613525 395.912781,385.529175 
	C392.869080,390.034027 392.921814,395.316437 392.776611,400.436920 
	C392.727631,402.163177 393.023621,404.452393 396.035828,405.299835 
	C398.998779,396.714020 401.992157,388.309662 404.797699,379.843048 
	C408.414154,368.929321 408.349335,368.907898 399.159912,362.252869 
	C390.665039,356.100830 390.667114,356.102631 383.710754,363.855591 
	C382.710754,364.970093 381.679993,366.057037 380.203033,367.697876 
M489.489594,66.841576 
	C493.891174,63.994579 498.923370,62.749310 505.127258,61.801441 
	C496.323303,57.668381 486.295746,62.349941 482.534454,71.212456 
	C484.678741,69.830154 486.753296,68.492783 489.489594,66.841576 
z"/>
<path fill="#000000" opacity="1.000000" stroke="none" 
	d="
M686.997314,421.005463 
	C685.506104,426.481354 685.440430,432.507202 679.115356,435.684601 
	C674.101196,438.203400 669.577271,437.867004 667.580505,432.615906 
	C664.460510,424.410980 662.307007,415.831665 659.920654,407.361145 
	C659.504211,405.882996 659.314880,403.828644 661.348206,403.034973 
	C663.438416,402.219116 665.133057,402.918640 666.583618,404.728302 
	C670.838684,410.036987 671.175171,416.741913 673.173889,422.845612 
	C673.741577,424.579254 673.899963,426.419495 675.675903,427.900360 
	C678.213684,426.496704 677.927856,424.116028 677.483337,421.936890 
	C676.023682,414.780823 674.733459,407.565155 671.919556,400.767639 
	C670.733643,397.902893 671.091858,395.282959 673.786804,393.818909 
	C676.554810,392.315186 677.982788,395.036469 679.319458,396.728577 
	C681.631714,399.655609 682.215698,403.399628 683.252502,406.874298 
	C684.580994,411.326782 685.551819,415.886047 686.848999,420.731720 
	C687.021240,421.064148 687.007019,421.024048 686.997314,421.005463 
z"/>
<path fill="#000000" opacity="1.000000" stroke="none" 
	d="
M485.960876,116.030762 
	C489.875519,114.926186 492.522491,112.320335 494.428375,108.604332 
	C495.282013,108.841576 496.056305,109.029419 496.812836,109.272575 
	C498.514801,109.819595 500.772949,108.869118 501.483582,111.846489 
	C502.195251,114.828323 500.889648,116.705612 499.009399,118.365295 
	C495.523560,121.442215 491.843201,124.297707 488.304382,127.316345 
	C487.217438,128.243530 485.527679,129.058960 485.999023,130.833160 
	C486.485504,132.664291 488.299774,133.317810 489.919739,133.434219 
	C493.395386,133.683975 496.895508,133.594925 500.385651,133.640610 
	C502.658936,133.670349 504.717560,133.867142 505.116638,136.832687 
	C505.494202,139.638443 503.949738,140.577835 501.638062,141.359207 
	C493.811951,144.004562 486.197418,144.591248 479.821747,138.296814 
	C474.074402,132.622681 474.511353,126.846252 480.547058,121.245422 
	C482.246826,119.668152 483.957520,118.102669 485.829773,116.265800 
	C485.996338,115.999825 485.960876,116.030762 485.960876,116.030762 
z"/>
<path fill="#000000" opacity="1.000000" stroke="none" 
	d="
M570.439209,96.614098 
	C571.963928,98.602280 573.263733,100.312752 574.577881,102.042007 
	C571.890503,108.254738 569.180603,108.943954 564.667725,103.993500 
	C557.211792,95.814667 551.816528,86.315285 547.958618,75.958954 
	C546.854492,72.995148 546.343140,69.745468 549.990051,68.275139 
	C553.654480,66.797768 554.690613,69.805428 555.934753,72.495514 
	C559.841125,80.941948 564.223938,89.127258 570.439209,96.614098 
z"/>
<path fill="#000000" opacity="1.000000" stroke="none" 
	d="
M531.016602,87.963547 
	C528.065796,83.908173 525.342407,80.133530 522.630432,76.350716 
	C520.426208,73.276260 521.448303,70.293221 523.925171,68.394127 
	C526.812744,66.180122 528.814148,68.612778 530.252380,71.005196 
	C535.638428,79.964661 542.299011,87.701256 551.389771,93.084328 
	C553.630554,94.411240 555.117615,95.567619 553.619080,98.560631 
	C552.065613,101.663399 549.762573,101.462822 547.337830,100.506958 
	C540.843567,97.946915 535.699341,93.527908 531.016602,87.963547 
z"/>
<path fill="#000000" opacity="1.000000" stroke="none" 
	d="
M493.660461,151.727631 
	C504.284119,155.725693 513.897583,153.074814 523.366272,148.931763 
	C525.329285,148.072861 527.386108,146.696167 529.079590,149.243073 
	C530.655884,151.613846 529.638062,153.655289 527.936401,155.502731 
	C520.609558,163.457138 500.154602,165.540634 491.219910,159.273819 
	C489.446014,158.029602 488.297546,156.475693 488.684845,154.265350 
	C489.142883,151.651352 491.158722,151.491974 493.660461,151.727631 
z"/>
<path fill="#000000" opacity="1.000000" stroke="none" 
	d="
M527.787354,110.790367 
	C529.336487,112.352982 530.602539,113.481087 532.706360,113.481995 
	C534.963196,113.482971 537.095825,114.334625 537.304565,117.031166 
	C537.533875,119.992233 535.572266,121.614326 533.070557,122.464645 
	C527.865723,124.233765 520.710632,118.855110 520.746643,113.329285 
	C520.757996,111.585037 520.999878,109.923325 522.859009,109.221924 
	C524.664612,108.540733 526.463135,108.345657 527.787354,110.790367 
z"/>
<path fill="#000000" opacity="1.000000" stroke="none" 
	d="
M486.013184,115.983414 
	C483.537567,116.425385 480.950043,116.923004 479.711243,113.876434 
	C478.387115,110.620018 478.545074,107.383659 480.892395,104.610954 
	C482.733551,102.436127 485.088196,103.124695 487.254578,104.068321 
	C491.128265,105.755592 491.568390,108.502518 488.374695,111.586197 
	C487.235077,112.686516 486.628693,113.927841 486.070282,115.687874 
	C485.960876,116.030762 485.996338,115.999825 486.013184,115.983414 
z"/>
</svg>