<svg version="1.1" id="Layer_1" xmlns="http://www.w3.org/2000/svg" xmlns:xlink="http://www.w3.org/1999/xlink" x="0px" y="0px"
	 width="100%" viewBox="0 0 1024 1024" enable-background="new 0 0 1024 1024" xml:space="preserve">
<path fill="#000000" opacity="1.000000" stroke="none" 
	d="
M733.449951,1025.000000 
	C747.026550,996.077942 761.564758,967.414551 776.333191,938.864563 
	C791.738892,909.082642 810.156982,881.111511 827.686218,852.598938 
	C838.417786,835.143311 844.324707,816.249451 844.932007,795.500488 
	C845.544373,774.575684 847.678589,753.712646 852.001709,733.164185 
	C852.859985,729.084717 851.280945,726.508057 848.167908,724.253296 
	C843.120422,720.597473 837.525391,718.143127 831.719116,715.982178 
	C823.296448,712.847290 814.804321,709.799133 808.477295,702.845459 
	C802.055908,695.788025 800.175354,687.080566 800.910278,678.207886 
	C802.420776,659.972229 807.302124,642.696594 817.044678,626.826355 
	C828.803711,607.671448 856.702332,599.312988 876.179321,610.770508 
	C876.707275,611.081116 877.392944,611.123718 879.129028,611.598999 
	C876.684204,603.839417 871.714722,599.539612 865.504822,596.651672 
	C853.694458,591.159119 841.361877,591.078064 828.884644,593.978760 
	C810.280640,598.303711 796.108276,609.777039 782.941284,622.750427 
	C765.444397,639.989990 752.133240,660.256714 740.424133,681.713684 
	C725.446960,709.159424 713.138428,737.625977 706.176025,768.226868 
	C705.881531,769.521301 705.063293,771.031128 705.449158,772.091187 
	C707.914551,778.865295 703.141541,782.828064 699.919556,787.502136 
	C689.410645,802.747253 680.986389,819.244385 671.599609,835.161865 
	C661.260803,852.693665 650.435730,869.890686 637.597046,885.687866 
	C632.875916,891.496826 630.357178,897.701111 629.422913,904.999451 
	C626.993286,923.979309 622.292358,942.529053 618.049561,961.148926 
	C616.282349,968.904358 613.496887,976.433289 611.048340,984.024597 
	C610.340271,986.219910 609.412109,988.880554 606.282898,987.865662 
	C603.009521,986.804016 603.657593,984.151123 604.416748,981.617310 
	C608.473694,968.076355 612.802185,954.585632 615.473694,940.695557 
	C621.027039,911.821777 625.817444,882.795471 631.739563,854.000122 
	C636.157288,832.519775 641.943970,811.323486 646.970398,789.965271 
	C656.194702,750.769470 666.925171,712.001282 679.609924,673.780334 
	C688.890076,645.817932 699.709167,618.429871 710.409607,590.993774 
	C720.266602,565.720276 729.482910,540.191101 739.661377,515.049866 
	C765.461365,451.322418 789.869873,387.022217 817.906372,324.210724 
	C827.406006,302.928162 837.714355,281.990234 846.124146,260.241760 
	C853.872864,240.202560 861.216553,219.971222 860.627930,197.968369 
	C860.492432,192.902634 860.036865,187.818924 856.984680,182.417358 
	C853.530334,190.660309 849.990723,197.969162 844.766357,204.237122 
	C830.812744,220.978088 813.438232,228.997559 791.379089,224.942307 
	C784.458313,223.670044 777.758423,221.834930 771.751221,218.013992 
	C762.766052,212.298920 759.284607,204.313736 761.124756,193.665604 
	C761.573486,191.068985 762.039978,188.475433 762.111633,185.635330 
	C757.342834,190.628632 753.406189,196.223984 749.817444,202.069580 
	C728.800659,236.302811 709.428040,271.407074 692.625671,307.937836 
	C682.997192,328.871582 670.912231,348.497589 656.923584,366.785370 
	C639.144531,390.028595 626.551697,415.939972 615.052673,442.637299 
	C602.541809,471.683716 590.234375,500.863495 575.506104,528.890198 
	C557.747986,562.682434 537.383362,594.930847 516.294983,626.717407 
	C510.489502,635.468079 503.462738,643.312012 496.537872,651.199280 
	C495.661591,652.197266 494.688538,653.129700 493.660217,653.970032 
	C492.238953,655.131409 490.698090,656.507263 488.896545,654.647278 
	C487.191650,652.887024 488.171906,651.402710 489.520721,649.889954 
	C492.068939,647.032043 494.559753,644.118103 496.969482,641.142517 
	C506.838379,628.956299 515.730713,616.076782 523.997192,602.761841 
	C524.857788,601.375610 525.432861,599.812073 526.231628,598.139648 
	C522.936707,595.364197 519.043884,594.262390 515.498352,592.634155 
	C512.445129,591.232056 511.442535,594.080078 510.575348,596.179688 
	C507.143311,604.489136 503.855865,612.858215 500.467316,621.185791 
	C499.717133,623.029419 498.907013,624.875000 497.881531,626.572998 
	C496.811035,628.345581 495.410889,629.840759 492.981873,628.625977 
	C490.462280,627.366089 491.070007,625.520569 491.971649,623.558899 
	C499.905151,606.298706 506.262054,588.402771 513.228027,570.752563 
	C514.694458,567.036987 515.975769,563.248779 517.403687,559.517456 
	C520.237915,552.111084 520.204102,551.901062 513.429504,547.549133 
	C498.680725,538.074646 483.175507,529.999451 467.138000,522.969971 
	C443.953369,512.807739 420.382172,503.691101 395.764801,497.529602 
	C394.471558,497.205933 393.198181,496.777588 391.889404,496.545166 
	C384.742249,495.275604 383.923950,495.845032 380.754486,502.414764 
	C368.484741,527.847839 354.798645,552.396179 335.297760,573.175049 
	C327.132080,581.875977 317.616241,588.835632 306.893463,594.102844 
	C305.704346,594.686951 304.394989,595.022522 303.153961,595.505615 
	C301.116364,596.298889 299.072998,596.590698 298.076233,594.156738 
	C297.165619,591.933105 298.841736,590.710266 300.564697,589.935669 
	C311.550079,584.997375 320.519135,577.348877 328.859283,568.888550 
	C338.370117,559.240601 346.458923,548.436951 353.576172,536.956604 
	C359.010986,528.190063 363.878113,519.072449 369.045288,510.138489 
	C371.350098,506.153412 371.873932,503.013000 367.648132,499.369171 
	C362.233490,494.700195 360.183502,488.493744 363.570557,481.374756 
	C371.008636,465.741516 378.312317,450.044128 385.798767,434.434265 
	C389.325195,427.081360 396.415192,426.070038 403.264709,426.261169 
	C407.853302,426.389221 409.809326,424.667603 411.588074,420.986786 
	C423.836945,395.640411 434.874329,369.747650 446.364014,344.060883 
	C455.786774,322.994873 467.300354,303.189789 480.619263,284.372589 
	C507.659332,246.169830 534.370422,207.746826 558.016968,167.296509 
	C568.476196,149.404724 575.703796,130.451141 577.616577,109.656105 
	C578.110474,104.286850 576.052307,99.540916 574.366699,94.213364 
	C572.070251,96.771988 571.503296,99.844437 570.195557,102.530518 
	C561.118225,121.175049 548.168701,135.644333 526.864807,139.721802 
	C514.467285,142.094620 502.268097,139.934662 491.129211,133.730453 
	C485.010132,130.322174 480.187592,125.604889 479.257660,118.050903 
	C479.103363,116.797615 478.839539,115.385162 477.059479,114.038582 
	C475.471619,115.963310 473.788086,117.888824 472.229309,119.910545 
	C442.622101,158.310593 414.491638,197.729431 388.610901,238.773315 
	C376.807678,257.491852 363.675934,275.370056 351.242340,293.694244 
	C326.310791,330.437408 307.400391,370.099304 292.843506,412.030182 
	C281.603271,444.407440 270.496826,476.878235 256.311829,508.149445 
	C245.000870,533.084778 232.425552,557.285583 214.318130,578.148376 
	C204.637421,589.302246 193.721542,599.002563 180.638977,606.036377 
	C178.808105,607.020691 176.440414,609.650940 174.592636,606.757324 
	C172.725937,603.834229 175.332748,601.653442 177.562912,600.331177 
	C185.520584,595.613037 192.401520,589.606384 198.909042,583.132751 
	C215.863800,566.266296 228.689362,546.493958 239.466904,525.287964 
	C260.131897,484.627289 274.100708,441.323853 289.517487,398.589752 
	C303.711609,359.244843 322.021545,321.992462 346.043304,287.645142 
	C355.737183,273.784454 360.559113,258.536255 358.622009,241.490433 
	C358.031555,236.294724 356.269104,231.552277 352.985352,227.501465 
	C351.135284,227.929596 351.499817,229.310837 351.238647,230.351227 
	C346.868927,247.756958 336.921082,261.218781 321.199341,269.605286 
	C308.733124,276.255249 295.680115,276.931793 283.601929,267.886536 
	C280.041565,265.220245 278.071686,266.727844 275.762177,269.554535 
	C256.615448,292.988953 239.672318,317.823456 227.082230,345.457062 
	C217.383255,366.745026 204.536438,386.269714 192.551254,406.246277 
	C183.986893,420.521088 177.819168,435.714874 172.288239,451.240601 
	C161.615677,481.199341 149.495209,510.585052 137.793289,540.142029 
	C124.927025,572.639832 110.560532,604.542297 98.887863,637.508667 
	C88.152977,667.826538 81.747597,699.307983 74.323395,730.514893 
	C69.475418,750.892883 64.294319,771.191345 59.348507,791.546387 
	C48.439972,836.441833 39.420074,881.742126 30.250452,927.013306 
	C24.467752,955.563110 17.503195,983.812683 6.089980,1010.751160 
	C4.798316,1013.799866 3.101887,1016.677002 1.296582,1019.816895 
	C1.000000,1014.311951 1.000000,1008.623962 1.000000,1002.467957 
	C5.910095,994.887207 8.125691,986.629333 10.439467,978.524170 
	C19.025349,948.448547 24.531448,917.674194 30.831852,887.075989 
	C37.364384,855.350464 43.751537,823.596558 51.554417,792.134460 
	C61.594749,751.650879 70.714478,710.938721 80.782433,670.462219 
	C87.502159,643.446716 97.566536,617.536255 108.344749,591.869812 
	C120.202377,563.632874 131.031693,534.964783 142.840683,506.706665 
	C154.719299,478.281982 163.873383,448.819672 176.061371,420.539337 
	C181.202621,408.609924 188.122726,397.535278 195.061218,386.554382 
	C207.009262,367.645233 216.850494,347.618805 226.897919,327.687103 
	C237.289810,307.071991 250.476486,288.303101 264.885925,270.298523 
	C278.093292,253.795914 291.577393,237.521240 304.264771,220.583252 
	C318.290039,201.859161 344.010254,202.084259 358.381073,220.413635 
	C363.917603,227.475204 365.817596,235.920074 366.310486,244.701416 
	C366.493805,247.967133 366.340179,251.251755 366.340179,255.111511 
	C369.854065,253.912262 370.921722,251.340851 372.258057,249.243088 
	C390.332764,220.869781 407.887482,192.159027 427.760162,164.966156 
	C450.267914,134.167633 473.356812,103.816612 497.637512,74.392235 
	C515.431458,52.828762 546.489441,51.941513 564.780640,65.674622 
	C576.154785,74.214317 581.868958,86.450401 584.445007,100.481979 
	C586.257019,110.351738 583.627808,119.591698 582.156616,129.615143 
	C585.857178,128.160324 587.316345,125.218872 588.987183,122.552353 
	C599.948853,105.058891 610.046082,87.024948 621.694031,69.962059 
	C630.192444,57.512936 639.127380,45.270523 653.513428,39.060139 
	C685.332703,25.323935 724.586182,40.863102 734.537048,76.748108 
	C739.732178,95.482819 736.205017,113.015472 729.744995,130.406738 
	C720.146545,156.247131 706.868713,180.345154 693.779419,204.497040 
	C672.111023,244.478775 651.766418,285.111450 632.494385,326.299072 
	C608.503052,377.572540 584.469543,428.824310 561.280151,480.468750 
	C558.973328,485.606110 558.663635,489.316406 563.160278,493.609192 
	C569.036255,499.218689 570.711365,506.071899 566.852783,514.031555 
	C560.101379,527.958374 553.698608,542.051697 545.951416,555.474731 
	C542.432007,561.572754 536.862366,564.318054 530.158691,564.064453 
	C524.584656,563.853516 521.296448,565.687073 519.958801,571.182312 
	C519.333374,573.751709 518.182129,576.195923 517.233093,578.683044 
	C515.735168,582.608704 515.279297,586.053223 520.077759,588.264160 
	C525.907532,590.950256 530.901672,590.676453 533.429626,586.547729 
	C540.644531,574.763855 547.684998,562.871155 554.661743,550.943848 
	C575.988403,514.483826 592.700989,475.792542 608.936401,436.929169 
	C621.609314,406.593414 638.063232,378.644745 657.575256,352.275787 
	C670.084961,335.369812 679.904114,316.793823 688.806091,297.733582 
	C707.936218,256.773560 729.526611,217.186554 755.398865,180.040222 
	C761.686462,171.012802 768.416992,162.300659 776.311096,154.587173 
	C791.700928,139.549454 809.984375,133.514648 830.761658,139.840332 
	C851.000671,146.002106 861.664246,161.498398 866.172302,181.494293 
	C870.658020,201.391785 867.862061,220.879959 861.645020,239.943283 
	C853.009521,266.422028 841.281799,291.656128 829.806030,316.972321 
	C811.243103,357.923218 794.107117,399.464508 777.649902,441.299530 
	C766.378418,469.952271 754.467957,498.354919 743.319214,527.054321 
	C726.323608,570.804688 709.546021,614.642273 693.049438,658.583008 
	C682.170959,687.558960 673.324036,717.230347 665.358948,747.117859 
	C653.890686,790.150208 642.986938,833.335510 634.070312,878.592712 
	C639.215698,872.652649 642.703491,867.336548 646.248474,862.059692 
	C662.610596,837.704590 675.674194,811.343567 691.808105,786.880371 
	C697.411743,778.383911 698.659912,769.069885 700.905212,759.761414 
	C707.824036,731.077698 719.540649,704.280640 733.448853,678.393921 
	C744.597595,657.643311 757.210938,637.864563 773.618774,620.778992 
	C785.474121,608.434082 798.517090,597.478882 814.441101,590.832825 
	C828.324036,585.038452 842.938232,582.627869 857.905823,586.028870 
	C879.622131,590.963440 890.890991,606.971802 890.529480,631.083374 
	C890.295837,646.665955 884.133362,660.537720 878.791016,674.661804 
	C871.606750,693.655579 864.224854,712.599121 859.862000,732.484009 
	C855.258484,753.465698 852.788940,774.758362 852.313416,796.242310 
	C851.781311,820.279846 843.866577,841.941833 830.965881,861.839539 
	C804.836670,902.140808 781.161011,943.808533 760.144165,986.990906 
	C754.103760,999.401855 747.190979,1011.390686 742.049500,1024.630371 
	C739.299988,1025.000000 736.599976,1025.000000 733.449951,1025.000000 
M626.911011,319.473206 
	C641.329712,288.913269 655.974854,258.456146 671.753174,228.576935 
	C683.183044,206.932404 694.848755,185.413605 705.767334,163.503311 
	C714.824707,145.328033 723.979248,127.214760 728.293457,107.105576 
	C730.642090,96.157761 729.700439,85.643089 725.780762,75.299660 
	C725.170593,73.689430 724.827332,71.684570 722.719543,71.082657 
	C720.760437,72.059425 720.630249,73.888855 720.143555,75.671051 
	C718.519165,81.619530 716.310974,87.327980 713.286072,92.756180 
	C695.010620,125.551414 662.564636,128.277130 634.968445,116.026962 
	C625.530151,111.837242 621.164185,103.855125 621.757019,93.407234 
	C621.901733,90.856415 622.187744,88.313629 622.488831,84.844398 
	C615.379639,94.462601 610.401367,104.276276 604.453857,113.472610 
	C589.179077,137.091019 573.925049,160.723053 558.564819,184.285843 
	C542.473328,208.970398 526.566162,233.771667 509.323883,257.696442 
	C495.701752,276.598083 482.043060,295.489838 469.838715,315.379395 
	C458.905518,333.197296 451.238525,352.572723 442.565857,371.474457 
	C434.198120,389.711639 425.755951,407.914673 417.255707,426.329346 
	C438.311157,429.212067 458.187744,435.548492 477.576233,443.703735 
	C501.438385,453.740845 524.288513,465.614044 545.686035,480.214111 
	C549.971191,483.138000 551.373352,482.997864 553.938965,478.555420 
	C555.267578,476.254822 556.350647,473.801666 557.415588,471.361084 
	C569.598511,443.441315 582.088623,415.660736 594.977539,388.059052 
	C605.541687,365.435699 616.052795,342.787628 626.911011,319.473206 
M859.228516,612.205200 
	C844.935486,611.135071 833.264160,616.402344 825.013794,627.890015 
	C813.971252,643.265442 808.582642,660.619812 808.035095,679.691345 
	C807.657349,692.846497 813.451477,701.185181 825.184143,706.006165 
	C833.799927,709.546326 842.579590,712.711670 850.554993,717.650208 
	C853.610229,719.542114 855.613586,718.509277 856.549011,715.199951 
	C862.306702,694.831299 870.867493,675.465942 877.854248,655.538208 
	C880.329102,648.479309 881.936279,641.255920 882.965942,633.771973 
	C884.163330,625.068970 879.757629,620.222534 873.372131,616.320007 
	C869.396545,613.890198 864.894287,612.473572 859.228516,612.205200 
M680.861389,41.817024 
	C669.743408,40.611263 659.505859,43.070148 651.127686,50.531910 
	C638.553955,61.730331 632.374207,76.673225 628.933838,92.678680 
	C627.175232,100.860054 631.222107,106.789581 638.922913,110.283897 
	C644.890320,112.991638 651.212341,114.028992 657.650330,115.147179 
	C687.498413,120.331367 709.365234,96.611053 713.497864,72.828918 
	C715.149963,63.321739 712.488220,54.970764 703.665588,49.525185 
	C696.911987,45.356659 689.740112,42.461605 680.861389,41.817024 
M779.694397,168.132156 
	C774.703064,175.684113 770.987671,183.813507 768.796509,192.603165 
	C766.604370,201.396622 769.233582,208.698700 776.491882,212.905884 
	C785.224243,217.967514 794.980225,219.916595 804.815491,218.975281 
	C823.663330,217.171402 837.169922,206.892746 845.981323,190.344299 
	C859.295654,165.339035 842.465027,149.636490 824.577148,146.113129 
	C805.577576,142.370773 790.924194,149.368210 779.694397,168.132156 
M544.843201,124.338982 
	C554.536804,116.992790 561.374329,107.598854 565.381165,96.089622 
	C569.338989,84.721313 565.382019,74.759499 554.596436,69.387733 
	C536.585083,60.417191 516.201599,65.165794 504.493011,81.619591 
	C498.716278,89.737495 493.619598,98.370605 488.638977,107.014755 
	C483.875061,115.282791 486.142639,123.301765 494.879089,127.586037 
	C511.722260,135.845795 528.428711,136.479889 544.843201,124.338982 
M299.884766,267.660370 
	C304.351257,267.633087 308.741608,267.816254 313.168213,266.320099 
	C325.255524,262.234619 332.950867,253.289673 339.686401,243.210831 
	C342.582764,238.876740 344.380707,234.058853 344.710602,228.791565 
	C345.314636,219.147949 340.520386,213.989243 330.824127,214.359711 
	C322.105164,214.692856 315.353363,219.160965 310.242584,225.911865 
	C303.226532,235.179504 296.776398,244.880188 289.645905,254.055038 
	C284.602203,260.544769 285.544830,264.420776 293.618652,266.613647 
	C295.374481,267.090515 297.203644,267.297272 299.884766,267.660370 
z"/>
<path fill="#000000" opacity="1.000000" stroke="none" 
	d="
M255.622971,870.730103 
	C271.793915,838.564087 287.720947,806.691406 303.850739,774.921692 
	C318.857147,745.364624 330.503967,714.292236 344.891602,684.467041 
	C352.996002,667.666870 362.152954,651.409851 371.803833,635.437256 
	C374.557678,630.879517 376.950226,626.104553 379.656006,621.516174 
	C380.763794,619.637634 381.845123,616.638184 384.801178,618.477539 
	C387.505646,620.160339 385.865723,622.779297 384.795563,624.706116 
	C379.381287,634.454834 373.942169,644.194946 368.256317,653.786621 
	C354.725098,676.612915 343.546143,700.593689 333.431732,725.064453 
	C318.150818,762.035034 299.799927,797.507446 281.561737,833.047913 
	C270.388000,854.822021 259.624146,876.808350 248.295624,898.500610 
	C236.504440,921.078857 224.336929,943.458313 213.917145,966.726135 
	C213.135818,968.470886 212.252930,970.950256 209.639786,969.637756 
	C206.918839,968.271118 208.268326,966.055786 209.133957,964.023132 
	C218.999985,940.856018 231.352371,918.930847 242.774155,896.540466 
	C247.084732,888.090271 251.240921,879.561279 255.622971,870.730103 
z"/>
<path fill="#000000" opacity="1.000000" stroke="none" 
	d="
M489.558167,801.558716 
	C500.422363,790.969971 510.404144,780.089539 519.025146,767.988037 
	C527.544067,756.029907 532.642029,742.096741 540.142456,729.238342 
	C543.727600,731.894287 543.208435,734.060547 542.228882,736.581665 
	C530.117432,767.753540 509.595337,792.691650 484.727783,814.431091 
	C480.473633,818.150146 476.340515,822.017273 471.945190,825.560120 
	C470.360107,826.837769 468.247925,829.622620 466.073212,826.772095 
	C464.186493,824.299072 466.599976,822.391785 468.359344,821.008362 
	C475.831787,815.132935 482.488251,808.385071 489.558167,801.558716 
z"/>
<path fill="#000000" opacity="1.000000" stroke="none" 
	d="
M216.066864,684.885376 
	C212.562592,694.160156 211.136688,703.527832 209.162994,712.773010 
	C208.634796,715.247131 209.185242,719.820129 205.534851,719.342773 
	C201.295486,718.788269 203.256546,714.691406 203.674683,711.907898 
	C207.116837,688.993958 214.129425,667.299561 226.130600,647.380798 
	C229.216202,642.259583 232.767990,637.415833 236.182663,632.498047 
	C237.334183,630.839722 238.940292,628.888916 241.056488,630.226868 
	C243.529633,631.790527 242.124054,634.027161 240.863449,635.825562 
	C234.650040,644.689941 229.018860,653.884155 224.210861,663.604980 
	C220.878632,670.342102 218.330612,677.335693 216.066864,684.885376 
z"/>
<path fill="#000000" opacity="1.000000" stroke="none" 
	d="
M683.202026,462.663239 
	C687.875977,463.737335 692.180664,463.910370 696.516296,463.767120 
	C698.545837,463.700012 701.111145,463.623871 701.352112,466.098969 
	C701.628235,468.936279 698.889893,469.181824 696.769287,469.422028 
	C687.536621,470.467926 678.602051,468.745331 669.773254,466.298920 
	C658.495239,463.173859 647.649292,459.133392 638.771667,451.096436 
	C638.402039,450.761749 637.927490,450.507080 637.651672,450.110779 
	C636.306458,448.178528 633.043945,446.260223 634.978821,443.901184 
	C637.268555,441.109589 639.336548,444.521942 641.161194,445.778198 
	C653.795227,454.476776 667.522766,460.401520 683.202026,462.663239 
z"/>
<path fill="#000000" opacity="1.000000" stroke="none" 
	d="
M687.412598,403.553223 
	C681.391724,401.420654 675.524170,400.317749 669.632629,399.300568 
	C668.335083,399.076538 667.050903,398.709717 665.801575,398.287445 
	C664.142212,397.726562 662.610718,396.829620 663.005798,394.766296 
	C663.424072,392.581451 665.361328,392.569641 666.990845,392.753326 
	C687.247864,395.037048 705.144897,402.706665 720.042786,416.734863 
	C721.932312,418.514069 725.384766,421.714722 723.143860,424.156067 
	C720.328430,427.223236 717.908081,423.135315 715.962158,421.309052 
	C707.707336,413.562164 698.020386,408.201782 687.412598,403.553223 
z"/>
<path fill="#000000" opacity="1.000000" stroke="none" 
	d="
M382.469330,374.829651 
	C366.394012,378.320648 350.702637,376.943665 335.045441,374.744446 
	C332.653625,374.408508 330.350922,373.145203 328.120544,372.074371 
	C326.977539,371.525635 325.667114,370.562836 326.197571,368.973145 
	C326.787323,367.205902 328.290955,367.185577 329.909241,367.463654 
	C334.646423,368.277649 339.387482,369.081970 344.145996,369.756287 
	C356.073853,371.446594 367.978088,371.138336 379.849548,369.149780 
	C381.683868,368.842499 383.529083,368.518860 384.610626,370.660339 
	C385.656311,372.730835 384.306580,373.708191 382.469330,374.829651 
z"/>
<path fill="#000000" opacity="1.000000" stroke="none" 
	d="
M670.656738,432.454712 
	C663.529175,429.911102 657.397095,426.200409 651.078674,422.882782 
	C649.005798,421.794434 647.293457,420.197510 647.676514,417.423706 
	C649.758667,416.275330 651.625000,416.339478 653.471436,417.445190 
	C666.865540,425.465759 681.579956,430.102631 696.484619,434.260284 
	C697.762390,434.616669 698.973999,435.212036 700.252991,435.562531 
	C702.048645,436.054535 703.467651,436.934113 702.987976,438.994965 
	C702.436646,441.363495 700.521912,441.334534 698.593201,440.955170 
	C689.120911,439.091888 679.965820,436.183655 670.656738,432.454712 
z"/>
<path fill="#000000" opacity="1.000000" stroke="none" 
	d="
M747.060974,268.692932 
	C759.080872,271.819031 770.248169,275.915588 780.101379,282.991913 
	C781.488586,283.988190 783.899963,284.787506 782.771973,287.069427 
	C781.546265,289.549225 779.358276,288.344696 777.553345,287.539459 
	C772.262573,285.179138 767.185791,282.397278 761.802795,280.180664 
	C753.321899,276.688416 744.629883,274.124939 735.657227,272.393127 
	C734.683350,272.205139 733.639221,272.177338 732.750671,271.791840 
	C730.705811,270.904724 727.644409,270.352112 728.421265,267.354156 
	C729.151184,264.537384 732.092102,265.564636 734.025452,265.880280 
	C738.269775,266.573303 742.443237,267.700623 747.060974,268.692932 
z"/>
<path fill="#000000" opacity="1.000000" stroke="none" 
	d="
M786.774658,794.239624 
	C785.194946,792.608276 784.802063,791.048706 786.203125,789.575867 
	C787.495605,788.217163 789.100037,788.877625 790.348755,789.646423 
	C804.213318,798.181824 818.815979,805.772827 828.961365,819.162292 
	C830.181274,820.772400 832.631714,822.589172 830.202393,824.652283 
	C828.081360,826.453613 825.923767,824.561279 824.588867,822.993774 
	C814.149902,810.735291 800.589539,802.632751 786.774658,794.239624 
z"/>
<path fill="#000000" opacity="1.000000" stroke="none" 
	d="
M806.699768,860.368347 
	C796.490356,852.106750 786.567688,844.061768 777.356750,835.188599 
	C775.060486,832.976501 772.739929,830.781921 775.770935,827.077148 
	C779.056335,829.402588 782.529053,831.154053 785.079773,833.795715 
	C793.418396,842.432007 803.545593,848.911072 812.339966,856.975708 
	C814.010071,858.507202 816.839722,859.779358 814.966431,862.470764 
	C812.871765,865.480103 810.612732,863.031921 808.575806,861.784546 
	C808.013184,861.440125 807.522339,860.978577 806.699768,860.368347 
z"/>
<path fill="#000000" opacity="1.000000" stroke="none" 
	d="
M401.797668,328.039642 
	C400.507324,331.545654 398.167023,330.933807 396.046600,329.692535 
	C383.313873,322.238953 369.414551,319.706055 354.891724,319.699646 
	C352.991241,319.698822 351.600830,318.910187 351.152832,317.060516 
	C350.599701,314.776733 352.464325,314.135315 354.030121,313.749481 
	C359.861206,312.312653 365.609344,313.988495 371.277710,314.843719 
	C380.322052,316.208252 389.206970,318.485809 397.164307,323.350769 
	C398.997406,324.471466 401.036804,325.391968 401.797668,328.039642 
z"/>
<path fill="#000000" opacity="1.000000" stroke="none" 
	d="
M380.821381,353.230621 
	C366.142426,353.488312 352.112457,352.277008 338.410614,348.260895 
	C336.520599,347.706909 333.855499,347.557739 334.350769,344.942993 
	C334.894714,342.071289 337.543884,342.670258 339.698547,343.100128 
	C353.418823,345.837524 367.374756,346.422668 381.253540,347.731812 
	C383.617157,347.954742 387.627167,346.179260 387.818726,349.995575 
	C388.022156,354.047821 383.917755,352.913116 380.821381,353.230621 
z"/>
<path fill="#000000" opacity="1.000000" stroke="none" 
	d="
M451.757141,182.985382 
	C461.435730,184.514618 470.094910,187.921432 478.739380,191.332382 
	C480.777863,192.136734 483.923767,192.878799 482.848389,195.915497 
	C481.669769,199.243835 478.922943,197.796356 476.539490,196.889908 
	C465.982971,192.875137 455.127563,189.854645 444.115814,187.390167 
	C442.187164,186.958511 439.490631,187.015686 439.769073,184.417007 
	C440.054077,181.756744 442.791809,181.665100 444.966400,181.825821 
	C447.107147,181.984039 449.220825,182.507858 451.757141,182.985382 
z"/>
<path fill="#000000" opacity="1.000000" stroke="none" 
	d="
M203.801666,412.582367 
	C201.555603,413.380615 199.939743,413.115601 199.539108,410.989075 
	C199.024246,408.256256 201.474564,407.594849 203.221054,407.129242 
	C210.699066,405.135620 218.342651,405.171661 225.928909,406.310272 
	C229.339264,406.822083 232.665848,408.024414 235.961029,409.121826 
	C237.946686,409.783142 239.767181,411.127136 238.902313,413.533295 
	C238.107620,415.744293 235.940948,415.327515 234.164581,414.898499 
	C229.820114,413.849213 225.573181,412.528992 221.058853,412.080719 
	C215.389420,411.517761 209.810440,411.982269 203.801666,412.582367 
z"/>
<path fill="#000000" opacity="1.000000" stroke="none" 
	d="
M201.945923,426.684937 
	C208.903336,425.370392 215.452225,424.187744 222.147217,424.663910 
	C223.956543,424.792603 226.821671,423.954742 226.846634,426.876465 
	C226.868652,429.456207 224.343674,430.005249 222.101196,430.296753 
	C214.364777,431.302673 206.623291,432.276154 198.902435,433.391449 
	C196.446350,433.746246 194.056885,434.543396 191.621567,435.066681 
	C189.665070,435.487030 187.808716,435.266479 187.194199,433.015747 
	C186.591949,430.809967 188.345444,430.295013 189.955032,429.650116 
	C193.686401,428.155060 197.603577,427.453918 201.945923,426.684937 
z"/>
<path fill="#000000" opacity="1.000000" stroke="none" 
	d="
M258.679382,325.235779 
	C255.729385,325.133209 253.234268,324.957245 250.746704,325.032227 
	C248.586426,325.097321 246.318192,324.958862 246.217621,322.399841 
	C246.117004,319.839478 248.203918,318.784882 250.635376,318.690308 
	C258.017944,318.403137 265.151947,319.933960 272.217804,321.798676 
	C274.615112,322.431366 276.954712,323.356476 279.229431,324.355743 
	C280.925262,325.100677 282.755432,326.223358 281.691223,328.480316 
	C280.757782,330.459839 278.764954,330.570435 276.912872,329.878937 
	C271.142822,327.724518 265.306610,325.867859 258.679382,325.235779 
z"/>
<path fill="#000000" opacity="1.000000" stroke="none" 
	d="
M543.486084,363.771362 
	C542.319092,366.025818 540.571350,366.247803 538.657471,366.329224 
	C518.588745,367.183136 500.133698,362.221436 483.436676,350.995758 
	C480.822144,349.238007 478.274475,347.309326 476.669800,344.467163 
	C476.174988,343.590759 475.689026,342.597534 476.400940,341.670227 
	C477.243896,340.572266 478.455017,340.627869 479.562164,341.204651 
	C480.885956,341.894318 482.196716,342.644348 483.401733,343.521271 
	C497.972229,354.124725 514.383118,359.138031 532.271973,359.802460 
	C535.247437,359.912964 538.208252,360.425079 541.174988,360.758667 
	C542.738098,360.934387 543.533020,361.836212 543.486084,363.771362 
z"/>
<path fill="#000000" opacity="1.000000" stroke="none" 
	d="
M527.616333,301.181274 
	C541.293701,304.999023 553.336182,311.116516 564.032471,319.840424 
	C564.925659,320.568939 565.737610,321.425354 566.463318,322.322601 
	C567.123596,323.139008 567.369385,324.173401 566.687439,325.088135 
	C565.859680,326.198486 564.739929,326.234131 563.595337,325.545044 
	C561.746704,324.431976 559.876038,323.350616 558.075073,322.164246 
	C542.734741,312.058655 525.995911,305.720367 507.782440,303.190552 
	C505.025482,302.807678 500.611664,302.884033 501.096954,299.010193 
	C501.540833,295.466583 505.752869,296.476379 508.306519,296.918945 
	C514.662598,298.020447 520.930481,299.631012 527.616333,301.181274 
z"/>
<path fill="#000000" opacity="1.000000" stroke="none" 
	d="
M536.033936,340.234436 
	C520.862488,335.579193 506.580444,329.685028 492.192108,324.078278 
	C491.418427,323.776764 490.639740,323.470215 489.908783,323.080780 
	C488.344696,322.247437 486.960602,321.029602 487.659027,319.157410 
	C488.452026,317.031677 490.472137,317.673523 491.962402,318.187744 
	C498.864594,320.569580 505.728699,323.063995 512.583740,325.579865 
	C521.146667,328.722565 529.539062,332.323578 538.339783,334.829132 
	C540.548950,335.458069 544.275818,335.946259 543.556519,338.949341 
	C542.575989,343.043457 539.027588,340.700195 536.033936,340.234436 
z"/>
<path fill="#000000" opacity="1.000000" stroke="none" 
	d="
M632.861694,171.918823 
	C636.258850,173.404327 639.328064,174.674362 642.298401,176.144211 
	C643.488281,176.733017 644.593933,177.818420 643.815552,179.358810 
	C643.142334,180.691071 641.848694,181.052399 640.401001,180.626114 
	C637.543152,179.784668 634.578552,179.190994 631.852661,178.035782 
	C619.585205,172.836899 606.501892,171.854294 593.511414,170.362991 
	C591.559692,170.138916 588.998596,170.507538 589.012329,167.703949 
	C589.027893,164.537308 591.764954,164.255692 594.122681,164.366760 
	C607.263794,164.985779 620.113770,167.190704 632.861694,171.918823 
z"/>
</svg>