<svg width="35" height="34" viewBox="0 0 35 34" fill="none" xmlns="http://www.w3.org/2000/svg">
<path d="M18.082 0C27.4253 0.000125814 35 7.57823 35 16.9258C34.9998 26.2732 27.4252 33.8505 18.082 33.8506C8.73876 33.8506 1.16428 26.2732 1.16406 16.9258C1.16406 7.57815 8.73862 0 18.082 0ZM15.7227 3.73535C8.828 3.73535 3.2385 9.32695 3.23828 16.2246C3.23828 23.1225 8.82787 28.7148 15.7227 28.7148C22.6173 28.7147 28.2061 23.1224 28.2061 16.2246C28.2058 9.32703 22.6172 3.73549 15.7227 3.73535Z" fill="#00A452"/>
<path d="M15.5479 0.786133C24.1343 0.786326 31.0946 7.75058 31.0947 16.3408C31.0947 24.9312 24.1343 31.8953 15.5479 31.8955C6.96121 31.8955 0 24.9313 0 16.3408C9.94281e-05 7.75046 6.96127 0.786133 15.5479 0.786133ZM15.7227 3.73535C8.828 3.73535 3.2385 9.32695 3.23828 16.2246C3.23828 23.1225 8.82787 28.7148 15.7227 28.7148C22.6173 28.7147 28.2061 23.1224 28.2061 16.2246C28.2058 9.32703 22.6172 3.73549 15.7227 3.73535Z" fill="#13120A"/>
</svg>
