<svg width="72" height="69" viewBox="0 0 72 69" fill="none" xmlns="http://www.w3.org/2000/svg">
<path d="M36.6963 0C55.6576 0.000152628 71.0283 15.3787 71.0283 34.3486C71.0281 53.3184 55.6575 68.6961 36.6963 68.6963C17.735 68.6963 2.36349 53.3185 2.36328 34.3486C2.36328 15.3786 17.7348 0 36.6963 0ZM32.9092 7.58008C18.917 7.5802 7.57422 18.9284 7.57422 32.9268C7.57437 46.925 18.9171 58.2723 32.9092 58.2725C46.9013 58.2725 58.244 46.9251 58.2441 32.9268C58.2441 18.9283 46.9014 7.58008 32.9092 7.58008Z" fill="#AAD7EB"/>
<path d="M31.5518 1.59668C48.9774 1.59668 63.1035 15.7297 63.1035 33.1631C63.1033 50.5963 48.9773 64.7285 31.5518 64.7285C14.1263 64.7284 0.000248327 50.5962 0 33.1631C0 15.7298 14.1262 1.59679 31.5518 1.59668ZM32.9092 7.58008C18.917 7.5802 7.57422 18.9284 7.57422 32.9268C7.57437 46.925 18.9171 58.2723 32.9092 58.2725C46.9013 58.2725 58.244 46.9251 58.2441 32.9268C58.2441 18.9283 46.9014 7.58008 32.9092 7.58008Z" fill="#13120A"/>
</svg>
