<svg version="1.1" id="Layer_1" xmlns="http://www.w3.org/2000/svg" xmlns:xlink="http://www.w3.org/1999/xlink" x="0px" y="0px"
	 width="100%" viewBox="0 0 1024 672" enable-background="new 0 0 1024 672" xml:space="preserve">
<path fill="#000000" opacity="1.000000" stroke="none" 
	d="
M556.460510,378.506561 
	C558.905334,369.115448 561.503784,360.171021 563.527039,351.098328 
	C564.930725,344.804291 566.313538,338.338745 566.355347,331.940979 
	C566.457214,316.318542 568.342407,300.733032 566.940857,285.067505 
	C566.129272,275.996033 566.169006,266.843719 564.809265,257.809906 
	C564.217163,253.876221 563.280579,249.993027 562.732971,246.054581 
	C562.458252,244.078995 562.532043,241.899689 564.991943,241.079193 
	C567.320618,240.302460 568.852173,241.703964 570.039124,243.383240 
	C571.859558,245.958984 573.570190,248.617844 575.223267,251.305496 
	C589.453979,274.442017 610.060791,285.620850 637.269043,284.477448 
	C638.429260,284.428711 639.598328,284.585266 640.758057,284.532440 
	C648.329590,284.188019 654.411804,283.113953 659.129700,274.980042 
	C665.195374,264.522552 675.607361,258.288422 688.510193,258.002380 
	C695.765564,257.841522 695.991028,257.833832 695.553284,250.442001 
	C695.328979,246.654266 696.991150,244.803848 699.906372,242.886719 
	C706.740173,238.392654 714.568604,237.378647 722.257141,236.423798 
	C740.809814,234.119690 759.400391,233.772736 777.800537,237.985641 
	C783.065979,239.191223 788.882385,245.808609 789.073303,251.192474 
	C789.645447,267.329437 789.382019,283.438751 787.734558,299.542664 
	C787.173584,305.025421 786.016174,310.342804 785.160950,315.739929 
	C783.099731,328.747803 771.654907,340.086121 757.898254,340.429657 
	C746.804382,340.706757 735.796143,342.686310 724.741089,339.351807 
	C717.328491,337.116058 711.280396,333.569885 707.828430,326.506744 
	C706.557922,323.907043 705.083191,323.395721 702.293518,323.908813 
	C697.282104,324.830566 692.271484,324.510101 688.157471,320.908600 
	C683.284546,316.642792 682.715027,311.302155 684.854614,305.504242 
	C682.906433,304.129211 681.042603,303.023193 679.426392,301.629913 
	C675.915466,298.603333 674.094055,294.883759 675.287048,290.108917 
	C676.562988,285.001831 679.319946,281.327576 684.824158,280.495056 
	C687.614929,280.072968 690.445862,279.865662 693.266846,279.709106 
	C695.853699,279.565521 696.668701,278.163239 696.654480,275.781494 
	C696.604187,267.379303 693.698181,264.782806 685.597534,266.753662 
	C677.028687,268.838379 670.538513,273.477509 664.811951,280.753662 
	C658.320251,289.001862 657.509888,297.009949 659.022705,306.669556 
	C659.991394,312.855255 660.452515,319.191437 661.321594,325.442017 
	C661.863586,329.340027 664.099548,331.248260 667.932129,331.656891 
	C672.137512,332.105255 676.228760,332.172333 680.067322,329.947296 
	C682.118591,328.758179 684.570801,327.874817 686.772156,328.375671 
	C692.376648,329.650787 697.755127,330.545197 703.257568,327.801086 
	C704.942688,326.960724 706.919983,328.021057 707.837952,329.899963 
	C708.823242,331.916382 707.835754,333.490051 706.215393,334.626282 
	C701.287598,338.081757 696.182068,340.785431 690.062866,337.445099 
	C688.515137,336.600220 686.962830,336.132843 685.349670,337.153473 
	C680.455261,340.250214 675.001160,340.586761 669.457520,340.344055 
	C666.766052,340.226166 664.611633,340.755890 663.149292,343.333344 
	C662.331665,344.774414 660.826050,345.706665 659.226074,346.300751 
	C640.415894,353.285156 621.437988,358.675262 600.892090,357.079895 
	C593.436829,356.501007 586.546326,354.936005 579.625305,352.571716 
	C574.126892,350.693359 572.500977,351.615356 571.320496,357.364868 
	C568.773682,369.769348 565.390930,381.941071 560.341553,393.541321 
	C555.515625,404.628204 550.812195,415.816467 544.175781,426.017181 
	C541.734497,429.769653 541.717957,432.812958 545.649719,435.899109 
	C562.537292,449.154724 577.141785,464.761932 588.701904,482.736389 
	C600.189148,500.597534 611.099915,518.956970 617.796265,539.370178 
	C621.417175,550.408142 623.012573,551.173157 632.993591,545.280457 
	C643.102112,539.312439 653.811646,534.904297 665.032104,531.589355 
	C670.128784,530.083557 675.304932,530.353333 680.392700,530.996033 
	C688.574890,532.029541 692.016663,538.682007 689.069885,546.385315 
	C684.620239,558.017639 675.993042,566.276367 667.132629,574.418030 
	C657.816040,582.978882 648.104858,591.082336 638.023132,598.698853 
	C631.526245,603.607178 624.823303,608.453674 617.609619,612.151184 
	C607.733521,617.213318 598.273621,623.299072 587.445862,626.357361 
	C583.449524,627.486023 579.381226,628.385925 575.186279,628.287048 
	C569.721130,628.158203 565.127991,626.230469 561.968628,621.558960 
	C547.325500,599.907349 531.434143,579.160278 515.902710,558.155396 
	C508.371735,547.970459 499.250641,539.176880 490.355713,530.183044 
	C479.167419,518.870300 466.013763,510.039520 453.576569,500.309998 
	C448.632996,496.442657 443.143768,493.272827 437.344086,489.413605 
	C433.332092,496.681335 429.525574,503.627228 424.605499,509.858002 
	C415.139954,521.845154 403.804230,531.799377 391.627502,540.909546 
	C384.698303,546.093689 377.868164,551.386475 370.319641,555.679810 
	C353.932617,565.000122 336.472229,571.727661 318.516388,577.265137 
	C314.869995,578.389709 311.169189,579.339355 307.486450,580.343933 
	C304.914581,581.045471 301.415558,580.278381 300.557648,583.865540 
	C299.850983,586.820496 303.970093,591.701233 307.472900,592.599609 
	C315.204224,594.582336 322.938110,596.597473 330.283081,599.761902 
	C335.351410,601.945618 339.852020,605.116943 343.368866,609.401001 
	C348.898682,616.137268 347.894012,620.281860 340.883026,625.426880 
	C335.646484,629.269775 329.674805,629.716492 323.833069,630.062134 
	C313.589386,630.668213 303.267914,631.526672 293.055542,629.220337 
	C282.706024,626.883057 274.014832,622.106812 266.711548,614.125366 
	C254.125427,600.370605 241.309448,586.850403 231.508743,570.863220 
	C225.926117,561.756592 222.569473,552.075989 226.970734,541.544128 
	C230.534424,533.016479 238.228653,528.324707 246.014801,524.648682 
	C281.755341,507.775024 309.267670,482.281830 328.545990,447.792145 
	C334.093079,437.868195 339.693970,428.069305 339.841919,416.206635 
	C339.874237,413.615387 341.637024,411.688843 344.462982,412.132874 
	C347.402740,412.594757 348.466736,414.787018 348.168427,417.690277 
	C346.527710,433.656036 339.770050,447.553986 331.191711,460.832764 
	C324.120514,471.778473 316.520294,482.293915 307.324402,491.518127 
	C295.195953,503.684021 282.187897,514.827698 267.292664,523.568115 
	C260.693909,527.440186 260.609894,527.448730 264.645966,534.109680 
	C272.590363,547.220886 281.578033,559.566345 291.749969,571.058899 
	C294.564880,574.239197 297.879059,574.054688 301.354706,573.249695 
	C316.777161,569.677917 331.668701,564.405518 346.148956,558.128296 
	C367.886627,548.704956 386.925476,535.065002 404.335846,519.120911 
	C413.590546,510.645691 420.839447,500.480255 427.836121,490.153290 
	C430.504639,486.214539 429.189789,482.793610 424.112854,479.631012 
	C419.310303,476.639282 414.458252,473.725555 409.690613,470.679504 
	C400.277130,464.665070 391.989685,457.191315 383.650818,449.856476 
	C373.537872,440.961121 364.229736,431.216248 355.591675,420.843384 
	C350.579437,414.824554 346.151428,408.467255 343.084747,401.246552 
	C342.020416,398.740509 341.157135,395.745850 344.393341,394.282532 
	C347.268951,392.982208 348.428375,395.628296 349.547943,397.677582 
	C359.200226,415.345428 373.705048,428.721619 388.309418,442.106812 
	C396.184113,449.324158 404.138824,456.321014 413.042633,462.256378 
	C424.225464,469.710938 435.272980,477.369720 446.337219,485.000793 
	C459.315247,493.951874 472.428619,502.601685 484.524384,512.905579 
	C494.957184,521.792786 504.717041,531.207703 513.683838,541.416565 
	C527.186157,556.789246 539.094482,573.448547 550.781128,590.229309 
	C553.330139,593.889465 555.205505,594.259216 558.638184,591.405090 
	C574.416199,578.286072 591.595154,567.158875 609.279236,556.831848 
	C613.213867,554.534180 613.776672,551.787598 612.263855,548.177307 
	C608.663086,539.584351 605.225830,530.897827 601.112305,522.549744 
	C592.053711,504.165833 581.901917,486.401917 568.560303,470.702576 
	C558.639954,459.029114 547.599609,448.578735 535.273682,439.355774 
	C528.461609,434.258575 521.752014,429.117584 514.139343,425.351471 
	C506.285797,421.466248 498.576965,417.186737 489.904785,415.184967 
	C486.589111,414.419617 485.133392,412.311951 486.423431,408.850006 
	C487.764832,405.250275 490.203094,405.275726 493.263306,406.577118 
	C506.105927,412.038635 518.962952,417.456055 530.817078,424.941254 
	C534.576111,427.314819 536.357910,424.685272 537.772827,421.868073 
	C544.788147,407.900818 552.114014,394.062256 556.460510,378.506561 
M714.854370,320.550659 
	C716.684021,325.924011 720.583008,328.777954 725.940430,330.297119 
	C735.582153,333.031067 745.274231,332.466309 755.093567,331.746704 
	C768.028931,330.798737 775.700012,324.344604 777.679077,311.502167 
	C779.088257,302.357574 779.357788,293.087585 780.224243,283.890106 
	C781.126953,274.307434 779.957031,264.750305 781.576904,254.388657 
	C755.829224,264.969299 730.393188,264.153381 703.895142,256.995636 
	C706.333862,279.042938 708.834900,299.696869 714.854370,320.550659 
M630.072388,346.577057 
	C636.188232,345.035736 642.321899,343.561096 648.415527,341.936401 
	C656.193604,339.862579 656.587158,339.040344 653.862488,331.792542 
	C653.512512,330.861755 653.134888,329.914520 652.979675,328.941467 
	C651.411072,319.106842 650.107605,309.229309 649.737671,299.276611 
	C649.566956,294.683502 647.544800,292.479736 643.096863,292.438232 
	C637.472351,292.385712 631.862915,291.945129 626.266113,291.698792 
	C610.687256,291.013092 597.145203,285.986511 585.542664,275.605194 
	C582.395752,272.789490 579.148499,270.085999 576.081909,267.446869 
	C574.190186,268.721588 574.486572,270.037323 574.576294,271.386017 
	C575.169189,280.289764 576.128845,289.195801 576.159180,298.103851 
	C576.203369,311.055237 575.632446,324.011444 575.169495,336.960052 
	C575.051392,340.264130 576.167969,341.989746 579.346558,343.275696 
	C595.641663,349.867920 612.325073,349.720093 630.072388,346.577057 
M676.863281,550.365173 
	C678.074829,547.282837 682.505920,544.551208 679.874939,541.112122 
	C677.152832,537.554016 672.534058,539.376465 668.647034,539.877380 
	C668.484375,539.898376 668.330872,539.982666 668.169373,540.022095 
	C647.692627,545.012573 629.904724,556.186707 611.470093,565.590332 
	C596.715149,573.116943 583.174622,583.076782 569.310669,592.281311 
	C558.097473,599.725952 558.179810,600.184937 565.488159,611.341736 
	C566.299988,612.581116 567.538330,613.551208 568.291382,614.817261 
	C571.816223,620.742859 577.254517,620.337341 582.828857,619.231934 
	C584.764465,618.848083 586.633667,618.022827 588.466370,617.242310 
	C606.961609,609.365417 623.891724,598.792114 639.724426,586.539001 
	C653.254028,576.068237 666.638184,565.325195 676.863281,550.365173 
M232.799988,553.059448 
	C233.352768,555.984558 234.100464,558.699280 235.750732,561.381592 
	C247.330353,580.202637 261.498474,596.826355 277.575134,611.909790 
	C280.302094,614.468262 283.438263,616.077576 286.767426,617.681824 
	C296.655792,622.446777 307.179871,621.840027 317.625153,621.819458 
	C322.090424,621.810669 326.561157,621.148132 331.016266,620.662292 
	C333.703674,620.369263 335.825928,618.957153 336.503143,616.281433 
	C337.131042,613.800293 334.807037,612.895325 333.277100,611.748291 
	C330.052185,609.330505 326.416077,607.739441 322.561859,606.536743 
	C309.603882,602.493347 295.237000,600.450256 290.428040,584.497131 
	C290.338104,584.198669 290.036469,583.964844 289.836456,583.698669 
	C278.164734,568.164551 265.730011,553.161438 256.629272,535.839172 
	C255.863708,534.382019 254.875320,532.981201 252.920074,532.887573 
	C244.302582,532.475159 233.240433,543.029297 232.799988,553.059448 
M750.486877,242.541016 
	C742.045349,243.156586 733.599182,243.716583 725.163818,244.407333 
	C719.590759,244.863708 714.176514,246.055069 708.816772,248.209869 
	C716.255676,257.269196 767.005005,256.279144 775.073181,247.226883 
	C773.916626,245.083527 771.902588,244.587250 769.686951,244.377335 
	C763.575989,243.798355 757.468933,243.178650 750.486877,242.541016 
M686.755920,288.947662 
	C684.720032,290.942993 682.202881,292.876740 685.156860,295.952271 
	C686.924927,297.793152 697.029297,298.529968 699.055542,297.082153 
	C700.306152,296.188568 700.386658,294.968903 700.252930,293.546753 
	C699.666504,287.311340 695.193665,285.543915 686.755920,288.947662 
M694.578796,306.955902 
	C692.389954,309.560486 690.652771,312.476501 694.281677,314.948944 
	C696.629211,316.548340 699.953369,316.678162 702.344177,315.119568 
	C704.855347,313.482483 703.566833,310.626495 702.874634,308.289673 
	C701.378296,303.238495 697.998413,306.074280 694.578796,306.955902 
z"/>
<path fill="#000000" opacity="1.000000" stroke="none" 
	d="
M382.062653,186.865326 
	C397.620514,180.626740 413.533905,177.280106 429.668640,175.160156 
	C439.875946,173.819016 450.217102,173.478348 460.527924,174.720901 
	C463.631378,175.094894 465.118958,177.040100 465.782990,180.020966 
	C469.448303,179.071671 471.436615,180.754776 473.461945,183.434372 
	C491.440002,207.219650 515.989258,218.266159 545.225891,217.427887 
	C566.157776,216.827728 584.801025,208.924072 598.767639,192.401978 
	C603.171204,187.192673 606.712280,181.319626 609.358398,174.995056 
	C610.239014,172.890366 611.001709,170.637573 610.314453,167.639526 
	C603.709595,167.949127 597.139160,168.175430 590.581726,168.601562 
	C587.632324,168.793228 584.340210,169.254898 583.963623,165.387878 
	C583.601135,161.665817 586.942749,161.263550 589.784302,160.611130 
	C595.553101,159.286636 601.390747,159.774094 607.208252,159.661362 
	C613.786377,159.533859 619.311401,157.095795 618.427551,154.522217 
	C616.836487,149.889618 612.407898,147.891144 607.954041,147.258835 
	C600.540039,146.206299 593.514221,144.458618 587.925537,139.226517 
	C583.654663,135.228088 581.770264,130.212128 583.154541,124.319473 
	C583.543030,122.665985 584.363464,121.172462 586.289551,120.806564 
	C588.189575,120.445618 589.471619,121.432335 590.514893,122.853638 
	C592.217834,125.173416 593.111511,127.758202 593.690857,130.607086 
	C594.814331,136.131302 605.278992,140.891388 610.289673,138.369293 
	C612.246582,137.384293 612.564026,135.625351 612.332397,133.694260 
	C609.871582,113.174301 603.874084,94.343941 587.173523,80.533211 
	C585.402161,79.068352 582.413635,77.316162 584.763489,74.504295 
	C586.732056,72.148605 589.338318,73.395836 591.476135,74.984116 
	C607.264404,86.714050 615.750977,102.867371 619.179260,121.817696 
	C620.295837,127.989967 621.688049,134.214386 621.506226,140.577728 
	C621.454529,142.384079 622.719666,143.112732 623.827393,144.137451 
	C630.076660,149.918304 630.270752,157.467468 624.283020,163.271057 
	C622.777405,164.730331 621.963440,166.395035 621.312683,168.339340 
	C616.867065,181.621552 610.325989,193.748642 600.190063,203.545029 
	C590.350281,213.055237 578.727051,219.114624 565.288269,222.731415 
	C550.352112,226.751190 535.848450,226.908951 521.007935,223.371170 
	C501.707397,218.770172 485.080200,209.652908 472.084503,194.499130 
	C469.062988,190.975861 463.949463,189.087479 463.377899,183.493713 
	C463.252838,182.269791 461.480072,182.353516 460.333435,182.369553 
	C454.844391,182.446335 449.354706,182.531387 443.867889,182.699966 
	C431.699127,183.073822 419.807251,185.231659 408.021790,188.186935 
	C401.449036,189.835129 394.928711,191.548065 388.538147,193.871414 
	C365.818359,202.131393 346.744507,216.002869 328.442535,231.416367 
	C317.444214,240.678925 308.962646,251.800446 300.919586,263.422485 
	C294.805847,272.256775 291.724121,282.543610 287.627716,292.331085 
	C283.650146,301.834625 281.315918,311.866608 278.704803,321.791138 
	C276.335510,330.796448 275.788574,340.128723 274.268585,349.289764 
	C273.708160,352.667419 275.984009,353.945526 278.488708,355.211884 
	C289.080902,360.567169 300.446991,363.811523 311.626282,367.587280 
	C315.697815,368.962433 319.586700,370.875854 323.567749,372.522247 
	C327.109375,373.986938 329.652435,373.129852 331.192139,369.430237 
	C333.360352,364.220520 335.887970,359.153015 337.893982,353.884613 
	C344.447144,336.674347 353.827637,321.021057 363.551025,305.475433 
	C369.392670,296.135864 376.006409,287.393555 383.578125,279.606232 
	C389.532074,273.482727 396.095856,267.703796 403.309418,262.882812 
	C405.663757,261.309357 408.114288,261.062347 410.042755,263.357269 
	C412.021118,265.711609 410.333618,267.773621 408.804413,269.541962 
	C407.844391,270.652100 406.533813,271.468109 405.346283,272.371063 
	C393.352051,281.490723 383.515472,292.561676 374.842224,304.865814 
	C365.512878,318.100739 357.463531,332.023254 350.589844,346.637878 
	C346.485352,355.364716 342.839966,364.292542 340.185028,373.600281 
	C339.063812,377.530884 337.484619,381.049225 332.599579,381.805420 
	C330.050385,382.200012 329.082916,384.771576 328.299622,386.957031 
	C324.815582,396.677582 319.562744,405.281006 312.094910,412.413971 
	C304.814301,419.368042 296.613708,424.515808 286.000854,424.127563 
	C284.683990,424.079407 282.932129,424.239899 282.138306,423.496216 
	C277.438232,419.093170 271.880310,420.218079 266.276550,420.226746 
	C260.793365,420.235260 256.152771,417.680786 254.226822,412.151917 
	C253.183060,409.155518 251.525482,408.161926 248.647980,408.702026 
	C243.911133,409.591034 241.169876,406.783295 238.768921,403.394806 
	C236.368515,400.007111 236.461304,396.493134 238.718811,393.123962 
	C244.735168,384.145081 250.997040,375.315338 257.311432,366.565582 
	C262.796509,358.965027 265.471985,350.786804 266.599182,341.828247 
	C270.570740,310.263519 279.067352,280.077881 296.910767,253.478531 
	C310.077698,233.850464 326.875671,217.509521 347.766479,205.752930 
	C356.295105,200.953369 363.807220,194.422409 373.061340,190.813599 
	C375.991516,189.670929 378.824646,188.279251 382.062653,186.865326 
M279.056885,383.479309 
	C277.248352,394.489441 267.120575,400.367676 262.422729,409.650177 
	C266.396393,414.592743 270.580902,412.085052 274.337372,410.425079 
	C283.202637,406.507568 287.909515,398.483337 292.724060,390.704559 
	C294.399536,387.997498 296.446411,386.769623 299.313721,388.286438 
	C302.380981,389.909027 301.424072,392.385498 300.065948,394.693146 
	C296.683960,400.439728 292.993042,405.963654 288.424133,410.862946 
	C287.434631,411.923981 286.034912,413.055084 286.912964,414.741394 
	C287.919617,416.674774 289.938660,416.774689 291.736786,416.463104 
	C293.157684,416.216919 294.500427,415.409058 295.827606,414.749451 
	C306.881287,409.255646 312.572021,398.903137 318.729065,389.077271 
	C322.597626,382.903625 321.148651,380.135132 314.145599,377.658417 
	C300.753235,372.922150 286.985016,369.130829 274.436096,362.220490 
	C271.949005,360.850952 270.170807,361.238861 268.729675,363.922028 
	C262.972961,374.640320 255.760269,384.389618 248.419662,394.051270 
	C247.124054,395.756561 244.204193,397.134369 246.115860,399.889221 
	C247.782791,402.291351 250.560883,401.747559 253.030960,401.448120 
	C254.886078,401.223236 256.445374,400.250336 257.924774,399.110870 
	C263.576538,394.757660 267.459595,388.998993 270.924286,382.901855 
	C273.631775,378.137207 276.206787,378.069611 279.056885,383.479309 
z"/>
<path fill="#000000" opacity="1.000000" stroke="none" 
	d="
M512.884583,101.124146 
	C497.530823,106.074883 482.699158,111.472206 466.788879,113.436569 
	C470.270264,114.625084 472.851929,116.967583 475.570068,119.087578 
	C477.510132,120.600708 478.263580,122.688232 476.988525,124.820610 
	C475.614746,127.118134 473.344147,127.544945 470.866913,126.472038 
	C470.410797,126.274483 469.977783,126.022751 469.537781,125.789078 
	C466.713501,124.289192 464.779144,120.695885 460.857819,121.779488 
	C455.556183,123.244507 451.178070,126.232910 447.975311,130.703629 
	C442.919556,137.760941 442.834473,144.330688 448.673645,152.322205 
	C452.963318,158.193039 459.749817,158.602661 466.391663,157.651031 
	C469.175262,157.252197 472.271729,156.224411 472.737946,159.889206 
	C473.138428,163.037521 471.547943,166.767349 467.904846,167.006577 
	C463.352844,167.305527 458.701294,168.013153 454.059723,166.448837 
	C444.178680,163.118698 438.828888,155.846985 436.953552,146.210831 
	C434.726776,134.769104 439.318512,125.668556 448.678589,118.966713 
	C451.370300,117.039459 454.299561,115.443947 457.510071,113.454529 
	C447.368683,113.478821 437.632874,113.479263 428.044342,111.473549 
	C423.528198,110.528870 419.450989,108.115356 414.618561,108.010674 
	C412.489899,107.964554 410.284180,106.411217 408.322998,105.202255 
	C406.568817,104.120903 406.157379,102.199463 407.054108,100.343140 
	C408.041443,98.299255 409.816101,98.342194 411.768921,98.945763 
	C430.573212,104.757668 449.597412,105.507072 469.160004,103.198753 
	C485.056610,101.323006 500.114044,96.940163 514.901184,91.477341 
	C527.800476,86.711922 540.414490,81.063972 551.464355,72.570435 
	C553.573303,70.949402 555.900330,69.576096 558.130005,71.865685 
	C560.614136,74.416580 559.168518,77.278816 556.926392,78.744522 
	C549.025024,83.909653 541.457825,89.691750 532.637329,93.315590 
	C526.209534,95.956398 519.715576,98.436172 512.884583,101.124146 
z"/>
<path fill="#000000" opacity="1.000000" stroke="none" 
	d="
M418.225159,74.838051 
	C436.736572,74.204712 452.816559,67.647598 468.574219,59.187943 
	C492.316193,46.441818 517.811096,41.283424 544.722778,44.930786 
	C560.229248,47.032383 572.922668,54.290188 582.320740,66.969017 
	C583.481079,68.534500 585.201172,70.298798 583.223572,72.230453 
	C581.043091,74.360222 579.079956,73.074997 577.141663,71.392456 
	C570.235962,65.397903 563.339661,59.563843 554.326782,56.564034 
	C545.515625,53.631317 536.579529,53.096668 527.471130,52.862366 
	C512.719727,52.482906 498.727692,56.181885 485.191742,61.285110 
	C475.904846,64.786392 467.324219,70.115387 458.223511,74.168488 
	C448.360352,78.561165 438.414276,82.913345 427.297302,83.191055 
	C424.220642,83.267914 421.248566,82.906258 418.580597,81.453270 
	C415.485565,79.767693 414.512360,77.531754 418.225159,74.838051 
z"/>
<path fill="#000000" opacity="1.000000" stroke="none" 
	d="
M758.733643,182.294113 
	C771.847961,196.866135 765.004211,208.679367 755.866089,220.162674 
	C754.343323,222.076187 751.688599,223.629288 749.247131,221.729935 
	C746.589783,219.662628 748.404846,217.386307 749.680237,215.150192 
	C751.651001,211.695236 754.225708,208.598541 755.616577,204.792099 
	C757.687805,199.123810 756.857971,194.125687 752.899536,189.486969 
	C750.536011,186.717194 748.396545,183.720413 746.442688,180.643906 
	C741.279907,172.514709 742.354980,160.367493 748.720032,153.259827 
	C750.674438,151.077362 752.994873,149.883850 755.751587,151.640976 
	C758.038574,153.098740 758.013916,155.702454 756.619019,157.342590 
	C748.996155,166.305511 751.303894,174.294815 758.733643,182.294113 
z"/>
<path fill="#000000" opacity="1.000000" stroke="none" 
	d="
M723.784790,171.345490 
	C724.742126,177.091370 728.445679,180.426895 732.404785,183.542831 
	C742.557129,191.533035 744.313843,200.601440 737.811279,211.858856 
	C736.401184,214.300140 735.092834,216.832230 733.401550,219.068314 
	C732.184875,220.676834 730.287964,221.880447 728.150879,220.663406 
	C725.746887,219.294296 726.177063,216.786331 726.878296,214.846954 
	C727.768616,212.384476 729.431274,210.210907 730.652954,207.856735 
	C734.331909,200.767303 733.760254,197.340820 728.078064,191.952942 
	C726.870300,190.807770 725.805481,189.362274 724.380615,188.619705 
	C713.868103,183.141342 713.293640,167.302216 719.582336,157.561600 
	C720.935974,155.465027 722.507446,152.886185 725.473206,154.474106 
	C728.365356,156.022614 727.375183,158.692978 726.261536,161.057556 
	C724.779358,164.204437 722.918762,167.246231 723.784790,171.345490 
z"/>
<path fill="#000000" opacity="1.000000" stroke="none" 
	d="
M581.582642,186.811234 
	C564.950256,192.242493 552.530945,184.870590 541.137390,174.556107 
	C539.080444,172.693939 537.828796,169.983826 537.695007,167.002991 
	C537.593689,164.744659 538.445557,163.059494 540.744629,162.505798 
	C542.909546,161.984390 544.265076,162.645660 545.475342,164.873901 
	C550.962463,174.976501 566.814514,181.647919 578.028625,178.826691 
	C580.738892,178.144836 583.457642,177.600403 584.900879,180.783264 
	C586.252563,183.763962 584.427612,185.437225 581.582642,186.811234 
z"/>
<path fill="#000000" opacity="1.000000" stroke="none" 
	d="
M541.831848,136.736298 
	C540.926270,133.623199 540.642456,130.870300 540.700317,128.047363 
	C540.768982,124.695839 542.878540,123.190712 545.717041,123.066483 
	C548.804871,122.931320 551.196289,124.389366 551.276428,127.958412 
	C551.335388,130.581451 551.532715,133.211319 550.710693,135.805069 
	C550.076172,137.807144 549.207397,139.547302 547.024658,140.033646 
	C544.551392,140.584717 542.940613,139.321808 541.831848,136.736298 
z"/>
</svg>