<svg version="1.1" id="Layer_1" xmlns="http://www.w3.org/2000/svg" xmlns:xlink="http://www.w3.org/1999/xlink" x="0px" y="0px"
	 width="100%" viewBox="0 0 1024 672" enable-background="new 0 0 1024 672" xml:space="preserve">
<path fill="#000000" opacity="1.000000" stroke="none" 
	d="
M678.832642,509.459991 
	C682.295471,518.635437 682.130493,527.767090 681.160706,536.878723 
	C680.805786,540.213257 682.096985,541.287842 684.924316,542.001709 
	C686.899841,542.500549 688.836853,542.663574 690.840698,542.698730 
	C704.837463,542.944275 718.916382,543.055420 732.752502,541.382751 
	C746.231018,539.753235 759.747131,537.836121 773.083557,534.890198 
	C785.425781,532.163940 797.815979,529.612732 809.579834,524.987976 
	C818.931396,521.311523 827.602783,516.110657 832.079956,506.539368 
	C835.091858,500.100677 839.863098,494.615875 841.260376,487.253052 
	C844.153809,472.007263 843.205872,456.990326 840.674133,441.816284 
	C837.657776,423.737732 833.439209,405.954926 828.559082,388.330872 
	C824.431458,373.424469 819.637085,358.717316 813.635315,344.416260 
	C810.617310,337.225067 807.524780,330.059296 804.541565,322.871857 
	C799.423035,310.539764 790.151855,301.405945 782.283752,291.189056 
	C774.211243,280.706757 763.928528,272.408051 753.950562,263.860474 
	C749.012207,259.630035 743.248718,256.614441 737.557129,253.457916 
	C718.810425,243.061188 698.480713,236.909760 678.116028,230.855911 
	C673.533813,229.493759 668.579895,229.388351 663.989075,228.047241 
	C658.993835,226.587982 656.953186,228.534912 656.777893,233.144516 
	C656.282288,246.173615 650.664124,257.564270 645.126953,268.871063 
	C635.316406,288.903748 620.280823,303.514404 598.420715,309.554779 
	C584.093689,313.513550 569.474731,313.942566 555.348755,307.918427 
	C548.545593,305.017151 543.652283,299.809326 539.424683,293.941986 
	C537.311768,291.009613 535.533630,287.903961 539.285889,283.373993 
	C536.077271,284.219849 534.253357,284.766602 532.399536,285.179291 
	C512.491211,289.610931 493.189758,289.442230 473.879089,281.056519 
	C462.497864,276.114105 453.002472,269.343903 443.487732,261.656036 
	C425.929901,247.469360 420.411255,227.822937 415.672668,207.362793 
	C413.648346,198.622147 412.819916,189.666794 410.308167,181.009247 
	C409.182037,177.127853 408.734222,172.738022 412.737488,169.527359 
	C416.420624,170.517670 417.368317,173.330368 418.261963,176.515640 
	C422.820618,192.764618 425.101959,209.693527 431.628601,225.329346 
	C439.833893,244.986588 453.453644,259.459167 473.544952,267.905029 
	C489.152405,274.465973 505.140320,277.606262 521.715149,274.919067 
	C538.481934,272.200775 554.168884,266.273529 566.559509,253.814636 
	C567.851624,252.515427 569.065796,251.128677 570.438965,249.922394 
	C572.734741,247.905563 575.144836,247.629669 577.600830,249.757019 
	C579.982056,251.819641 579.592651,254.121277 578.197021,256.468567 
	C574.774109,262.225586 569.055054,265.594421 564.038879,269.608490 
	C558.076477,274.379639 551.230591,277.864197 544.207886,281.093994 
	C549.369202,294.193237 559.171387,299.730804 572.389099,300.986603 
	C581.798340,301.880554 590.747803,301.463989 599.947571,298.660767 
	C614.609131,294.193329 624.602783,284.471130 632.393982,272.147186 
	C639.352478,261.140503 644.632568,249.255432 647.514648,236.447372 
	C648.019958,234.201874 648.735535,232.007599 648.322510,229.571854 
	C647.875977,226.939468 646.824951,225.351410 644.004761,224.960541 
	C632.780518,223.404938 623.936890,217.452911 616.157837,209.614288 
	C613.376404,206.811554 611.675293,203.450775 611.030823,199.541138 
	C610.528564,196.493942 611.348816,194.412277 614.593445,193.439514 
	C618.023132,192.411270 618.810303,194.102570 619.596436,197.003738 
	C620.673035,200.976471 623.502136,203.925644 626.958374,206.123520 
	C633.145325,210.057861 639.535645,213.002502 647.100830,213.988007 
	C659.273621,215.573776 671.429077,217.777267 683.350769,220.702240 
	C705.046753,226.025314 725.834412,234.002808 745.637756,244.401093 
	C756.195618,249.944778 765.143555,257.682648 773.793091,265.767456 
	C788.424866,279.443878 801.576843,294.423462 811.488464,311.872589 
	C816.356934,320.443298 821.918823,328.870728 823.619690,338.961945 
	C823.885010,340.536285 824.944153,341.976868 825.702271,343.622803 
	C836.799866,341.642181 847.528992,344.100555 858.384888,345.495972 
	C870.869263,347.100708 882.402893,351.088257 892.484009,358.414734 
	C904.429504,367.096130 910.720093,379.098175 913.433044,393.841461 
	C916.421326,410.081055 916.911316,426.321320 916.085571,442.567993 
	C914.820435,467.461731 913.210449,492.365845 909.596924,517.075562 
	C909.093384,520.518616 909.363708,524.048950 908.076355,527.411194 
	C907.116760,529.917419 908.701904,530.805542 910.895874,530.726074 
	C919.600037,530.410950 928.160278,531.876404 936.768799,532.734619 
	C938.245178,532.881836 939.704041,533.224976 941.164001,533.513123 
	C944.571960,534.185547 945.935425,536.419128 945.485352,539.687988 
	C945.040466,542.919067 942.574646,543.440430 939.873840,543.271179 
	C929.583252,542.626709 919.243286,542.375854 909.019958,541.155396 
	C897.035706,539.724792 885.058228,540.710571 873.090942,540.218872 
	C851.654297,539.338074 830.160339,539.806519 808.784363,537.551025 
	C805.924011,537.249268 803.604370,538.674255 801.100037,539.416077 
	C781.773438,545.141602 762.108093,548.926880 741.987000,550.357483 
	C733.366394,550.970459 724.775757,552.193176 716.149170,552.489746 
	C703.722473,552.916992 691.266479,552.951477 678.892456,551.282166 
	C676.736694,550.991394 674.332275,550.516785 672.983521,548.859619 
	C669.772400,544.914368 666.262878,545.974609 662.237793,547.150940 
	C649.337402,550.921326 636.186340,551.614563 622.769714,550.582825 
	C610.971375,549.675537 599.273621,548.320679 587.613464,546.377686 
	C584.617859,545.878479 581.763550,547.177734 578.935120,548.757019 
	C579.047302,550.402222 579.264832,552.022522 579.249573,553.640503 
	C579.183838,560.622681 577.545349,562.777649 570.723755,564.562134 
	C548.225281,570.447510 525.694397,576.209717 503.211212,582.152588 
	C481.231659,587.962158 458.928497,592.334045 436.728821,597.149231 
	C431.938202,598.188293 426.795837,597.555359 421.856659,596.592834 
	C402.268188,592.775635 382.466248,590.484497 362.651367,588.255859 
	C351.429382,586.993713 340.239990,585.442444 329.033295,584.042297 
	C313.869629,582.147644 298.622589,580.760742 283.559723,578.261353 
	C266.323822,575.401367 248.859772,574.668823 231.612961,571.808594 
	C224.176544,570.575317 216.550827,569.367310 208.879196,569.187866 
	C202.124176,569.029907 200.682907,567.195435 198.523590,560.912964 
	C193.925507,547.534973 190.171280,533.910339 186.136734,520.368347 
	C185.219574,517.289978 183.668900,516.116943 180.443542,516.172058 
	C160.485764,516.513184 140.525955,515.620178 120.558495,516.755859 
	C110.980797,517.300537 101.333412,516.613892 91.717461,516.494629 
	C87.877357,516.447021 85.400490,514.435242 85.802216,510.704010 
	C86.202278,506.988190 89.171982,506.931824 92.591164,506.942902 
	C110.229012,507.000061 127.868904,506.668152 145.506760,506.388519 
	C156.144806,506.219910 166.779968,505.874023 177.417755,505.680847 
	C178.656174,505.658325 179.903091,506.102722 181.369308,506.371552 
	C176.693390,489.282104 170.183441,472.910706 164.779282,456.178986 
	C158.905823,437.994263 152.716675,419.902649 147.792679,401.420013 
	C147.109940,398.857361 146.158966,396.362671 145.266525,393.859924 
	C142.111877,385.013245 147.875443,376.301025 157.225571,376.913849 
	C177.989609,378.274750 198.789780,376.943787 219.549088,378.267090 
	C228.677002,378.848907 237.911148,378.086456 246.993652,378.982544 
	C260.579285,380.322968 274.205597,379.693024 287.819519,380.816498 
	C302.181244,382.001648 316.709717,381.835571 331.151947,382.632202 
	C341.116699,383.181885 351.068146,383.882690 360.753815,386.533173 
	C367.120056,388.275269 371.201843,391.969788 373.441284,398.585297 
	C378.819519,414.473450 384.988129,430.092255 390.636841,445.891571 
	C392.689240,451.631989 394.170868,457.576477 395.962616,463.594910 
	C406.248688,458.745300 416.439362,455.121124 427.565857,454.538788 
	C434.506470,454.175537 441.319061,454.954681 447.703705,457.291473 
	C459.269470,461.524628 470.696228,466.286835 479.307770,475.669586 
	C481.363800,477.909668 482.819153,477.569916 484.498779,475.365021 
	C494.075043,462.794189 504.465332,450.854950 513.511414,437.868500 
	C515.048157,435.662323 515.573730,433.740234 514.835327,430.981628 
	C510.237061,413.802979 505.464844,396.662231 501.846802,379.237946 
	C500.900452,374.680206 498.325470,370.560364 498.308167,365.763977 
	C498.307007,365.439026 498.097107,365.113495 498.102386,364.790161 
	C498.159149,361.297791 497.839996,356.947662 502.070404,356.187073 
	C506.194672,355.445618 507.365723,359.445068 508.124603,362.768738 
	C512.857178,383.497223 518.421448,403.982971 525.146179,424.168060 
	C530.256042,439.505676 536.442871,454.368500 543.436279,468.919159 
	C544.596252,471.332489 545.758057,473.787018 545.268005,476.560913 
	C544.849426,478.929840 544.077393,481.234894 541.186279,481.533844 
	C538.405701,481.821411 536.537659,480.725708 535.526672,477.865723 
	C532.023865,467.955872 526.661316,458.935120 521.734558,449.710297 
	C521.433960,449.147400 520.981995,448.665314 520.322510,447.767090 
	C515.734375,453.583130 511.011536,458.946991 507.007538,464.802368 
	C501.934021,472.221771 495.771362,478.815735 491.055084,486.503754 
	C489.847809,488.471771 489.448456,490.018982 490.479370,491.975952 
	C494.098877,498.846832 497.287994,505.921692 500.403015,513.772705 
	C504.368256,509.255768 507.884491,505.132660 511.526733,501.124023 
	C521.174194,490.506042 533.546265,484.966370 547.243042,481.599884 
	C570.924438,475.779266 594.883484,478.304047 618.780640,478.750519 
	C622.765076,478.824921 626.742126,479.238220 630.726318,479.408112 
	C631.679077,479.448730 633.173767,479.481720 633.523987,478.939789 
	C636.295288,474.651245 640.901733,474.793427 645.044861,474.029541 
	C669.229858,469.570374 693.426453,465.171753 717.642700,460.886108 
	C720.727722,460.340088 723.874939,460.201019 726.993469,459.595947 
	C731.656738,458.691193 732.139404,456.309143 731.439148,452.110107 
	C728.614807,435.173462 724.571960,418.519104 720.214661,401.940460 
	C716.669922,388.453461 713.397400,374.879211 708.711304,361.714996 
	C708.093933,359.980469 707.330994,358.206421 708.143677,356.390686 
	C709.113037,354.225159 709.169800,351.142151 712.464844,350.936035 
	C715.707336,350.733215 717.288513,353.078918 718.144409,355.663910 
	C721.898804,367.003052 725.803711,378.307404 729.060852,389.792572 
	C733.321960,404.817902 737.431580,419.907654 740.302979,435.278259 
	C741.795227,443.266113 743.022766,451.315948 743.995728,459.382904 
	C744.460999,463.239990 742.670532,466.031158 738.444336,466.966339 
	C720.112732,471.022797 701.620056,474.203918 683.118958,477.349274 
	C675.254272,478.686340 667.389282,480.025421 659.545837,481.479156 
	C658.329407,481.704590 656.844421,481.853607 655.773682,484.040436 
	C665.351807,490.423035 673.305664,498.634247 678.832642,509.459991 
M426.325562,567.337646 
	C427.300415,570.684998 428.429199,574.006653 428.296478,577.562866 
	C428.194305,580.301392 428.014282,583.428772 424.596161,583.705566 
	C421.067932,583.991333 418.419617,581.844055 417.864563,578.271790 
	C415.734314,564.561890 411.283630,551.422363 407.136749,538.323486 
	C395.848816,502.667908 387.255615,466.162170 373.605011,431.256927 
	C370.387878,423.030579 367.906403,414.537445 365.308624,406.147797 
	C362.841980,398.181793 357.609314,396.053101 350.633759,395.246399 
	C349.641113,395.131622 348.640594,395.086975 347.645721,394.989441 
	C325.312286,392.800201 302.867767,392.617218 280.478485,391.556946 
	C261.195099,390.643768 241.925354,389.032318 222.586777,389.224030 
	C215.123199,389.298035 207.645737,389.065826 200.190674,388.670044 
	C186.211243,387.927856 172.227142,388.308411 158.245316,388.209229 
	C155.166382,388.187378 154.259567,389.452606 155.134720,392.649170 
	C160.935425,413.836517 168.531952,434.456848 175.739609,455.154053 
	C180.819504,469.741241 185.555862,484.449768 190.545029,499.064270 
	C196.015244,515.087769 201.006729,531.309692 205.311539,547.680603 
	C207.312637,555.290588 209.835541,558.508179 218.644348,559.543518 
	C231.941330,561.106384 245.318314,563.147888 258.628754,564.294006 
	C280.994934,566.219910 303.076263,570.068604 325.314941,572.749268 
	C349.407532,575.653381 373.588257,578.024963 397.577606,581.822815 
	C406.589569,583.249634 415.682922,584.215088 424.640472,585.911926 
	C429.592468,586.850037 434.448639,587.785645 439.416809,586.772644 
	C453.082184,583.986206 466.798645,581.394592 480.355164,578.143372 
	C499.577576,573.533386 518.667847,568.373901 537.828857,563.505737 
	C547.168030,561.132935 556.555237,558.948669 565.885010,556.540588 
	C568.088684,555.971741 570.999023,555.615784 570.269714,551.734680 
	C569.448792,551.734680 568.752075,551.548828 568.213318,551.761902 
	C555.459412,556.806946 542.038025,559.242554 528.624451,561.483154 
	C515.331482,563.703613 502.285645,567.059937 489.129547,569.835754 
	C473.572327,573.118286 457.976196,576.575745 442.768890,581.420654 
	C439.650146,582.414307 436.631531,582.525696 435.499969,578.596497 
	C434.262238,574.298767 437.400085,572.850769 440.567383,572.080322 
	C460.752319,567.170166 480.956329,562.335632 501.187866,557.621338 
	C509.409180,555.705627 517.715210,554.153503 526.315796,552.366760 
	C525.086426,548.781311 526.415405,546.088257 528.047913,543.541687 
	C539.810730,525.191895 557.427002,516.363647 578.258362,512.863281 
	C581.491699,512.319946 584.404297,513.863770 584.679565,516.944458 
	C585.029968,520.866333 581.713013,522.866272 578.239624,523.219421 
	C563.979553,524.669189 552.580383,531.904541 541.950134,540.728943 
	C539.386719,542.856873 537.833984,545.792603 536.661621,549.212341 
	C541.799377,550.473511 545.912292,548.197571 550.156006,547.124146 
	C562.387207,544.030273 574.423950,540.341919 586.068237,535.381653 
	C588.785339,534.224121 592.469421,532.319885 594.944519,535.175293 
	C597.325867,537.922607 600.038147,537.788635 602.971008,538.089783 
	C610.910217,538.905151 618.822266,540.068604 626.777832,540.622375 
	C637.109680,541.341431 647.454529,540.930115 657.582520,538.587585 
	C661.742188,537.625427 665.623291,534.274292 669.649902,538.283325 
	C671.469055,536.639709 671.567261,534.819885 671.838379,532.990784 
	C673.280884,523.260498 670.494934,514.693359 665.084534,506.693237 
	C659.847839,498.949951 653.274048,493.105286 643.794983,491.578156 
	C633.494141,489.918579 623.118713,488.977783 612.648071,488.982574 
	C599.553711,488.988525 586.467468,487.695709 573.365112,489.182281 
	C554.517273,491.320740 535.390137,492.552429 521.026794,507.455994 
	C511.807343,517.022217 502.026733,526.253784 503.991241,541.528625 
	C504.361786,544.409912 502.791016,547.449524 499.452728,547.757446 
	C496.147583,548.062378 494.436066,545.576233 493.833435,542.501343 
	C493.449860,540.544067 493.019501,538.548950 493.027802,536.572571 
	C493.041565,533.312378 491.457306,532.487366 488.431000,532.170532 
	C477.848358,531.062622 467.222412,530.045776 456.773590,528.121887 
	C451.761322,527.198975 448.420410,527.429504 446.410858,532.491699 
	C445.846863,533.912476 444.516602,534.664246 443.136810,535.404480 
	C436.911713,538.743774 431.673706,535.296936 426.241669,533.070435 
	C423.846252,534.863525 421.493591,536.624634 418.958588,538.522217 
	C421.334137,547.859680 423.710388,557.200073 426.325562,567.337646 
M853.682190,355.987823 
	C846.087158,354.030731 838.460815,353.763092 830.492920,354.951172 
	C830.768433,356.397919 830.838806,357.222778 831.084595,357.991516 
	C836.654724,375.413666 841.729736,392.968323 845.801880,410.812561 
	C851.095764,434.010315 856.284546,457.120911 852.485291,481.260162 
	C849.959900,497.305115 843.279541,510.925598 831.835999,522.321106 
	C830.569031,523.582764 829.004456,524.683533 829.119934,526.715820 
	C829.790955,527.813416 830.838806,527.868530 831.816406,527.933899 
	C851.729675,529.265564 871.684143,529.157837 891.621277,529.668884 
	C895.084900,529.757629 896.408325,528.006958 896.818604,524.972473 
	C898.267517,514.258484 899.982056,503.572845 901.124146,492.826324 
	C904.339661,462.570190 907.078003,432.276550 903.668823,401.834839 
	C902.226257,388.953705 897.144531,377.268005 886.947021,369.511841 
	C877.620361,362.418091 866.416016,357.963043 853.682190,355.987823 
M444.379211,467.234406 
	C430.800995,462.103088 417.841797,463.883789 404.834869,469.820007 
	C399.845490,472.097076 399.102539,474.216309 400.779419,479.109131 
	C403.301453,486.467804 405.220306,494.037750 406.671509,501.736176 
	C408.480499,511.332672 412.548035,520.199890 416.195648,529.432434 
	C420.174164,527.519531 421.525421,525.962524 419.140289,521.908264 
	C412.966003,511.413086 410.704559,499.659607 409.923370,487.637543 
	C409.734894,484.737061 410.474487,481.413391 414.109070,481.339874 
	C417.766876,481.265839 419.365417,484.450775 419.140320,487.558716 
	C418.602081,494.990967 421.413757,501.677155 423.518646,508.417175 
	C425.178558,513.732422 428.305206,518.555969 432.897644,522.240967 
	C436.012939,524.740723 437.880371,523.885315 439.630402,520.808960 
	C440.502075,519.276733 440.722534,517.663818 440.673187,516.000610 
	C440.409882,507.122162 437.702362,499.063049 432.231049,492.040161 
	C429.363831,488.359802 428.488892,482.036591 431.183716,480.768585 
	C435.981781,478.510956 438.184967,482.470642 440.207001,485.558960 
	C445.523712,493.679382 449.596710,502.434540 451.067505,512.095154 
	C451.566620,515.373596 453.328369,516.271790 455.919678,516.638184 
	C468.062134,518.355164 480.207123,520.058594 492.366913,521.646362 
	C496.160919,522.141785 497.209137,521.060120 497.803558,516.857361 
	C493.133484,518.457397 491.851807,518.237000 490.272308,515.191650 
	C487.523712,509.892090 484.950958,504.501129 482.193085,499.206512 
	C474.099945,483.669159 462.344879,472.358704 444.379211,467.234406 
z"/>
<path fill="#000000" opacity="1.000000" stroke="none" 
	d="
M697.380005,183.071060 
	C698.195435,192.826050 695.657104,201.216125 689.883423,208.580002 
	C688.080139,210.879868 685.806458,212.938095 682.681030,210.684509 
	C679.494995,208.387192 679.836975,205.392136 681.485901,202.258514 
	C686.018188,193.645782 686.471313,184.309113 685.019226,175.080002 
	C683.172058,163.341141 674.250977,156.770081 664.849121,151.217590 
	C657.258911,146.735062 648.816162,144.175262 640.163452,142.392242 
	C636.392944,141.615280 633.910400,139.044388 632.965698,135.496399 
	C628.704529,119.493179 619.497925,106.340363 609.146606,93.882027 
	C596.511475,78.674965 580.152405,68.961212 562.048767,61.433887 
	C538.046814,51.454136 514.294434,52.644032 490.795959,62.051815 
	C484.918915,64.404755 478.206451,66.121643 473.712646,71.628418 
	C472.151520,73.541443 469.367310,75.055809 466.642090,72.730339 
	C463.840942,70.340118 464.911621,67.584579 466.296875,65.050278 
	C466.987305,63.787178 468.112518,62.560913 469.344116,61.825554 
	C481.212341,54.739407 493.102142,47.618198 507.013702,45.206497 
	C515.584229,43.720722 524.280273,44.592865 532.912354,44.337215 
	C549.153503,43.856216 564.474487,47.786358 579.135132,54.821285 
	C590.536865,60.292393 600.031982,68.217224 609.498718,76.367668 
	C619.443298,84.929466 625.604065,96.154495 632.107666,107.135780 
	C635.903015,113.544136 639.766174,119.991905 641.691467,127.343613 
	C642.108398,128.935547 643.250122,130.102112 645.060364,130.713089 
	C651.176086,132.777237 657.146606,135.298630 663.318176,137.163620 
	C670.959167,139.472687 676.893127,144.138611 682.001282,149.926224 
	C688.804871,157.634750 696.192932,165.102814 697.150940,176.203918 
	C697.336304,178.352127 697.308289,180.518707 697.380005,183.071060 
z"/>
<path fill="#000000" opacity="1.000000" stroke="none" 
	d="
M474.880188,91.073318 
	C486.246796,102.844284 499.223389,111.378670 514.224670,117.212860 
	C535.970825,125.670227 558.743103,127.362854 581.626160,128.800873 
	C584.052246,128.953339 585.921509,128.101517 587.143433,126.109680 
	C593.218201,116.207596 609.207703,118.419106 615.687744,126.652328 
	C622.368652,135.140808 625.507019,144.505020 624.441040,155.417328 
	C623.157898,168.551987 618.562561,179.856964 608.173828,188.425842 
	C606.363220,189.919296 604.638245,191.499695 602.221863,191.903305 
	C599.214600,192.405640 597.436340,190.873703 596.576599,188.192413 
	C595.761780,185.651184 596.552307,183.051285 598.880920,182.232178 
	C610.891846,178.007080 612.553955,167.375015 614.649536,157.141861 
	C616.733826,146.964264 613.631653,138.516464 605.320374,131.965317 
	C601.209900,128.725311 595.496216,129.147186 592.998474,133.875473 
	C590.292297,138.998459 586.563477,139.946442 581.069702,139.515381 
	C566.651062,138.384094 552.097961,138.394882 537.916138,135.288666 
	C512.979736,129.826920 490.185852,119.911316 471.690460,101.663368 
	C468.224091,98.243340 465.346863,94.384659 463.573090,89.805389 
	C462.373596,86.708565 462.450928,83.553238 465.696594,82.000893 
	C468.872711,80.481842 470.451935,83.066452 471.732666,85.585823 
	C472.634094,87.359169 473.675446,89.061394 474.880188,91.073318 
z"/>
<path fill="#000000" opacity="1.000000" stroke="none" 
	d="
M437.974518,387.763916 
	C430.213348,408.502106 418.790436,426.445953 403.447357,441.879211 
	C400.656860,444.686096 396.674164,444.712006 394.146698,441.963745 
	C392.005859,439.635895 392.191162,435.019867 395.204376,433.692291 
	C405.995728,428.937683 409.666138,418.473602 415.052795,409.518982 
	C425.566071,392.042114 432.387482,372.858795 439.657867,353.910217 
	C445.959351,337.486786 451.077393,320.592316 459.022064,304.825562 
	C461.971741,298.971649 466.967041,295.046234 472.641022,292.073486 
	C474.414276,291.144379 476.836212,289.973480 478.592377,292.196838 
	C480.207520,294.241638 478.513611,295.975159 477.378723,297.550629 
	C476.318542,299.022430 475.240417,300.649231 473.783966,301.640198 
	C464.983246,307.628143 463.805237,317.745483 460.437744,326.521057 
	C452.695129,346.697998 445.512421,367.089813 437.974518,387.763916 
z"/>
<path fill="#000000" opacity="1.000000" stroke="none" 
	d="
M410.682739,123.868515 
	C416.153046,109.038376 426.366943,98.157036 437.171509,87.707222 
	C438.841400,86.092163 440.389099,84.348099 442.094147,82.772850 
	C443.984009,81.026825 446.130707,79.317825 448.589294,81.645248 
	C451.143616,84.063354 450.509399,86.787231 448.444061,89.205917 
	C444.019989,94.386902 439.306854,99.333366 435.076355,104.664917 
	C424.038879,118.575111 415.578217,133.587128 416.057129,152.149841 
	C416.141479,155.419388 414.408844,157.981400 411.361572,158.244690 
	C407.991211,158.535889 407.229980,155.192307 407.020325,152.650360 
	C406.221283,142.961868 406.770264,133.382080 410.682739,123.868515 
z"/>
<path fill="#000000" opacity="1.000000" stroke="none" 
	d="
M469.062561,193.825317 
	C466.981506,200.768402 465.523956,207.417664 464.729309,214.213852 
	C463.949005,220.887192 467.185028,223.875412 473.850952,222.692154 
	C478.034027,221.949661 481.672699,219.948303 485.376770,218.066086 
	C487.783142,216.843277 490.194031,215.906326 492.767883,217.522598 
	C491.067230,226.176224 482.721741,232.170837 471.980286,233.192673 
	C457.909668,234.531219 454.664551,225.176910 455.066742,216.034897 
	C455.359253,209.384689 456.038666,202.790161 458.311279,196.418533 
	C459.660553,192.635529 459.699463,188.605057 459.588379,184.571548 
	C459.475067,180.457413 462.516357,176.520981 465.284607,177.171585 
	C469.270447,178.108337 470.929810,181.125977 470.582489,185.063263 
	C470.334808,187.870636 469.658508,190.640213 469.062561,193.825317 
z"/>
<path fill="#000000" opacity="1.000000" stroke="none" 
	d="
M529.394897,238.369019 
	C519.390503,250.409943 507.319794,256.681244 491.653595,254.284439 
	C488.298859,253.771194 485.188202,249.971008 486.103882,247.343964 
	C487.280640,243.967987 490.589020,243.320389 493.126007,244.282043 
	C504.010406,248.407883 511.684235,242.746536 519.080383,236.291931 
	C522.445557,233.355148 525.340027,229.883881 527.553589,225.916672 
	C528.962463,223.391647 530.955933,221.473038 534.007141,222.961334 
	C537.311523,224.573105 535.970703,227.441788 535.225891,229.948303 
	C534.245056,233.248886 531.565430,235.429993 529.394897,238.369019 
z"/>
<path fill="#000000" opacity="1.000000" stroke="none" 
	d="
M439.002472,196.225403 
	C433.952576,194.129898 431.765594,182.324982 435.491852,179.098404 
	C437.714966,177.173401 440.422729,176.675034 442.779816,178.633484 
	C446.568268,181.781250 446.313416,186.216400 445.835449,190.562622 
	C445.420166,194.338684 443.025909,195.992554 439.002472,196.225403 
z"/>
<path fill="#000000" opacity="1.000000" stroke="none" 
	d="
M504.466370,186.790405 
	C500.751251,182.817032 500.343689,178.213638 500.850647,173.533401 
	C501.207275,170.240891 504.927551,168.421707 507.599731,170.391144 
	C510.950806,172.860931 513.803894,176.069016 514.258118,180.507339 
	C514.878174,186.567062 511.872772,188.556702 504.466370,186.790405 
z"/>
<path fill="#000000" opacity="1.000000" stroke="none" 
	d="
M546.687134,515.765381 
	C534.732910,521.318420 524.877930,528.424377 520.317932,541.187805 
	C519.370605,543.839417 517.557373,547.357666 513.796936,545.655945 
	C510.403595,544.120300 510.429413,540.763733 511.540649,537.405273 
	C516.318848,522.964294 526.972534,514.114502 539.956604,507.546295 
	C543.799805,505.602112 547.854858,504.056366 551.877747,502.495300 
	C554.243469,501.577301 556.811157,501.447845 559.268066,502.059723 
	C561.348938,502.577942 562.516052,503.987030 562.778320,506.329041 
	C563.044312,508.703827 561.852417,509.601196 559.974121,510.338715 
	C555.638184,512.041260 551.336792,513.832031 546.687134,515.765381 
z"/>
</svg>