<svg version="1.1" id="Layer_1" xmlns="http://www.w3.org/2000/svg" xmlns:xlink="http://www.w3.org/1999/xlink" x="0px" y="0px"
	 width="100%" viewBox="0 0 1024 672" enable-background="new 0 0 1024 672" xml:space="preserve">
<path fill="#000000" opacity="1.000000" stroke="none" 
	d="
M910.086487,479.146484 
	C896.558105,477.841125 883.453003,476.811523 870.408264,475.270905 
	C851.793274,473.072449 832.948181,472.785492 814.568237,468.626801 
	C812.709656,468.206329 810.927063,468.164825 809.396790,469.552551 
	C797.584839,480.264099 782.668823,482.559204 767.782349,484.291626 
	C736.931030,487.881866 705.955017,486.853943 675.062073,485.041077 
	C664.670288,484.431274 654.195068,483.459381 643.843079,481.931824 
	C640.630615,481.457825 637.553711,481.527924 634.435120,482.193237 
	C621.424438,484.968903 608.320862,485.569305 595.349548,482.478088 
	C582.487610,479.412933 571.549744,484.691681 560.515869,489.611115 
	C555.305481,491.934174 550.065735,493.916748 544.462402,494.888794 
	C541.496216,495.403351 538.103577,496.121063 535.801453,493.995575 
	C532.919495,491.334839 530.623047,491.659882 527.444397,493.234253 
	C517.755920,498.032928 508.029877,502.791229 498.102142,507.062439 
	C486.186340,512.188965 474.061859,516.833069 461.999207,521.614014 
	C456.914246,523.629456 451.554565,523.712646 446.230743,523.104553 
	C429.906952,521.240051 413.595184,519.268127 397.286102,517.277893 
	C371.049438,514.076050 344.825409,510.769348 318.582977,507.615997 
	C300.431000,505.434845 282.253723,503.465332 264.094238,501.345398 
	C255.675934,500.362610 247.272629,499.251007 238.863602,498.189209 
	C234.826279,497.679443 232.518494,495.707458 231.308197,491.497589 
	C224.827911,468.956909 217.982239,446.521667 211.370636,424.018280 
	C207.013931,409.189728 203.039124,394.246674 198.525055,379.467377 
	C194.249710,365.469604 189.489578,351.616516 186.353790,337.296173 
	C184.597412,329.275269 187.573364,325.580841 195.867065,325.697723 
	C216.172302,325.983795 236.384552,327.790802 256.608856,329.486786 
	C272.519958,330.821045 288.475159,331.623138 304.405090,332.742096 
	C322.636902,334.022736 340.871429,335.282593 359.087433,336.764099 
	C370.184174,337.666565 381.267975,338.814056 392.312836,340.206360 
	C394.987122,340.543488 396.237762,339.671875 397.686218,337.820282 
	C402.862213,331.203613 405.999481,323.390900 409.962799,316.132263 
	C421.137695,295.666229 435.167297,277.410095 450.496185,260.032074 
	C453.349854,256.796967 456.593597,253.909225 459.548950,250.759506 
	C461.860229,248.296265 462.345551,246.200760 458.738251,244.038696 
	C450.018799,238.812546 442.099640,232.751541 435.436340,224.758270 
	C426.628998,214.192902 422.082886,202.220200 418.696564,189.091812 
	C412.088013,163.471024 416.561859,139.596130 427.672607,116.414474 
	C438.088867,94.681885 454.299286,78.609840 475.645508,67.429832 
	C481.080139,64.583481 486.444916,61.595062 491.937378,58.829201 
	C501.711090,53.907402 512.270813,52.216629 522.892822,52.057224 
	C548.855530,51.667606 573.555237,56.408936 594.853455,72.646202 
	C616.159241,88.889244 629.355957,110.480095 636.649597,135.981308 
	C637.880981,140.286835 637.226196,144.767639 638.931213,149.166077 
	C641.945007,156.941132 647.113342,161.053329 655.115601,162.799088 
	C671.209106,166.310028 687.200989,170.378830 702.062988,177.709915 
	C708.784790,181.025635 715.054688,185.386948 719.333984,191.706604 
	C723.913452,198.469650 726.371216,206.049164 724.698792,214.347153 
	C723.792114,218.845459 724.909790,221.555710 729.054810,224.176392 
	C748.753662,236.630875 766.190247,251.685791 779.617065,270.948273 
	C785.319397,279.128998 790.952087,287.401886 794.970642,296.588074 
	C796.300598,299.628265 798.231812,300.544220 801.479187,300.784027 
	C818.545410,302.044189 835.755554,302.172119 852.554016,305.862885 
	C866.302490,308.883514 879.007935,313.897156 884.059448,328.803741 
	C888.284851,341.272949 888.830750,354.232117 887.918762,367.274200 
	C886.828735,382.862518 885.787781,398.452362 883.420349,413.922852 
	C881.839294,424.254578 880.204529,434.594696 879.182739,444.988983 
	C878.582275,451.097137 878.093384,457.218536 876.883423,463.219330 
	C876.261230,466.304871 877.009644,467.559601 880.042908,467.902405 
	C887.629395,468.759796 895.181519,470.198029 902.786987,470.551971 
	C916.771423,471.202637 930.573425,473.458099 944.492004,474.613525 
	C947.602417,474.871735 950.596924,475.740753 949.964111,479.450592 
	C949.386047,482.838989 946.308167,483.280609 943.222656,482.922150 
	C932.329956,481.656708 921.432373,480.433319 910.086487,479.146484 
M681.990784,304.271973 
	C680.906311,301.113953 679.091309,297.265442 683.404297,295.683777 
	C687.442566,294.202789 688.381836,298.376526 689.756592,301.120789 
	C689.905701,301.418335 690.045349,301.722443 690.163574,302.033356 
	C701.338745,331.417938 711.317444,361.196259 720.761047,391.189728 
	C725.389648,405.890472 721.741638,404.632324 737.475952,404.672272 
	C741.080933,404.681427 746.062866,404.342041 745.836182,409.269714 
	C745.633728,413.672760 740.772400,413.219421 737.345947,413.112030 
	C723.847168,412.688843 710.431580,413.710999 697.065125,415.380585 
	C680.896667,417.400238 664.762512,419.688202 648.883179,423.450989 
	C643.850647,424.643524 643.517151,425.732910 645.817932,430.323120 
	C647.974792,434.626251 649.986267,439.025330 651.712952,443.516205 
	C655.087585,452.292816 655.541443,461.690857 657.085754,470.850922 
	C657.513367,473.386871 658.169067,475.484222 661.111023,475.680206 
	C676.050476,476.675476 690.981506,477.986877 705.938660,478.466248 
	C717.180298,478.826538 728.459412,477.819580 739.717407,477.918335 
	C755.778320,478.059204 771.612732,476.532043 787.162231,472.532257 
	C799.598206,469.333374 808.544861,462.258362 812.460266,449.472595 
	C819.034424,428.005157 817.255249,406.311859 813.881409,384.748138 
	C811.681885,370.690216 808.422241,356.793762 804.056458,343.136169 
	C797.096863,321.363861 788.811768,300.353577 776.272949,281.049988 
	C760.898132,257.380554 740.366882,239.370255 715.694092,226.494888 
	C692.567444,214.426376 667.755798,206.892502 641.458740,205.039276 
	C635.515564,204.620438 629.472046,204.363022 623.804565,202.064484 
	C620.823303,200.855392 618.799866,198.847977 620.019531,195.560028 
	C621.258850,192.219086 623.979553,192.551010 626.642395,194.010406 
	C629.046753,195.328140 631.645386,195.740234 634.337219,195.867218 
	C643.989014,196.322617 653.514954,197.650330 663.008667,199.495071 
	C673.155518,201.466705 683.118896,203.600143 692.533691,208.269608 
	C698.288086,211.123581 704.760193,212.562775 710.960693,214.472626 
	C714.585815,215.589188 716.520752,213.765198 716.460083,210.216949 
	C716.391968,206.234787 715.833496,202.383270 713.665833,198.738602 
	C709.585022,191.877396 703.004578,188.249908 696.306458,184.991333 
	C680.967407,177.529053 664.488831,173.352783 647.947021,169.648605 
	C642.548645,168.439728 638.828857,165.689377 636.148926,161.328857 
	C633.534668,157.075226 631.629639,152.466721 630.610046,147.488693 
	C626.820068,128.984711 620.267822,111.712448 607.624939,97.248848 
	C605.765747,95.121941 603.618225,93.219841 601.948181,90.959480 
	C593.316895,79.277443 581.198425,72.734192 568.160522,67.304153 
	C554.979553,61.814537 541.174683,60.292603 527.165588,60.593845 
	C519.915405,60.749744 512.341431,59.974922 505.431580,62.515980 
	C493.561340,66.881172 481.953491,72.026108 471.626678,79.486282 
	C462.208862,86.289787 452.186340,92.548080 445.580078,102.474037 
	C440.507385,110.095749 436.574280,118.391319 432.241058,126.454605 
	C425.019012,139.893356 423.895233,154.623199 423.849213,169.027252 
	C423.811157,180.956726 427.411163,192.844452 432.509857,204.117340 
	C440.372925,221.502151 453.291260,233.297607 470.761963,239.845032 
	C484.249756,244.899841 498.430176,245.696457 512.929688,244.873871 
	C527.048523,244.072861 540.160889,240.963135 552.419250,234.040176 
	C555.236267,232.449280 558.361755,231.388229 560.186890,234.923141 
	C561.914368,238.268936 559.780823,240.806015 556.672485,241.979111 
	C550.605774,244.268738 544.853882,247.415985 538.451416,248.798828 
	C535.954163,249.338211 533.695618,250.255951 532.164124,252.423615 
	C538.515137,264.797516 554.588745,274.476562 568.893005,268.534302 
	C571.609863,267.405670 574.370728,267.113159 575.617188,270.396973 
	C576.779846,273.460205 574.262634,275.160309 572.026794,276.067719 
	C567.910400,277.738373 563.788635,279.100891 559.012939,278.687347 
	C543.618286,277.354401 532.884338,268.638702 523.991089,257.125519 
	C521.511536,253.915527 519.067627,252.924301 515.208923,252.998734 
	C502.108398,253.251434 488.918579,254.508469 476.071533,250.452408 
	C473.381226,249.603027 471.183105,250.334274 468.948517,252.561005 
	C454.868317,266.591736 442.205078,281.767670 431.091492,298.238739 
	C422.518524,310.944519 415.016266,324.290405 407.677155,337.728668 
	C406.835327,339.270111 405.465027,341.203308 407.696472,342.574493 
	C413.415833,346.088867 414.673309,352.022980 416.335236,357.772583 
	C422.612427,379.489319 428.907471,401.201050 435.119843,422.936371 
	C435.885529,425.615295 435.643433,428.855774 439.641998,429.008514 
	C443.650909,429.161652 447.172668,430.101288 450.046387,424.994659 
	C463.185822,401.645721 476.628571,378.436096 493.719482,357.626099 
	C495.286194,355.718475 496.049561,353.745392 495.118164,351.184692 
	C490.637146,338.865173 486.739716,326.364319 483.700256,313.601898 
	C482.907562,310.273560 480.714996,305.873444 484.931519,304.423645 
	C489.687164,302.788574 490.090179,307.919159 490.950256,311.090149 
	C495.648926,328.413025 501.973022,345.167450 508.527435,361.839355 
	C512.055542,370.813629 516.009949,379.616669 520.673279,388.063019 
	C526.229858,398.127289 532.490356,407.746552 539.609558,416.793549 
	C541.092712,418.678314 542.630981,419.409912 545.185730,418.685028 
	C557.289917,415.250610 569.562622,413.611877 582.161804,415.601440 
	C588.226196,416.559021 594.436584,416.725616 600.426025,417.986023 
	C606.195679,419.200165 612.134216,417.642548 617.770020,419.578125 
	C622.048096,421.047363 626.154419,420.451385 630.487854,419.338135 
	C641.103699,416.610992 651.753723,413.835602 662.549072,412.031494 
	C678.253296,409.407013 694.019104,407.037720 709.903748,405.634705 
	C713.602234,405.308044 715.244812,403.208069 714.379639,399.451843 
	C714.043762,397.993652 713.732300,396.522217 713.272339,395.101318 
	C703.490234,364.884277 693.841187,334.621094 681.990784,304.271973 
M443.350372,481.996216 
	C439.593109,468.225983 435.995605,454.409698 432.039459,440.696838 
	C426.697784,422.181549 421.038879,403.758087 415.597870,385.271149 
	C412.643768,375.234039 409.871552,365.143524 406.990540,355.084747 
	C406.108826,352.006134 404.491821,349.674927 400.956024,349.261566 
	C377.509308,346.520477 353.958618,344.989777 330.452484,342.947540 
	C320.525818,342.085083 310.513672,342.052765 300.674011,340.612030 
	C286.650574,338.558716 272.496796,338.722992 258.440155,337.366150 
	C248.866364,336.442017 239.192520,336.449127 229.654190,335.291809 
	C219.556931,334.066650 209.390137,334.577881 199.314316,333.347198 
	C194.948853,332.813934 193.654938,334.707001 194.970856,339.000214 
	C197.991501,348.855164 200.728043,358.796967 203.607132,368.695587 
	C209.596863,389.288849 215.560638,409.889832 221.617233,430.463440 
	C227.154678,449.273499 232.821609,468.045410 238.372116,486.851654 
	C239.083359,489.261444 240.526550,490.272491 242.945465,490.723328 
	C247.060425,491.490265 251.246368,491.412201 255.343658,491.995880 
	C277.057556,495.089111 298.811646,497.739990 320.639618,499.959015 
	C346.607422,502.598877 372.484467,506.129364 398.403778,509.249481 
	C415.085815,511.257629 431.772522,513.226807 448.459290,515.195312 
	C449.732544,515.345581 451.127289,515.856262 452.286072,514.210693 
	C450.246155,503.627472 446.674927,493.262085 443.350372,481.996216 
M822.813843,389.866028 
	C826.007629,413.756012 827.097534,437.500580 817.543823,459.940094 
	C818.743591,461.858612 820.212585,461.890839 821.455261,462.097473 
	C835.560913,464.443268 849.862976,464.993652 864.041199,466.688721 
	C867.530029,467.105835 868.240967,464.907379 868.587769,462.181763 
	C871.011230,443.135010 873.280579,424.066345 875.946899,405.053436 
	C878.373108,387.752533 879.884155,370.401520 879.923706,352.938416 
	C879.941895,344.914734 879.127075,336.861969 875.617065,329.578308 
	C871.205505,320.423767 862.556580,316.435059 853.361816,314.213501 
	C838.310974,310.577118 822.751282,310.898224 807.423096,309.411499 
	C802.463867,308.930511 801.303955,311.557831 803.391846,316.572479 
	C813.080200,339.841614 819.255127,364.050995 822.813843,389.866028 
M548.707703,468.155304 
	C549.981934,467.365784 551.263367,466.587677 552.529236,465.784943 
	C559.917786,461.099640 567.847168,457.747223 576.499573,456.294373 
	C579.058960,455.864624 582.048279,456.051636 582.615601,459.075623 
	C583.230164,462.351196 580.474731,463.726868 577.683044,464.151550 
	C575.363953,464.504303 573.136719,465.001862 570.920410,465.770355 
	C560.708557,469.311340 551.994019,475.419464 543.435059,481.769043 
	C541.968567,482.857025 539.890808,483.895813 540.448425,486.472015 
	C542.611328,487.542999 544.702881,486.929962 546.803589,486.423004 
	C552.992188,484.929535 558.655457,482.075867 564.505005,479.687500 
	C574.343384,475.670441 583.817810,472.166321 595.282288,474.950592 
	C603.716797,476.998993 612.969116,476.958496 622.056458,476.136444 
	C629.398193,475.472290 636.509705,472.194092 644.247437,474.300812 
	C647.583008,475.208954 649.056458,472.370575 648.816589,468.884033 
	C647.922302,455.882263 644.517883,443.725647 637.579224,432.561981 
	C635.572754,429.333710 633.305237,427.932281 629.507141,428.087372 
	C615.512573,428.658875 601.582825,426.749969 587.871704,424.782990 
	C568.810730,422.048462 550.966614,423.056641 533.580811,432.005585 
	C518.480164,439.778229 507.509430,451.319336 499.324249,465.866638 
	C498.432129,467.452240 497.397125,469.455017 499.438324,470.762268 
	C501.602142,472.147980 502.672852,470.106323 503.757538,468.648865 
	C514.544861,454.154541 526.976807,441.611542 544.223694,434.885071 
	C547.258301,433.701569 551.328735,430.633545 553.214294,435.328064 
	C554.963745,439.683777 550.376648,440.967041 547.186951,442.262238 
	C531.648987,448.571594 519.992859,459.369141 511.098511,473.364685 
	C509.943878,475.181488 508.428711,477.289215 511.165344,478.943390 
	C513.827515,480.552582 514.997192,478.270966 516.277954,476.520477 
	C524.954468,464.662292 535.571838,454.987122 548.443787,447.818085 
	C552.874451,445.350342 557.693054,444.095032 562.572388,443.015808 
	C564.967468,442.486084 567.138306,443.309326 567.833069,445.671051 
	C568.558411,448.137177 566.929565,449.707184 564.618774,450.501678 
	C563.989502,450.718079 563.361633,450.943604 562.721069,451.121643 
	C546.011658,455.766113 533.988342,466.646088 524.028748,480.246887 
	C523.283264,481.264954 522.291382,482.382263 523.461426,484.247894 
	C526.665649,485.348236 529.345215,483.684753 531.638794,481.496826 
	C536.721008,476.648712 542.165527,472.297485 548.707703,468.155304 
M480.358307,390.763489 
	C473.435760,402.107697 466.441254,413.408966 459.628265,424.818604 
	C457.122803,429.014557 458.241180,431.163391 462.904877,431.529327 
	C478.296112,432.737000 493.693726,433.865967 509.093231,434.964355 
	C511.568848,435.140930 514.203918,435.360565 516.282898,433.630920 
	C520.414246,430.193817 525.065735,427.624451 529.821838,425.225250 
	C532.615601,423.815948 532.858948,422.257935 530.904114,419.781494 
	C527.719177,415.746582 524.647217,411.600708 521.821228,407.308380 
	C513.936279,395.332062 508.210144,382.250885 502.587891,369.121521 
	C501.910980,367.540833 501.654449,365.478485 498.854218,364.921661 
	C492.439636,372.880310 486.280579,381.285583 480.358307,390.763489 
M486.810028,466.428497 
	C475.655579,466.308746 464.642334,464.539551 453.563080,463.547638 
	C448.200104,463.067474 447.099365,464.108673 448.490356,469.247986 
	C452.133423,482.708496 455.838104,496.152374 459.542114,509.596313 
	C460.206665,512.008301 461.429565,513.509155 464.238953,512.180542 
	C477.015808,506.138214 490.232727,501.167786 503.371246,495.994171 
	C507.692566,494.292542 511.682220,491.748688 515.823547,489.589966 
	C515.908203,489.078827 515.992920,488.567719 516.077637,488.056580 
	C505.420776,490.392670 501.778473,479.583466 493.481018,477.253906 
	C490.957245,476.545319 490.088287,473.308075 489.880219,470.534882 
	C489.751556,468.820160 489.697479,467.151794 486.810028,466.428497 
M466.488708,456.749054 
	C474.440399,457.411560 482.391846,458.077454 490.344025,458.733887 
	C492.035522,458.873474 493.773743,458.927063 494.918060,457.396179 
	C498.360596,452.790710 501.739044,448.137390 505.092773,443.570465 
	C503.583679,441.862427 501.977448,442.609833 500.565460,442.466980 
	C495.269684,441.931213 489.951233,442.533936 484.620697,441.810516 
	C474.094299,440.381989 463.532349,439.015564 452.939392,438.328674 
	C439.986725,437.488770 439.967010,437.801697 443.205811,450.344116 
	C443.288818,450.665588 443.310242,451.002594 443.386383,451.326263 
	C443.864258,453.357819 445.155731,454.503235 447.226959,454.640320 
	C453.369049,455.046814 459.344513,456.906586 466.488708,456.749054 
z"/>
<path fill="#000000" opacity="1.000000" stroke="none" 
	d="
M548.140747,537.077820 
	C567.766907,526.448120 587.178345,516.184143 606.474060,505.724579 
	C616.320618,500.387054 625.708740,501.198029 635.871460,502.952850 
	C654.373169,506.147552 672.965637,508.819336 691.528564,511.655243 
	C701.219116,513.135681 710.954956,514.337769 720.618469,515.971924 
	C727.918335,517.206299 729.935364,520.252441 730.388367,527.524841 
	C730.947327,536.498352 727.906250,542.531067 720.000427,547.788635 
	C701.571045,560.044678 683.518982,572.887207 665.031738,585.077942 
	C659.059998,589.015808 652.889038,592.654480 646.960327,596.654175 
	C637.134033,603.283264 626.590149,603.350952 615.447327,601.105835 
	C592.512939,596.484924 569.381287,592.969116 546.273987,589.321228 
	C535.125305,587.561157 524.031494,585.421082 512.962463,583.205261 
	C508.380371,582.288025 503.554688,581.015320 502.116638,575.647949 
	C500.579041,569.909058 502.816315,565.095947 507.029358,561.297363 
	C513.282349,555.659424 521.251709,552.721985 528.294617,548.305786 
	C534.623962,544.337036 541.305298,540.929749 548.140747,537.077820 
M714.482300,527.198547 
	C715.387939,526.388367 717.054626,526.130859 716.631531,524.383423 
	C715.869629,523.440430 714.843201,523.476746 713.860779,523.302368 
	C696.862305,520.284302 679.639465,518.759827 662.676025,515.465881 
	C652.749634,513.538391 642.668457,512.406250 632.744629,510.467651 
	C623.894836,508.738831 615.933838,509.881775 607.827087,514.174438 
	C582.995544,527.323059 558.096558,540.334412 533.955078,554.730347 
	C530.788940,556.618408 527.143250,557.809998 524.099060,560.721191 
	C525.766724,561.446533 526.926636,562.243408 528.184570,562.453796 
	C544.891602,565.248962 561.609558,567.979553 578.330627,570.690125 
	C593.920227,573.217407 609.527588,575.636475 625.104370,578.239685 
	C630.585815,579.155823 635.564941,578.516907 640.417297,575.593689 
	C647.271423,571.464417 653.682678,566.699402 660.358459,562.323364 
	C678.156616,550.656616 696.060303,539.150696 714.482300,527.198547 
M580.558960,579.220886 
	C576.790405,578.579651 573.006531,578.016846 569.255920,577.283813 
	C551.487854,573.811462 533.360046,572.356201 515.798462,567.745056 
	C514.454651,567.392212 513.182434,567.062622 511.991882,567.952026 
	C510.646606,568.957031 509.172943,570.089294 509.647278,572.002747 
	C510.260315,574.475952 512.471191,575.178772 514.631226,575.550659 
	C528.716858,577.975586 542.814636,580.329346 556.908020,582.709351 
	C578.048706,586.279419 599.317566,589.109131 620.316528,593.491821 
	C628.656738,595.232544 636.109253,594.536621 643.472046,589.377869 
	C657.777161,579.354980 672.749023,570.287109 687.121826,560.356506 
	C697.930969,552.888184 709.271423,546.139465 719.258911,537.505920 
	C720.700684,536.259583 722.401184,535.188538 721.681946,532.256287 
	C715.152588,536.422913 708.938049,540.245850 702.869263,544.287720 
	C683.753418,557.019165 664.600830,569.689270 645.100403,581.831116 
	C637.631897,586.481384 629.756226,587.384766 621.250183,585.879089 
	C608.002930,583.534302 594.703918,581.481934 580.558960,579.220886 
z"/>
<path fill="#000000" opacity="1.000000" stroke="none" 
	d="
M190.239365,453.313538 
	C181.756393,456.393280 180.550659,463.061768 180.192139,470.582123 
	C179.633179,482.306091 176.048691,486.777435 164.680206,490.329773 
	C149.925674,494.940247 135.212662,494.394867 120.529160,489.639587 
	C109.194687,485.968872 105.264305,477.367432 105.155273,466.563324 
	C104.967285,447.935883 101.605583,429.476196 102.519394,410.787811 
	C102.736496,406.347870 104.589996,403.698883 108.288017,401.732605 
	C119.381836,395.833740 131.483932,394.698944 143.665405,394.623138 
	C152.267593,394.569641 160.891617,395.112549 169.305176,397.583313 
	C176.517288,399.701202 182.256714,402.941589 183.110062,411.268341 
	C183.323654,413.352570 184.054092,414.626831 186.421585,414.773956 
	C195.044250,415.309875 200.869537,419.311432 202.609192,428.207642 
	C204.358612,437.153748 200.691116,444.090332 194.483658,450.051636 
	C193.289581,451.198364 191.856934,452.096680 190.239365,453.313538 
M125.751793,421.223480 
	C122.985847,420.661896 120.194633,420.201599 117.458878,419.519043 
	C110.306068,417.734375 109.834435,418.177063 110.402023,425.593079 
	C111.441910,439.180115 112.473267,452.769348 113.309303,466.369904 
	C113.912537,476.183258 119.573036,483.167328 129.197922,484.452057 
	C138.587112,485.705261 147.906830,485.782074 157.479477,484.234711 
	C169.582901,482.278198 172.084610,476.283691 172.807846,466.372498 
	C173.375793,458.589447 174.216400,450.816956 174.489029,443.024170 
	C174.782547,434.634430 174.555389,426.226501 174.555389,417.476959 
	C171.002869,418.389923 167.241943,419.566376 163.396942,420.305664 
	C151.214966,422.647980 138.946228,422.636932 125.751793,421.223480 
M152.640289,403.085419 
	C138.896759,401.637451 125.545212,402.700806 112.355728,408.389374 
	C114.246521,411.183685 116.322205,411.266510 118.205574,411.670013 
	C134.531525,415.167755 150.860916,414.078583 167.172348,411.570831 
	C169.428543,411.223938 171.779404,410.649902 172.550385,407.271362 
	C166.654877,403.903900 160.075562,403.632446 152.640289,403.085419 
M192.688110,424.945801 
	C187.657440,421.601898 184.066559,421.526276 183.687347,424.954224 
	C182.824219,432.756531 182.679840,440.638367 182.221039,448.889618 
	C194.050278,442.569519 197.223434,435.452179 192.688110,424.945801 
z"/>
<path fill="#000000" opacity="1.000000" stroke="none" 
	d="
M510.120483,111.941032 
	C521.874268,116.219055 533.189026,120.629372 544.714172,124.395721 
	C555.505676,127.922333 566.816528,128.824341 578.092896,129.705200 
	C581.695679,129.986633 584.071411,129.040970 585.487000,125.426109 
	C586.957581,121.670868 589.433044,118.539131 592.883728,116.211502 
	C605.589966,107.640488 617.029480,114.480057 621.334412,125.942230 
	C626.577515,139.902573 625.376404,153.460648 617.856384,166.253464 
	C613.645813,173.416382 606.888672,177.772217 599.139526,180.418716 
	C596.257202,181.403091 593.071777,180.799667 592.115540,177.513626 
	C591.119934,174.092255 593.668701,172.570190 596.681396,171.619751 
	C608.750122,167.812317 615.702515,158.293945 615.683167,145.583588 
	C615.676636,141.271408 615.983826,136.970459 615.151917,132.640152 
	C614.039185,126.847977 611.026489,122.676086 605.389282,121.231804 
	C599.174866,119.639648 595.985779,124.192108 593.169128,128.658142 
	C592.122925,130.317062 591.472656,132.258286 590.837830,134.137039 
	C589.713806,137.463638 587.475342,138.976334 584.012329,138.670959 
	C566.649292,137.139893 549.105957,136.257797 532.802795,129.319702 
	C521.204468,124.383842 508.697754,121.817375 497.806427,114.966209 
	C489.024353,109.441879 482.769196,101.448174 475.542908,94.392265 
	C473.668396,92.561928 473.250092,90.257080 475.255768,88.173164 
	C477.138519,86.216957 479.235291,86.788734 481.076630,88.278198 
	C482.623108,89.529144 484.297791,90.801628 485.374023,92.423920 
	C491.425446,101.545692 500.680084,106.551140 510.120483,111.941032 
z"/>
<path fill="#000000" opacity="1.000000" stroke="none" 
	d="
M472.552490,211.027802 
	C468.154205,211.893051 464.544220,210.619080 461.040649,209.024429 
	C454.365326,205.986145 451.877686,199.875137 454.403900,192.338333 
	C457.561127,182.918823 461.540802,173.768188 463.208740,163.875259 
	C463.643890,161.294434 465.079285,158.874908 468.134186,159.251907 
	C471.439728,159.659821 471.635254,162.566101 471.257507,165.078323 
	C470.115967,172.669357 467.189636,179.769913 464.756317,186.992920 
	C463.849335,189.685196 463.007721,192.363388 462.601532,195.163193 
	C461.898041,200.012314 465.092041,203.032867 470.035614,202.076721 
	C473.953217,201.319016 477.734985,200.236511 481.103149,197.827576 
	C483.548920,196.078369 486.792297,194.279877 488.799255,198.022186 
	C490.648621,201.470627 488.470825,204.114899 485.233734,205.569885 
	C481.160919,207.400513 477.521271,210.223679 472.552490,211.027802 
z"/>
<path fill="#000000" opacity="1.000000" stroke="none" 
	d="
M484.396606,229.397766 
	C479.923004,228.570145 475.830963,227.770050 472.102142,225.888947 
	C470.497589,225.079498 468.738464,223.868439 469.495056,221.637238 
	C470.227448,219.477310 472.126740,218.701279 474.291199,218.901031 
	C475.768280,219.037369 477.284882,219.308807 478.666260,219.830887 
	C492.315674,224.989670 501.501617,217.585800 510.100067,208.661682 
	C511.581421,207.124222 512.523193,205.076736 513.946411,203.470673 
	C515.358582,201.877060 517.262817,201.061142 519.293152,202.340408 
	C521.260986,203.580292 521.705322,205.607727 520.761719,207.599060 
	C519.631287,209.984787 518.579956,212.703415 516.697754,214.387390 
	C507.598633,222.528122 498.286713,230.486923 484.396606,229.397766 
z"/>
<path fill="#000000" opacity="1.000000" stroke="none" 
	d="
M506.958984,169.914978 
	C504.842743,166.093765 504.609344,162.320465 505.043427,158.503128 
	C505.427887,155.121765 507.340027,152.891495 510.875366,152.994812 
	C514.147644,153.090454 516.645569,154.830673 517.111023,158.267288 
	C517.462891,160.864899 517.494995,163.568893 517.213135,166.176224 
	C516.614441,171.712875 512.298889,173.390457 506.958984,169.914978 
z"/>
<path fill="#000000" opacity="1.000000" stroke="none" 
	d="
M448.757263,176.100250 
	C447.186920,179.284668 444.938812,180.975906 441.805267,180.286331 
	C438.395538,179.535995 437.403656,176.538681 436.958405,173.498077 
	C436.721405,171.879639 436.775848,170.183502 436.944977,168.547882 
	C437.296600,165.147583 438.714081,162.038788 442.485168,162.074326 
	C446.111145,162.108475 448.613251,164.654266 449.112610,168.330856 
	C449.440155,170.742493 449.014557,173.256393 448.757263,176.100250 
z"/>
</svg>