<svg width="75" height="62" viewBox="0 0 75 62" fill="none" xmlns="http://www.w3.org/2000/svg">
<path d="M37.5078 11.1943V3.36621" stroke="#E7A94B" stroke-width="6.73215" stroke-linecap="round"/>
<path d="M63.3438 37.0264L71.1719 37.0264" stroke="#E7A94B" stroke-width="6.73215" stroke-linecap="round"/>
<path d="M3.84767 37.0264L11.6758 37.0264" stroke="#E7A94B" stroke-width="6.73215" stroke-linecap="round"/>
<path d="M19.5055 19.0217L14.8086 13.542" stroke="#E7A94B" stroke-width="6.73215" stroke-linecap="round"/>
<path d="M55.5117 19.0217L60.2086 13.542" stroke="#E7A94B" stroke-width="6.73215" stroke-linecap="round"/>
<path d="M37.1172 22.3887C44.9857 22.3887 51.3643 28.7673 51.3643 36.6357C51.3642 44.5042 44.9856 50.8828 37.1172 50.8828C29.2487 50.8828 22.8702 44.5042 22.8701 36.6357C22.8701 28.7673 29.2487 22.3887 37.1172 22.3887Z" stroke="#E7A94B" stroke-width="6.73215"/>
<path d="M70.6865 54.8193C72.5456 54.8193 74.0527 56.3265 74.0527 58.1855C74.0527 60.0446 72.5456 61.5518 70.6865 61.5518H3.36621C1.50718 61.5518 0 60.0446 0 58.1855C0 56.3265 1.50718 54.8193 3.36621 54.8193H70.6865Z" fill="#E7A94B"/>
</svg>
