<svg width="75" height="45" viewBox="0 0 75 45" fill="none" xmlns="http://www.w3.org/2000/svg">
<path d="M30.7973 14.374C31.1759 11.3536 32.1445 8.46674 33.6223 5.87552C31.5613 6.37544 29.5779 7.19813 27.745 8.32331C24.5282 10.2981 21.8952 13.1301 20.1269 16.5171C18.3585 19.9041 17.5211 23.7191 17.704 27.5553C17.887 31.3915 19.0835 35.105 21.1657 38.2995C21.3745 38.6199 21.5915 38.9338 21.8162 39.2411L15.5843 39.0727C13.7667 35.6083 12.7192 31.7634 12.5308 27.8143C12.3022 23.0191 13.3486 18.25 15.5591 14.0162C17.7695 9.78247 21.061 6.24259 25.0819 3.77414C29.103 1.3057 33.703 0.00117319 38.3911 6.84145e-08C38.4993 -2.66493e-05 38.6067 0.00777331 38.7129 0.0213668H39.4097C40.4744 0.0214081 41.4305 0.688678 41.8199 1.70351C42.2093 2.71838 41.9525 3.87395 41.1725 4.61618C38.2891 7.35986 36.4356 11.0514 35.9345 15.0493C35.4333 19.0471 36.316 23.0984 38.4291 26.4989C40.5421 29.8995 43.7521 32.4342 47.5008 33.6626C51.2496 34.891 55.3003 34.7354 58.9486 33.2226C59.9165 32.8213 61.025 33.0546 61.76 33.8141C62.495 34.5737 62.7127 35.7111 62.3119 36.6986C61.8065 37.944 61.211 39.1433 60.5324 40.2875L54.2994 40.119C54.414 39.9785 54.5268 39.8364 54.6378 39.6929C51.7193 39.9665 48.7549 39.6427 45.9224 38.7145C41.0202 37.1082 36.8227 33.7934 34.0595 29.3465C31.2962 24.8997 30.1419 19.6019 30.7973 14.374Z" fill="#AD874E"/>
<path d="M70.6865 37.5078C72.5456 37.5078 74.0527 39.015 74.0527 40.874C74.0527 42.7331 72.5456 44.2402 70.6865 44.2402H3.36621C1.50718 44.2402 0 42.7331 0 40.874C0 39.015 1.50718 37.5078 3.36621 37.5078H70.6865Z" fill="#AD874E"/>
</svg>
