<svg width="47" height="50" viewBox="0 0 47 50" fill="none" xmlns="http://www.w3.org/2000/svg">
<path d="M24.0488 6.35464e-08C24.1493 -2.47531e-05 24.2491 0.0072202 24.3478 0.0198464H24.9949C25.9839 0.0198848 26.872 0.639675 27.2336 1.5823C27.5953 2.52496 27.3568 3.5983 26.6323 4.28772C23.9541 6.83617 22.2325 10.2651 21.767 13.9785C21.3015 17.6918 22.1214 21.4548 24.0841 24.6134C26.0468 27.7719 29.0283 30.1264 32.5103 31.2673C35.9923 32.4083 39.7548 32.2638 43.1435 30.8587C44.0426 30.4859 45.0722 30.7026 45.7549 31.4081C46.4376 32.1136 46.6398 33.1701 46.2676 34.0873C44.5964 38.2052 41.8648 41.7814 38.3646 44.4342C34.8643 47.087 30.7266 48.717 26.3927 49.1504C22.0587 49.5838 17.6912 48.8043 13.7559 46.8951C9.82065 44.9859 6.46524 42.0185 4.04767 38.3095C1.63011 34.6005 0.241053 30.2892 0.0286402 25.8351C-0.183751 21.3811 0.78825 16.9514 2.8414 13.0189C4.89456 9.08639 7.9518 5.79839 11.6867 3.50559C15.4216 1.21279 19.6943 0.00108971 24.0488 6.35464e-08ZM19.6193 5.45745C17.705 5.9218 15.8627 6.68594 14.1603 7.73106C11.1724 9.5653 8.72672 12.1958 7.08418 15.3418C5.44166 18.4878 4.66385 22.0314 4.83374 25.5946C5.00365 29.1578 6.11501 32.6071 8.04908 35.5743C9.98313 38.5415 12.6673 40.9156 15.8155 42.4429C18.9638 43.9703 22.458 44.5939 25.9252 44.2472C29.3923 43.9004 32.7026 42.5962 35.5028 40.4739C36.8712 39.4368 38.0921 38.2228 39.1395 36.8685C36.4287 37.1226 33.6752 36.8219 31.0442 35.9598C26.4908 34.4678 22.5921 31.3888 20.0254 27.2584C17.4588 23.1279 16.3866 18.2072 16.9954 13.3512C17.3471 10.5457 18.2467 7.86428 19.6193 5.45745Z" fill="#8A775A"/>
</svg>
