<svg width="52" height="55" viewBox="0 0 52 55" fill="none" xmlns="http://www.w3.org/2000/svg">
<path d="M26.7209 7.06071e-08C26.8326 -2.75034e-05 26.9435 0.00802244 27.0531 0.0220516H27.7722C28.871 0.0220942 29.8578 0.71075 30.2596 1.75811C30.6614 2.80551 30.3964 3.99811 29.5914 4.76413C26.6156 7.59574 24.7028 11.4056 24.1855 15.5316C23.6683 19.6576 24.5793 23.8387 26.7601 27.3482C28.9409 30.8577 32.2537 33.4737 36.1226 34.7415C39.9915 36.0092 44.1721 35.8486 47.9373 34.2874C48.9362 33.8733 50.0802 34.114 50.8387 34.8979C51.5973 35.6818 51.822 36.8557 51.4084 37.8748C49.5515 42.4502 46.5165 46.4237 42.6273 49.3713C38.7382 52.3189 34.1407 54.13 29.3252 54.6116C24.5097 55.0931 19.6569 54.2271 15.2844 52.1057C10.9118 49.9843 7.1836 46.6872 4.49741 42.5661C1.81124 38.445 0.267837 33.6546 0.0318224 28.7057C-0.204168 23.7568 0.875833 18.8349 3.15711 14.4655C5.4384 10.096 8.83534 6.44266 12.9852 3.8951C17.1351 1.34755 21.8825 0.00121079 26.7209 7.06071e-08ZM21.7992 6.06383C19.6722 6.57978 17.6253 7.42882 15.7336 8.59007C12.4137 10.6281 9.69635 13.5509 7.87131 17.0465C6.04629 20.542 5.18206 24.4793 5.37082 28.4384C5.55961 32.3976 6.79446 36.2301 8.94342 39.527C11.0924 42.8239 14.0748 45.4617 17.5728 47.1588C21.0708 48.8559 24.9533 49.5488 28.8058 49.1635C32.6581 48.7782 36.3362 47.3291 39.4475 44.971C40.968 43.8187 42.3245 42.4698 43.4883 40.965C40.4763 41.2474 37.4169 40.9132 34.4935 39.9553C29.4342 38.2975 25.1023 34.8765 22.2504 30.2871C19.3986 25.6977 18.2073 20.2302 18.8837 14.8347C19.2745 11.7175 20.2741 8.73809 21.7992 6.06383Z" fill="#8A775A"/>
</svg>
