<svg width="32" height="25" viewBox="0 0 32 25" fill="none" xmlns="http://www.w3.org/2000/svg">
<path d="M6.79812 14.0961L16.5981 22.1511C16.9981 22.4798 17.1901 22.8634 17.1741 23.3018C17.1581 23.7401 16.9495 24.1237 16.5481 24.4525C16.1481 24.7539 15.6815 24.9117 15.1481 24.9259C14.6148 24.9402 14.1481 24.7823 13.7481 24.4525L0.548122 13.603C0.348122 13.4386 0.206123 13.2605 0.122123 13.0687C0.0381228 12.8769 -0.00254359 12.6715 0.000123078 12.4523C0.00278974 12.2331 0.0447892 12.0276 0.126123 11.8358C0.207456 11.644 0.34879 11.466 0.550123 11.3016L13.7501 0.452062C14.1168 0.150687 14.5755 0 15.1261 0C15.6768 0 16.1515 0.150687 16.5501 0.452062C16.9501 0.780835 17.1501 1.17153 17.1501 1.62414C17.1501 2.07675 16.9501 2.46689 16.5501 2.79457L6.79812 10.8084H29.1481C29.7148 10.8084 30.1901 10.9662 30.5741 11.2818C30.9581 11.5975 31.1495 11.9876 31.1481 12.4523C31.1468 12.9169 30.9548 13.3076 30.5721 13.6243C30.1895 13.9411 29.7148 14.0983 29.1481 14.0961H6.79812Z" fill="black"/>
</svg>
