<svg width="343" height="335" viewBox="0 0 343 335" fill="none" xmlns="http://www.w3.org/2000/svg">
<path d="M342.8 249.78C342.32 240.23 337.95 231.64 334.09 224.07C331.09 218.17 328.16 212.16 325.41 206.2C322.87 200.71 319.53 194.47 313.97 189.76C309.2 185.72 304.23 184.24 299.2 185.36C296.53 185.95 294 186.81 291.32 187.72C290.47 188.01 289.62 188.3 288.75 188.58C285.8 184.91 281.94 181.32 275.88 180.75C270.26 180.21 265.72 182.54 261.34 184.8C261.16 184.89 260.99 184.98 260.81 185.07C260.4 184.62 259.98 184.17 259.55 183.73C254.32 178.44 248.01 177 240.78 179.47C239.02 180.07 237.36 180.89 235.76 181.68C235.44 181.84 235.12 182 234.8 182.15C234.72 181.98 234.65 181.82 234.57 181.65C247.22 168.58 259.24 154.84 270.45 140.59C279.34 129.3 285.62 116.28 288.62 102.94C291.4 90.5599 291.55 78.1999 289.04 66.2099C282.67 35.6799 256.36 3.20993 218.41 0.219934C188.06 -2.17007 165.62 15.6399 155.65 25.5199C145.71 15.6399 123.32 -2.18007 92.87 0.219934C54.91 3.21993 28.6 35.6899 22.23 66.2099C16.82 92.1599 25.14 114.36 30.88 125.72H7C3.13 125.72 0 128.85 0 132.72C0 136.59 3.13 139.72 7 139.72H106.67C109.53 139.72 112.1 137.98 113.16 135.33L125.27 105.25L138.49 167.18C139.1 170.06 141.45 172.24 144.36 172.65C144.69 172.69 145.01 172.72 145.33 172.72C147.89 172.72 150.28 171.31 151.51 169.01L177.2 120.72H206.66C210.53 120.72 213.66 117.59 213.66 113.72C213.66 109.85 210.53 106.72 206.66 106.72H172.99C170.4 106.72 168.03 108.15 166.81 110.43L148.16 145.48L134.17 79.9199C133.53 76.9099 130.99 74.6699 127.93 74.4099C124.86 74.1399 121.98 75.9099 120.83 78.7699L101.93 125.72H46.99C46.99 125.72 46.99 125.72 46.99 125.71C46.28 124.66 29.57 99.5799 35.94 69.0699C41.24 43.6499 62.88 16.6299 93.97 14.1699C126.25 11.6199 147.83 37.2999 150.18 40.2399C150.18 40.2399 150.19 40.2499 150.2 40.2599C150.29 40.3699 150.39 40.4799 150.5 40.5899C150.56 40.6599 150.63 40.7299 150.69 40.7999C150.75 40.8599 150.82 40.9199 150.89 40.9899C151 41.0899 151.11 41.1999 151.23 41.2899C151.23 41.2899 151.24 41.2999 151.25 41.3099C151.29 41.3399 151.34 41.3699 151.38 41.3999C151.52 41.5099 151.66 41.6099 151.8 41.7099C151.87 41.7499 151.93 41.7899 152 41.8299C152.13 41.9099 152.26 41.9899 152.39 42.0599C152.48 42.1099 152.58 42.1499 152.67 42.1899C152.78 42.2399 152.89 42.2899 153 42.3399C153.12 42.3899 153.23 42.4299 153.35 42.4699C153.44 42.4999 153.54 42.5399 153.63 42.5699C153.76 42.6099 153.88 42.6399 154.01 42.6699C154.1 42.6899 154.19 42.7199 154.28 42.7299C154.41 42.7599 154.54 42.7699 154.67 42.7899C154.76 42.7999 154.86 42.8199 154.95 42.8299C155.07 42.8399 155.19 42.8499 155.31 42.8499C155.42 42.8499 155.52 42.8599 155.63 42.8599C155.74 42.8599 155.85 42.8599 155.96 42.8499C156.08 42.8499 156.2 42.8499 156.31 42.8299C156.41 42.8299 156.51 42.8099 156.6 42.7899C156.73 42.7699 156.85 42.7599 156.98 42.7299C157.07 42.7099 157.17 42.6899 157.26 42.6699C157.39 42.6399 157.51 42.6099 157.63 42.5699C157.73 42.5399 157.83 42.5099 157.92 42.4699C158.03 42.4299 158.15 42.3899 158.26 42.3499C158.37 42.2999 158.48 42.2499 158.59 42.1999C158.68 42.1599 158.78 42.1199 158.87 42.0699C159 41.9999 159.13 41.9199 159.26 41.8499C159.33 41.8099 159.4 41.7699 159.46 41.7299C159.6 41.6399 159.74 41.5399 159.87 41.4299C159.91 41.3999 159.96 41.3699 160.01 41.3299C160.01 41.3299 160.02 41.3199 160.03 41.3099C160.14 41.2199 160.25 41.1199 160.36 41.0099C160.43 40.9499 160.5 40.8899 160.57 40.8199C160.64 40.7499 160.7 40.6799 160.76 40.6099C160.86 40.4999 160.96 40.3999 161.05 40.2799C161.05 40.2799 161.06 40.2599 161.07 40.2599C163.44 37.3199 185.13 11.6399 217.29 14.1799C248.38 16.6299 270.02 43.6499 275.32 69.0799C277.41 79.0999 277.28 89.4599 274.94 99.8799C272.4 111.2 267.03 122.29 259.43 131.95C249.62 144.41 239.18 156.49 228.23 168.04C226.84 165.11 225.41 162.19 223.89 159.34C219.32 150.78 212.57 145.73 203.84 144.34C195.49 143.01 186.65 147.48 182.82 154.96C178.83 162.75 178.83 171.22 182.8 180.15C186.05 187.46 189.43 194.78 192.81 202.03C181.28 212.09 169.29 221.67 156.95 230.66C156.28 230.21 155.61 229.75 154.92 229.29C146.31 223.46 136.56 216.85 127.79 209.76C116.98 201.03 106.41 191.74 96.38 182.14C93.58 179.47 89.15 179.57 86.48 182.36C83.81 185.15 83.91 189.59 86.7 192.26C97.02 202.12 107.88 211.67 118.99 220.64C128.22 228.1 138.23 234.88 147.06 240.87C149.13 242.27 151.15 243.64 153.09 244.97C154.28 245.79 155.67 246.2 157.05 246.2C158.43 246.2 159.9 245.77 161.12 244.9C174.14 235.61 186.8 225.67 198.97 215.21C200.77 219.04 202.57 222.87 204.36 226.7C206.31 230.89 208.28 235.06 210.34 239.43L211.89 242.73C211.41 242.59 210.94 242.44 210.47 242.3C207.35 241.36 204.39 240.48 201.45 239.65C200.48 239.38 199.51 239.09 198.55 238.8C193.88 237.4 189.06 235.94 183.8 236.54C178.42 237.14 173.98 239.56 171.29 243.35C168.65 247.07 167.9 251.8 169.1 257.03C170.95 265.07 175.52 271.89 182.69 277.3C188.53 281.71 194.83 285.65 200.92 289.47C202.77 290.63 204.62 291.79 206.46 292.96C210.03 295.23 213.7 297.46 217.24 299.61C219.58 301.03 221.92 302.45 224.24 303.89C230.38 307.69 236.93 311.76 243.45 315.94C245.01 316.94 246.32 318.04 247.34 319.22C248.19 320.19 248.94 321.25 249.74 322.36C250.63 323.6 251.55 324.89 252.62 326.07C257.79 331.76 262.9 334.56 268.29 334.56C270.96 334.56 273.7 333.87 276.54 332.51C285.93 328.01 295.52 323.51 304.79 319.17L314.2 314.75C316.87 313.49 319.64 312.19 322.4 311.05C332.52 306.88 338.69 299.49 340.74 289.07C341.68 284.29 342.26 279.04 342.55 272.56C342.88 265.25 343.14 257.43 342.76 249.79L342.8 249.78ZM328.62 285.26C327.95 291.3 324.32 295.8 317.83 298.65C310.97 301.66 304.09 304.9 297.44 308.04C295.08 309.15 292.72 310.26 290.36 311.37C287.44 312.74 284.52 314.12 281.61 315.5C278.3 317.07 274.99 318.64 271.68 320.18C267.53 322.11 265.44 321.67 262.37 318.22C261.13 316.83 259.85 315.38 258.94 313.83C256.06 308.91 251.78 306.14 247.98 304.08C245.05 302.49 242.19 300.57 239.43 298.71C237.84 297.64 236.2 296.53 234.54 295.49C232.14 293.98 229.69 292.49 227.31 291.05C225.22 289.78 223.13 288.52 221.06 287.22C218.22 285.45 215.4 283.65 212.58 281.85C210.73 280.67 208.88 279.49 207.02 278.31C205.55 277.38 204.06 276.47 202.58 275.56C199.68 273.78 196.67 271.94 193.85 269.98C189.15 266.72 184.03 262.5 181.71 255.9C181 253.87 181.01 252.17 181.76 251.11C182.64 249.87 184.44 249.6 185.8 249.6C188.96 249.6 192.21 250.37 194.96 251.13C199.23 252.29 203.54 253.58 207.72 254.82C210.97 255.79 214.32 256.78 217.64 257.72C218.91 258.08 219.48 258.57 219.9 259.68C220.74 261.85 221.74 264.02 222.87 266.12C224.1 268.39 226.15 269.81 228.34 269.92C230.3 270.02 232.14 269.04 233.36 267.25C234.41 265.7 234.67 263 233.95 261.11C232.39 257.04 230.51 253.05 228.7 249.18L227.92 247.52C222.37 235.67 216.81 223.83 211.25 211.99C210.41 210.2 209.57 208.4 208.72 206.61C206.65 202.19 204.57 197.78 202.5 193.36C201.87 192.03 201.25 190.7 200.62 189.36C198.49 184.82 196.72 181.03 194.95 177.09C192.86 172.45 192.17 168.5 192.76 164.69C193.21 161.76 195.11 159.23 197.84 157.93C200.55 156.64 203.55 156.74 206.07 158.2C209.68 160.3 212.38 163.41 214.34 167.72C215.83 171.02 217.41 174.32 218.96 177.56C219.28 178.22 219.6 178.9 219.91 179.56C221.17 182.19 222.44 184.82 223.67 187.47C224.22 188.65 224.76 189.83 225.31 191C226.91 194.44 228.51 197.88 230.1 201.32C232.18 205.82 234.26 210.32 236.36 214.81C237.76 217.8 239.8 219.35 242.44 219.42C245.41 219.5 247.66 217.96 248.14 215.5C248.53 213.48 248.3 211.1 247.54 209.3C245.82 205.26 243.9 201.21 242.04 197.3C241.54 196.24 241.03 195.18 240.53 194.12C240.59 194.1 240.65 194.07 240.71 194.05C241.85 193.57 242.92 193.12 243.95 192.48C247.52 190.24 250.37 192.62 251.76 194.23C255.21 198.26 257.13 203.04 259.17 208.1C259.56 209.06 259.95 210.03 260.34 210.98C260.65 211.72 260.95 212.47 261.25 213.22C261.86 214.74 262.48 216.32 263.21 217.85C265 221.62 268.4 223.14 271.66 221.65C275.02 220.11 276.18 216.47 274.54 212.61C272.82 208.54 271.11 204.47 269.35 200.29L267.69 196.34C268.38 196.02 269.04 195.65 269.69 195.29C271.9 194.05 273.35 193.33 275.17 194.25C277.28 195.31 279.23 197.03 280.28 198.76C282.28 202.04 283.91 205.67 285.49 209.19C285.81 209.91 286.14 210.63 286.47 211.35C287.18 212.92 287.82 214.58 288.44 216.18C288.92 217.43 289.42 218.71 289.95 219.97C290.77 221.9 292.31 223.41 294.16 224.11C295.7 224.69 297.31 224.64 298.68 223.98C301.96 222.4 303.04 218.73 301.38 214.85C299.85 211.27 298.34 207.6 296.88 204.06C296.39 202.88 295.91 201.7 295.42 200.51C297.61 198.81 299.99 198.01 302.21 198.23C304.39 198.46 306.36 199.68 307.89 201.77C311.37 206.5 314.2 211.9 316.94 217.12L317.22 217.65C318.79 220.64 320.25 223.77 321.66 226.79C323.04 229.75 324.46 232.81 326.01 235.77C329.11 241.72 330.65 247.74 330.59 253.66C330.48 263.91 329.82 274.54 328.62 285.24V285.26Z" fill="#313233"/>
</svg>
