<svg width="395" height="395" viewBox="0 0 395 395" fill="none" xmlns="http://www.w3.org/2000/svg">
<path d="M224.953 361.91C209.543 364.25 155.493 368.9 107.223 330.6C68.043 299.51 55.573 258.23 51.613 235.72L64.163 245.66C65.083 246.39 66.173 246.74 67.263 246.74C68.733 246.74 70.2029 246.09 71.1829 244.85C72.9029 242.69 72.5329 239.54 70.3729 237.83L48.153 220.22C48.153 220.22 48.053 220.16 48.003 220.13C47.823 220 47.643 219.88 47.443 219.77C47.353 219.72 47.263 219.67 47.173 219.63C46.983 219.54 46.793 219.47 46.593 219.4C46.503 219.37 46.413 219.33 46.323 219.31C46.303 219.31 46.283 219.3 46.263 219.29C45.993 219.22 45.733 219.18 45.463 219.16C45.403 219.16 45.333 219.16 45.273 219.16C45.043 219.15 44.813 219.16 44.583 219.17C44.483 219.17 44.383 219.2 44.283 219.21C44.093 219.24 43.903 219.28 43.713 219.33C43.603 219.36 43.503 219.39 43.403 219.43C43.213 219.5 43.033 219.58 42.853 219.67C42.763 219.71 42.683 219.75 42.593 219.79C42.343 219.93 42.0929 220.1 41.8729 220.28C41.8229 220.32 41.783 220.37 41.743 220.41C41.563 220.57 41.383 220.75 41.233 220.94C41.203 220.97 41.173 221 41.143 221.03C41.103 221.08 41.083 221.13 41.043 221.18C40.983 221.26 40.913 221.34 40.863 221.42L26.253 244.03C24.753 246.35 25.423 249.44 27.743 250.94C30.063 252.44 33.153 251.77 34.653 249.45L41.923 238.2C46.303 262.36 59.773 305.69 101.023 338.42C137.853 367.64 177.823 373.4 203.593 373.4C213.813 373.4 221.803 372.49 226.473 371.78C229.203 371.37 231.083 368.82 230.663 366.09C230.253 363.36 227.693 361.48 224.973 361.9L224.953 361.91Z" fill="#313233"/>
<path d="M394.183 239.55C392.713 237.21 389.623 236.51 387.283 237.99L375.943 245.13C382.143 221.37 388.173 176.4 364.553 129.34C343.463 87.3299 309.633 65.2699 286.263 54.4199C276.993 50.1099 269.363 47.5699 264.833 46.2499C262.183 45.4799 259.403 46.9999 258.633 49.6499C257.863 52.2999 259.383 55.0799 262.033 55.8499C276.993 60.2199 327.973 78.7599 355.623 133.83C378.073 178.53 371.993 221.22 366.103 243.3L358.913 229C358.383 227.95 357.543 227.17 356.553 226.71C355.213 226.09 353.613 226.06 352.203 226.78C349.733 228.02 348.743 231.03 349.983 233.49L362.723 258.82C362.753 258.87 362.783 258.91 362.813 258.97C362.923 259.16 363.033 259.35 363.173 259.53C363.233 259.61 363.293 259.7 363.363 259.77C363.493 259.93 363.643 260.08 363.793 260.22C363.863 260.28 363.923 260.36 364.003 260.42C364.023 260.43 364.033 260.45 364.043 260.46C364.253 260.63 364.483 260.78 364.713 260.92C364.773 260.95 364.823 260.97 364.883 261C365.093 261.11 365.303 261.2 365.513 261.28C365.613 261.31 365.703 261.34 365.803 261.37C365.993 261.42 366.173 261.47 366.363 261.5C366.473 261.52 366.583 261.53 366.693 261.54C366.893 261.56 367.093 261.56 367.293 261.56C367.393 261.56 367.483 261.56 367.573 261.56C367.863 261.54 368.153 261.49 368.433 261.42C368.493 261.4 368.553 261.38 368.613 261.36C368.843 261.29 369.073 261.2 369.303 261.1C369.343 261.08 369.383 261.07 369.423 261.06C369.473 261.03 369.523 260.99 369.573 260.96C369.663 260.91 369.753 260.87 369.843 260.82L392.623 246.47C394.963 245 395.663 241.91 394.183 239.57V239.55Z" fill="#313233"/>
<path d="M139.203 200.91C140.153 199.86 140.613 198.46 140.463 197.05C137.583 168.74 118.813 146.62 92.983 138.46C101.523 132.61 107.613 123.44 109.403 112.82H112.793C113.653 112.82 114.453 113.16 115.043 113.78C115.643 114.4 115.953 115.21 115.923 116.07L115.153 136.98C115.073 139.04 116.273 140.94 118.173 141.75C118.813 142.03 119.483 142.16 120.153 142.16C121.463 142.16 122.753 141.64 123.713 140.67L150.233 113.76C150.813 113.17 151.633 112.83 152.463 112.83H218.923C226.163 112.83 232.053 106.94 232.053 99.7V13.13C232.053 5.89001 226.163 0 218.923 0H101.023C93.783 0 87.893 5.89001 87.893 13.13V71.3C82.803 68.85 77.093 67.47 71.073 67.47C49.623 67.47 32.1829 84.92 32.1829 106.36C32.1829 119.68 38.913 131.45 49.153 138.46C23.863 146.7 4.13297 169.12 0.0529721 196.83C-0.157028 198.27 0.262976 199.73 1.21298 200.83C2.16298 201.93 3.54301 202.56 4.99301 202.56H135.493C136.903 202.56 138.253 201.96 139.203 200.91ZM97.893 13.13C97.893 11.4 99.293 10 101.023 10H218.923C220.653 10 222.053 11.4 222.053 13.13V99.7C222.053 101.43 220.653 102.83 218.923 102.83H152.463C148.973 102.83 145.563 104.26 143.113 106.74L125.623 124.49L125.923 116.44C126.053 112.84 124.753 109.44 122.253 106.85C119.753 104.26 116.393 102.83 112.803 102.83H109.803C108.933 93.19 104.533 84.56 97.903 78.24V13.13H97.893ZM42.173 106.36C42.173 90.43 55.1329 77.47 71.063 77.47C77.3329 77.47 83.143 79.49 87.883 82.9C92.323 86.09 95.823 90.51 97.883 95.65C98.753 97.83 99.373 100.13 99.693 102.53C99.863 103.79 99.953 105.06 99.953 106.36C99.953 108.54 99.703 110.66 99.243 112.7C96.533 124.74 86.293 133.96 73.743 135.13C72.673 135.09 71.603 135.06 70.523 135.06C70.333 135.06 70.143 135.06 69.953 135.06C69.363 135.06 68.773 135.1 68.193 135.11C53.603 133.66 42.173 121.32 42.173 106.36ZM11.063 192.56C17.553 165.98 40.923 146.27 67.943 145.11C68.973 145.19 70.013 145.25 71.073 145.25C72.003 145.25 72.923 145.21 73.843 145.14C102.073 146.51 124.513 165.71 129.713 192.56H11.063Z" fill="#313233"/>
<path d="M333.983 330.13C344.223 323.12 350.963 311.34 350.963 298.02C350.963 276.57 333.513 259.13 312.073 259.13C304.853 259.13 298.083 261.12 292.283 264.56V200.68C292.283 193.44 286.393 187.56 279.163 187.56H164.683C157.483 187.56 151.623 193.42 151.623 200.62V284.58C151.623 291.82 157.513 297.7 164.743 297.7H230.493L257.183 324.78C258.143 325.75 259.433 326.27 260.743 326.27C261.413 326.27 262.083 326.14 262.723 325.86C264.613 325.04 265.813 323.15 265.743 321.09L264.883 297.7H273.193C273.193 297.8 273.193 297.91 273.193 298.01C273.193 311.33 279.923 323.1 290.163 330.11C264.873 338.35 245.143 360.77 241.063 388.48C240.853 389.92 241.273 391.38 242.223 392.48C243.173 393.58 244.553 394.21 246.003 394.21H376.503C377.913 394.21 379.263 393.61 380.213 392.56C381.163 391.51 381.623 390.11 381.473 388.7C378.593 360.39 359.823 338.27 333.993 330.11L333.983 330.13ZM259.693 287.71C258.333 287.71 257.033 288.26 256.093 289.24C255.153 290.22 254.643 291.54 254.693 292.89L255.273 308.61L236.153 289.2C235.213 288.25 233.933 287.71 232.593 287.71H164.753C163.033 287.71 161.633 286.31 161.633 284.59V200.63C161.633 198.94 163.003 197.57 164.693 197.57H279.173C280.893 197.57 282.293 198.97 282.293 200.69V273.06C278.753 277.28 276.093 282.26 274.583 287.72H259.693V287.71ZM283.173 298.03C283.173 297.71 283.183 297.39 283.193 297.07C283.453 289.17 286.893 282.07 292.273 277C297.443 272.13 304.413 269.13 312.063 269.13C327.993 269.13 340.953 282.09 340.953 298.02C340.953 313.05 329.423 325.42 314.743 326.78C313.673 326.74 312.603 326.71 311.523 326.71C311.333 326.71 311.143 326.71 310.953 326.71C310.363 326.71 309.773 326.75 309.193 326.76C294.603 325.31 283.173 312.97 283.173 298.01V298.03ZM252.063 384.23C258.553 357.65 281.923 337.94 308.943 336.78C309.973 336.86 311.013 336.92 312.073 336.92C313.003 336.92 313.923 336.88 314.843 336.81C343.073 338.18 365.513 357.38 370.713 384.23H252.063Z" fill="#313233"/>
<path d="M143.803 85.39C146.403 87.81 149.793 89.14 153.343 89.14C157.073 89.14 160.583 87.69 163.223 85.05L199.853 48.53C204.643 43.76 205.423 36.28 201.713 30.75C199.093 26.85 194.743 24.52 190.063 24.52C186.333 24.52 182.823 25.97 180.183 28.6L153.003 55.7L142.403 45.8401C139.803 43.4201 136.413 42.0901 132.863 42.0901C128.753 42.0901 124.863 43.89 122.203 47.0201C117.333 52.74 117.913 61.3 123.523 66.5201L143.803 85.39ZM129.823 53.5C130.623 52.56 131.743 52.0901 132.873 52.0901C133.853 52.0901 134.823 52.44 135.593 53.16L151.013 67.5C151.623 68.07 152.393 68.35 153.173 68.35C153.953 68.35 154.793 68.04 155.413 67.43L187.243 35.69C188.023 34.91 189.043 34.5201 190.063 34.5201C191.333 34.5201 192.603 35.12 193.413 36.32C194.483 37.92 194.163 40.09 192.793 41.45L156.173 77.97C155.393 78.75 154.373 79.14 153.353 79.14C152.333 79.14 151.393 78.78 150.633 78.07L130.353 59.2C128.753 57.71 128.423 55.17 129.843 53.5H129.823Z" fill="#313233"/>
<path d="M258.423 208.14H181.343C178.583 208.14 176.343 210.38 176.343 213.14C176.343 215.9 178.583 218.14 181.343 218.14H258.423C261.183 218.14 263.423 215.9 263.423 213.14C263.423 210.38 261.183 208.14 258.423 208.14Z" fill="#313233"/>
<path d="M258.423 235.25H181.343C178.583 235.25 176.343 237.49 176.343 240.25C176.343 243.01 178.583 245.25 181.343 245.25H258.423C261.183 245.25 263.423 243.01 263.423 240.25C263.423 237.49 261.183 235.25 258.423 235.25Z" fill="#313233"/>
<path d="M258.423 262.36H181.343C178.583 262.36 176.343 264.6 176.343 267.36C176.343 270.12 178.583 272.36 181.343 272.36H258.423C261.183 272.36 263.423 270.12 263.423 267.36C263.423 264.6 261.183 262.36 258.423 262.36Z" fill="#313233"/>
</svg>
