<svg width="348" height="365" viewBox="0 0 348 365" fill="none" xmlns="http://www.w3.org/2000/svg">
<path d="M213.583 260.69C217.372 260.69 220.443 257.619 220.443 253.83C220.443 250.041 217.372 246.97 213.583 246.97C209.795 246.97 206.723 250.041 206.723 253.83C206.723 257.619 209.795 260.69 213.583 260.69Z" fill="#313233"/>
<path d="M186.913 45.0801C190.702 45.0801 193.773 42.0088 193.773 38.2201C193.773 34.4314 190.702 31.3601 186.913 31.3601C183.125 31.3601 180.053 34.4314 180.053 38.2201C180.053 42.0088 183.125 45.0801 186.913 45.0801Z" fill="#313233"/>
<path d="M159.583 45.0801C163.372 45.0801 166.443 42.0088 166.443 38.2201C166.443 34.4314 163.372 31.3601 159.583 31.3601C155.795 31.3601 152.723 34.4314 152.723 38.2201C152.723 42.0088 155.795 45.0801 159.583 45.0801Z" fill="#313233"/>
<path d="M285.803 327.38C279.763 319.34 271.403 312.96 260.963 308.39C255.033 305.8 248.703 304.48 242.163 304.48H219.583V282.59C219.583 279.28 216.893 276.59 213.583 276.59C210.273 276.59 207.583 279.28 207.583 282.59V304.48H179.463V205.92H207.123V221.86C207.123 225.17 209.813 227.86 213.123 227.86C216.433 227.86 219.123 225.17 219.123 221.86V121.72L291.693 49.15C296.293 44.55 299.043 38.6 299.423 32.4C299.593 29.73 299.323 27.06 298.653 24.49C297.553 20.3 295.543 17.03 293.523 14.6C292.553 13.37 287.873 7.89 279.523 5.57C277.003 4.87 274.373 4.63 271.503 4.83C265.293 5.26 259.393 8.03 254.873 12.63C252.133 15.42 249.563 18 247.093 20.44C246.623 20.7 246.173 21.01 245.763 21.41C245.383 21.79 245.083 22.22 244.823 22.67C237.283 30.08 230.843 36.08 224.573 41.93C222.343 44.01 220.103 46.1 217.793 48.27C217.873 47.21 217.923 46.14 217.923 45.06C217.923 20.21 197.713 0 172.863 0C148.013 0 127.803 20.21 127.803 45.06C127.803 45.73 127.823 46.4 127.853 47.07C125.993 45.33 124.163 43.62 122.353 41.93C115.733 35.75 108.933 29.42 100.843 21.43C100.843 21.43 100.833 21.42 100.823 21.41C100.823 21.41 100.803 21.4 100.793 21.39C98.0433 18.68 95.1533 15.78 92.0533 12.63C87.5433 8.03 81.6333 5.26 75.4233 4.83C72.5433 4.63 69.9233 4.87 67.4033 5.57C59.0533 7.89 54.3733 13.36 53.4033 14.6C51.3833 17.02 49.3733 20.29 48.2733 24.49C47.5933 27.07 47.3333 29.73 47.5033 32.41C47.8833 38.61 50.6333 44.56 55.2333 49.16L127.803 121.73V304.48H100.513C92.9333 304.48 85.4533 306.3 78.8833 309.73C70.5533 314.09 63.5733 319.97 58.1333 327.21C50.5233 337.33 49.6233 347.78 49.6133 354.77C49.6133 357.3 50.5933 359.69 52.3733 361.48C54.1633 363.27 56.5433 364.26 59.0833 364.26H287.253C289.973 364.26 292.563 363.09 294.363 361.05C296.153 359.02 296.993 356.33 296.653 353.65C295.993 348.36 293.713 337.9 285.803 327.37V327.38ZM263.433 21.05C265.893 18.55 269.053 17.04 272.333 16.81C273.833 16.71 275.133 16.81 276.313 17.14C278.483 17.74 280.233 18.73 281.503 19.66L284.443 22.46C285.483 23.74 286.483 25.43 287.043 27.55C287.393 28.89 287.533 30.28 287.443 31.67C287.243 34.94 285.733 38.14 283.203 40.67L278.353 45.52L258.673 25.84C260.213 24.3 261.793 22.71 263.423 21.04L263.433 21.05ZM139.803 45.08C139.803 26.85 154.633 12.02 172.863 12.02C191.093 12.02 205.923 26.85 205.923 45.08C205.923 63.31 191.093 78.14 172.863 78.14C165.203 78.14 158.143 75.51 152.533 71.12C150.503 69.05 148.553 67.09 146.673 65.22C142.363 59.64 139.793 52.65 139.793 45.07L139.803 45.08ZM59.8833 27.55C60.4433 25.43 61.4433 23.75 62.4833 22.46L65.4233 19.66C66.7033 18.73 68.4433 17.75 70.6133 17.14C71.7933 16.81 73.0933 16.7 74.5933 16.81C77.8733 17.04 81.0333 18.54 83.4933 21.05C85.0733 22.66 86.5933 24.2 88.0733 25.68L68.3933 45.36L63.7133 40.68C61.1833 38.15 59.6733 34.95 59.4733 31.68C59.3933 30.28 59.5233 28.9 59.8733 27.55H59.8833ZM76.8933 53.85L96.6233 34.12C103.023 40.33 108.653 45.59 114.173 50.73C121.353 57.42 128.733 64.3 137.753 73.27C139.863 75.89 142.253 78.27 144.883 80.36C145.053 80.5 145.223 80.65 145.403 80.77C153.013 86.64 162.543 90.15 172.873 90.15C182.673 90.15 191.743 86.99 199.153 81.66C200.403 81.48 201.613 80.92 202.563 79.95C214.743 67.55 223.913 59 232.773 50.74C238.233 45.65 243.823 40.44 250.143 34.3L269.883 54.04L210.373 113.55C208.293 115.64 207.143 118.41 207.143 121.36V193.95H139.823V121.36C139.823 118.41 138.673 115.64 136.593 113.55L76.9133 53.87L76.8933 53.85ZM139.803 205.93H167.463V304.49H139.803V205.93ZM61.6633 352.26C61.9133 346.96 63.0933 340.58 67.7233 334.42C72.0833 328.62 77.7133 323.89 84.4433 320.37C89.3033 317.83 94.8633 316.48 100.513 316.48H242.163C247.043 316.48 251.753 317.46 256.163 319.38C264.693 323.11 271.433 328.22 276.213 334.58C281.223 341.24 283.363 347.8 284.273 352.25H61.6633V352.26Z" fill="#313233"/>
<path d="M272.123 230.7C268.813 230.7 266.123 233.39 266.123 236.7V245.37H257.453C254.143 245.37 251.453 248.06 251.453 251.37C251.453 254.68 254.143 257.37 257.453 257.37H266.123V266.04C266.123 269.35 268.813 272.04 272.123 272.04C275.433 272.04 278.123 269.35 278.123 266.04V257.37H286.793C290.103 257.37 292.793 254.68 292.793 251.37C292.793 248.06 290.103 245.37 286.793 245.37H278.123V236.7C278.123 233.39 275.433 230.7 272.123 230.7Z" fill="#313233"/>
<path d="M74.1233 230.7C70.8133 230.7 68.1233 233.39 68.1233 236.7V245.37H59.4533C56.1433 245.37 53.4533 248.06 53.4533 251.37C53.4533 254.68 56.1433 257.37 59.4533 257.37H68.1233V266.04C68.1233 269.35 70.8133 272.04 74.1233 272.04C77.4333 272.04 80.1233 269.35 80.1233 266.04V257.37H88.7933C92.1033 257.37 94.7933 254.68 94.7933 251.37C94.7933 248.06 92.1033 245.37 88.7933 245.37H80.1233V236.7C80.1233 233.39 77.4333 230.7 74.1233 230.7Z" fill="#313233"/>
<path d="M61.6733 181.34C65.7633 178.37 67.3933 173.34 65.8333 168.53L62.0633 156.92L71.9433 149.74C76.0333 146.77 77.6633 141.74 76.1033 136.93C74.5433 132.12 70.2633 129.02 65.2133 129.02H53.0033L49.2333 117.41C47.6733 112.6 43.3933 109.5 38.3433 109.5C33.2933 109.5 29.0133 112.61 27.4533 117.41L23.6833 129.02H11.4733C6.42327 129.02 2.14331 132.13 0.583314 136.93C-0.976686 141.74 0.653286 146.76 4.74329 149.74L14.6233 156.92L10.8533 168.53C9.29327 173.34 10.9233 178.36 15.0133 181.33C17.0533 182.82 19.4033 183.56 21.7433 183.56C24.0833 183.56 26.4333 182.82 28.4733 181.33L38.3533 174.15L48.2333 181.33C52.3233 184.3 57.6033 184.3 61.6933 181.33L61.6733 181.34ZM41.8533 161.9C40.8033 161.14 39.5633 160.75 38.3233 160.75C37.0833 160.75 35.8433 161.13 34.7933 161.9L22.7533 170.65L27.3533 156.49C28.1533 154.02 27.2733 151.31 25.1733 149.78L13.1333 141.03H28.0133C30.6133 141.03 32.9133 139.36 33.7233 136.88L38.3233 122.72L42.9233 136.88C43.7233 139.35 46.0333 141.03 48.6333 141.03H63.5233L51.4833 149.78C49.3833 151.31 48.5033 154.02 49.3033 156.49L53.9033 170.65L41.8633 161.9H41.8533Z" fill="#313233"/>
<path d="M346.583 136.94C345.023 132.13 340.743 129.03 335.693 129.03H323.483L319.713 117.42C318.153 112.61 313.873 109.51 308.823 109.51C303.773 109.51 299.493 112.62 297.933 117.42L294.163 129.03H281.953C276.903 129.03 272.623 132.14 271.063 136.94C269.503 141.75 271.133 146.77 275.223 149.75L285.103 156.93L281.333 168.54C279.773 173.35 281.403 178.37 285.493 181.35C289.583 184.33 294.873 184.32 298.953 181.35L308.833 174.17L318.713 181.35C320.753 182.84 323.103 183.58 325.443 183.58C327.783 183.58 330.133 182.84 332.173 181.35C336.263 178.38 337.893 173.35 336.333 168.55L332.563 156.94L342.443 149.76C346.533 146.79 348.163 141.76 346.603 136.95L346.583 136.94ZM321.973 149.78C319.873 151.31 318.993 154.02 319.793 156.49L324.393 170.65L312.353 161.9C311.303 161.14 310.063 160.75 308.823 160.75C307.583 160.75 306.343 161.13 305.293 161.9L293.253 170.65L297.853 156.49C298.653 154.02 297.773 151.31 295.673 149.78L283.633 141.03H298.523C301.123 141.03 303.423 139.36 304.233 136.88L308.833 122.72L313.433 136.88C314.233 139.35 316.543 141.03 319.143 141.03H334.023L321.983 149.78H321.973Z" fill="#313233"/>
</svg>
