<svg width="81" height="80" viewBox="0 0 81 80" fill="none" xmlns="http://www.w3.org/2000/svg">
<path d="M4.01367 13.2578V33.1438H23.8997" stroke="black" stroke-width="4" stroke-linecap="round" stroke-linejoin="round"/>
<path d="M76.929 66.2883V46.4023H57.043" stroke="black" stroke-width="4" stroke-linecap="round" stroke-linejoin="round"/>
<path d="M68.61 29.8274C66.9291 25.0772 64.0723 20.8303 60.3061 17.4829C56.5399 14.1354 51.9871 11.7966 47.0725 10.6846C42.158 9.57266 37.0418 9.72376 32.2015 11.1238C27.3611 12.5239 22.9543 15.1274 19.3922 18.6912L4.01367 33.1417M76.929 46.3991L61.5505 60.8496C57.9884 64.4134 53.5816 67.0168 48.7412 68.4169C43.9009 69.817 38.7847 69.9681 33.8701 68.8561C28.9556 67.7441 24.4028 65.4053 20.6366 62.0579C16.8704 58.7105 14.0136 54.4635 12.3326 49.7134" stroke="black" stroke-width="4" stroke-linecap="round" stroke-linejoin="round"/>
</svg>
