<svg width="80" height="80" viewBox="0 0 80 80" fill="none" xmlns="http://www.w3.org/2000/svg">
<path d="M39.8292 62.971C52.6424 62.971 63.0296 52.5838 63.0296 39.7707C63.0296 26.9575 52.6424 16.5703 39.8292 16.5703C27.0161 16.5703 16.6289 26.9575 16.6289 39.7707C16.6289 52.5838 27.0161 62.971 39.8292 62.971Z" stroke="black" stroke-width="5" stroke-linecap="round" stroke-linejoin="round"/>
<path d="M39.8281 29.8281V39.7711L44.7996 44.7426" stroke="black" stroke-width="5" stroke-linecap="round" stroke-linejoin="round"/>
<path d="M54.778 57.5058L53.618 70.1997C53.4687 71.8524 52.7049 73.3889 51.4776 74.5058C50.2503 75.6226 48.6487 76.2385 46.9894 76.2318H32.6383C30.9789 76.2385 29.3773 75.6226 28.15 74.5058C26.9227 73.3889 26.159 71.8524 26.0096 70.1997L24.8496 57.5058M24.8828 22.0424L26.0428 9.34855C26.1916 7.70158 26.9507 6.16972 28.171 5.05368C29.3912 3.93764 30.9846 3.31802 32.6383 3.31646H47.0556C48.715 3.30973 50.3166 3.92563 51.5439 5.04248C52.7712 6.15932 53.535 7.69588 53.6843 9.34855L54.8443 22.0424" stroke="black" stroke-width="5" stroke-linecap="round" stroke-linejoin="round"/>
</svg>
