<svg width="183" height="177" viewBox="0 0 183 177" fill="none" xmlns="http://www.w3.org/2000/svg">
<path fill-rule="evenodd" clip-rule="evenodd" d="M91.5469 0.949219C109.749 0.949219 124.505 15.7049 124.505 33.9069C124.505 52.1089 109.749 66.8645 91.5469 66.8645C73.3446 66.8645 58.5891 52.1089 58.5891 33.9069C58.5891 15.7049 73.3446 0.949219 91.5469 0.949219ZM36.4872 170.206C21.7614 159.507 18.497 138.896 29.1959 124.171C39.8948 109.445 60.5054 106.18 75.2312 116.88C89.9571 127.578 93.2213 148.189 82.5229 162.915C71.8238 177.641 51.2129 180.905 36.4872 170.206ZM154.004 124.171C164.704 138.896 161.439 159.507 146.714 170.206C131.988 180.905 111.377 177.641 100.678 162.915C89.9791 148.189 93.2434 127.578 107.969 116.88C122.695 106.18 143.306 109.445 154.004 124.171ZM2.41103 65.5496C8.03577 48.2386 26.629 38.7649 43.9402 44.3896C61.2514 50.0144 70.7251 68.6078 65.1004 85.9188C59.4756 103.23 40.8823 112.703 23.5712 107.079C6.25998 101.454 -3.21371 82.8612 2.41103 65.5496ZM139.131 44.3896C156.443 38.7649 175.036 48.2386 180.66 65.5496C186.285 82.8612 176.811 101.454 159.5 107.079C142.189 112.703 123.596 103.23 117.971 85.9188C112.347 68.6078 121.82 50.0144 139.131 44.3896Z" fill="#6D9180"/>
</svg>
