<svg width="197" height="190" viewBox="0 0 197 190" fill="none" xmlns="http://www.w3.org/2000/svg">
<path d="M38.8321 183.89C43.889 187.562 49.76 189.335 55.5881 189.335C64.3593 189.335 73.0155 185.32 78.5863 177.774C78.6023 177.758 78.6174 177.741 78.6317 177.723C78.6451 177.706 78.6586 177.688 78.6712 177.671L78.6905 177.643C78.7039 177.624 78.7165 177.606 78.7291 177.588L98.4423 150.481L118.155 177.588C118.175 177.618 118.195 177.64 118.214 177.665C118.223 177.677 118.232 177.689 118.241 177.702C127.526 190.349 145.368 193.136 158.067 183.904C170.781 174.673 173.623 156.825 164.452 144.079L164.432 144.047C164.415 144.02 164.402 144 164.381 143.979L144.71 116.856L176.58 106.482C191.55 101.609 199.778 85.4478 194.907 70.4714C190.037 55.4959 173.894 47.265 158.91 52.1236L127.041 62.4553L127.027 28.9169C127.012 13.1695 114.198 0.351562 98.4565 0.351562C82.7149 0.351562 69.9016 13.1695 69.8873 28.9312L69.8587 62.441L37.9894 52.1093C37.9768 52.1093 37.9614 52.1065 37.946 52.1021C37.9259 52.0967 37.9053 52.0887 37.8893 52.0807C22.9331 47.2793 6.84849 55.5102 1.99169 70.458C-2.86519 85.4049 5.30583 101.509 20.2047 106.425C20.2185 106.429 20.2309 106.434 20.2427 106.439L20.2952 106.46L20.3191 106.468L52.174 116.842L32.5038 143.965C32.4967 143.979 32.4861 143.993 32.4755 144.008C32.4646 144.022 32.454 144.036 32.4469 144.05C23.2617 156.797 26.1187 174.659 38.8321 183.89Z" fill="#728E6F"/>
</svg>
