<svg width="153" height="153" viewBox="0 0 153 153" fill="none" xmlns="http://www.w3.org/2000/svg">
<path d="M38.3922 0.148438C17.4045 0.148438 0.390625 17.1623 0.390625 38.15C0.390625 59.1381 17.4045 76.1516 38.3922 76.1516C17.4045 76.1516 0.390625 93.1652 0.390625 114.153C0.390625 135.141 17.4045 152.155 38.3922 152.155C59.3803 152.155 76.3938 135.141 76.3938 114.153C76.3938 135.141 93.4074 152.155 114.395 152.155C135.383 152.155 152.397 135.141 152.397 114.153C152.397 93.1652 135.383 76.1516 114.395 76.1516C135.383 76.1516 152.397 59.1381 152.397 38.15C152.397 17.1623 135.383 0.148438 114.395 0.148438C93.4074 0.148438 76.3938 17.1623 76.3938 38.15C76.3938 17.1623 59.3803 0.148438 38.3922 0.148438Z" fill="#659490"/>
</svg>
