<svg version="1.1" id="Layer_1" xmlns="http://www.w3.org/2000/svg" xmlns:xlink="http://www.w3.org/1999/xlink" x="0px" y="0px"
	 width="100%" viewBox="0 0 800 800" enable-background="new 0 0 800 800" xml:space="preserve">
<path fill="none" opacity="1.000000" stroke="#000000" stroke-linecap="round" stroke-linejoin="round" stroke-width="8.000000"
	d="
M579.500000,379.000000 
	C581.366333,373.047211 579.737976,366.995941 579.885193,360.997192 
	C580.053589,354.141418 576.946228,347.760193 575.896362,341.016144 
	C574.873047,334.441925 572.963989,328.008057 571.506836,321.498474 
	C567.396179,303.134766 561.854004,285.201080 555.523499,267.491608 
	C552.244568,258.318970 548.639221,249.277542 543.449341,241.031891 
	C534.713318,227.152206 521.271851,219.631134 505.965820,215.630798 
	C489.974854,211.451462 473.502258,210.076462 457.007996,208.888885 
	C440.013428,207.665298 422.986389,207.203232 406.000488,207.238205 
	C391.855835,207.267319 377.666840,207.425751 363.488159,208.309891 
	C345.578949,209.426697 327.735931,210.862747 310.004395,213.529175 
	C286.704895,217.032913 267.004242,225.927139 256.438995,248.972031 
	C248.576553,266.121521 242.786835,283.950653 237.464706,301.989594 
	C232.698654,318.143707 229.116714,334.577545 225.651382,351.031891 
	C225.141876,353.451141 223.478745,355.024841 223.000000,357.250000 
"/>
<path fill="none" opacity="1.000000" stroke="#000000" stroke-linecap="round" stroke-linejoin="round" stroke-width="9.000000"
	d="
M198.500000,501.500000 
	C200.103210,502.301270 201.825623,501.988678 203.500000,501.988831 
	C335.500000,502.000977 467.500000,502.000000 599.500000,502.000000 
	C601.333313,502.000000 603.166687,502.000000 605.000000,502.000000 
"/>
<path fill="none" opacity="1.000000" stroke="#000000" stroke-linecap="round" stroke-linejoin="round" stroke-width="9.000000"
	d="
M544.000000,535.000000 
	C542.167603,533.661072 540.047852,534.005920 538.000000,534.005737 
	C447.333344,533.999084 356.666656,533.978394 266.000000,534.016235 
	C245.164337,534.024902 224.334625,533.553223 203.500122,533.468750 
	C186.955917,533.401672 178.006882,521.812744 176.931519,507.505157 
	C175.222336,484.764801 175.340393,462.086121 178.573303,439.510498 
	C180.287354,427.541107 183.952759,416.137848 189.927490,405.459442 
	C195.166565,396.095886 203.132584,389.838226 212.043304,384.573273 
	C215.426331,382.574371 219.156693,381.183868 222.556854,379.092438 
	C225.325668,377.389313 228.854568,378.248108 232.034302,377.698364 
	C249.698395,374.644226 267.593536,373.857056 285.500000,373.499237 
	C302.000061,373.169556 318.509064,373.060516 334.996155,372.403595 
	C343.170349,372.077881 351.332245,372.066742 359.500092,372.016693 
	C370.499695,371.949310 381.500000,372.005585 392.500000,371.995575 
	C394.876343,371.993408 397.239166,372.150879 399.533783,371.071869 
	C400.360962,370.682861 401.150604,369.676788 402.525665,370.454620 
	C407.418396,373.222412 412.821716,371.863129 418.000854,371.947388 
	C436.498657,372.248505 454.999969,372.337921 473.500031,372.494934 
	C476.206360,372.517914 479.001831,372.820526 481.464447,371.436707 
	C482.197662,371.024719 483.000641,370.779144 483.472137,371.048737 
	C489.544617,374.520233 496.145691,372.714294 502.501892,372.948975 
	C524.055420,373.744812 545.570740,374.918091 567.003906,377.467285 
	C582.137817,379.267212 594.696106,385.627563 605.623413,396.374542 
	C615.783508,406.367035 619.578003,418.934509 622.428223,432.015625 
	C627.023010,453.103607 626.785034,474.583099 626.370117,495.997498 
	C626.244202,502.496948 626.400452,509.138031 624.057617,515.521118 
	C619.828857,527.042297 613.246155,532.923462 599.502686,533.557861 
	C583.333130,534.304382 567.166321,533.801453 550.999817,533.986450 
	C548.771790,534.011902 546.552612,533.925354 544.500000,535.000000 
"/>
<path fill="none" opacity="1.000000" stroke="#000000" stroke-linecap="round" stroke-linejoin="round" stroke-width="8.000000"
	d="
M455.000000,322.500000 
	C457.227356,319.540894 460.316498,317.754303 463.484283,315.972046 
	C484.139648,304.351013 491.647156,279.657745 482.988708,258.504639 
	C475.300446,239.721786 460.591370,230.086563 440.987244,228.677383 
	C420.075043,227.174164 403.600800,236.057220 393.640411,254.575531 
	C381.877258,276.445496 390.218231,302.786285 411.484711,315.525513 
	C414.857025,317.545685 418.929382,318.679169 421.000000,322.500000 
"/>
<path fill="none" opacity="1.000000" stroke="#000000" stroke-linecap="round" stroke-linejoin="round" stroke-width="9.000000"
	d="
M475.500000,451.499969 
	C471.000000,451.333313 466.500122,451.025543 461.999969,451.021820 
	C418.000000,450.985565 374.000000,451.000000 330.000000,451.000000 
"/>
<path fill="none" opacity="1.000000" stroke="#000000" stroke-linecap="round" stroke-linejoin="round" stroke-width="8.000000"
	d="
M610.500000,533.000000 
	C612.350952,540.127502 611.382935,547.307434 611.070557,554.503052 
	C610.867432,559.180359 610.832214,563.630127 607.550293,567.542236 
	C602.896179,573.089905 596.819458,574.898682 589.999695,574.975159 
	C581.000854,575.076050 571.999329,575.070374 563.000183,574.980713 
	C553.493347,574.885986 543.638794,568.034180 544.420288,555.994812 
	C544.861938,549.190186 544.500000,542.333313 544.500000,535.500000 
"/>
<path fill="none" opacity="1.000000" stroke="#000000" stroke-linecap="round" stroke-linejoin="round" stroke-width="8.000000"
	d="
M192.500000,533.000000 
	C190.820953,542.333313 190.456100,551.788025 192.649414,560.964294 
	C194.655136,569.355713 200.627991,573.945312 209.498352,574.525146 
	C220.505219,575.244629 231.504074,575.374756 242.498764,574.484741 
	C251.919159,573.722107 259.606812,566.101440 259.063416,555.496765 
	C258.722717,548.847534 259.000000,542.166687 259.000000,535.500000 
"/>
<path fill="none" opacity="1.000000" stroke="#000000" stroke-linecap="round" stroke-linejoin="round" stroke-width="8.000000"
	d="
M223.000000,378.000000 
	C221.420029,372.281952 224.070312,366.693939 223.524811,360.997620 
	C223.339783,359.065521 223.288925,357.745026 221.132324,356.302216 
	C217.512726,353.880615 214.550812,350.574219 210.551727,348.404663 
	C202.502045,344.037506 181.821045,344.050323 173.883087,351.881500 
	C163.825089,361.804199 166.563965,382.889557 176.936661,390.585358 
	C180.537582,393.256989 183.786697,396.045532 188.487900,396.602234 
	C190.064453,396.788971 191.499985,398.166687 192.999985,399.000000 
"/>
<path fill="none" opacity="1.000000" stroke="#000000" stroke-linecap="round" stroke-linejoin="round" stroke-width="8.000000"
	d="
M610.250000,399.000000 
	C617.252563,395.939911 624.890869,394.136536 629.563110,387.041534 
	C635.483704,378.050690 636.932556,360.373535 628.579590,352.910889 
	C623.566528,348.432220 618.173401,345.607605 611.499634,345.530334 
	C604.095154,345.444611 596.688171,344.877869 589.917297,349.375519 
	C586.803772,351.443695 584.728882,354.842560 581.000000,356.000000 
"/>
<path fill="none" opacity="1.000000" stroke="#000000" stroke-linecap="round" stroke-linejoin="round" stroke-width="8.000000"
	d="
M367.000000,370.750000 
	C367.971649,354.837402 374.618073,342.663147 390.050018,336.627930 
	C391.921478,335.896057 392.704590,334.509247 393.954315,333.446289 
	C399.189056,328.994019 405.649506,327.929108 412.003113,326.513916 
	C412.479462,326.407806 413.104034,326.685883 413.484772,326.472809 
	C423.121277,321.080261 433.564178,325.085022 443.465973,323.748077 
	C452.123291,322.579102 459.879578,325.401947 467.978821,326.638672 
	C473.043213,327.411957 478.228241,328.357361 482.988190,330.525909 
	C485.618561,331.724274 488.694153,332.402954 489.995636,335.501831 
	C490.470581,336.632782 491.443878,336.725159 492.486206,337.044952 
	C507.457031,341.638428 518.181824,354.828735 517.000000,372.000000 
"/>
<path fill="none" opacity="1.000000" stroke="#000000" stroke-linecap="round" stroke-linejoin="round" stroke-width="8.000000"
	d="
M482.500000,370.500000 
	C481.444580,364.903625 479.080200,358.560486 475.212128,355.922058 
	C467.581818,350.717407 460.065674,344.933411 450.047272,343.223022 
	C434.648712,340.594086 421.487000,344.747284 410.253571,354.298248 
	C406.102295,357.827789 402.669678,363.668182 402.000000,370.000000 
"/>
<path fill="none" opacity="1.000000" stroke="#000000" stroke-linecap="round" stroke-linejoin="round" stroke-width="8.000000"
	d="
M340.500000,316.000000 
	C326.333344,316.786285 312.166656,316.832703 298.000000,316.000000 
"/>
<path fill="none" opacity="1.000000" stroke="#000000" stroke-linecap="round" stroke-linejoin="round" stroke-width="8.000000"
	d="
M310.500000,292.000000 
	C318.166656,293.500000 325.926331,294.660400 333.440399,296.717682 
	C335.552338,297.295898 337.513000,297.088654 339.500000,297.500000 
"/>
<path fill="none" opacity="1.000000" stroke="#000000" stroke-linecap="round" stroke-linejoin="round" stroke-width="8.000000"
	d="
M392.500000,336.000000 
	C392.833313,336.333344 393.112244,336.860321 393.507996,336.971527 
	C402.273987,339.434845 407.378174,345.310760 409.500000,354.000000 
"/>
<path fill="none" opacity="1.000000" stroke="#000000" stroke-linecap="round" stroke-linejoin="round" stroke-width="8.000000"
	d="
M489.500031,337.000031 
	C488.333374,338.000031 487.310089,339.561188 485.975067,339.902344 
	C480.363098,341.336304 478.198761,345.198883 477.432190,350.490173 
	C477.205627,352.053925 476.166656,353.500000 475.500000,355.000000 
"/>
<path fill="none" opacity="1.000000" stroke="#000000" stroke-linecap="round" stroke-linejoin="round" stroke-width="8.000000"
	d="
M130.000000,535.500000 
	C123.409332,532.670898 116.313988,531.566101 109.500000,529.500000 
"/>
<path fill="none" opacity="1.000000" stroke="#000000" stroke-linecap="round" stroke-linejoin="round" stroke-width="8.000000"
	d="
M694.500000,528.750061 
	C687.166687,530.833374 679.833374,532.916687 672.500000,535.000061 
"/>
<path fill="none" opacity="1.000000" stroke="#000000" stroke-linecap="round" stroke-linejoin="round" stroke-width="8.000000"
	d="
M136.500000,498.500000 
	C137.665588,504.445068 142.846420,508.096680 145.064972,513.473206 
	C145.822372,515.308777 147.333328,516.833313 148.500000,518.500000 
"/>
<path fill="none" opacity="1.000000" stroke="#000000" stroke-linecap="round" stroke-linejoin="round" stroke-width="8.000000"
	d="
M666.500000,501.000000 
	C663.000000,506.333313 659.361694,511.583649 656.081299,517.048828 
	C655.049805,518.767456 653.843445,518.412415 652.500000,518.500000 
"/>
<path fill="none" opacity="1.000000" stroke="#000000" stroke-linecap="round" stroke-linejoin="round" stroke-width="8.000000"
	d="
M541.500000,404.500000 
	C530.450684,406.727783 521.679260,411.639984 516.380737,422.441498 
	C507.408234,440.732574 518.104553,460.922150 536.535461,465.867828 
	C556.141052,471.128693 574.956726,458.403595 576.880981,437.489044 
	C578.109741,424.133850 569.711182,409.910583 552.994080,405.522614 
	C549.409180,404.581635 545.723633,404.206757 542.000000,404.500000 
"/>
<path fill="none" opacity="1.000000" stroke="#000000" stroke-linecap="round" stroke-linejoin="round" stroke-width="8.000000"
	d="
M254.500000,404.500000 
	C248.559662,405.795410 242.820541,407.529999 237.994370,411.493134 
	C221.940598,424.676270 222.951950,448.778900 239.563614,460.912903 
	C251.301880,469.487152 267.103760,469.108398 277.941162,460.922089 
	C291.794128,450.457916 292.925354,433.394653 287.570190,422.963959 
	C280.671417,409.526672 269.561462,404.117218 255.000000,404.500000 
"/>
</svg>