<svg version="1.1" id="Layer_1" xmlns="http://www.w3.org/2000/svg" xmlns:xlink="http://www.w3.org/1999/xlink" x="0px" y="0px"
	 width="100%" viewBox="0 0 800 800" enable-background="new 0 0 800 800" xml:space="preserve">
<path fill="none" opacity="1.000000" stroke="#000000" stroke-linecap="round" stroke-linejoin="round" stroke-width="7.000000"
	d="
M618.500000,518.000000 
	C475.500000,518.000000 332.500000,518.000000 189.500000,518.000000 
"/>
<path fill="none" opacity="1.000000" stroke="#000000" stroke-linecap="round" stroke-linejoin="round" stroke-width="7.000000"
	d="
M618.500000,471.000000 
	C477.500000,471.000000 336.500000,470.997925 195.500000,471.020752 
	C193.499969,471.021088 191.500000,471.333344 189.500000,471.500000 
"/>
<path fill="none" opacity="1.000000" stroke="#000000" stroke-linecap="round" stroke-linejoin="round" stroke-width="8.000000"
	d="
M188.500000,282.000000 
	C183.985733,276.884491 179.014038,273.280151 171.490173,273.875793 
	C163.255371,274.527710 157.839798,279.295502 157.501755,287.500061 
	C157.488052,287.832855 157.500000,288.166656 157.500000,288.500000 
	C157.500000,369.500000 157.521561,450.500000 157.470078,531.500000 
	C157.464279,540.638428 161.777908,542.366882 167.522598,543.370667 
	C171.404099,544.048889 175.529282,543.805237 179.492813,543.425110 
	C184.821350,542.914001 187.982147,539.004761 187.990295,533.500000 
	C188.016403,515.833313 188.000000,498.166656 188.000000,480.500000 
	C188.000000,469.833344 188.000000,459.166656 188.000000,448.500000 
	C188.000000,435.500000 188.000000,422.500000 188.000000,409.500000 
	C188.000000,397.500000 187.263397,385.439209 188.247070,373.520386 
	C188.957214,364.915802 187.502365,356.514740 187.912888,347.995789 
	C188.313538,339.681763 187.995865,331.333344 188.000961,323.000000 
	C188.008698,310.324860 186.435379,297.316589 189.369247,285.088593 
	C192.541077,271.868774 196.840897,258.197510 210.994476,251.488342 
	C215.363327,249.417374 219.917770,248.971207 223.931992,251.603699 
	C228.268280,254.447403 228.271011,259.062042 228.192596,264.003052 
	C228.092545,270.308441 226.723816,276.735962 229.361618,283.057739 
	C230.670288,286.194153 232.307297,288.630188 235.000000,290.500000 
"/>
<path fill="none" opacity="1.000000" stroke="#000000" stroke-linecap="round" stroke-linejoin="round" stroke-width="7.000000"
	d="
M633.000000,353.000000 
	C638.675232,352.641052 644.299988,352.643402 647.950562,358.033478 
	C649.215576,359.901276 650.067078,361.974274 650.063354,364.500092 
	C649.980713,420.833313 650.007568,477.166656 649.988037,533.500000 
	C649.986084,539.062927 647.178589,542.060120 641.502563,543.015137 
	C637.322876,543.718445 633.177917,543.783264 628.997375,543.014160 
	C622.567688,541.831360 620.011169,538.929321 620.005371,532.500000 
	C619.989685,515.166687 620.000000,497.833344 620.000000,480.500000 
	C620.000000,469.500000 620.000000,458.500000 620.000000,447.500000 
	C620.000000,420.166656 619.991150,392.833344 620.005554,365.500000 
	C620.009644,357.766785 624.727051,353.080566 632.500000,353.000000 
"/>
<path fill="none" opacity="1.000000" stroke="#000000" stroke-linecap="round" stroke-linejoin="round" stroke-width="7.000000"
	d="
M189.500000,441.500000 
	C191.333328,441.666656 193.166595,441.977844 195.000015,441.978882 
	C241.666672,442.005676 288.334290,442.141266 334.998871,441.830078 
	C341.173767,441.788910 347.333008,442.061310 353.500061,442.055481 
	C439.833313,441.973633 526.166687,442.003387 612.500000,441.979126 
	C614.500061,441.978577 616.500000,441.666656 618.500000,441.500000 
"/>
<path fill="none" opacity="1.000000" stroke="#000000" stroke-linecap="round" stroke-linejoin="round" stroke-width="6.000000"
	d="
M620.500000,359.000000 
	C617.908569,358.007385 616.879700,355.568909 615.515808,353.489624 
	C604.673706,336.961060 588.856689,328.235107 570.015564,323.931854 
	C562.067078,322.116455 554.037903,321.989105 546.000854,321.486237 
	C537.724792,320.968414 530.295227,317.316071 522.473816,315.092072 
	C509.380249,311.368835 496.229431,307.676300 482.498749,307.026276 
	C481.480743,306.978088 480.606995,306.142212 479.997467,306.130402 
	C476.327942,306.059448 473.112854,305.805908 469.793457,309.304016 
	C462.831604,316.640717 454.980255,323.106110 448.447540,330.956360 
	C436.188263,345.688202 426.574036,361.977478 419.035980,379.515472 
	C413.966034,391.311279 409.518433,403.294769 406.842621,415.966766 
	C405.122742,424.111694 403.824677,432.213043 403.500000,440.500000 
"/>
<path fill="none" opacity="1.000000" stroke="#000000" stroke-linecap="round" stroke-linejoin="round" stroke-width="7.000000"
	d="
M300.500000,354.000000 
	C303.740509,349.374146 308.524109,346.353271 312.558167,342.561890 
	C319.001862,336.505859 321.738037,328.665924 322.838318,320.478271 
	C324.472443,308.318207 322.206543,296.644958 313.943268,287.048859 
	C305.197388,276.892334 294.507141,270.277527 280.501709,269.930695 
	C269.311584,269.653534 258.872284,270.976135 249.437134,277.914520 
	C237.283752,286.851807 229.866135,298.013306 229.986633,313.500092 
	C230.012772,316.859528 230.430222,320.276367 229.000000,323.500000 
"/>
<path fill="none" opacity="1.000000" stroke="#000000" stroke-linecap="round" stroke-linejoin="round" stroke-width="6.000000"
	d="
M242.500000,347.500000 
	C239.309662,351.284363 238.938599,358.456085 242.027267,362.479065 
	C249.188553,371.806519 258.830292,376.536072 270.501831,376.947754 
	C275.576294,377.126740 280.178558,378.199890 284.527313,380.956940 
	C294.321106,387.165924 304.508392,392.667114 315.514862,396.456818 
	C317.942841,397.292816 319.559509,398.693146 320.500000,401.000000 
"/>
<path fill="none" opacity="1.000000" stroke="#000000" stroke-linecap="round" stroke-linejoin="round" stroke-width="7.000000"
	d="
M471.000000,307.000000 
	C469.159424,304.351440 465.863037,304.441467 463.479828,304.194763 
	C446.340607,302.420410 429.213867,301.912292 412.487823,307.463287 
	C406.881927,309.323761 401.921326,311.915497 397.417297,315.906677 
	C390.228027,322.277405 384.219543,329.873169 377.197083,336.161713 
	C369.897980,342.697998 370.148743,349.974945 369.970947,357.999359 
	C369.739746,368.436096 368.008942,378.604401 364.558472,388.520355 
	C361.775726,396.517365 355.749176,400.955078 348.439392,403.846771 
	C346.334686,404.679382 343.480530,403.809235 341.003967,403.470886 
	C335.512665,402.720734 329.917419,403.072662 324.472321,401.602539 
	C322.646515,401.109589 320.286255,400.778107 318.541290,402.056366 
	C316.907166,403.253479 315.213043,402.895935 313.500031,403.000610 
	C306.999939,403.397797 300.552185,402.164581 293.984955,402.857544 
	C287.721344,403.518433 281.333344,403.000000 275.000000,403.000000 
	C268.666656,403.000000 262.311646,403.328156 256.005859,402.911469 
	C249.146744,402.458221 242.404053,402.356567 235.485550,402.737946 
	C220.198685,403.580627 204.833328,403.000000 189.500000,403.000000 
"/>
<path fill="none" opacity="1.000000" stroke="#000000" stroke-linecap="round" stroke-linejoin="round" stroke-width="6.000000"
	d="
M189.500000,316.500000 
	C198.513931,315.418976 207.315735,316.184845 216.023758,318.924500 
	C220.128586,320.215912 223.582626,322.899109 227.974564,323.648956 
	C230.561218,324.090607 231.094955,327.222076 231.995514,329.501770 
	C238.349792,345.586792 250.074387,355.304321 267.013672,358.425781 
	C274.340637,359.775940 281.827179,359.698944 288.973236,357.174255 
	C291.783264,356.181519 294.565948,355.419037 297.493378,354.957947 
	C299.519592,354.638824 301.363037,354.256500 303.017395,355.983337 
	C305.375458,358.444763 308.908600,357.475464 311.525146,357.683167 
	C321.016449,358.436584 329.473358,361.912628 338.009552,365.477142 
	C338.435303,365.654907 339.000000,365.500000 339.500000,365.500000 
"/>
<path fill="none" opacity="1.000000" stroke="#000000" stroke-linecap="round" stroke-linejoin="round" stroke-width="6.000000"
	d="
M190.000000,366.000000 
	C196.123566,368.731323 200.456223,374.001862 206.418335,377.154449 
	C217.371399,382.946136 227.806900,389.712006 238.522034,395.962219 
	C240.696091,397.230347 242.943405,398.223267 243.500000,401.000000 
"/>
<path fill="none" opacity="1.000000" stroke="#000000" stroke-linecap="round" stroke-linejoin="round" stroke-width="6.000000"
	d="
M401.000000,312.000000 
	C396.255463,307.387268 389.773499,307.377258 383.957825,306.210205 
	C378.225433,305.059906 372.783722,302.004669 366.454346,303.271912 
	C364.756012,303.611969 362.547760,301.073914 360.492004,300.015533 
	C349.722870,294.471191 339.152405,294.888855 329.056641,301.585388 
	C327.257843,302.778534 325.277588,303.397797 323.500000,304.500000 
"/>
<path fill="none" opacity="1.000000" stroke="#000000" stroke-linecap="round" stroke-linejoin="round" stroke-width="6.000000"
	d="
M348.000000,405.000000 
	C348.325287,409.484741 345.716431,413.273773 345.024231,417.503967 
	C343.771973,425.156616 342.666687,432.833344 341.500031,440.500000 
"/>
<path fill="none" opacity="1.000000" stroke="#000000" stroke-linecap="round" stroke-linejoin="round" stroke-width="7.000000"
	d="
M366.500000,304.000000 
	C366.833344,305.666656 366.765503,307.563324 367.567047,308.961548 
	C371.828156,316.394470 371.967743,324.349792 370.997772,332.499725 
	C370.686157,335.118256 371.361603,337.444305 373.000000,339.500000 
"/>
<path fill="none" opacity="1.000000" stroke="#000000" stroke-linecap="round" stroke-linejoin="round" stroke-width="8.000000"
	d="
M380.000000,205.000000 
	C381.937714,204.085892 383.567963,202.757950 386.067780,204.396622 
	C388.593658,206.052368 391.665802,204.545349 394.500183,204.518646 
	C400.832947,204.458984 407.166656,204.500000 413.500000,204.500000 
"/>
<path fill="none" opacity="1.000000" stroke="#000000" stroke-linecap="round" stroke-linejoin="round" stroke-width="7.000000"
	d="
M409.500000,173.750000 
	C406.074371,174.137131 406.569153,177.806259 404.612030,179.620834 
	C398.311127,185.462982 392.509399,191.842545 386.492950,197.993118 
	C385.109344,199.407547 383.899323,200.866333 384.000000,203.000000 
"/>
<path fill="none" opacity="1.000000" stroke="#000000" stroke-linecap="round" stroke-linejoin="round" stroke-width="7.000000"
	d="
M407.000000,174.500000 
	C404.815674,173.304565 402.505920,172.916397 399.999298,172.960312 
	C393.334686,173.077103 386.666656,173.000000 380.000000,173.000000 
"/>
<path fill="none" opacity="1.000000" stroke="#000000" stroke-linecap="round" stroke-linejoin="round" stroke-width="6.000000"
	d="
M357.000000,211.000000 
	C356.326569,214.042786 353.905396,215.813751 352.037567,218.031647 
	C347.964600,222.868088 342.979279,226.897018 339.500000,232.250000 
"/>
<path fill="none" opacity="1.000000" stroke="#000000" stroke-linecap="round" stroke-linejoin="round" stroke-width="7.000000"
	d="
M358.500000,209.750000 
	C352.028992,208.746567 345.507843,209.045914 339.000000,209.000000 
"/>
<path fill="none" opacity="1.000000" stroke="#000000" stroke-linecap="round" stroke-linejoin="round" stroke-width="7.000000"
	d="
M341.500000,231.500000 
	C345.057404,234.115448 349.148560,232.664917 353.002228,232.972168 
	C354.989594,233.130630 357.000000,233.000000 359.000000,233.000000 
"/>
<path fill="none" opacity="1.000000" stroke="#000000" stroke-linecap="round" stroke-linejoin="round" stroke-width="6.000000"
	d="
M316.500000,340.500000 
	C318.855896,342.518219 319.391846,344.956146 318.822540,348.013519 
	C318.244232,351.119019 318.250000,354.333344 318.000000,357.500000 
"/>
<path fill="none" opacity="1.000000" stroke="#000000" stroke-linecap="round" stroke-linejoin="round" stroke-width="7.000000"
	d="
M303.000000,255.500000 
	C304.262939,250.812454 308.074646,247.971954 311.021820,244.518616 
	C312.506165,242.779327 314.496948,241.437180 314.918274,238.449921 
	C309.746216,235.791489 304.079163,237.129333 298.500000,237.500000 
"/>
<path fill="none" opacity="1.000000" stroke="#000000" stroke-linecap="round" stroke-linejoin="round" stroke-width="7.000000"
	d="
M301.000000,256.000000 
	C307.148926,256.822998 313.298798,257.611511 319.500000,256.500000 
"/>
</svg>