<svg version="1.1" id="Layer_1" xmlns="http://www.w3.org/2000/svg" xmlns:xlink="http://www.w3.org/1999/xlink" x="0px" y="0px"
	 width="100%" viewBox="0 0 800 800" enable-background="new 0 0 800 800" xml:space="preserve">
<path fill="#000000" opacity="1.000000" stroke="none" 
	d="
M358.819031,193.866943 
	C383.518463,198.697800 401.853424,211.565109 412.594574,234.082748 
	C427.472839,265.273438 417.481995,302.080322 389.176483,321.879883 
	C387.715607,322.901733 386.279114,323.958496 384.338440,325.353180 
	C391.492188,330.263641 398.170868,334.840363 404.255493,340.215637 
	C420.603943,354.658325 436.761353,369.362549 455.054688,381.391388 
	C467.851715,389.806122 480.701904,398.121643 495.367615,403.176300 
	C502.470032,405.624207 509.163727,409.090240 514.529663,414.589508 
	C521.940247,422.184174 525.634094,431.149872 521.726013,441.423615 
	C517.768127,451.828125 509.007751,456.367126 498.248444,457.271973 
	C490.682037,457.908295 483.330505,456.529663 476.047272,454.636139 
	C473.168915,453.887756 470.263947,453.241760 467.027618,452.466919 
	C462.046844,467.630432 450.264557,472.744812 435.298767,473.783325 
	C436.805817,476.515503 438.158478,478.735107 439.292725,481.061218 
	C447.620697,498.139862 442.480865,517.072632 426.070496,529.155945 
	C416.088409,536.505920 404.938202,541.788635 393.529602,546.484070 
	C390.592346,547.692993 389.095703,549.366028 388.411438,552.492676 
	C386.754303,560.064453 384.075348,567.242554 377.788544,572.355652 
	C365.368500,582.457031 350.610535,582.582703 336.758820,572.943420 
	C333.645874,570.777161 331.290131,567.102661 327.450378,566.519897 
	C322.958374,565.838074 321.623932,570.842590 318.539551,572.905457 
	C304.029358,582.609985 288.709198,586.482361 271.675507,580.605103 
	C261.074249,576.947327 253.701874,569.932556 249.931458,559.433167 
	C248.755280,556.157898 246.947021,554.870850 243.702805,553.998108 
	C223.124985,548.462402 202.653900,542.675232 183.881836,532.064575 
	C164.754730,521.253174 156.922394,501.091187 165.488312,481.025146 
	C171.204926,467.633759 182.412018,460.406372 196.550476,457.806427 
	C201.274231,456.937836 206.076950,456.273804 210.925186,457.483307 
	C214.763947,458.440979 215.168976,455.619568 215.775253,452.866302 
	C219.533707,435.798584 223.512894,418.794861 229.787888,402.416321 
	C238.835510,378.800903 249.949493,356.264587 266.306213,336.827087 
	C274.478333,327.115784 284.311432,319.013702 296.823273,315.444214 
	C297.236145,313.690460 296.075409,313.078186 295.324371,312.254456 
	C275.968689,291.026001 270.101105,266.379913 280.068909,239.593765 
	C289.961273,213.010315 309.924042,197.424622 338.493134,193.552353 
	C345.177460,192.646362 351.767426,192.916458 358.819031,193.866943 
M233.375305,419.795959 
	C230.799332,429.446350 228.028198,439.050018 225.701431,448.760101 
	C223.302322,458.772217 223.491562,458.817780 233.515564,461.287079 
	C234.162308,461.446411 234.810303,461.600739 235.458450,461.754242 
	C271.523193,470.295776 307.793091,472.577454 344.418549,465.571960 
	C348.418335,464.806885 351.288544,463.683594 351.551575,459.015930 
	C351.798004,454.642212 352.474609,450.759766 347.042938,448.319580 
	C326.528381,439.103424 308.277893,426.300476 291.342041,411.610474 
	C286.567505,407.469086 282.135376,402.920807 277.690277,398.416962 
	C275.549774,396.248077 275.180725,393.481567 277.528717,391.314270 
	C279.774353,389.241364 282.157166,390.148102 284.101837,392.230774 
	C285.351685,393.569305 286.488892,395.025970 287.827972,396.266266 
	C326.264893,431.866364 370.498230,456.053925 422.710419,464.248505 
	C431.108215,465.566498 439.728699,465.734222 447.720551,461.859528 
	C460.190796,455.813721 461.147217,442.818115 449.766418,434.930298 
	C443.768097,430.773041 437.038055,428.366364 429.863464,427.349854 
	C411.095093,424.690765 393.903595,417.523132 377.529205,408.465179 
	C357.512787,397.392487 340.924164,381.905914 324.983307,365.721130 
	C322.773407,363.477417 320.712585,360.851166 323.660431,357.990509 
	C326.336426,355.393646 328.744080,357.173798 330.982788,359.314087 
	C338.688507,366.680939 346.350494,374.102264 354.285065,381.217438 
	C358.539337,385.032379 363.316711,388.263977 368.155762,391.987976 
	C368.938965,390.294220 369.440765,389.441772 369.740875,388.523438 
	C372.383606,380.436951 374.193604,372.154022 375.499237,363.755005 
	C375.913544,361.089844 377.394531,359.371521 380.157837,359.534912 
	C383.233063,359.716766 384.287842,361.873688 384.370972,364.719360 
	C384.464752,367.931152 384.077301,371.155914 382.901428,374.050964 
	C379.307281,382.900024 381.077118,389.213165 389.260254,395.078308 
	C403.559143,405.326813 416.549438,416.914398 435.273041,419.556580 
	C448.031097,421.356934 460.056885,426.789612 465.473877,440.488068 
	C465.791168,441.290344 466.779175,442.089935 467.629120,442.379059 
	C477.862488,445.860626 488.014648,449.644501 499.218323,447.949371 
	C505.881744,446.941162 510.968903,444.067413 513.065979,437.437988 
	C515.028320,431.234467 512.711426,425.938049 508.443573,421.492126 
	C503.726685,416.578400 497.797028,413.508453 491.384888,411.435852 
	C483.399994,408.854950 476.043152,404.982910 468.829376,400.806854 
	C444.473053,386.706848 422.687897,369.239746 402.119904,350.125854 
	C394.565460,343.105499 386.761627,336.293091 376.988953,332.278198 
	C374.075562,331.081329 371.477295,330.876251 368.364532,331.855988 
	C349.062439,337.931061 330.362793,335.789551 312.926544,325.897095 
	C306.853302,322.451447 301.799530,322.971497 296.020294,325.273254 
	C283.533508,330.246490 275.005554,339.770416 267.479828,350.281616 
	C252.418701,371.317474 241.554062,394.468719 233.375305,419.795959 
M321.318054,320.184052 
	C334.159454,326.015839 347.547882,327.792450 361.276794,324.557007 
	C395.933197,316.389679 416.546661,283.343719 408.757568,249.585632 
	C401.719757,219.083511 369.455444,197.107681 337.938660,202.514511 
	C320.168793,205.563004 305.460907,213.955978 295.328979,229.407333 
	C274.212006,261.611145 285.808929,303.136169 321.318054,320.184052 
M363.187317,547.647949 
	C382.877594,541.276062 402.339050,534.294678 419.676697,522.701172 
	C429.675629,516.015015 434.639587,506.421234 433.726044,494.146271 
	C432.885101,482.846222 424.953003,474.042114 413.891998,472.015106 
	C408.985229,471.115906 403.985535,470.427643 399.259003,468.919678 
	C393.999207,467.241547 389.285431,467.884430 384.269684,469.792877 
	C362.547089,478.058472 342.385834,489.475800 322.085663,500.570923 
	C316.965302,503.369476 311.403076,505.765564 306.682465,510.142059 
	C327.989685,518.330322 336.644501,533.273438 331.764679,555.785522 
	C342.679626,553.740051 352.570923,550.890015 363.187317,547.647949 
M251.610352,532.277466 
	C259.435120,517.624817 272.389343,510.892731 288.224060,508.810883 
	C291.429382,508.389465 294.255707,507.855377 296.223206,504.725494 
	C271.172272,491.217896 245.893982,478.989990 219.738159,468.633331 
	C213.456039,466.145844 206.840851,465.605011 200.102768,466.308350 
	C183.429398,468.048767 171.032257,481.247009 171.222351,497.097687 
	C171.394180,511.426697 179.809845,519.811646 191.678604,525.844849 
	C207.478790,533.876587 224.187744,539.395569 241.229080,544.017273 
	C243.242371,544.563232 245.230225,545.653259 247.570618,544.828552 
	C248.934998,540.895264 249.318512,536.671204 251.610352,532.277466 
M323.615662,539.208740 
	C320.987030,527.980652 313.598083,521.379822 302.771393,518.677185 
	C289.198395,515.288940 276.978760,518.931763 266.417358,527.615479 
	C258.426758,534.185608 255.793320,543.232117 257.749725,553.254517 
	C259.765198,563.579468 266.748077,569.585266 276.497681,572.648499 
	C281.843719,574.328125 287.374084,574.311829 292.824493,573.642090 
	C308.418793,571.725952 326.430481,559.767212 323.615662,539.208740 
M294.047485,493.398468 
	C301.519073,499.234528 308.274689,499.345490 316.604462,493.609406 
	C328.864471,485.166931 342.696289,479.203278 356.102997,472.379120 
	C324.407379,479.807587 292.533173,480.950806 260.464508,476.370331 
	C271.440369,481.930298 282.416229,487.490265 294.047485,493.398468 
M375.083099,561.537537 
	C376.771759,558.840149 379.028015,556.316956 377.917175,552.037109 
	C365.428314,557.056580 352.631592,559.970459 339.366089,563.587341 
	C353.450439,573.655273 366.504242,572.853149 375.083099,561.537537 
M366.125488,457.670319 
	C364.611359,457.169922 363.315643,455.856567 361.067719,456.528412 
	C360.650635,458.677307 359.171570,461.056732 361.304688,463.210114 
	C363.094574,465.016998 373.924683,463.951080 376.573792,461.770660 
	C373.195282,460.469788 369.984070,459.233337 366.125488,457.670319 
z"/>
<path fill="#000000" opacity="1.000000" stroke="none" 
	d="
M568.038086,579.326233 
	C526.009277,583.756226 491.325684,554.482056 490.117493,512.714478 
	C488.887390,470.189148 525.667175,438.492859 565.556274,443.019836 
	C597.878357,446.688019 622.095154,468.778748 627.139282,498.221863 
	C634.055847,538.594360 609.342896,572.751221 568.038086,579.326233 
M559.547668,509.177307 
	C557.625916,507.818451 555.759216,507.845795 553.483948,508.653992 
	C537.231506,514.426941 537.212952,514.374634 537.301208,531.734924 
	C537.302063,531.901123 537.331665,532.073242 537.299316,532.232727 
	C535.713074,540.062439 540.484741,544.299500 546.413208,547.430847 
	C549.901306,549.273193 553.182739,552.711243 557.836487,550.867859 
	C563.242432,548.726562 568.621582,546.541565 573.484192,543.247498 
	C581.728149,537.662842 581.719788,522.872864 573.357483,517.520569 
	C569.024231,514.747070 564.586243,512.137146 559.547668,509.177307 
M558.446716,490.468567 
	C558.716736,493.114319 559.148010,495.756317 559.209412,498.406921 
	C559.266052,500.848267 560.266479,502.372406 562.344849,503.612091 
	C568.056396,507.018768 573.661011,510.604462 579.318542,514.102112 
	C580.576660,514.879883 581.746460,515.588623 583.465820,515.278809 
	C593.814087,513.414185 598.997009,507.226624 598.605652,496.747009 
	C598.469482,493.098145 597.901306,489.467072 597.693665,485.818573 
	C597.585999,483.925476 596.487183,482.845306 595.226196,481.708405 
	C581.476135,469.311829 580.696228,469.379028 564.608582,478.548096 
	C559.956726,481.199371 557.513611,484.282898 558.446716,490.468567 
M502.939117,530.525574 
	C504.138031,537.913147 510.620392,540.358032 515.538269,544.435242 
	C519.539612,547.752625 522.511475,545.625549 525.908630,544.008240 
	C529.369629,542.360596 531.674133,540.075073 530.762390,535.855957 
	C529.613831,530.540588 530.488098,525.308228 531.314636,520.056030 
	C532.004761,515.670166 522.705017,503.897766 518.357727,503.536224 
	C518.035767,503.509460 517.702759,503.589630 517.377197,503.636627 
	C506.283691,505.237946 499.285797,515.074524 501.530365,525.955872 
	C501.797852,527.252686 502.260010,528.509277 502.939117,530.525574 
M553.482666,476.390717 
	C555.539734,476.954041 556.938965,475.559448 558.498596,474.681091 
	C562.688782,472.321320 566.644897,469.567810 571.141968,467.722931 
	C573.604614,466.712646 576.784607,466.195129 576.654968,462.281586 
	C576.523743,458.318634 574.619568,456.011780 571.041565,454.325653 
	C559.425842,448.851746 548.291992,451.879303 537.196167,455.864594 
	C533.939819,457.034180 531.156250,458.966309 531.503052,463.071167 
	C531.927368,468.093842 535.636353,473.015686 539.505310,473.760437 
	C543.906006,474.607513 548.323303,475.368317 553.482666,476.390717 
M579.485229,546.750854 
	C573.947083,550.425415 568.279480,553.798889 561.894653,555.904419 
	C557.398071,557.387207 553.982666,563.412842 555.684326,567.161255 
	C557.548462,571.267395 561.453064,570.931519 565.196472,570.329407 
	C566.505798,570.118774 567.839783,570.050598 569.141296,569.804871 
	C577.187866,568.285950 584.992188,566.025574 591.709717,561.143066 
	C596.014404,558.014343 596.390137,549.868835 592.357849,548.652100 
	C588.434326,547.468201 584.440674,546.128113 579.485229,546.750854 
M516.301208,496.844177 
	C520.272644,490.164093 523.102661,482.815918 528.102234,476.733795 
	C528.789185,475.898102 528.629578,474.858887 528.299561,473.873016 
	C527.068420,470.195587 525.843079,466.516266 524.592346,462.768097 
	C509.237885,473.895569 496.445007,496.835907 500.957520,505.375549 
	C505.806213,502.554596 510.215302,498.908142 516.301208,496.844177 
M604.803528,502.878357 
	C602.827454,508.937744 607.489868,512.769287 609.643738,517.463013 
	C611.291687,521.054016 613.313232,521.106262 616.200928,518.815491 
	C618.333801,517.123535 619.595398,515.107056 619.524475,512.448975 
	C619.264343,502.694000 617.544006,493.251556 612.786072,484.599426 
	C611.726440,482.672638 610.652039,479.808289 607.766907,480.677399 
	C604.914856,481.536621 604.051147,484.082611 604.296143,487.112488 
	C604.696655,492.064697 605.950623,496.991302 604.803528,502.878357 
M610.429688,532.808350 
	C608.758423,537.188904 606.237000,541.096863 603.323669,544.702148 
	C601.264160,547.250732 601.145264,549.794495 601.940369,553.361633 
	C609.628906,545.224426 615.010559,536.660645 617.711487,526.085266 
	C613.320862,526.478577 611.502136,528.748962 610.429688,532.808350 
z"/>
<path fill="#000000" opacity="1.000000" stroke="none" 
	d="
M613.700195,423.792877 
	C614.539307,421.943542 615.180969,420.412537 615.962341,418.956512 
	C617.105286,416.826782 618.827026,415.597321 621.258179,416.685028 
	C623.570740,417.719696 624.387756,419.852722 623.421814,422.066528 
	C621.111389,427.361847 618.636536,432.597504 615.943542,437.707306 
	C615.015442,439.468323 613.099487,440.730347 610.890808,439.645233 
	C608.543640,438.492004 608.216797,436.242920 609.057861,434.088165 
	C610.379150,430.702972 612.045044,427.452301 613.700195,423.792877 
z"/>
<path fill="#000000" opacity="1.000000" stroke="none" 
	d="
M644.850342,483.410522 
	C643.385803,479.398773 645.408020,477.697479 648.551880,477.030670 
	C653.257996,476.032532 658.020447,475.301910 662.754395,474.432648 
	C665.605591,473.909027 667.903809,474.709778 668.506531,477.689880 
	C669.139465,480.819336 666.987732,482.166260 664.262634,482.703430 
	C659.869995,483.569366 655.481262,484.474121 651.060791,485.171936 
	C648.956848,485.504059 646.700073,485.741760 644.850342,483.410522 
z"/>
<path fill="#000000" opacity="1.000000" stroke="none" 
	d="
M633.787109,449.917419 
	C637.833984,446.989929 641.575684,444.269562 645.380127,441.639893 
	C647.695740,440.039307 650.173279,439.724243 651.881409,442.337189 
	C653.477905,444.779327 652.087097,446.644501 649.990723,448.177429 
	C646.257874,450.907104 642.609253,453.751740 638.887207,456.496521 
	C636.640869,458.153107 634.081909,459.497162 631.834839,456.879517 
	C629.521057,454.184174 631.348999,452.013824 633.787109,449.917419 
z"/>
</svg>