<svg version="1.1" id="Layer_1" xmlns="http://www.w3.org/2000/svg" xmlns:xlink="http://www.w3.org/1999/xlink" x="0px" y="0px"
	 width="100%" viewBox="0 0 1024 672" enable-background="new 0 0 1024 672" xml:space="preserve">
<path fill="#000000" opacity="1.000000" stroke="none" 
	d="
M375.937378,336.041412 
	C383.000214,335.635651 389.229553,331.972992 396.201080,330.995422 
	C404.498260,329.832001 412.817932,329.112061 421.091003,330.014221 
	C428.743652,330.848694 435.206635,334.355164 439.370239,341.852692 
	C448.756378,342.440826 458.417633,340.648590 468.121460,339.489502 
	C469.885162,339.278839 470.893158,337.825348 472.044983,336.597748 
	C483.106201,324.808563 496.333374,318.080872 512.898376,319.677429 
	C520.639221,320.423523 527.803040,323.155548 534.297913,327.395233 
	C539.229370,330.614380 540.114685,336.120239 541.168152,341.321014 
	C541.623047,343.566956 542.367554,345.264343 544.101746,346.831848 
	C554.693359,356.405334 556.203857,375.665344 546.787598,386.139862 
	C543.540283,389.752197 539.106812,392.408234 534.907227,395.002502 
	C533.126648,396.102386 531.572815,397.005249 530.774658,398.973328 
	C525.865906,411.076874 504.813507,421.465393 489.877319,414.804291 
	C485.198273,412.717590 482.674927,413.480682 479.793945,416.703308 
	C478.839752,417.770569 477.070312,418.100861 476.827362,420.425476 
	C482.793884,422.626251 489.181580,423.482361 495.431702,424.806030 
	C506.172333,427.080719 516.240295,430.926636 524.611511,438.159393 
	C538.703613,450.334930 542.312561,466.361877 539.510132,483.886383 
	C535.141052,511.208344 517.375488,528.879211 495.141602,542.998779 
	C489.356201,546.672791 483.159424,549.492371 476.747101,551.890198 
	C474.443512,552.751587 472.270782,553.962830 469.246307,555.387451 
	C473.345734,559.780151 476.764862,563.969482 479.650696,568.542236 
	C492.362549,588.684570 480.310150,605.419434 462.052216,609.015198 
	C443.871033,612.595825 425.992493,608.862671 408.294769,604.500122 
	C392.382111,600.577515 377.304993,594.520874 362.607147,587.360046 
	C359.572876,585.881714 357.257233,582.742493 353.116486,582.882324 
	C352.811127,588.741821 354.705841,594.221619 354.325043,599.871887 
	C353.077209,618.387146 340.773682,628.223816 322.561493,624.553528 
	C307.933746,621.605652 298.763245,611.443787 290.540985,600.598206 
	C277.389679,583.250977 270.916077,563.377869 271.699066,541.399414 
	C271.752258,539.906677 271.855438,538.404480 272.096832,536.933105 
	C272.307983,535.646423 273.054016,534.409668 271.890533,532.547058 
	C266.500824,532.411743 261.326935,534.928284 255.917679,536.006348 
	C230.018265,541.168274 204.323288,547.817322 177.686829,547.867798 
	C143.035461,547.933472 120.992149,529.149902 112.580627,495.438873 
	C107.438171,474.829407 109.474350,455.001801 113.261513,434.771790 
	C116.161537,419.280579 118.118790,403.615265 120.745583,388.069672 
	C122.460785,377.919006 125.396492,368.019836 127.644768,357.984406 
	C133.257797,332.929962 140.371490,308.382751 150.909714,284.934875 
	C164.548447,254.588272 183.844070,228.624115 211.576233,209.730042 
	C220.478363,203.665009 230.214523,198.681824 241.344131,197.573242 
	C244.771530,197.231842 246.504150,195.582321 246.757019,191.775742 
	C247.143250,185.961746 246.650696,181.843597 240.230881,178.730911 
	C229.957733,173.749893 227.963379,163.178116 226.755203,152.941650 
	C225.718185,144.155502 228.477997,136.196442 233.456238,128.953568 
	C234.090881,128.030182 234.621872,126.901848 234.783798,125.806786 
	C239.005371,97.257507 252.629593,74.738464 277.492310,59.561234 
	C297.250488,47.500038 318.683777,42.710064 341.851105,44.276241 
	C352.188782,44.975090 362.272675,46.277824 372.358246,48.577797 
	C379.607025,50.230850 385.489624,54.072163 391.440338,58.021244 
	C394.382385,59.973690 397.286469,61.713177 401.014496,61.877151 
	C402.548584,61.944622 404.192810,62.892597 405.517273,63.823654 
	C420.074524,74.056976 432.100067,86.320053 438.413940,103.502960 
	C445.800415,123.604927 450.596069,144.155106 447.245056,165.566071 
	C442.666168,194.822266 429.679688,219.457504 404.802582,236.806213 
	C402.700989,238.271790 400.933228,239.698654 403.516998,242.273422 
	C414.974121,253.690689 420.747375,268.182343 425.173889,283.265533 
	C427.644470,291.683990 429.281708,300.347168 431.286835,308.901886 
	C432.468536,313.943573 434.265808,318.773621 436.285736,323.527771 
	C437.456207,326.282532 437.398468,328.956848 434.661865,330.584839 
	C431.407593,332.520782 429.549011,329.768951 428.285675,327.596924 
	C423.778229,319.847351 422.266541,311.103912 420.683075,302.437378 
	C417.478455,284.897827 411.466949,268.490082 401.366608,253.695953 
	C400.805756,252.874481 400.108795,252.143188 399.450897,251.391205 
	C395.042572,246.352676 390.857025,243.834152 383.344147,247.176147 
	C365.474365,255.125214 346.269012,257.855316 326.801514,256.986969 
	C311.064545,256.285004 295.811981,252.689362 281.871643,244.937454 
	C267.875793,237.154678 257.913208,225.484360 251.042892,211.213226 
	C249.123474,207.226181 247.120026,206.036026 242.636398,206.709015 
	C228.891541,208.772110 217.937820,216.067322 207.457825,224.384720 
	C195.507248,233.869247 185.322845,245.131271 176.649506,257.572784 
	C167.985855,270.000336 160.892181,283.390228 155.128220,297.480194 
	C144.306915,323.932739 138.026505,351.658447 132.156662,379.457855 
	C127.835678,399.921906 124.389153,420.571228 121.058022,441.235992 
	C119.627655,450.109344 118.734688,459.018463 117.537773,467.902710 
	C116.998940,471.902283 117.276154,475.847015 119.205025,480.364532 
	C151.746704,467.720093 184.159424,455.125763 217.393356,442.212341 
	C207.275879,438.181763 197.772568,435.441559 189.647110,429.264008 
	C178.183640,420.548706 171.156464,408.923370 165.735397,396.048157 
	C163.930969,391.762573 162.361282,387.332184 161.215485,382.832733 
	C160.544128,380.196442 160.235382,376.701752 163.963760,375.848480 
	C167.797729,374.971008 168.255417,378.228790 169.280884,380.976929 
	C176.218887,399.569702 184.033829,417.522919 203.554504,426.767456 
	C217.853119,433.538940 232.683228,436.118256 248.562042,434.874359 
	C269.169098,433.260071 289.515808,430.267059 309.623474,425.681000 
	C318.198822,423.725189 326.560974,420.831818 335.013947,418.343811 
	C337.408325,417.639069 339.097900,416.755920 338.546051,413.478210 
	C336.260925,399.905884 333.577301,386.337128 335.595520,372.437744 
	C335.779083,371.173645 335.500305,369.842468 335.438446,368.586945 
	C333.380524,367.672211 331.630463,368.333099 329.894348,368.770477 
	C313.733429,372.842438 297.284424,374.961182 280.708405,376.460571 
	C270.599915,377.374969 260.599762,378.229370 250.490616,376.313019 
	C244.837921,375.241455 239.645950,373.279205 234.570618,370.699249 
	C228.840668,367.786591 227.344574,363.103333 227.693710,357.025513 
	C228.438873,344.053375 230.573425,331.262115 232.960953,318.557983 
	C234.514755,310.290039 235.727356,301.841370 238.909653,293.911865 
	C239.805252,291.680237 240.393311,289.098907 243.531601,289.895081 
	C246.472046,290.641083 246.584442,293.201019 246.024933,295.587952 
	C243.250397,307.424316 241.433548,319.425354 239.614594,331.431122 
	C238.393356,339.491699 237.154434,347.516541 236.988983,355.718475 
	C236.876373,361.300018 239.198776,364.685211 244.216858,366.227783 
	C252.200775,368.682068 260.408875,370.123566 268.783356,369.473969 
	C283.204956,368.355286 297.573761,366.606079 311.757355,363.780090 
	C321.027374,361.933105 330.062195,359.138458 339.700836,359.194946 
	C343.434387,359.216858 345.888977,355.435394 348.733215,353.254272 
	C356.713287,347.134552 365.302643,342.127258 374.711609,337.277771 
	C375.416107,336.596680 375.676758,336.319031 375.937378,336.041412 
M394.703552,509.666931 
	C394.041046,506.411835 393.524872,503.118774 392.691406,499.908081 
	C388.483917,483.700531 380.118439,470.141296 365.991913,460.872559 
	C353.762360,452.848450 340.048553,448.214386 325.719879,445.373749 
	C323.293945,444.892822 320.894867,444.132416 318.591492,443.226227 
	C316.939209,442.576172 315.954681,441.100769 316.239136,439.230164 
	C316.555878,437.147522 318.036072,435.944977 320.034058,435.887817 
	C321.827545,435.836578 323.668335,436.174011 325.432068,436.582489 
	C331.262939,437.932892 337.135681,439.164337 342.871613,440.851746 
	C364.401642,447.185669 383.257263,457.249084 394.068115,478.302368 
	C395.590485,481.267090 396.966125,484.236938 397.922668,487.456543 
	C398.915619,490.798798 400.702576,492.414215 404.520355,490.102814 
	C410.706451,486.357544 417.798126,484.701813 424.732910,483.109406 
	C431.017151,481.666351 437.342224,480.005341 443.866119,479.786987 
	C446.388794,479.702545 448.745148,480.390961 449.103333,483.258514 
	C449.441010,485.962006 447.673798,487.589294 445.153717,488.230774 
	C443.225922,488.721527 441.241425,488.988831 439.283081,489.360565 
	C428.649963,491.378906 418.137634,493.687012 408.240143,498.385345 
	C404.079681,500.360321 402.612854,502.924469 403.252502,507.371979 
	C404.150635,513.616272 406.310150,519.631531 406.412262,526.025146 
	C406.449463,528.352905 408.620850,528.685669 410.426483,529.052734 
	C427.266571,532.475464 442.596619,539.714233 457.513428,547.901123 
	C460.008240,549.270386 461.957153,549.416138 464.470123,548.309631 
	C476.078247,543.198303 487.222748,537.306702 497.586670,529.934021 
	C513.585388,518.552917 525.009277,503.904541 530.444519,484.859833 
	C532.761780,476.740570 532.018860,468.565735 529.398010,460.834625 
	C524.365967,445.990662 512.188477,438.776367 498.214355,434.490540 
	C478.454315,428.430176 457.937012,427.791962 437.458527,427.327026 
	C429.614685,427.148956 428.843170,426.672150 426.826416,419.348877 
	C422.524323,420.462891 417.081665,418.464294 414.757507,424.628296 
	C414.443878,425.460022 413.452240,426.173370 412.609070,426.646912 
	C403.818298,431.584198 394.246277,433.392792 384.336334,432.669037 
	C374.159637,431.925873 364.529938,428.525696 354.879089,425.397888 
	C352.532440,424.637390 350.257843,424.022491 347.597015,424.814972 
	C332.153809,429.414459 316.759277,434.240387 300.794495,436.815704 
	C289.801086,438.589081 278.857910,440.838531 267.800720,442.013947 
	C250.596848,443.842743 233.546448,445.791229 217.232376,452.214386 
	C186.743484,464.218445 156.112793,475.863800 125.495872,487.539795 
	C121.462082,489.078125 120.519890,491.598419 121.824318,495.312469 
	C122.813133,498.128021 124.092270,500.840271 125.137520,503.637604 
	C132.127502,522.344299 144.499344,534.659668 164.934921,537.798279 
	C176.611832,539.591675 188.219498,538.685974 199.765137,537.220337 
	C226.026703,533.886536 251.908737,528.357361 277.340607,521.170227 
	C288.920837,517.897705 298.851837,518.781494 308.546936,525.591858 
	C318.648438,532.687622 328.555328,539.958557 335.503174,550.456909 
	C337.082855,552.843750 338.157440,555.454834 335.509613,557.598389 
	C332.554138,559.990967 330.747406,557.505249 328.922058,555.472351 
	C324.486267,550.532288 320.476562,545.187683 315.150970,541.089233 
	C308.525269,535.990234 301.561157,531.445984 293.608002,528.730164 
	C288.942169,527.136963 283.103973,528.941345 282.389709,532.185791 
	C280.851227,539.174133 279.141388,546.443054 280.668579,553.434814 
	C284.153076,569.387756 288.943573,584.981628 299.806274,597.804749 
	C305.310547,604.302490 311.075073,610.668579 319.224274,613.911316 
	C325.979279,616.599365 333.003998,617.406616 339.190948,612.615845 
	C345.428711,607.785767 345.594818,600.843750 345.071899,593.594788 
	C344.469910,585.249329 341.279053,577.837769 338.214264,570.267822 
	C336.983368,567.227661 335.141388,562.889893 339.612915,561.092468 
	C344.113129,559.283386 344.935577,564.135986 346.308258,566.773438 
	C350.603516,575.026428 350.359161,574.807739 359.315796,572.034180 
	C372.544617,567.937744 382.097626,559.325073 389.926819,548.393921 
	C398.328278,536.663635 397.540192,523.711304 394.703552,509.666931 
M315.714508,54.423008 
	C315.078522,54.622162 314.454987,54.886505 313.804718,55.011002 
	C294.177094,58.768742 277.629883,68.288528 264.008606,82.648674 
	C256.623169,90.434715 252.633316,100.511154 248.012314,110.084923 
	C246.615082,112.979675 245.806076,115.865723 246.107483,119.039444 
	C246.672394,119.113892 247.007812,119.241447 247.309402,119.185738 
	C256.846954,117.424194 265.862061,117.944046 273.588348,124.802902 
	C275.590881,126.580620 277.997650,125.701599 280.266541,125.170746 
	C287.105377,123.570694 293.563629,120.965630 299.985016,118.141113 
	C326.101654,106.653412 351.145172,93.700035 368.436798,69.758507 
	C369.861115,67.786484 371.693054,66.283875 373.950836,65.676910 
	C376.991241,64.859535 378.974243,65.979103 378.318237,69.500015 
	C378.051300,70.932808 377.373169,72.355698 376.610077,73.618706 
	C370.860229,83.135513 363.357849,91.117470 354.509674,97.755981 
	C343.301758,106.164909 331.285522,113.258217 318.778503,119.628677 
	C304.761597,126.768196 290.318146,132.509964 274.925049,135.832687 
	C272.103790,136.441681 269.719025,136.451447 267.856689,133.781891 
	C262.830109,126.576538 249.985367,124.607399 243.818085,130.616577 
	C237.205887,137.059265 233.471939,145.166794 235.484619,154.577179 
	C237.460190,163.814117 241.143616,171.934647 252.017029,174.250137 
	C255.402054,174.970978 258.404816,175.353271 261.689392,174.429260 
	C263.476685,173.926453 265.518585,173.813583 266.649597,175.682098 
	C267.988464,177.893997 266.294067,179.402786 264.949951,180.884979 
	C263.464966,182.522522 261.670685,183.726196 259.568695,184.396225 
	C256.365295,185.417297 255.315155,187.647552 255.314117,190.879654 
	C255.310593,201.934433 259.968811,211.174759 266.518005,219.586349 
	C281.200073,238.443634 301.780029,245.702164 324.506195,247.635315 
	C350.316467,249.830811 374.181458,243.449432 396.528748,230.177414 
	C412.101868,220.928558 423.172852,207.970322 430.280029,191.832062 
	C440.489136,168.650375 441.894958,144.625107 434.645477,120.154503 
	C428.790558,100.391182 421.002686,82.101028 401.052338,72.132088 
	C397.137299,74.048370 392.864624,72.831627 390.537170,67.935883 
	C388.238861,63.101379 384.467316,61.239548 379.739136,60.169121 
	C375.690216,59.252468 371.764191,57.843727 367.783661,56.711430 
	C350.931213,51.917629 333.828979,50.476707 315.714508,54.423008 
M426.430206,407.346954 
	C426.424591,405.453247 425.012482,404.877777 423.585205,404.338928 
	C417.675812,402.107819 411.807556,399.756470 405.838226,397.698639 
	C399.595276,395.546478 396.919098,392.955658 398.258972,389.832611 
	C399.684662,386.509491 403.434998,386.241302 409.284332,389.023163 
	C418.503021,393.407349 428.258392,396.103973 438.232086,398.039673 
	C441.889557,398.749512 445.508270,397.972778 448.994812,396.814545 
	C451.157288,396.096191 452.825500,394.713409 453.139160,392.273102 
	C453.469666,389.701904 451.685547,388.157257 449.868652,387.101196 
	C447.740601,385.864288 445.264038,385.234009 442.954926,384.300385 
	C428.016174,378.260162 412.543762,373.449921 398.733093,364.812469 
	C396.179260,363.215210 394.540466,361.377686 395.156586,358.394562 
	C395.830597,355.131165 398.165924,352.970947 401.417725,352.847534 
	C406.404144,352.658325 411.280304,351.139496 416.308685,351.727081 
	C419.304443,352.077118 421.864624,350.887360 424.303101,349.393250 
	C426.478333,348.060333 427.623444,345.924866 427.254730,343.492920 
	C426.860382,340.892059 424.683380,339.397308 422.252808,339.312744 
	C416.108826,339.098999 409.956207,337.714783 403.825500,338.703918 
	C382.605499,342.127472 364.163483,351.722809 347.278595,364.639648 
	C345.184753,366.241394 344.464508,368.459686 344.231964,371.160309 
	C343.474274,379.959656 343.840210,388.724701 344.261292,397.515686 
	C344.897461,410.796722 347.078552,413.851685 359.377930,417.790985 
	C360.486755,418.146149 361.581909,418.550049 362.665558,418.976654 
	C371.750153,422.553406 381.086792,424.758759 390.914581,423.633728 
	C395.685120,423.087616 400.507050,422.443359 405.771393,419.651733 
	C401.296875,417.974823 397.867676,416.798828 394.529144,415.405579 
	C391.597168,414.182037 389.699951,412.049133 391.189911,408.741882 
	C392.546906,405.729828 395.095642,405.673462 397.974426,406.740265 
	C402.180725,408.298950 406.408478,409.871552 410.741394,410.998871 
	C416.269806,412.437256 421.651825,412.132538 426.430206,407.346954 
M387.401520,565.910339 
	C381.989655,571.312561 375.167908,574.745972 368.794861,578.729004 
	C369.136780,579.377197 369.213409,579.773315 369.447449,579.922424 
	C370.423920,580.544556 371.420349,581.147888 372.458221,581.659119 
	C388.465485,589.544556 405.104675,595.675354 422.724762,598.694641 
	C434.650787,600.738342 446.625610,602.762146 458.847656,600.766418 
	C473.667847,598.346375 479.583710,585.645935 471.627869,573.157898 
	C468.825531,568.759094 465.479675,564.987793 461.321716,561.785156 
	C452.020020,554.620667 441.795227,549.133362 430.965240,544.785095 
	C422.862671,541.531921 414.678345,538.354675 405.729614,537.766113 
	C401.502472,548.308350 395.890686,557.640991 387.401520,565.910339 
M512.710083,391.550995 
	C507.702759,385.172150 512.429993,380.471680 515.677124,375.732727 
	C508.459045,366.528870 508.202332,366.516022 508.793121,354.712219 
	C509.055267,349.474182 507.119446,348.260529 502.284180,348.076141 
	C483.101288,347.344696 464.061432,349.418457 444.976074,350.549957 
	C439.330200,350.884674 433.975891,351.941711 429.624359,356.493988 
	C426.428131,359.837677 421.575348,360.176270 417.040344,360.369110 
	C414.652344,360.470673 412.256470,360.387054 409.439056,360.387054 
	C411.052887,362.377838 412.819092,362.955994 414.433105,363.744965 
	C423.879517,368.362488 433.942596,371.352600 443.810059,374.863129 
	C449.430420,376.862640 455.460632,378.315399 459.109802,383.630920 
	C460.852448,386.169403 462.994019,387.031372 465.892670,386.719208 
	C472.822021,385.973053 479.828766,385.868561 486.649811,384.233276 
	C489.935638,383.445557 493.266479,383.561188 496.593750,383.685303 
	C498.304047,383.749084 500.094391,384.110107 500.701294,385.931763 
	C501.402222,388.035614 499.819702,389.311249 498.392242,390.477936 
	C496.542633,391.989685 494.265320,392.589508 492.049927,393.315735 
	C489.559692,394.132080 487.477325,395.308380 487.236511,398.347931 
	C486.995972,401.384064 488.500092,403.428925 490.824524,405.015625 
	C494.286896,407.379120 498.203613,408.180267 502.251160,407.477203 
	C509.862610,406.155029 516.736572,403.448761 521.506165,395.988129 
	C518.108154,394.939423 515.523682,393.824158 512.710083,391.550995 
M511.830170,329.197571 
	C501.097717,326.498077 492.577240,330.326080 485.294342,338.402527 
	C492.111542,338.429199 498.763672,339.429321 505.467804,339.591370 
	C514.637451,339.813049 518.005005,343.426025 517.329102,352.645172 
	C517.220398,354.127350 516.816772,355.585541 516.619385,357.064148 
	C516.238892,359.914185 515.749268,363.357635 518.988159,364.410706 
	C522.071472,365.413116 525.803101,364.861389 528.170715,362.199249 
	C537.403259,351.818329 532.961853,334.976379 519.936951,330.736450 
	C517.591553,329.973022 515.063049,329.772278 511.830170,329.197571 
M437.367645,409.702301 
	C436.572296,412.962860 433.704224,414.814453 431.169159,417.626221 
	C439.366211,417.626221 446.772919,418.398254 453.942413,417.424194 
	C462.270905,416.292694 470.637787,414.238129 476.900146,407.688873 
	C478.628754,405.881073 478.576202,397.115692 476.657990,395.578674 
	C474.492279,393.843353 462.775330,395.732178 461.409454,398.292450 
	C458.609192,403.541412 453.853210,405.177460 448.516937,406.559631 
	C444.936401,407.487061 440.720001,405.713043 437.367645,409.702301 
M534.006348,384.631958 
	C545.443542,378.479675 546.108704,363.291473 540.170532,356.473206 
	C537.701111,369.173035 526.090210,375.465698 520.655457,386.182251 
	C525.392273,388.522034 529.326660,386.391815 534.006348,384.631958 
z"/>
<path fill="#000000" opacity="1.000000" stroke="none" 
	d="
M866.315552,477.773926 
	C866.549622,480.158875 865.746033,482.237244 867.351501,484.281494 
	C876.905151,482.938141 886.577209,481.517487 896.268799,480.245758 
	C900.051331,479.749390 903.876221,479.377960 907.684753,479.350708 
	C910.067932,479.333649 912.601807,480.237488 912.667114,483.178284 
	C912.727966,485.921143 910.740784,487.144989 908.114319,487.548157 
	C897.428650,489.188538 886.800049,491.329254 876.064209,492.485565 
	C858.670471,494.358978 841.603455,498.164459 824.297180,500.552979 
	C803.708679,503.394440 783.207703,506.891235 762.702881,510.308594 
	C751.893677,512.110107 741.175598,514.454102 730.377258,516.327393 
	C726.704590,516.964600 725.307434,518.743347 725.313049,522.371826 
	C725.356018,550.031189 725.418762,577.691528 725.215820,605.349731 
	C725.157349,613.323303 725.875244,621.343140 724.544128,629.284058 
	C724.081360,632.044556 723.994202,635.532471 719.939026,635.051086 
	C716.099182,634.595215 715.484741,631.345642 715.809387,628.188110 
	C717.074097,615.889221 716.609436,603.557617 716.661865,591.238831 
	C716.761047,567.910706 716.696716,544.581909 716.775818,521.253662 
	C716.808411,511.637299 720.058716,508.235687 729.458557,506.715363 
	C743.407654,504.459259 757.298950,501.848389 771.239502,499.537170 
	C785.656555,497.146973 800.089172,494.839996 814.547913,492.720917 
	C817.564148,492.278839 819.365967,491.003265 819.409729,488.140289 
	C819.556091,478.550354 819.465271,468.956848 819.465271,459.035278 
	C809.564636,459.761292 799.524475,461.948517 789.410339,463.574219 
	C761.686829,468.030426 733.977722,472.576050 706.253296,477.026642 
	C701.075317,477.857849 696.694763,474.128357 696.661987,468.868073 
	C696.538574,449.046722 698.358826,429.314270 699.488464,409.550110 
	C699.621460,407.223541 699.641968,404.889893 699.686707,402.558990 
	C700.206421,375.452026 701.803406,348.401947 703.372070,321.338043 
	C704.215759,306.782318 705.023376,292.196381 705.873047,277.639557 
	C707.355225,252.245514 708.187866,226.808273 710.469177,201.454742 
	C711.242737,192.857666 710.649536,184.158112 711.632874,175.529404 
	C712.128357,171.181549 712.879333,167.500473 718.446350,167.666016 
	C719.153076,167.687042 720.304504,167.196991 720.531677,166.647064 
	C722.595276,161.650360 726.950012,162.090637 731.101868,162.002899 
	C777.887573,161.014145 824.659424,159.455780 871.469238,159.534164 
	C894.057678,159.571991 916.646362,158.479309 939.238220,158.077927 
	C945.218018,157.971695 951.211487,158.495712 957.195374,158.795609 
	C961.678894,159.020309 965.096558,162.006393 965.122131,166.823303 
	C965.200623,181.618896 965.996155,196.394485 964.637939,211.225906 
	C963.609375,222.457687 964.463440,233.848709 964.047668,245.152954 
	C963.454651,261.275604 962.430603,277.381989 961.658936,293.498566 
	C961.125488,304.638947 960.741943,315.786438 960.230835,326.927979 
	C958.919861,355.505951 957.674622,384.087677 956.146790,412.654236 
	C955.889160,417.471039 955.336792,422.192444 955.891113,427.057007 
	C956.590149,433.191559 953.732239,436.941010 946.995239,438.263580 
	C936.876770,440.249908 926.653076,441.709595 916.460571,443.307220 
	C901.348755,445.675995 886.235474,448.040009 871.097900,450.234894 
	C868.108887,450.668335 867.286682,452.146881 867.091492,454.851318 
	C866.551758,462.331085 866.147095,469.808868 866.315552,477.773926 
M909.575195,167.346741 
	C879.469604,168.761093 849.332336,168.657471 819.208557,169.034821 
	C806.218689,169.197525 793.217712,169.071732 780.239563,169.624893 
	C761.819580,170.409958 743.407776,171.419754 724.970337,170.542770 
	C722.382629,170.419662 721.465942,171.178787 720.917603,173.590164 
	C720.051758,177.397110 720.417114,181.228149 720.199890,185.041138 
	C718.820618,209.250885 717.466309,233.462265 716.200928,257.678192 
	C715.524658,270.621552 715.030029,283.629700 713.850159,296.479523 
	C711.568665,321.326874 710.991089,346.246704 709.667664,371.112244 
	C708.377686,395.347717 708.369812,419.664307 706.393494,443.890930 
	C705.879944,450.186127 705.686340,456.507660 705.359924,462.817810 
	C705.200439,465.901306 706.713318,466.980255 709.694214,466.585297 
	C721.215027,465.058777 732.786072,463.861847 744.261658,462.054749 
	C763.319519,459.053589 782.304016,455.589844 801.346802,452.489075 
	C813.322205,450.539062 825.366882,449.015717 837.346069,447.087280 
	C856.205750,444.051239 875.035767,440.830841 893.879700,437.696747 
	C910.103516,434.998444 926.329102,432.310944 942.554260,429.620209 
	C945.209656,429.179840 946.687927,427.826691 946.661743,424.929138 
	C946.551819,412.774261 947.760559,400.691467 948.550659,388.577759 
	C949.903137,367.839722 951.003540,347.071869 951.570740,326.299103 
	C952.469604,293.379089 955.220032,260.534882 955.092285,227.568436 
	C955.022766,209.635086 957.913696,191.775848 956.943054,173.767426 
	C956.696533,169.193420 955.474060,167.159592 950.548218,167.251038 
	C937.221802,167.498398 923.887817,167.341446 909.575195,167.346741 
M828.344238,469.832642 
	C828.344238,476.565826 828.344238,483.299011 828.344238,490.671417 
	C836.760681,489.262848 844.210388,487.716461 851.738831,486.871826 
	C856.052429,486.387848 857.473022,484.203217 857.638855,480.426056 
	C857.995239,472.311188 857.052856,464.158142 858.537048,456.066986 
	C858.970398,453.704529 858.064819,452.298950 855.106384,452.922150 
	C850.731812,453.843658 846.264709,454.315521 841.861877,455.116241 
	C837.980530,455.822113 833.174622,454.753235 830.423645,457.452148 
	C827.628723,460.194275 829.505615,465.093933 828.344238,469.832642 
z"/>
<path fill="#000000" opacity="1.000000" stroke="none" 
	d="
M376.068665,335.679626 
	C375.676758,336.319031 375.416107,336.596680 374.976227,337.100739 
	C370.217834,337.216614 369.736206,333.232758 369.934235,330.551880 
	C370.811676,318.673553 372.643280,306.907745 377.361115,295.817108 
	C378.230133,293.774231 380.030182,293.320129 381.940338,294.029877 
	C384.211060,294.873535 384.544769,296.883850 384.191193,298.988800 
	C383.204254,304.864960 382.497589,310.819763 381.018005,316.573181 
	C379.411713,322.819275 379.035583,329.392212 376.068665,335.679626 
z"/>
<path fill="#000000" opacity="1.000000" stroke="none" 
	d="
M397.712616,189.628571 
	C401.577057,188.970642 405.126038,188.698685 408.395325,187.596848 
	C413.613831,185.838074 414.267395,181.806320 410.071960,178.183960 
	C408.330658,176.680542 406.200470,175.617599 404.210541,174.414871 
	C402.348999,173.289749 400.397614,172.208466 399.363098,170.231201 
	C398.198822,168.005966 398.183594,165.630463 400.063568,163.775421 
	C401.829346,162.033051 403.710907,162.862213 405.476501,164.088654 
	C409.163239,166.649567 412.910126,169.125031 416.569397,171.724136 
	C424.547729,177.390900 426.536682,191.073608 413.960358,195.392029 
	C408.664124,197.210617 403.389252,198.109787 397.889130,198.337143 
	C394.057556,198.495529 390.186707,197.693954 390.069000,193.351471 
	C389.942139,188.669800 394.342468,189.956223 397.712616,189.628571 
z"/>
<path fill="#000000" opacity="1.000000" stroke="none" 
	d="
M358.856781,192.125153 
	C367.942322,200.619308 378.393433,204.335220 390.453247,203.712372 
	C393.448792,203.557663 396.995483,203.341888 397.323822,207.521164 
	C397.671417,211.944839 394.175903,213.245010 390.717072,213.244858 
	C373.225281,213.244080 358.769135,206.677185 348.028564,192.634705 
	C347.057648,191.365326 346.486755,189.675400 346.116547,188.090515 
	C345.664917,186.157013 346.526855,184.423965 348.128571,183.321213 
	C349.972748,182.051514 351.809937,182.864288 353.028900,184.302185 
	C355.050751,186.687195 356.764069,189.333755 358.856781,192.125153 
z"/>
<path fill="#000000" opacity="1.000000" stroke="none" 
	d="
M418.619904,137.438446 
	C421.730835,141.095566 422.310181,152.165359 419.872284,155.417007 
	C418.307922,157.503555 416.349060,157.841400 414.309235,156.196594 
	C410.833984,153.394363 411.037506,140.945786 414.552612,138.156097 
	C415.633392,137.298355 416.859619,136.888306 418.619904,137.438446 
z"/>
<path fill="#000000" opacity="1.000000" stroke="none" 
	d="
M373.826782,153.638824 
	C372.456787,156.076920 370.676147,156.560486 368.541626,155.797607 
	C366.338654,155.010269 365.615234,153.221741 365.729675,151.047577 
	C365.949402,146.874542 366.992004,142.882538 368.554901,139.021851 
	C369.432251,136.854630 371.114960,135.982727 373.338165,136.482117 
	C375.444458,136.955246 376.339264,138.645920 376.198608,140.604218 
	C375.890991,144.888687 375.528503,149.188324 373.826782,153.638824 
z"/>
</svg>