<svg version="1.1" id="Layer_1" xmlns="http://www.w3.org/2000/svg" xmlns:xlink="http://www.w3.org/1999/xlink" x="0px" y="0px"
	 width="100%" viewBox="0 0 800 800" enable-background="new 0 0 800 800" xml:space="preserve">
<path fill="#000000" opacity="1.000000" stroke="none" 
	d="
M514.778625,186.896973 
	C517.851074,185.051682 520.003662,182.724930 522.041016,180.300293 
	C523.925659,178.057358 526.160278,176.645309 529.008667,178.034088 
	C531.921631,179.454330 531.744812,182.211319 531.419556,184.994720 
	C530.815430,190.164154 527.029358,193.388977 523.840576,197.370926 
	C543.256348,210.861618 555.496582,228.375244 555.330872,252.704971 
	C555.165771,276.950256 542.615723,293.966644 522.413452,306.598633 
	C537.538574,319.333588 550.807739,333.174652 566.042175,344.773651 
	C575.463989,351.947083 586.936096,354.028564 598.011475,357.005920 
	C603.913818,358.592590 609.537415,359.680725 616.007385,358.091217 
	C627.349548,355.304779 639.106445,362.014771 643.086609,372.021149 
	C647.611389,383.396423 644.126221,395.425323 634.372070,402.098938 
	C625.076843,408.458588 611.602417,407.703033 603.527161,399.492401 
	C600.048767,395.955719 596.057373,395.927490 592.158752,395.619690 
	C565.038635,393.478333 541.031189,384.102203 520.681885,365.820282 
	C520.219482,365.404846 519.561951,365.206696 519.129883,364.978302 
	C517.311157,365.633301 517.430847,367.107697 517.150330,368.361633 
	C511.742554,392.534912 506.416809,416.727081 500.856873,440.865265 
	C499.875977,445.123779 500.939087,448.118561 503.822021,451.209778 
	C530.962341,480.311096 558.006226,509.502380 585.062683,538.681824 
	C587.543518,541.357361 589.918396,544.131287 592.457092,546.988464 
	C597.107544,544.012573 601.489746,541.039917 606.034363,538.340698 
	C612.447021,534.531982 619.308044,532.247742 626.929504,532.675537 
	C637.688171,533.279236 644.870239,542.516174 642.747742,553.042786 
	C640.434753,564.514343 633.674622,573.294434 625.602112,581.180725 
	C614.547668,591.980042 602.733704,601.621399 586.864624,604.529724 
	C580.183777,605.754150 573.930481,604.052734 570.335754,598.747559 
	C564.210571,589.707886 555.306519,584.013123 547.364075,577.149353 
	C521.023193,554.385681 494.548431,531.776489 468.266022,508.945740 
	C464.778107,505.915924 462.889832,506.607849 460.266388,509.842194 
	C450.499847,521.883057 440.040833,533.316772 428.087341,543.232971 
	C415.142365,553.971741 399.812653,560.716858 384.960175,568.230225 
	C383.771515,568.831543 382.529480,569.337158 381.379364,570.003113 
	C376.961487,572.561279 376.687988,573.969666 379.728088,578.052246 
	C384.930878,585.039062 385.339264,593.478027 380.812805,600.468323 
	C376.710876,606.803040 366.996368,610.550171 359.229889,608.936401 
	C352.549652,607.548401 347.226562,604.080750 343.178558,598.683533 
	C333.032257,585.155334 327.982056,569.564758 325.312622,553.128540 
	C324.658508,549.100891 326.200287,545.314148 329.131439,542.170044 
	C332.498077,538.558838 336.418457,535.629517 340.950714,533.972290 
	C356.140930,528.417786 368.854431,518.513245 382.771973,510.733795 
	C389.009857,507.247070 393.780273,502.708435 397.643860,496.540588 
	C403.575470,487.071442 411.454620,479.048706 419.481995,471.270813 
	C421.601868,469.216827 422.674042,467.489716 420.519653,464.525452 
	C412.081268,452.914490 409.214508,439.923096 411.686127,425.766968 
	C411.943726,424.291656 412.661591,422.647522 412.274353,421.347198 
	C408.221954,407.738861 415.008331,395.624847 417.533844,382.969391 
	C419.223419,374.502930 421.840973,366.221100 424.065063,357.862488 
	C424.405731,356.582153 424.940216,355.334717 423.870575,353.461548 
	C414.640533,354.746185 405.343781,356.495392 397.702545,362.516449 
	C386.690308,371.193756 377.304504,381.630707 367.542267,391.647919 
	C365.773590,393.462769 365.822510,394.741699 367.382477,396.719757 
	C373.335663,404.268433 374.290741,412.601837 370.953064,421.588959 
	C368.162750,429.102264 368.261597,429.138977 374.978424,432.787994 
	C386.855469,439.240295 388.470215,443.576874 383.644745,456.216461 
	C377.587952,472.081573 371.614899,487.979858 365.405060,503.784973 
	C360.860291,515.352112 356.334198,517.660522 344.096680,514.610413 
	C329.364838,510.938568 315.295685,505.228790 301.108612,499.932709 
	C289.412079,495.566376 277.844360,490.849121 266.278137,486.143433 
	C263.364960,484.958191 260.561554,483.400757 257.907135,481.702637 
	C251.818710,477.807556 249.650024,473.141510 252.013123,466.327240 
	C258.886169,446.507935 266.263519,426.860535 274.431793,407.533997 
	C276.936646,401.607330 281.749512,399.925110 289.006561,400.863739 
	C292.857483,401.361847 297.114044,404.924225 300.276184,402.339935 
	C302.909973,400.187469 303.541870,395.591888 305.074982,392.084747 
	C307.850403,385.735535 312.425659,381.301514 319.297699,379.937225 
	C324.794739,378.845947 328.537872,375.662262 331.604767,371.322815 
	C341.895996,356.761230 352.614899,342.553162 364.496277,329.213715 
	C373.361542,319.260468 384.634857,313.574890 396.905640,309.389557 
	C410.477570,304.760376 424.400055,301.483551 438.475220,298.818176 
	C439.255524,298.670471 440.020294,298.440796 440.873596,298.229095 
	C440.544830,295.784882 438.691498,294.726868 437.398682,293.330627 
	C415.367218,269.536743 413.252411,236.769287 433.207581,211.730743 
	C447.847229,193.361786 467.993408,186.214447 491.186615,187.302124 
	C495.497162,187.504288 499.784241,188.079941 503.976257,189.349167 
	C507.786743,190.502899 511.131348,188.623184 514.778625,186.896973 
M440.308563,421.096680 
	C456.094818,424.906189 472.160187,425.968140 488.336060,426.154694 
	C492.441772,426.202057 494.009613,424.637787 494.871368,420.555573 
	C499.748047,397.455200 504.939606,374.420746 510.122681,351.386047 
	C511.244263,346.401642 514.637573,345.436768 518.557800,348.780945 
	C519.694092,349.750244 520.625549,350.955811 521.726074,351.971619 
	C537.064941,366.130127 553.322937,378.659790 574.720642,382.249969 
	C583.087830,383.653870 591.406921,385.406464 599.906494,385.789948 
	C603.928162,385.971405 606.958252,387.086456 609.641113,390.601562 
	C615.103516,397.758392 625.942017,397.392578 631.312561,390.396942 
	C635.129578,385.424957 635.342407,378.684204 631.841309,373.653900 
	C628.264709,368.515106 621.498230,366.475372 614.849243,369.011383 
	C611.548889,370.270172 608.528748,370.583527 605.169312,369.492340 
	C602.172363,368.518921 599.055664,367.884918 595.962341,367.242828 
	C576.486023,363.199615 559.016357,355.541840 544.818909,340.954773 
	C536.707397,332.620636 527.705933,325.133911 518.897400,317.505493 
	C514.959290,314.094940 510.437439,311.543732 504.777954,312.699066 
	C490.249695,315.664856 475.972198,314.961273 462.048462,309.608307 
	C458.559326,308.266876 455.015167,307.767700 451.279938,308.073883 
	C430.698364,309.760986 410.953369,314.817749 391.862244,322.596710 
	C383.989929,325.804413 377.315216,330.656403 371.767578,337.055084 
	C363.473907,346.621094 355.502960,356.434265 348.005524,366.657166 
	C343.138763,373.293060 339.543121,380.850616 332.695923,386.133850 
	C328.397949,389.450073 327.992767,395.003448 329.803070,399.967773 
	C331.505920,404.637360 335.885315,406.485504 340.519379,407.078278 
	C347.201630,407.933044 354.616211,401.221191 355.128235,393.469116 
	C355.360016,389.960266 356.645630,387.580200 358.999542,385.247925 
	C367.040680,377.280518 374.962555,369.192719 382.925232,361.146179 
	C391.227631,352.756317 401.011353,347.047150 412.683258,344.832764 
	C418.238098,343.778870 423.806244,342.765961 429.400482,341.956451 
	C435.955597,341.007812 438.367767,343.841614 436.815887,350.421692 
	C436.395905,352.202637 435.842010,353.951538 435.378174,355.722626 
	C430.868195,372.942780 426.514923,390.206268 421.762939,407.359314 
	C420.412567,412.233795 421.713379,414.746826 426.254028,416.497528 
	C430.614990,418.178955 435.002777,419.702118 440.308563,421.096680 
M541.802246,268.274994 
	C545.074158,258.913788 545.598694,249.471695 543.010620,239.825577 
	C532.704834,201.415573 484.406403,185.169037 451.761078,209.222214 
	C431.480103,224.165268 424.783569,248.374115 435.102173,270.326050 
	C445.970642,293.447754 465.376831,304.392853 490.645355,303.588989 
	C514.525574,302.829285 531.996155,291.443420 541.802246,268.274994 
M497.848572,520.636597 
	C518.677917,538.518921 539.507263,556.401184 560.685730,574.583191 
	C567.412415,566.766479 572.600403,558.248169 578.340393,550.140259 
	C579.728821,548.178955 578.180176,547.037598 577.108276,545.864807 
	C567.001404,534.806946 556.904236,523.739563 546.720032,512.752991 
	C529.750671,494.446716 512.854492,476.069000 495.628601,458.006378 
	C490.688721,452.826538 487.051941,448.022278 490.415405,440.549622 
	C491.344086,438.486328 490.565338,436.730865 487.573730,436.749847 
	C483.250061,436.777283 478.921539,436.488403 474.599548,436.252777 
	C458.775970,435.390198 443.060791,433.888947 428.062653,428.218262 
	C426.387268,427.584808 424.723572,426.713654 422.637604,427.202515 
	C421.011902,431.493866 421.019501,435.928436 421.701172,440.412415 
	C423.779175,454.081879 431.802032,464.099213 441.857513,472.756134 
	C460.288849,488.623962 478.821930,504.373596 497.848572,520.636597 
M442.522705,514.034729 
	C446.877106,508.891083 451.909515,504.277863 455.433472,498.484558 
	C447.341370,491.442841 439.657593,484.824554 432.066467,478.101654 
	C430.226318,476.471954 428.924408,476.922485 427.395844,478.431885 
	C418.022247,487.688202 408.686768,496.972931 402.269287,508.678314 
	C400.947479,511.089264 399.073547,512.888916 396.750824,514.316162 
	C385.116852,521.464844 373.556305,528.735352 361.842468,535.750305 
	C358.497162,537.753662 357.598114,539.902954 359.067322,543.536987 
	C361.687164,550.016846 365.330994,555.604431 371.056274,559.792297 
	C373.026337,561.233276 374.660858,561.584045 376.961792,560.515808 
	C401.454834,549.144592 424.764618,536.128540 442.522705,514.034729 
M348.740295,470.902069 
	C344.500732,469.414368 340.263947,467.918640 336.020142,466.443146 
	C334.440979,465.894073 333.015991,465.370636 331.539825,467.052216 
	C328.826050,470.143677 325.309113,469.841827 321.869476,468.546570 
	C315.481079,466.140808 309.137207,463.615143 302.798157,461.080933 
	C299.949371,459.942078 297.877106,457.915314 298.088043,454.705292 
	C298.270508,451.928101 296.555725,451.354187 294.634216,450.657196 
	C288.530487,448.443207 282.329407,446.453674 276.372162,443.896942 
	C272.984985,442.443268 271.519928,443.437378 270.391663,446.497620 
	C268.203094,452.433655 265.825012,458.300018 263.653015,464.241882 
	C261.036835,471.398834 261.520569,472.612122 268.536560,475.699585 
	C288.063843,484.292633 308.205841,491.304443 328.202454,498.684204 
	C333.666534,500.700745 339.186371,502.625610 344.799744,504.155457 
	C348.034912,505.037140 352.275574,506.563049 354.292725,502.584015 
	C358.477295,494.329620 361.588470,485.590454 364.444061,476.679138 
	C359.385010,473.978821 354.329742,472.845978 348.740295,470.902069 
M333.864807,443.466400 
	C338.837708,446.162537 337.669891,450.603638 336.779694,455.406738 
	C343.410614,457.810944 349.839691,460.493835 356.477631,462.477966 
	C371.866669,467.077759 367.307129,468.197876 373.305908,454.394592 
	C376.881561,446.167053 376.529388,445.291870 368.455292,441.422089 
	C343.057556,429.249451 316.658081,419.687622 289.637390,411.793579 
	C285.797394,410.671722 283.615601,412.106842 282.276611,415.616943 
	C280.676483,419.811554 279.148376,424.048401 277.257568,428.112701 
	C275.717346,431.423462 276.920776,433.119690 279.937561,434.203949 
	C286.038239,436.396637 292.159546,438.533020 298.239868,440.780487 
	C300.606873,441.655426 302.334778,441.509247 303.509491,438.917877 
	C305.502350,434.521698 308.885803,434.069427 313.068237,435.679108 
	C319.739685,438.246735 326.472595,440.654602 333.864807,443.466400 
M589.706055,558.191406 
	C587.825317,557.439270 586.262512,557.503113 584.932495,559.394287 
	C580.527344,565.658142 575.992737,571.830872 571.582031,578.090881 
	C571.050476,578.845276 570.655823,579.948425 570.735413,580.841980 
	C571.473572,589.129456 582.096924,596.163269 589.807556,592.979248 
	C606.951843,585.899658 620.302551,574.190430 629.924133,558.324890 
	C631.021973,556.514648 631.651367,554.350830 632.163879,552.268677 
	C633.477600,546.931885 630.295654,542.995667 624.831299,543.008972 
	C621.240723,543.017700 618.006226,544.326721 614.789856,545.750366 
	C609.250061,548.202393 604.509644,551.893921 599.656189,555.408691 
	C596.887695,557.413574 594.022339,558.996582 589.706055,558.191406 
M343.629242,578.876587 
	C345.769928,583.574646 348.156738,588.130859 351.358521,592.213074 
	C353.670135,595.160339 356.474396,597.446045 360.152496,598.437317 
	C364.905121,599.718079 370.173126,597.860596 372.488464,594.103516 
	C375.187531,589.723755 373.305023,586.135681 370.325531,582.877625 
	C367.533264,579.824280 365.245453,576.693359 366.497864,572.202087 
	C366.907318,570.733887 366.124420,569.568970 365.004822,568.753845 
	C357.171722,563.050781 352.681366,554.987793 349.021240,546.317932 
	C348.447723,544.959351 347.952606,543.503662 345.999664,543.491577 
	C340.611908,543.458191 334.619049,551.176208 336.051239,556.482849 
	C338.041840,563.858459 340.228577,571.174744 343.629242,578.876587 
M358.496033,410.291473 
	C354.271606,415.189056 348.588959,417.036774 340.985138,417.814331 
	C346.452515,420.122742 350.606628,421.939941 354.816559,423.616913 
	C356.136963,424.142822 357.847961,424.917450 358.762146,423.070251 
	C361.053284,418.440704 363.475830,413.773315 361.180847,407.970520 
	C360.197235,408.804993 359.579742,409.328827 358.496033,410.291473 
M323.924866,411.523560 
	C320.799713,405.905670 317.076080,400.477325 318.975647,392.730927 
	C314.920288,395.099670 314.315643,398.500061 312.845581,401.359009 
	C310.701233,405.529388 311.361298,408.156006 316.326324,409.194000 
	C318.746857,409.700043 321.061615,410.712097 323.924866,411.523560 
M320.080383,449.366211 
	C318.821594,448.932220 317.533142,448.568359 316.309326,448.051544 
	C311.982300,446.224304 310.144867,447.889099 309.989502,452.232330 
	C312.949982,454.299500 316.196747,455.124481 319.325195,456.214691 
	C324.494904,458.016235 324.974762,457.686584 325.720825,451.778748 
	C324.116180,451.076263 322.451538,450.347504 320.080383,449.366211 
z"/>
<path fill="#000000" opacity="1.000000" stroke="none" 
	d="
M289.649841,329.999908 
	C289.649139,283.670441 289.650787,237.841019 289.646118,192.011597 
	C289.645386,185.007797 289.631897,185.005463 282.892212,185.007355 
	C246.562103,185.017563 210.231995,185.027954 173.901886,185.040894 
	C166.128571,185.043655 166.121124,185.048630 166.125168,192.657303 
	C166.161057,260.151245 166.202072,327.645203 166.227905,395.139160 
	C166.228806,397.467468 166.319397,399.833588 165.950043,402.114380 
	C165.508728,404.839569 163.839783,406.721375 160.832504,406.569733 
	C157.944077,406.424103 156.294876,404.605713 155.820251,401.855530 
	C155.567947,400.393555 155.668930,398.864685 155.668701,397.365997 
	C155.657806,326.538757 155.649689,255.711533 155.652893,184.884293 
	C155.653275,176.274765 157.267456,174.664001 165.840057,174.662918 
	C207.169815,174.657715 248.499557,174.657516 289.829315,174.674438 
	C298.191833,174.677856 300.053802,176.498260 300.056763,185.012390 
	C300.079651,250.673019 300.062225,316.333649 300.055756,381.994263 
	C300.055664,382.827423 300.046082,383.660889 300.022583,384.493683 
	C299.919495,388.144745 298.286316,390.930145 294.478729,390.841400 
	C290.850922,390.756836 289.630127,387.946686 289.648529,384.494781 
	C289.699188,374.995880 289.654785,365.496552 289.651489,355.997375 
	C289.648560,347.498230 289.650391,338.999084 289.649841,329.999908 
z"/>
<path fill="#000000" opacity="1.000000" stroke="none" 
	d="
M214.059143,335.000305 
	C226.540619,334.982330 238.531555,334.931305 250.522293,334.959930 
	C257.736389,334.977142 259.299744,336.575836 259.305176,343.799774 
	C259.319183,362.452301 259.304810,381.104858 259.293671,399.757385 
	C259.292877,401.088745 259.355927,402.438843 259.165344,403.747620 
	C258.695435,406.975128 256.744720,409.089294 253.500061,408.905273 
	C250.478012,408.733887 248.785156,406.529633 248.755554,403.448547 
	C248.678772,395.455597 248.695419,387.461639 248.686462,379.468109 
	C248.675842,369.975311 248.531586,360.479279 248.743317,350.991302 
	C248.831848,347.024902 247.774597,345.222809 243.458298,345.325623 
	C233.971085,345.551636 224.471756,345.509308 214.982986,345.309692 
	C211.247940,345.231140 210.058456,346.612152 210.085785,350.257538 
	C210.208054,366.577484 210.129410,382.898956 210.102509,399.219849 
	C210.099487,401.048248 210.173767,402.915100 209.844147,404.696014 
	C209.287262,407.704895 207.353989,409.417328 204.205292,409.161682 
	C201.259293,408.922424 199.727417,407.043732 199.678497,404.160828 
	C199.393356,387.350861 198.550186,370.544800 199.295090,353.726166 
	C199.457062,350.069244 199.512589,346.407532 199.609085,342.747803 
	C199.758759,337.069519 201.341965,335.401245 207.074951,335.076172 
	C209.233963,334.953796 211.403687,335.020386 214.059143,335.000305 
z"/>
<path fill="#000000" opacity="1.000000" stroke="none" 
	d="
M218.948029,213.647888 
	C218.996353,220.733475 219.093918,227.383789 218.933426,234.027863 
	C218.774780,240.596115 216.768402,242.659225 210.171509,242.846756 
	C203.531952,243.035522 196.888123,243.010849 190.243332,242.473022 
	C186.192703,242.145172 183.974747,240.168442 183.881454,236.288574 
	C183.701721,228.813995 183.720917,221.329651 183.878586,213.854034 
	C183.956284,210.170349 186.188263,207.880386 189.863510,207.792984 
	C197.504532,207.611313 205.153336,207.684204 212.797943,207.757294 
	C216.318466,207.790955 218.235626,209.850754 218.948029,213.647888 
M207.623474,218.756943 
	C204.212891,217.637711 200.710876,218.186691 197.241226,218.210266 
	C195.492798,218.222153 194.388626,219.086014 194.361420,220.928497 
	C194.317230,223.921127 194.310303,226.915054 194.344925,229.907791 
	C194.366318,231.758652 195.496994,232.353714 197.224792,232.628769 
	C207.294342,234.231705 208.884659,232.910217 208.633743,222.809723 
	C208.605286,221.664215 208.344101,220.524506 207.623474,218.756943 
z"/>
<path fill="#000000" opacity="1.000000" stroke="none" 
	d="
M238.680664,219.081116 
	C238.686844,216.929779 238.682404,215.265533 238.701965,213.601562 
	C238.744522,209.982193 240.688782,207.867630 244.187500,207.790726 
	C252.004822,207.618896 259.829803,207.665009 267.649261,207.781830 
	C270.843170,207.829544 273.081451,209.524612 273.460602,212.843689 
	C274.407623,221.133789 274.388306,229.441452 273.307922,237.719376 
	C272.936798,240.563080 271.026337,242.276886 268.219757,242.316040 
	C260.075623,242.429626 251.923767,242.477600 243.784531,242.232285 
	C240.156738,242.122940 238.711151,239.497284 238.705551,236.043564 
	C238.696655,230.551819 238.689056,225.060074 238.680664,219.081116 
M249.388779,220.104080 
	C249.313126,222.428146 249.401077,224.771729 249.126770,227.072113 
	C248.602188,231.471359 250.395020,232.863144 254.771606,232.765854 
	C263.948456,232.561844 263.949158,232.774216 263.257294,223.319275 
	C263.184631,222.326111 263.226685,221.324570 263.154724,220.331314 
	C263.073151,219.205063 262.449432,218.346725 261.322388,218.337433 
	C257.427887,218.305237 253.414093,217.027100 249.388779,220.104080 
z"/>
<path fill="#000000" opacity="1.000000" stroke="none" 
	d="
M183.788086,288.990662 
	C183.813400,284.833771 183.755447,281.168610 183.890228,277.510559 
	C184.052948,273.094543 186.520874,270.781311 190.878998,270.727692 
	C198.035934,270.639587 205.194931,270.689148 212.352844,270.723114 
	C216.620560,270.743378 218.913651,273.099579 219.001389,277.208435 
	C219.150574,284.194977 219.206909,291.197083 218.903397,298.175323 
	C218.666122,303.630798 216.751633,305.292755 211.449890,305.367859 
	C204.626099,305.464539 197.797867,305.291107 190.975403,305.426941 
	C186.093384,305.524170 183.964523,303.058807 183.835480,298.474182 
	C183.751175,295.479919 183.800644,292.481873 183.788086,288.990662 
M208.589996,284.020325 
	C207.205368,279.056763 203.135452,281.409515 200.289902,281.283020 
	C194.273224,281.015533 194.510803,281.290436 194.211472,289.385345 
	C194.038467,294.063538 195.660950,295.420624 200.222733,295.268036 
	C208.652893,294.986053 208.661377,295.231323 208.642120,286.883331 
	C208.640579,286.220703 208.631790,285.558044 208.589996,284.020325 
z"/>
<path fill="#000000" opacity="1.000000" stroke="none" 
	d="
M238.684891,293.899506 
	C238.688583,288.100708 238.667450,282.787903 238.706757,277.475525 
	C238.739319,273.073334 240.821548,270.665710 245.408401,270.687897 
	C252.547028,270.722412 259.685913,270.695770 266.824677,270.708801 
	C270.747559,270.715973 273.204681,272.670959 273.593994,276.555054 
	C274.372803,284.324524 274.416870,292.124939 273.546234,299.893311 
	C273.132751,303.582855 270.891022,305.402008 267.102295,305.372101 
	C260.461945,305.319641 253.820740,305.388641 247.180176,305.352386 
	C240.182266,305.314209 238.807541,303.912842 238.695801,296.875977 
	C238.682617,296.046051 238.688934,295.215790 238.684891,293.899506 
M260.078400,281.182343 
	C247.679901,281.208466 249.470657,280.207092 249.142227,290.488617 
	C249.017456,294.394409 250.306274,296.122803 254.318298,295.398224 
	C255.284256,295.223816 256.301300,295.277679 257.292389,295.307648 
	C259.773682,295.382690 263.283630,295.867371 263.265594,292.674957 
	C263.244232,288.886810 266.339081,284.036377 260.078400,281.182343 
z"/>
<path fill="#000000" opacity="1.000000" stroke="none" 
	d="
M599.467041,197.502350 
	C594.910828,200.588760 590.666565,203.492630 586.382385,206.336594 
	C583.608948,208.177704 580.634827,208.760773 578.422424,205.772736 
	C576.213989,202.790161 577.495850,199.971680 580.228027,198.044601 
	C590.391113,190.876404 600.584534,183.747086 610.902039,176.804535 
	C613.753906,174.885544 617.104675,174.706268 619.131470,178.155624 
	C621.020020,181.369659 619.277161,183.828415 616.549438,185.712662 
	C610.955933,189.576553 605.358093,193.434189 599.467041,197.502350 
z"/>
<path fill="#000000" opacity="1.000000" stroke="none" 
	d="
M371.001740,221.919525 
	C374.304382,223.211014 377.288818,224.262054 380.193298,225.500610 
	C383.181671,226.774933 383.974640,229.321075 382.921692,232.113235 
	C381.898621,234.826187 379.446625,235.773529 376.755920,234.793015 
	C365.817444,230.806885 354.912994,226.724991 344.037903,222.568741 
	C341.089905,221.442093 340.008514,218.985107 341.139069,216.073303 
	C342.284271,213.123901 344.779175,212.257385 347.702362,213.308228 
	C355.372711,216.065659 363.002472,218.936035 371.001740,221.919525 
z"/>
<path fill="#000000" opacity="1.000000" stroke="none" 
	d="
M592.829590,277.245300 
	C589.656799,276.075836 586.811646,275.118927 584.059204,273.944824 
	C581.049805,272.661133 579.501038,270.331787 580.883362,267.143677 
	C582.205994,264.093292 584.730957,263.291199 587.931213,264.490265 
	C597.749878,268.169128 607.573914,271.835876 617.439514,275.385986 
	C620.764587,276.582520 622.675598,278.714813 621.632263,282.138458 
	C620.414612,286.134155 617.017700,286.088348 613.801453,284.964478 
	C606.891907,282.550018 600.061157,279.909882 592.829590,277.245300 
z"/>
<path fill="#000000" opacity="1.000000" stroke="none" 
	d="
M615.281616,240.374420 
	C609.030762,240.925354 603.251892,241.512466 597.462952,241.974701 
	C595.995850,242.091827 594.439087,242.033920 593.025146,241.665909 
	C590.259705,240.946152 588.759338,238.931061 589.136475,236.108856 
	C589.515808,233.270325 591.548035,231.895569 594.374573,231.704956 
	C604.146729,231.045898 613.917053,230.357224 623.691711,229.737747 
	C627.239746,229.512909 630.131287,230.588394 630.377625,234.668015 
	C630.630188,238.851120 627.735291,240.021057 624.225342,240.187607 
	C621.403748,240.321487 618.575195,240.310806 615.281616,240.374420 
z"/>
<path fill="#000000" opacity="1.000000" stroke="none" 
	d="
M388.190491,175.575790 
	C392.719482,182.796036 396.993134,189.728775 401.244720,196.675018 
	C403.141876,199.774536 404.180298,203.029984 400.367432,205.327057 
	C396.773926,207.491974 394.462891,205.109253 392.638489,202.237991 
	C388.537109,195.783173 384.481354,189.299408 380.385895,182.840820 
	C378.818390,180.368790 378.293060,177.712143 380.325012,175.455704 
	C382.589264,172.941330 385.344635,173.348297 388.190491,175.575790 
z"/>
</svg>