<svg version="1.1" id="Layer_1" xmlns="http://www.w3.org/2000/svg" xmlns:xlink="http://www.w3.org/1999/xlink" x="0px" y="0px"
	 width="100%" viewBox="0 0 1024 672" enable-background="new 0 0 1024 672" xml:space="preserve">
<path fill="#000000" opacity="1.000000" stroke="none" 
	d="
M507.357788,486.844666 
	C479.203491,480.855225 452.528900,471.530792 425.959778,461.769562 
	C413.505066,457.193848 401.182861,452.188995 387.936951,449.824280 
	C378.691742,448.173828 369.326355,449.097656 360.157257,447.350647 
	C358.538452,447.042175 356.898132,446.846985 354.972565,446.554718 
	C353.742737,449.101624 352.519135,451.615295 351.312897,454.137268 
	C345.693359,465.886383 330.583679,478.389435 313.102203,473.336761 
	C307.817505,471.809296 302.716949,469.671753 297.965485,466.959351 
	C287.785126,461.147827 276.744843,457.478241 265.807190,453.566864 
	C248.928467,447.530945 231.338791,443.709076 214.777023,436.578888 
	C200.707840,430.521820 188.020340,422.485779 176.328629,412.760193 
	C165.462601,403.721436 153.202911,397.120880 140.118973,392.082458 
	C129.061081,387.824219 119.490150,381.985748 111.381218,372.977753 
	C100.043526,360.382996 104.871819,348.380951 115.527771,338.228546 
	C122.929054,331.177032 132.557800,327.728638 141.867599,324.315460 
	C152.382156,320.460602 160.604553,313.861176 168.417587,306.278229 
	C179.730591,295.298401 190.295441,283.506470 203.635513,274.737976 
	C225.083282,260.640320 248.212708,250.976257 273.701569,247.259064 
	C274.683197,247.115921 275.797363,246.776520 276.657318,247.077835 
	C283.976257,249.642288 287.406952,245.957855 290.936829,239.914459 
	C296.872406,229.752319 303.633789,219.867645 313.929779,213.470215 
	C322.556915,208.109741 331.846649,204.163422 341.768188,201.519608 
	C353.263733,198.456375 364.829163,196.639709 376.714539,196.794754 
	C387.504700,196.935516 397.829010,199.014084 407.392456,204.194839 
	C413.921600,207.731827 421.272675,210.029617 425.804291,216.593185 
	C427.041809,218.385620 428.737488,217.364151 430.328766,216.817947 
	C445.192596,211.716095 460.565430,216.132889 468.903412,229.416885 
	C474.815857,238.836609 476.479431,249.539154 471.254364,260.327789 
	C469.820587,263.288239 468.311188,266.463715 471.841614,269.199005 
	C473.667358,268.765228 474.023193,267.288574 474.707336,265.954834 
	C484.922821,246.040680 498.131683,228.865463 518.514648,218.277222 
	C525.153625,214.828522 532.384216,213.451675 539.667175,213.031891 
	C553.411499,212.239639 566.856934,214.204941 579.845093,218.971115 
	C595.821106,224.833725 610.874268,232.634079 625.869934,240.589493 
	C640.572632,248.389435 655.609009,255.446075 671.974731,259.119720 
	C686.164124,262.304840 700.270630,261.968506 714.333008,258.122772 
	C740.129761,251.067963 766.268311,246.370850 793.165100,247.987137 
	C808.506042,248.909012 823.342285,252.386581 838.043091,256.912445 
	C854.934448,262.112732 870.677795,269.165436 884.334473,280.594879 
	C889.944458,285.289948 896.161926,289.265808 901.709045,294.027863 
	C913.189331,303.883484 921.417542,316.077148 926.098755,330.500946 
	C927.889832,336.019379 931.448242,340.902771 931.887756,346.893097 
	C931.984863,348.216919 932.381287,349.528107 932.391052,350.846985 
	C932.411560,353.607330 931.994934,356.578400 928.877502,357.242401 
	C925.383911,357.986542 923.490662,355.211212 923.003418,352.377838 
	C920.924805,340.289337 914.466797,330.075745 909.255188,319.341095 
	C905.177185,310.941284 898.562683,304.452850 891.704224,298.403900 
	C872.059326,281.077881 849.705566,268.826355 824.147827,262.307709 
	C803.702881,257.093170 783.235291,256.308319 762.335815,258.551636 
	C743.233521,260.602020 724.985779,266.607666 706.134521,269.533234 
	C689.842468,272.061676 673.848633,270.184204 657.990356,264.902039 
	C635.057373,257.263428 614.914246,243.994446 593.043579,234.316437 
	C577.566772,227.467804 561.776855,221.669189 544.155701,221.898590 
	C525.900085,222.136261 512.703125,230.946350 500.800018,243.317291 
	C492.028198,252.433884 486.579559,263.731140 479.847473,274.199707 
	C476.384705,279.584351 478.236542,284.720612 479.736664,289.888489 
	C484.592438,306.616119 484.138885,323.291138 480.281738,340.156525 
	C477.135895,353.911469 471.238922,366.165253 462.376953,377.058868 
	C457.381561,383.199432 450.957886,387.680023 444.556061,392.160950 
	C443.622467,392.814392 442.483032,393.133606 441.908844,394.326324 
	C443.160400,396.409851 445.285431,396.486725 447.152771,396.605103 
	C467.981903,397.924805 488.189240,402.676178 508.476318,407.183441 
	C517.193237,409.120117 526.218628,409.808014 535.144287,410.617249 
	C541.444763,411.188477 543.815796,408.087799 541.774048,401.996460 
	C538.252319,391.489685 531.946228,382.391388 526.133240,373.095703 
	C523.044312,368.156250 519.718384,363.363953 516.981323,358.210236 
	C515.762878,355.916016 514.706543,353.215210 517.289307,351.450653 
	C520.155151,349.492645 522.778503,351.208496 524.677124,353.526489 
	C526.570129,355.837646 528.399353,358.276520 529.799438,360.903076 
	C536.505188,373.482910 545.639038,384.698975 550.403931,398.382355 
	C555.267517,412.349060 547.373230,421.728607 532.578430,419.803345 
	C515.752502,417.613800 499.019531,414.805664 482.567657,410.844818 
	C466.305908,406.929810 449.689056,406.501709 433.275604,404.212402 
	C429.896851,403.741089 426.285858,400.620392 422.834656,403.721375 
	C420.025055,406.245911 419.271881,410.078979 417.933044,413.404724 
	C414.401581,422.177216 410.710266,430.917236 408.530090,440.178986 
	C407.820770,443.192230 408.365723,445.291870 411.607361,446.452057 
	C431.029846,453.403717 450.198181,461.161346 469.881409,467.262726 
	C491.455414,473.950134 513.329834,480.004547 536.130310,481.076111 
	C563.143738,482.345612 589.703308,480.645569 614.061584,467.177673 
	C626.592651,460.249115 634.020203,449.568420 634.662170,435.087891 
	C635.676697,412.205200 632.206543,390.029114 623.186096,368.799744 
	C613.946167,347.053741 602.299561,326.893921 585.865112,309.702911 
	C583.936584,307.685638 582.204468,305.311798 581.023132,302.801239 
	C580.038330,300.708435 580.013733,298.063507 582.390015,296.514954 
	C584.533386,295.118164 586.176941,296.687469 587.680603,298.005157 
	C595.749573,305.076172 602.287354,313.558899 608.306152,322.279541 
	C620.327209,339.696899 631.151855,357.889038 636.820312,378.530060 
	C642.618042,399.641541 646.336731,421.033752 643.111755,443.060547 
	C643.015625,443.716919 642.842896,444.364014 642.676453,445.007843 
	C640.701599,452.645691 641.209229,452.574860 648.839111,453.766327 
	C665.553528,456.376495 682.424255,456.179169 699.158752,456.170227 
	C717.241882,456.160614 735.428223,455.839294 753.490906,453.782288 
	C760.401062,452.995361 767.396606,452.958252 774.845520,452.552643 
	C772.859375,446.777863 768.690491,443.052399 765.674805,438.639069 
	C749.734497,415.310974 740.082092,389.600281 738.320679,361.490875 
	C737.333801,345.743439 739.762268,329.960419 744.433594,314.696777 
	C745.437866,311.415161 747.197266,309.004333 750.817261,310.057770 
	C754.319946,311.077118 754.352051,314.240845 753.396606,317.110413 
	C749.525330,328.737244 747.925903,340.815033 747.450317,352.904449 
	C746.422119,379.040100 755.240845,402.532898 768.581543,424.516968 
	C781.385864,445.616974 798.260742,462.500244 821.015686,472.707458 
	C827.650757,475.683716 834.899902,477.293274 841.873718,479.509766 
	C842.821838,479.811066 843.870422,479.857422 844.761719,480.264374 
	C847.316650,481.430878 848.724426,483.486725 848.087036,486.282837 
	C847.415344,489.229309 844.860962,489.535065 842.487000,489.060913 
	C833.181213,487.202179 823.912964,485.089722 815.392456,480.729065 
	C805.163147,475.493805 795.161499,469.862915 786.554688,462.100037 
	C785.118164,460.804321 783.576599,460.068817 781.562866,460.473053 
	C765.335876,463.730652 748.824951,463.528595 732.407288,464.389679 
	C719.963257,465.042297 707.495605,465.882935 695.050354,465.720886 
	C677.432312,465.491516 659.748718,465.291504 642.353577,461.908142 
	C637.838989,461.030029 634.897522,461.908997 631.462891,465.419434 
	C621.915100,475.178131 609.338867,479.939636 596.691589,484.294037 
	C574.091797,492.075012 550.736694,490.582916 527.453796,489.814850 
	C520.796448,489.595245 514.212402,488.668549 507.357788,486.844666 
M387.539886,396.871796 
	C390.703278,396.889771 393.869080,396.833618 397.029633,396.938202 
	C413.444092,397.481384 428.262115,392.122162 441.646149,383.379303 
	C458.708435,372.233673 468.664185,356.321259 472.427795,335.905975 
	C476.828400,312.035370 473.791809,290.004639 460.437195,269.629242 
	C458.191803,266.203400 458.320953,263.437531 460.718048,260.110138 
	C471.430084,245.240570 462.577148,225.910202 444.269165,224.307037 
	C434.812012,223.478912 428.464203,227.017624 426.800812,236.506073 
	C426.427887,238.633362 426.225311,240.795151 425.761597,242.900833 
	C425.005951,246.332108 422.937408,248.874283 419.317474,248.788193 
	C406.251831,248.477524 393.037292,249.819229 380.256989,245.830307 
	C377.893860,245.092728 376.128357,245.687286 374.373871,247.325912 
	C366.419647,254.754761 356.750641,258.844452 346.136322,259.884277 
	C334.469330,261.027161 323.677917,258.082855 314.857330,249.767227 
	C313.227753,248.230957 311.573059,246.364761 313.019348,244.129761 
	C314.590698,241.701584 317.246613,241.726364 319.751221,242.706635 
	C320.975098,243.185638 322.072052,244.003998 323.199829,244.711166 
	C337.062561,253.403885 356.340851,251.665619 367.947174,240.247849 
	C371.948334,236.311691 375.894958,235.087250 381.394531,236.328171 
	C391.477142,238.603180 401.715912,239.845596 412.108734,238.296478 
	C415.124847,237.846924 417.728394,237.091171 418.415985,233.710968 
	C419.187225,229.919464 421.067963,226.166428 417.137695,222.650238 
	C403.317596,210.286179 386.931763,205.920517 368.835907,206.639130 
	C358.948792,207.031754 349.360962,209.411514 340.101410,212.506210 
	C331.492218,215.383530 322.340393,218.085815 315.588226,224.419312 
	C301.717010,237.430405 292.271790,253.690704 286.718536,271.630707 
	C282.361908,285.705048 280.252197,300.501862 281.259460,315.480560 
	C281.963501,325.950012 284.996338,335.542328 290.624298,344.483704 
	C300.255249,359.784790 313.527802,371.604156 328.550873,380.749664 
	C346.064880,391.411530 365.853973,396.417969 387.539886,396.871796 
M275.249207,349.733368 
	C279.351227,347.514923 279.925232,344.744751 277.901276,340.365112 
	C274.113892,332.169556 271.908295,323.432800 271.852692,314.307251 
	C271.743713,296.424927 273.615814,278.838043 279.648499,261.848816 
	C281.348297,257.061798 280.320465,255.784256 275.150604,256.333130 
	C270.532532,256.823395 265.903168,257.568726 261.395050,258.675262 
	C229.829941,266.423035 203.181305,282.538055 180.898987,306.109253 
	C169.867157,317.779205 157.917175,328.294800 142.374268,333.651550 
	C135.406723,336.052887 128.805267,339.064331 122.712708,343.246216 
	C112.118774,350.517883 110.885139,358.087250 119.021835,367.722778 
	C124.632362,374.366821 131.847946,378.639404 139.903229,381.778442 
	C154.203827,387.351135 168.144104,393.784180 179.928757,403.809296 
	C196.552643,417.951202 215.546829,427.620667 236.070633,434.414703 
	C249.950043,439.009277 264.137909,442.623352 277.889069,447.685394 
	C288.212341,451.485565 298.309753,455.678497 308.005188,460.881714 
	C324.125183,469.532715 336.178009,463.001129 344.014221,448.664185 
	C345.560272,445.835541 344.914001,444.054779 341.533173,442.582306 
	C333.462097,439.067017 325.170563,436.125671 317.223938,432.231079 
	C304.272766,425.883759 293.184875,416.770172 281.051300,409.233704 
	C274.706207,405.292603 269.016052,400.384735 265.651672,393.268494 
	C261.822510,385.169128 264.043121,376.586670 264.597717,368.581818 
	C265.053894,361.997559 268.953430,355.030640 275.249207,349.733368 
M299.863953,410.647552 
	C304.002167,413.110107 308.129852,415.590515 312.280487,418.031952 
	C327.564301,427.022034 343.578766,434.361511 361.074188,437.695831 
	C371.969879,439.772339 383.265259,439.012451 394.144073,441.641083 
	C398.447723,442.680939 399.863861,439.654144 400.420288,436.390900 
	C401.099518,432.407745 402.811371,428.778229 403.765259,424.929688 
	C405.390228,418.373749 408.886871,412.508453 410.889069,405.934692 
	C392.637817,406.304688 374.862213,406.805359 357.465912,402.013489 
	C342.034546,397.762878 326.934204,392.812195 314.279358,382.447327 
	C309.622345,378.633057 304.621063,375.225922 299.203247,372.725342 
	C292.874207,369.804199 286.145844,367.714386 278.982422,368.383057 
	C276.570953,368.608154 273.267944,368.739075 273.098267,371.793610 
	C272.916809,375.059906 276.320831,375.149292 278.678864,375.497498 
	C280.988739,375.838593 283.267334,376.113312 285.485474,376.917511 
	C300.790222,382.466431 313.934998,391.786926 327.255768,400.796478 
	C328.998627,401.975281 330.396790,403.745880 329.487427,405.836914 
	C328.427704,408.273743 326.009918,408.939789 323.550537,408.213959 
	C321.835938,407.707947 320.113190,406.877106 318.687073,405.802521 
	C308.678314,398.260529 297.578461,392.538605 286.671143,386.504944 
	C283.111938,384.536072 279.110992,384.028412 275.063324,384.239899 
	C272.501495,384.373779 271.757721,385.865173 273.027740,387.943756 
	C276.167877,393.082977 279.697113,397.936493 285.205566,400.841766 
	C290.225220,403.489227 294.730804,406.894531 299.863953,410.647552 
M284.012268,354.761444 
	C282.356201,355.641327 280.302490,356.155243 280.209473,358.810394 
	C283.128937,359.915955 285.893768,360.299530 289.110291,359.376709 
	C288.309235,356.831085 287.402161,354.886200 284.012268,354.761444 
z"/>
<path fill="#000000" opacity="1.000000" stroke="none" 
	d="
M363.304626,347.275543 
	C355.201447,354.228912 347.123474,355.488190 340.741608,351.387573 
	C337.244232,349.140320 336.437958,343.747345 332.816010,342.952881 
	C329.483124,342.221893 326.186493,346.175385 322.117706,346.215118 
	C316.931366,346.265686 312.224182,345.134277 308.036102,342.050110 
	C305.904297,340.480194 304.029144,338.613281 305.697662,335.797424 
	C307.257172,333.165436 309.724518,333.226990 312.251953,334.453400 
	C312.997681,334.815216 313.686035,335.321808 314.459656,335.595215 
	C318.963043,337.186829 323.579956,337.647675 326.912292,333.633759 
	C329.977386,329.941772 329.892761,325.351868 328.456238,320.867493 
	C328.207031,320.089600 327.603546,319.432220 327.277435,318.670502 
	C326.417908,316.662720 326.312195,314.588104 328.318939,313.314545 
	C330.416321,311.983490 332.569305,312.582092 334.138672,314.434021 
	C337.120453,317.952667 338.961273,322.016541 339.241486,326.669098 
	C339.453064,330.181976 340.279633,333.563141 341.239380,336.916687 
	C342.193848,340.251770 343.816162,343.104980 347.503876,344.003937 
	C351.480499,344.973328 354.121948,342.789795 356.577209,340.069244 
	C358.993805,337.391571 360.365479,334.183167 361.398682,330.839630 
	C362.180054,328.311005 363.396362,326.479065 366.265961,326.958954 
	C369.326569,327.470764 369.352478,329.968323 369.336029,332.396820 
	C369.297974,338.020660 366.645905,342.599060 363.304626,347.275543 
z"/>
<path fill="#000000" opacity="1.000000" stroke="none" 
	d="
M375.230011,301.247131 
	C366.046570,308.136139 358.943115,308.915436 351.074158,304.114624 
	C349.067505,302.890381 347.226715,301.465088 346.453430,299.080933 
	C345.817261,297.119446 346.425110,295.484955 347.778473,294.060394 
	C349.190613,292.573853 350.736084,292.935455 352.335175,293.741333 
	C353.966553,294.563416 355.591187,295.415741 357.280518,296.102997 
	C365.044495,299.261566 370.402771,296.035522 371.109711,287.739227 
	C371.233856,286.282471 370.930786,284.787720 370.808289,283.311920 
	C370.582306,280.589539 370.269531,277.541046 373.695465,276.780670 
	C377.042023,276.037842 378.430817,278.896851 379.250916,281.396027 
	C381.596985,288.545319 380.462463,295.160156 375.230011,301.247131 
z"/>
<path fill="#000000" opacity="1.000000" stroke="none" 
	d="
M402.078308,339.785767 
	C398.137115,352.082520 389.069672,359.225555 378.839233,365.162628 
	C376.353638,366.605103 372.974365,368.055603 371.218323,363.989319 
	C369.691681,360.454071 371.706299,358.785583 374.927765,357.252106 
	C384.843933,352.531677 391.347687,344.578979 395.051910,334.311981 
	C395.976013,331.750641 395.936981,328.205017 400.252899,329.533142 
	C403.959991,330.673920 403.265320,333.763947 403.000336,336.533661 
	C402.907013,337.508698 402.474884,338.451355 402.078308,339.785767 
z"/>
</svg>