<svg version="1.1" id="Layer_1" xmlns="http://www.w3.org/2000/svg" xmlns:xlink="http://www.w3.org/1999/xlink" x="0px" y="0px"
	 width="100%" viewBox="0 0 800 800" enable-background="new 0 0 800 800" xml:space="preserve">
<path fill="none" opacity="1.000000" stroke="#000000" stroke-linecap="round" stroke-linejoin="round" stroke-width="6.000000"
	d="
M433.500000,275.000000 
	C434.189209,272.503296 436.176392,270.951111 438.037506,269.549835 
	C449.783813,260.705811 456.452393,249.114166 458.569061,234.510010 
	C462.811371,205.239639 446.283234,181.185349 421.003845,172.488861 
	C389.421356,161.624008 357.578156,177.965881 346.972961,208.078522 
	C340.750153,225.747681 343.349487,242.919083 354.820770,258.630859 
	C359.262848,264.714966 366.464447,267.791016 370.024323,274.487061 
	C370.166901,274.755188 370.653198,274.871490 371.001923,274.994537 
	C388.582428,281.197601 406.261383,285.612305 424.491241,277.480377 
	C428.644531,275.627686 432.530975,274.651062 437.075836,276.842712 
	C439.474426,277.999359 442.646057,277.053925 445.512939,277.389343 
	C457.683655,278.813263 468.067871,283.397736 476.048767,292.959320 
	C476.919617,294.002625 477.604004,295.518372 479.499664,295.536438 
	C483.228577,295.571869 484.991455,298.496490 487.440918,301.084991 
	C490.515198,300.600586 493.992920,299.914948 497.503662,299.533813 
	C502.003204,299.045441 505.776520,301.373230 505.870270,305.502930 
	C506.040253,312.989868 506.606750,320.520905 505.500000,328.000000 
"/>
<path fill="none" opacity="1.000000" stroke="#000000" stroke-linecap="round" stroke-linejoin="round" stroke-width="7.000000"
	d="
M269.000000,532.500000 
	C270.246674,528.938782 270.726929,525.223633 270.975342,521.498352 
	C271.619019,511.844757 269.860687,502.104401 272.000000,492.500000 
	C268.302460,474.756317 271.957367,456.836578 270.751190,438.983032 
	C269.855713,425.729095 270.906647,412.324615 270.002441,398.999847 
	C268.943634,383.397278 265.147980,368.927124 253.525055,357.474579 
	C247.351562,351.391571 239.345200,347.605835 231.492386,347.481628 
	C221.890778,347.329803 211.959030,349.955536 204.483932,357.484039 
	C198.270096,363.742279 194.863922,371.025177 194.954285,380.000458 
	C195.075012,391.989380 197.494797,403.684540 198.974472,415.503204 
	C201.894394,438.825684 204.603333,462.174591 207.525085,485.496857 
	C209.135025,498.347748 210.834473,511.192200 212.809616,523.990784 
	C214.074966,532.190063 218.605743,534.499390 226.507401,534.187683 
	C237.642792,533.748291 248.847900,533.378723 259.998291,534.516663 
	C260.345032,534.552002 260.745209,535.054504 260.988678,534.968079 
	C270.561676,531.569885 280.334412,534.734314 290.008057,534.128845 
	C299.471008,533.536621 309.000000,534.000000 318.500000,534.000000 
	C323.833344,534.000000 329.166840,533.976074 334.499908,534.013794 
	C336.213776,534.025940 338.058746,533.539612 339.500000,535.000000 
"/>
<path fill="none" opacity="1.000000" stroke="#000000" stroke-linecap="round" stroke-linejoin="round" stroke-width="7.000000"
	d="
M539.000000,532.500000 
	C537.924194,529.595947 537.434998,526.623169 537.468567,523.499634 
	C537.560059,515.000671 537.855713,506.481598 537.416992,498.004303 
	C536.752441,485.165100 537.136658,472.333221 537.038330,459.499695 
	C536.987305,452.834717 537.920715,446.116821 537.360168,439.511871 
	C536.551819,429.986267 536.803162,420.471100 537.159851,411.006012 
	C537.617188,398.871552 538.241272,386.635345 542.493164,374.997498 
	C547.957642,360.040649 557.963318,349.934021 574.026672,347.690918 
	C582.396729,346.522095 590.986389,348.809418 597.867004,353.687561 
	C605.104065,358.818390 610.010864,366.134430 611.033325,375.496368 
	C612.024109,384.567841 610.275818,393.501617 609.864868,402.493835 
	C609.528381,409.857483 607.880676,417.152802 607.026855,424.503113 
	C605.595581,436.825073 604.437622,449.179016 602.976379,461.497192 
	C600.563171,481.840820 597.888794,502.153992 595.568604,522.507812 
	C594.882507,528.526123 592.191162,532.369690 586.539551,534.600159 
	C584.159851,535.539368 582.534668,533.869263 580.499329,533.988403 
	C569.509399,534.631775 558.441284,532.725098 547.499146,534.995850 
	C547.339355,535.029053 547.151489,535.044617 547.002136,534.993713 
	C537.101440,531.617615 526.998901,534.731689 516.992249,534.128540 
	C507.194489,533.538025 497.333344,534.000000 487.500000,534.000000 
	C483.666656,534.000000 479.833313,533.989502 476.000031,534.005005 
	C474.434052,534.011353 472.780914,533.680786 471.500000,535.000000 
"/>
<path fill="none" opacity="1.000000" stroke="#000000" stroke-linecap="round" stroke-linejoin="round" stroke-width="6.000000"
	d="
M575.000000,346.500000 
	C574.614075,331.667847 576.141235,316.766083 573.936890,302.009430 
	C572.001221,289.051270 569.344971,276.326813 561.060364,265.454010 
	C552.427368,254.123978 540.649170,248.031601 527.492249,244.025436 
	C515.104858,240.253601 502.461273,237.961914 489.515961,236.819077 
	C482.842316,236.229935 476.150726,236.212341 469.500000,235.500000 
"/>
<path fill="none" opacity="1.000000" stroke="#000000" stroke-linecap="round" stroke-linejoin="round" stroke-width="6.000000"
	d="
M333.500000,235.500000 
	C319.745728,236.201752 305.989075,236.897751 292.500885,240.003891 
	C277.465698,243.466293 262.858551,247.511917 250.888672,258.377350 
	C241.741638,266.680420 237.313339,277.047577 234.524628,288.505981 
	C232.049393,298.676270 230.982651,309.032013 230.997375,319.500000 
	C231.010040,328.500000 231.000000,337.500000 231.000000,346.500000 
"/>
<path fill="none" opacity="1.000000" stroke="#000000" stroke-linecap="round" stroke-linejoin="round" stroke-width="7.000000"
	d="
M320.500000,309.000000 
	C326.039459,307.522003 331.111908,310.267273 335.917328,311.765228 
	C350.705750,316.375122 365.810760,320.248566 379.555878,327.899597 
	C386.682861,331.866821 387.169373,332.451233 387.079681,340.500885 
	C386.843842,361.664917 387.003815,382.833344 386.993713,404.000000 
	C386.992767,405.989685 387.503693,407.549500 389.488159,408.524109 
	C396.273682,411.856720 403.087585,412.725616 409.989197,408.980072 
	C411.691681,408.056091 412.481049,406.513153 412.524384,404.500519 
	C412.606964,400.665375 412.973053,396.833466 412.976135,392.999969 
	C412.990662,374.999451 414.049866,357.004089 413.250000,339.000000 
"/>
<path fill="none" opacity="1.000000" stroke="#000000" stroke-linecap="round" stroke-linejoin="round" stroke-width="6.000000"
	d="
M300.500000,328.000000 
	C300.500000,321.500000 300.496216,315.000000 300.501007,308.500000 
	C300.506348,301.265411 304.877441,298.019196 311.996948,300.010864 
	C314.929382,300.831238 317.196869,300.833832 319.643738,298.130096 
	C322.007751,295.517883 325.146851,295.151154 329.101135,297.038055 
	C334.978699,299.842743 341.749786,300.372467 348.026764,302.417847 
	C365.166504,308.003052 381.691559,314.706177 396.006409,325.991882 
	C398.600189,328.036804 401.053589,329.794952 404.537720,327.047852 
	C418.027710,316.411560 433.974457,310.849396 449.999847,305.499542 
	C457.688690,302.932739 465.577332,301.154846 473.496094,299.481567 
	C475.607635,299.035400 477.516357,298.142395 478.500000,296.000000 
"/>
<path fill="none" opacity="1.000000" stroke="#000000" stroke-linecap="round" stroke-linejoin="round" stroke-width="6.000000"
	d="
M300.000000,328.500000 
	C285.442719,334.579468 281.819458,347.839905 286.911133,360.937378 
	C289.811310,368.397583 296.526520,372.134613 304.503021,372.413239 
	C312.562408,372.694794 318.902374,368.895325 322.419952,361.710815 
	C329.984802,346.259857 321.275970,327.982330 301.500000,328.499420 
	C301.333435,328.503784 301.166656,328.500000 301.000000,328.500000 
"/>
<path fill="none" opacity="1.000000" stroke="#000000" stroke-linecap="round" stroke-linejoin="round" stroke-width="6.000000"
	d="
M301.000000,386.000000 
	C301.745209,393.985229 302.247284,394.317139 309.492615,395.543640 
	C321.398285,397.559113 332.985107,400.826721 344.529358,404.405273 
	C361.863220,409.778503 379.373657,414.562531 396.033051,421.925262 
	C397.636505,422.633942 398.210754,423.474670 399.189392,424.866852 
	C402.792816,429.992950 404.825928,435.967926 408.500000,441.000000 
"/>
<path fill="none" opacity="1.000000" stroke="#000000" stroke-linecap="round" stroke-linejoin="round" stroke-width="6.000000"
	d="
M471.000000,535.500000 
	C470.452576,538.276733 471.776398,540.813293 472.043213,543.495728 
	C473.139954,554.522644 468.150299,562.367493 459.510162,568.514282 
	C445.055115,578.797913 422.193756,578.512695 408.938873,567.070801 
	C402.791199,561.764038 400.310242,550.003052 406.432587,542.445374 
	C418.240631,527.869019 433.990143,521.624512 452.005402,521.324219 
	C457.573181,521.231445 462.983612,525.287842 466.523346,530.484070 
	C467.719910,532.240601 469.024292,533.975708 471.000000,535.000000 
"/>
<path fill="none" opacity="1.000000" stroke="#000000" stroke-linecap="round" stroke-linejoin="round" stroke-width="4.000000"
	d="
M433.000000,363.000000 
	C432.593353,365.396942 433.950592,366.992157 435.499756,368.496765 
	C439.993286,367.939667 444.376038,366.384460 449.500000,366.493622 
	C449.500000,370.818848 449.647095,374.666779 449.455780,378.497803 
	C449.287537,381.866760 451.050018,383.303650 454.002350,383.453918 
	C457.311249,383.622314 459.573120,382.302185 459.510651,378.499817 
	C459.458679,375.334015 459.790405,372.132690 459.424988,369.008759 
	C458.988892,365.280701 460.943939,363.784027 464.008728,363.035797 
	C464.952484,362.805389 466.035553,363.171265 466.994263,362.972321 
	C473.457031,361.631287 474.750580,358.430969 471.499939,351.999298 
	C467.484680,352.149353 463.656464,354.544189 459.000000,352.814301 
	C459.000000,350.018494 458.973816,347.008942 459.007416,344.000092 
	C459.040161,341.066132 458.050842,338.672516 454.987671,338.061859 
	C452.177612,337.501678 449.216675,340.479980 449.042786,344.002106 
	C448.854004,347.826141 449.000000,351.666656 449.000916,355.503418 
	C445.629730,357.586761 441.684235,357.562439 438.003967,358.515259 
	C435.776733,359.091888 433.016510,359.103973 433.000000,362.500000 
"/>
<path fill="none" opacity="1.000000" stroke="#000000" stroke-linecap="round" stroke-linejoin="round" stroke-width="6.000000"
	d="
M356.500000,492.500000 
	C332.166656,492.500000 307.833099,492.446320 283.500275,492.557617 
	C279.831726,492.574402 276.166656,491.035522 272.500000,492.500000 
"/>
<path fill="none" opacity="1.000000" stroke="#000000" stroke-linecap="round" stroke-linejoin="round" stroke-width="7.000000"
	d="
M224.000000,535.500000 
	C224.000000,540.500000 223.969711,545.500244 224.007706,550.499939 
	C224.054703,556.683838 227.934845,560.138245 233.996140,559.224426 
	C240.333771,558.269043 246.631012,560.195740 253.016800,559.097717 
	C258.367584,558.177673 260.873993,556.035278 260.979828,550.499634 
	C261.075409,545.501465 261.000000,540.500000 261.000000,535.500000 
"/>
<path fill="none" opacity="1.000000" stroke="#000000" stroke-linecap="round" stroke-linejoin="round" stroke-width="7.000000"
	d="
M547.000000,535.500000 
	C547.000000,540.333313 547.238342,545.181824 546.932983,549.995728 
	C546.627441,554.813782 550.871033,559.145081 555.500916,559.042053 
	C562.664062,558.882629 569.836426,559.127502 576.998901,558.954102 
	C581.603333,558.842590 584.306763,556.119080 583.900208,551.508789 
	C583.423645,546.104431 585.906311,540.882507 584.500000,535.500000 
"/>
<path fill="none" opacity="1.000000" stroke="#000000" stroke-linecap="round" stroke-linejoin="round" stroke-width="6.000000"
	d="
M505.000000,373.500000 
	C504.875061,378.334778 504.946442,383.162628 504.621948,388.008179 
	C504.316071,392.575470 502.025208,394.569824 498.002167,395.509277 
	C483.829956,398.818756 469.651825,402.106354 455.519989,405.581329 
	C453.875153,405.985779 451.979340,406.718994 451.000000,408.500000 
"/>
<path fill="none" opacity="1.000000" stroke="#000000" stroke-linecap="round" stroke-linejoin="round" stroke-width="6.000000"
	d="
M370.000000,495.000000 
	C363.727722,501.196228 360.479858,509.430603 355.594055,516.564453 
	C354.214661,518.578491 353.111359,520.494690 351.079865,522.101013 
	C346.790192,525.492920 343.492157,530.005676 340.599854,534.563354 
	C334.496460,544.180908 340.081543,558.822937 350.998199,563.004761 
	C368.713287,569.790771 385.830872,567.987671 402.500000,559.500000 
"/>
<path fill="none" opacity="1.000000" stroke="#000000" stroke-linecap="round" stroke-linejoin="round" stroke-width="6.000000"
	d="
M505.000000,328.500000 
	C495.420197,329.746490 487.589966,333.371857 484.497040,343.499084 
	C480.737427,355.809357 486.644867,368.328003 499.470612,371.614655 
	C507.571014,373.690338 514.165283,371.289062 518.825867,365.363068 
	C524.124634,358.625580 525.524658,350.374237 522.452454,342.017487 
	C519.654541,334.406952 514.100159,329.822052 506.000000,328.500000 
"/>
<path fill="none" opacity="1.000000" stroke="#000000" stroke-linecap="round" stroke-linejoin="round" stroke-width="6.000000"
	d="
M470.500000,314.500000 
	C465.476501,313.834808 461.142975,316.404236 456.505524,317.522919 
	C444.383331,320.447174 432.780884,325.003601 420.994598,328.984039 
	C417.011475,330.329193 414.040009,332.544159 413.533905,337.003845 
	C413.371002,338.439209 412.680054,338.684540 411.500000,338.500000 
"/>
<path fill="none" opacity="1.000000" stroke="#000000" stroke-linecap="round" stroke-linejoin="round" stroke-width="6.000000"
	d="
M399.500000,423.500000 
	C405.692596,422.286560 411.327240,418.606659 418.010223,419.415497 
	C418.936157,419.527557 420.094177,418.629150 420.985138,417.979614 
	C428.306305,412.642395 437.003815,411.173279 445.477264,408.914703 
	C451.669342,407.264160 455.920837,411.477356 460.364624,413.763184 
	C468.916748,418.162354 471.258087,428.664520 470.270660,438.527100 
	C468.897736,452.239899 461.149902,462.675079 454.925751,473.959045 
	C451.853668,479.528412 447.788544,484.545685 444.626160,490.072174 
	C443.650543,491.777100 442.611359,492.778046 441.000000,493.500000 
"/>
<path fill="none" opacity="1.000000" stroke="#000000" stroke-linecap="round" stroke-linejoin="round" stroke-width="6.000000"
	d="
M346.500000,419.500000 
	C346.116760,424.083344 344.280396,428.357239 343.918640,432.993652 
	C343.242828,441.655579 345.628906,449.438446 349.480164,457.010101 
	C359.577087,476.860779 371.535889,495.646637 382.572632,514.958496 
	C387.475677,523.537720 393.157990,531.672241 398.506073,539.996094 
	C399.859863,542.103149 401.181122,544.259583 403.500000,545.500000 
"/>
<path fill="none" opacity="1.000000" stroke="#000000" stroke-linecap="round" stroke-linejoin="round" stroke-width="6.000000"
	d="
M409.499969,441.500000 
	C416.166656,452.666687 423.004730,463.735382 429.455780,475.025269 
	C437.189331,488.559540 445.098846,502.003845 452.021301,515.989441 
	C452.817444,517.597900 453.567657,519.163025 453.500000,521.000000 
"/>
<path fill="none" opacity="1.000000" stroke="#000000" stroke-linecap="round" stroke-linejoin="round" stroke-width="6.000000"
	d="
M342.500000,438.500000 
	C340.700806,439.658539 339.064056,438.882477 337.509003,437.984436 
	C335.306763,436.712646 333.013458,435.527679 331.028900,433.963348 
	C325.220673,429.385071 318.095581,430.311951 311.503540,428.982422 
	C297.673462,426.192993 284.768127,429.804382 272.000000,434.500000 
"/>
<path fill="none" opacity="1.000000" stroke="#000000" stroke-linecap="round" stroke-linejoin="round" stroke-width="6.000000"
	d="
M535.500000,434.000000 
	C534.500000,433.833344 533.426758,433.846252 532.511047,433.472839 
	C520.384155,428.527466 507.967316,426.646576 494.986847,429.438812 
	C492.730743,429.924103 490.210144,430.891174 488.000000,429.000000 
"/>
<path fill="none" opacity="1.000000" stroke="#000000" stroke-linecap="round" stroke-linejoin="round" stroke-width="6.000000"
	d="
M369.500000,275.000000 
	C366.794189,276.990448 363.645172,276.829651 360.502716,277.040466 
	C349.260284,277.794708 338.878113,280.615204 330.942688,289.448517 
	C329.268250,291.312378 328.125793,293.361633 327.000000,295.500000 
"/>
<path fill="none" opacity="1.000000" stroke="#000000" stroke-linecap="round" stroke-linejoin="round" stroke-width="6.000000"
	d="
M505.000000,492.250000 
	C515.174561,493.129578 525.332397,491.970184 535.500000,492.000000 
"/>
<path fill="none" opacity="1.000000" stroke="#000000" stroke-linecap="round" stroke-linejoin="round" stroke-width="6.000000"
	d="
M504.500000,490.500000 
	C504.629639,494.092651 501.854340,492.406342 500.499329,492.417480 
	C484.833740,492.546692 469.166656,492.500000 453.500000,492.500000 
"/>
<path fill="none" opacity="1.000000" stroke="#000000" stroke-linecap="round" stroke-linejoin="round" stroke-width="6.000000"
	d="
M492.000000,408.500000 
	C493.655121,416.025909 488.874390,422.138763 487.428680,428.984924 
	C487.299103,429.598358 486.233643,430.157440 485.489014,430.474182 
	C481.018005,432.376312 477.275269,436.069580 472.000000,436.000000 
"/>
<path fill="none" opacity="1.000000" stroke="#000000" stroke-linecap="round" stroke-linejoin="round" stroke-width="6.000000"
	d="
M317.500000,412.000000 
	C316.579895,416.334229 318.526245,420.077942 320.654907,423.400757 
	C321.937195,425.402344 323.037689,427.137085 323.000000,429.500000 
"/>
<path fill="none" opacity="1.000000" stroke="#000000" stroke-linecap="round" stroke-linejoin="round" stroke-width="4.000000"
	d="
M385.000000,521.000000 
	C380.023285,522.503662 375.703400,519.409546 371.000000,519.000000 
"/>
<path fill="none" opacity="1.000000" stroke="#000000" stroke-linecap="round" stroke-linejoin="round" stroke-width="5.000000"
	d="
M418.500000,420.000000 
	C417.423065,425.442047 412.847656,428.810944 410.500000,433.500000 
"/>
<path fill="none" opacity="1.000000" stroke="#000000" stroke-linecap="round" stroke-linejoin="round" stroke-width="5.000000"
	d="
M388.500000,337.500000 
	C394.092072,338.800781 399.503967,341.632874 405.500000,339.500000 
"/>
</svg>