<svg version="1.1" id="Layer_1" xmlns="http://www.w3.org/2000/svg" xmlns:xlink="http://www.w3.org/1999/xlink" x="0px" y="0px"
	 width="100%" viewBox="0 0 800 800" enable-background="new 0 0 800 800" xml:space="preserve">
<path fill="none" opacity="1.000000" stroke="#000000" stroke-linecap="round" stroke-linejoin="round" stroke-width="8.000000"
	d="
M350.500000,508.500000 
	C353.692078,520.631348 353.978516,533.191833 355.881378,545.518311 
	C358.520111,562.612122 360.288147,579.839478 362.617889,596.984009 
	C362.750763,597.961609 362.935455,599.006592 362.971039,600.001038 
	C363.225403,607.109314 363.946136,608.464844 355.489227,609.938110 
	C350.134033,610.870972 345.555542,608.448059 344.503448,601.999451 
	C342.491608,589.668030 340.489716,577.334961 338.502869,564.999512 
	C336.489868,552.501648 334.348602,540.021545 332.564819,527.490784 
	C331.691986,521.359253 329.644012,515.331299 330.500000,509.000000 
"/>
<path fill="none" opacity="1.000000" stroke="#000000" stroke-linecap="round" stroke-linejoin="round" stroke-width="8.000000"
	d="
M255.000000,508.500000 
	C252.833328,521.333313 250.622528,534.159424 248.510757,547.001770 
	C245.634277,564.494690 242.870804,582.006165 239.979874,599.496643 
	C238.954529,605.700134 239.912277,608.046021 244.499985,609.500061 
	C250.032089,611.253540 254.066177,609.717773 256.457184,604.480469 
	C259.339661,598.166687 259.658234,591.207153 261.052002,584.510803 
	C265.928711,561.080750 270.424561,537.582031 274.590332,514.015991 
	C274.922180,512.138794 274.761383,510.326782 275.000000,508.500000 
"/>
<path fill="none" opacity="1.000000" stroke="#000000" stroke-linecap="round" stroke-linejoin="round" stroke-width="8.000000"
	d="
M241.500000,431.000000 
	C238.550491,428.888885 236.846252,426.142365 235.930252,422.517639 
	C229.730453,397.983887 223.307724,373.506561 217.024445,348.993744 
	C215.940216,344.763794 214.275925,340.889984 211.505753,337.495300 
	C208.221497,333.470642 204.250519,332.241150 199.999985,333.999969 
	C196.023407,335.645416 194.793655,338.455231 195.492722,344.000916 
	C197.190170,357.466675 201.396805,370.357330 204.511307,383.497314 
	C211.308044,412.172638 218.327393,440.796936 224.836197,469.537109 
	C225.878082,474.137634 225.366302,479.348724 226.249481,483.952148 
	C228.762100,497.048676 237.313187,502.949310 248.956879,506.156555 
	C253.412308,507.383789 257.596802,507.107788 262.000580,507.072327 
	C282.332611,506.908447 302.687958,506.456207 322.990143,507.251678 
	C331.850494,507.598846 340.725525,505.516022 349.471191,507.619751 
	C350.779877,507.934540 351.209625,507.338745 351.997192,506.993591 
	C355.004089,505.676025 358.000000,504.333313 361.000000,503.000000 
"/>
<path fill="none" opacity="1.000000" stroke="#000000" stroke-linecap="round" stroke-linejoin="round" stroke-width="8.000000"
	d="
M246.000000,442.000000 
	C249.921295,440.722107 253.832550,440.574860 258.008453,440.886536 
	C276.743683,442.284912 295.633545,442.601746 313.940033,438.247894 
	C328.646698,434.750183 342.156403,439.089935 355.966034,441.681000 
	C364.166016,443.219543 372.061462,446.568848 379.469818,450.556061 
	C391.429688,456.992859 399.167633,466.171875 401.206909,480.470490 
	C404.241943,501.751007 408.669128,522.832886 412.498779,544.000244 
	C414.006226,552.332153 415.592255,560.651367 416.977112,569.003784 
	C418.798431,579.988342 418.728271,580.000000 429.750000,580.000000 
"/>
<path fill="none" opacity="1.000000" stroke="#000000" stroke-linecap="round" stroke-linejoin="round" stroke-width="9.000000"
	d="
M598.500000,435.000000 
	C598.666687,437.000000 598.977966,438.999939 598.978882,441.000000 
	C599.005066,497.666656 599.000000,554.333313 599.000000,611.000000 
"/>
<path fill="none" opacity="1.000000" stroke="#000000" stroke-linecap="round" stroke-linejoin="round" stroke-width="9.000000"
	d="
M598.000000,434.000000 
	C595.564453,433.183350 593.078552,432.965240 590.500000,432.967499 
	C540.500000,433.011292 490.496887,432.702484 440.502319,433.223511 
	C428.986542,433.343506 417.511505,432.496796 405.996765,432.909698 
	C394.511536,433.321503 383.000000,433.010132 371.500000,432.995819 
	C365.584900,432.988464 365.025238,432.415100 365.002319,426.500000 
	C364.989410,423.166687 365.112183,419.828583 364.971008,416.501221 
	C364.802856,412.538025 366.538818,410.891846 370.500671,410.960938 
	C378.165009,411.094696 385.843658,411.258179 393.498077,410.952148 
	C417.663513,409.985992 441.839600,410.329559 465.998474,410.624023 
	C491.167328,410.930817 516.332886,410.923645 541.500061,410.987610 
	C564.499878,411.046051 587.500000,410.993561 610.500000,411.004333 
	C616.515564,411.007172 617.435608,411.938416 617.494568,418.000061 
	C617.525391,421.166412 617.387207,424.338379 617.528503,427.498718 
	C617.705872,431.466431 616.282043,433.242218 611.996704,433.099060 
	C607.488342,432.948456 602.786682,432.080200 598.500000,434.500000 
"/>
<path fill="none" opacity="1.000000" stroke="#000000" stroke-linecap="round" stroke-linejoin="round" stroke-width="8.000000"
	d="
M313.500000,290.500000 
	C308.525116,292.522491 302.974701,291.344482 298.024170,293.069397 
	C289.120422,296.171753 282.226593,302.141418 276.507385,309.505737 
	C265.971313,323.072388 259.783234,338.767822 255.081039,355.023438 
	C248.715820,377.028290 244.339371,399.410736 245.022507,422.499329 
	C245.087234,424.687683 244.677521,426.828613 243.428986,428.445160 
	C241.525986,430.909027 241.266739,433.727448 242.611008,435.932312 
	C246.514374,442.334686 245.348114,449.774597 247.449921,456.515625 
	C249.036255,461.603394 250.031494,466.872833 251.527405,471.992004 
	C254.914734,483.583618 261.441559,486.275208 272.501038,486.422668 
	C292.830750,486.693695 313.167847,486.376678 333.499329,486.571411 
	C340.018890,486.633850 346.592987,486.787628 353.007172,488.472717 
	C358.453033,489.903503 360.358765,491.497528 360.921143,497.008057 
	C361.389130,501.593872 363.417480,505.659302 364.431061,510.016052 
	C370.239471,534.983093 375.667542,560.039673 381.632202,584.968384 
	C382.909332,590.306030 384.765198,595.451782 385.792908,600.945190 
	C386.810791,606.385925 391.832764,609.059631 397.491302,610.049683 
	C406.104095,611.556458 414.557098,610.063904 422.974121,608.824341 
	C425.223419,608.493103 427.469360,608.126465 429.750000,608.000000 
"/>
<path fill="none" opacity="1.000000" stroke="#000000" stroke-linecap="round" stroke-linejoin="round" stroke-width="8.000000"
	d="
M337.500000,306.000000 
	C336.091248,307.530273 337.548676,308.925903 338.084961,309.955750 
	C345.880280,324.925110 351.439484,340.810547 357.583038,356.467407 
	C360.499023,363.898926 360.942413,365.506165 370.499146,365.593506 
	C389.332611,365.765656 408.152100,366.671204 427.000366,366.603577 
	C437.636475,366.565399 442.397888,377.913422 438.519318,386.508728 
	C437.719238,388.281830 437.166626,390.166656 436.499969,392.000000 
"/>
<path fill="none" opacity="1.000000" stroke="#000000" stroke-linecap="round" stroke-linejoin="round" stroke-width="8.000000"
	d="
M380.000000,204.000000 
	C381.302887,207.030441 383.958191,208.680817 386.487946,210.516602 
	C401.454071,221.377151 410.605286,236.018433 410.749969,254.501953 
	C410.909973,274.946167 401.080292,293.348816 377.471283,302.929260 
	C366.836578,307.244781 355.842163,306.306244 344.463135,305.569794 
	C335.581390,304.994965 330.185608,300.065735 323.547180,296.414215 
	C321.864471,295.488586 320.314301,294.309143 318.534943,293.429321 
	C315.580200,291.968262 313.346619,289.880554 311.847687,286.568939 
	C309.982513,282.448242 306.514099,279.062988 304.576752,274.963715 
	C288.783295,241.546814 307.558044,208.245453 340.505920,201.027054 
	C349.712799,199.009949 358.889343,199.109802 368.011292,201.963928 
	C377.915619,205.062836 383.230560,202.678452 389.000000,193.000000 
"/>
<path fill="none" opacity="1.000000" stroke="#000000" stroke-linecap="round" stroke-linejoin="round" stroke-width="9.000000"
	d="
M431.000000,435.000000 
	C431.000000,480.833344 431.000000,526.666687 431.000000,572.500000 
	C431.000000,582.000000 431.139069,591.502930 430.937683,600.998657 
	C430.845642,605.339783 430.011200,609.666687 431.000000,614.000000 
"/>
<path fill="none" opacity="1.000000" stroke="#000000" stroke-linecap="round" stroke-linejoin="round" stroke-width="8.000000"
	d="
M549.500000,409.500000 
	C551.746399,399.778473 556.143921,390.819122 559.597473,381.536255 
	C564.548767,368.227448 570.468201,355.277435 575.363892,341.949982 
	C577.577515,335.923798 576.256897,332.970428 569.000000,332.986206 
	C550.166748,333.027191 531.332703,333.082428 512.500427,332.941925 
	C507.800232,332.906860 504.957458,334.585876 502.919189,338.962372 
	C495.773499,354.305176 488.177002,369.432739 481.363647,384.940094 
	C479.809784,388.476715 476.539917,391.904449 475.481262,395.156647 
	C474.013428,399.666016 471.869507,404.432770 472.000000,409.500000 
"/>
<path fill="none" opacity="1.000000" stroke="#000000" stroke-linecap="round" stroke-linejoin="round" stroke-width="8.000000"
	d="
M531.500000,303.500000 
	C531.339783,298.499786 531.986267,293.472687 530.689941,288.101685 
	C514.040649,287.367218 499.931732,280.497498 489.564911,266.950348 
	C481.507263,256.420837 477.939514,243.864502 479.736481,231.033112 
	C484.020447,200.442932 508.432892,183.728149 533.990479,185.169006 
	C564.530945,186.890793 583.807617,210.619202 583.331726,236.496902 
	C582.768860,267.100800 559.034607,287.773132 531.475220,288.000214 
	C529.741882,284.405670 532.709351,280.596558 531.000000,277.000000 
"/>
<path fill="none" opacity="1.000000" stroke="#000000" stroke-linecap="round" stroke-linejoin="round" stroke-width="8.000000"
	d="
M474.500000,395.000000 
	C472.592651,394.110687 470.583313,393.962189 468.499847,393.977844 
	C461.000244,394.034210 453.389771,394.808075 446.026794,393.803619 
	C435.919708,392.424774 426.007629,395.840393 415.990448,394.053558 
	C414.727020,393.828217 413.182007,394.009155 412.023376,394.550049 
	C400.103638,400.114441 387.086700,399.755249 374.478485,401.327606 
	C368.939545,402.018341 363.119904,401.179688 357.510498,400.422333 
	C348.070709,399.147797 338.885010,396.786835 330.500000,392.000000 
"/>
<path fill="none" opacity="1.000000" stroke="#000000" stroke-linecap="round" stroke-linejoin="round" stroke-width="8.000000"
	d="
M303.000000,346.500000 
	C311.679810,360.658630 318.323120,376.055328 328.949707,389.041168 
	C330.201965,390.571442 329.772156,392.387878 329.162201,394.545837 
	C325.561829,407.284485 324.251221,420.485565 322.111206,433.518250 
	C322.052399,433.876465 322.399323,434.816833 322.500000,435.500000 
"/>
<path fill="none" opacity="1.000000" stroke="#000000" stroke-linecap="round" stroke-linejoin="round" stroke-width="8.000000"
	d="
M419.500000,579.500000 
	C415.323578,584.953186 408.637848,584.535217 402.980072,586.440857 
	C397.236877,588.375183 391.333344,589.833313 385.500000,591.500000 
"/>
<path fill="none" opacity="1.000000" stroke="#000000" stroke-linecap="round" stroke-linejoin="round" stroke-width="8.000000"
	d="
M232.750000,214.500000 
	C243.166672,218.000000 253.583328,221.500000 264.000000,225.000000 
"/>
<path fill="none" opacity="1.000000" stroke="#000000" stroke-linecap="round" stroke-linejoin="round" stroke-width="8.000000"
	d="
M531.500000,167.500000 
	C531.500000,173.333328 531.500000,179.166672 531.500000,185.000000 
"/>
<path fill="none" opacity="1.000000" stroke="#000000" stroke-linecap="round" stroke-linejoin="round" stroke-width="8.000000"
	d="
M264.500000,182.500000 
	C269.000000,187.666672 273.659332,192.707657 277.897400,198.080933 
	C279.080872,199.581421 280.156586,199.412430 281.500000,199.500000 
"/>
<path fill="none" opacity="1.000000" stroke="#000000" stroke-linecap="round" stroke-linejoin="round" stroke-width="8.000000"
	d="
M584.000000,237.000000 
	C589.145386,237.826218 594.331299,237.396454 599.500000,237.500000 
"/>
<path fill="none" opacity="1.000000" stroke="#000000" stroke-linecap="round" stroke-linejoin="round" stroke-width="9.000000"
	d="
M539.000000,236.500000 
	C533.166687,236.500000 527.333313,236.500000 521.500000,236.500000 
"/>
<path fill="none" opacity="1.000000" stroke="#000000" stroke-linecap="round" stroke-linejoin="round" stroke-width="8.000000"
	d="
M530.500000,206.500000 
	C524.697327,207.667618 518.974976,208.718430 513.947388,212.428711 
	C504.710052,219.245712 500.647980,228.523132 501.667572,239.484421 
	C502.786133,251.509796 509.639160,260.113434 521.018616,264.451172 
	C540.979187,272.060028 564.167847,256.422302 561.359070,233.016907 
	C559.738953,219.516830 550.571106,209.470078 537.000671,207.495422 
	C534.994446,207.203476 533.122009,206.101456 531.000000,206.500000 
"/>
</svg>