<svg version="1.1" id="Layer_1" xmlns="http://www.w3.org/2000/svg" xmlns:xlink="http://www.w3.org/1999/xlink" x="0px" y="0px"
	 width="100%" viewBox="0 0 1024 672" enable-background="new 0 0 1024 672" xml:space="preserve">
<path fill="#000000" opacity="1.000000" stroke="none" 
	d="
M729.588257,587.740234 
	C732.944824,574.182800 736.243286,561.036255 737.911621,547.332581 
	C734.346863,553.066162 730.722839,558.763855 727.229614,564.540710 
	C719.775085,576.867981 710.652710,587.598511 699.560425,596.970642 
	C687.911926,606.812805 674.730347,613.236633 660.238281,616.657349 
	C644.677368,620.330444 628.739502,620.795776 612.722717,619.440125 
	C589.332581,617.460388 567.061218,611.309692 545.081116,603.337524 
	C536.059326,600.065308 526.783325,597.339417 517.672974,594.212891 
	C514.660583,593.179016 511.688995,592.137939 510.589478,588.569458 
	C509.860229,586.202576 507.515808,585.709351 505.528503,584.902649 
	C495.090942,580.666016 483.703308,578.533386 474.840942,570.335327 
	C471.948486,585.317017 468.648834,599.479858 462.578735,612.871948 
	C460.807922,616.778748 460.053711,621.179993 457.529755,624.728760 
	C455.474731,627.618103 453.210876,632.014832 449.060425,629.836060 
	C445.079193,627.746155 446.696075,623.212158 448.216400,619.947876 
	C451.313812,613.297424 453.835846,606.454712 456.434082,599.607788 
	C460.436737,589.059814 462.009949,578.055786 463.486664,567.032898 
	C464.747528,557.621643 459.409790,553.179382 449.952576,555.520203 
	C443.501343,557.116943 437.303223,559.466248 431.627869,563.060608 
	C430.410431,563.831665 429.408386,564.581848 429.387024,566.078674 
	C429.224335,577.465698 425.535034,588.203918 422.928802,599.090698 
	C421.333160,605.756165 417.416656,611.720276 413.229431,617.255493 
	C412.019653,618.854797 410.193390,620.153931 407.999725,619.228210 
	C405.811859,618.304993 405.686249,616.156494 405.711365,614.106140 
	C405.751038,610.863647 406.795044,607.919250 408.396820,605.127502 
	C409.301910,603.549988 410.219849,601.954468 410.885681,600.269714 
	C413.129547,594.592163 412.457642,592.773193 407.010864,590.199341 
	C396.301941,585.139038 384.509583,583.045959 373.732330,578.143738 
	C371.573792,577.161926 370.767609,578.965637 370.028809,580.457214 
	C364.911194,590.789185 356.153107,597.820435 347.463623,604.766846 
	C343.603424,607.852722 340.956146,612.540588 335.872223,614.023071 
	C333.381805,614.749207 330.489075,617.372681 328.469177,613.530640 
	C326.739044,610.239807 328.568390,607.940613 331.223846,605.930603 
	C339.317993,599.803833 347.015472,593.212402 354.067352,585.888611 
	C360.471527,579.237610 364.017944,571.346375 363.377625,562.089355 
	C362.982635,556.379639 359.311951,551.754578 355.645599,547.815796 
	C344.529419,535.873535 329.959747,530.340332 314.322968,527.368896 
	C295.228058,523.740356 282.585358,533.709412 272.277527,548.027283 
	C265.440460,557.524292 260.148926,567.877136 256.093719,578.866455 
	C254.943497,581.983459 253.767731,585.127197 251.664658,587.782043 
	C250.439331,589.328918 249.009811,590.181213 246.889511,589.442688 
	C244.632172,588.656555 244.389023,586.982910 244.639450,585.038391 
	C245.677933,576.975403 249.572327,569.923096 252.722092,562.624451 
	C255.337112,556.564880 259.052429,551.084717 263.245331,545.098755 
	C252.958511,540.257385 241.966064,540.378906 231.468307,535.440735 
	C231.468307,541.685669 230.559525,547.288025 231.756912,552.396790 
	C232.708557,556.457031 232.682693,560.605652 233.832062,564.591797 
	C235.000610,568.644409 232.087921,570.721985 229.051132,571.547546 
	C225.809692,572.428711 225.578140,568.942078 225.039642,566.946838 
	C222.067535,555.934692 220.822205,544.746765 222.213791,533.337524 
	C222.467743,531.255493 223.085785,529.101929 222.029999,526.464539 
	C215.893738,527.765259 209.834259,531.412170 202.956009,527.259521 
	C200.982590,536.967896 200.680038,545.828552 201.850769,554.703430 
	C202.543198,559.952393 203.722946,565.146790 204.885773,570.320312 
	C205.562286,573.330200 204.272766,575.442627 201.858978,576.437317 
	C199.055466,577.592468 196.993423,575.746521 195.992264,573.237183 
	C193.502533,566.996826 192.524033,560.292358 192.075516,553.736450 
	C191.476837,544.985962 190.850067,536.058167 193.115585,527.385864 
	C193.892670,524.411255 193.272552,522.338562 191.082886,520.278870 
	C184.611450,514.191467 179.961044,506.981689 179.049362,497.950562 
	C178.369675,491.217529 178.722672,484.590576 184.371216,479.601074 
	C186.018066,478.146393 186.342865,476.039093 186.441376,474.131073 
	C186.809158,467.007660 189.333527,460.653290 192.300568,454.273499 
	C193.775223,451.102661 196.331299,449.895966 198.870773,448.584290 
	C204.669266,445.589264 207.059830,439.314270 212.251648,435.574921 
	C219.250931,430.533722 226.388809,429.182281 234.306854,431.749084 
	C237.201935,432.687592 238.626175,431.973358 240.630966,429.853729 
	C253.192856,416.572144 268.049408,407.202271 285.596588,401.280518 
	C300.241486,396.338226 314.934082,393.956512 330.142426,394.779694 
	C350.519836,395.882629 370.456848,399.297241 388.713043,409.176666 
	C391.623291,410.751587 394.275116,412.827087 396.960052,414.789398 
	C400.129944,417.106201 402.586761,417.055786 405.574738,413.971344 
	C425.310455,393.598633 446.359009,374.711060 469.979004,358.879608 
	C478.965424,352.856354 487.913086,346.751343 497.399261,341.503235 
	C498.820984,340.716705 500.504272,340.221344 501.503937,338.390106 
	C496.548981,335.705750 491.415985,333.339935 486.722809,330.295990 
	C476.948608,323.956573 468.449768,316.142883 460.450623,307.618561 
	C443.819672,289.895630 439.837006,267.677399 438.198456,244.958801 
	C437.154755,230.488022 440.839630,216.220840 444.663452,202.226593 
	C446.591339,195.170944 448.674103,188.156082 450.783081,181.151764 
	C456.128082,163.399857 464.141113,147.146912 477.018707,133.489883 
	C488.977936,120.806831 503.967133,113.860603 520.415771,109.188820 
	C533.811218,105.384209 547.418884,103.365364 561.269043,103.828209 
	C569.187988,104.092842 577.243286,104.437286 584.895325,107.020996 
	C587.642761,107.948654 591.586609,108.694412 590.580322,112.597214 
	C589.578918,116.480728 585.820251,116.595024 582.271729,116.051468 
	C572.576538,114.566399 562.892822,112.946045 553.027222,113.131470 
	C527.959229,113.602638 505.022156,120.650291 485.701874,136.857391 
	C474.537018,146.223145 468.031677,159.068710 463.184021,172.787109 
	C458.074097,187.247604 454.640808,202.130737 451.314545,217.037827 
	C446.105042,240.384995 448.192902,263.373749 457.377686,285.298248 
	C462.017487,296.373718 470.374115,305.393433 479.824402,312.885651 
	C488.276764,319.586700 496.919739,326.084778 507.573456,329.355957 
	C512.337524,330.818756 517.116882,330.690613 521.871826,331.182251 
	C537.285950,332.776093 552.736267,334.138947 567.704895,328.206482 
	C570.062256,327.272186 573.047607,326.660492 574.381836,329.450409 
	C575.803955,332.423981 573.046692,334.053162 570.888611,335.156342 
	C560.852417,340.286591 550.369812,343.670013 538.863098,342.549042 
	C537.377869,342.404358 535.872070,342.415466 534.378113,342.451294 
	C533.931763,342.461945 533.493347,342.801880 532.697083,343.142426 
	C534.985962,350.251740 536.291626,357.846375 539.760437,364.273499 
	C545.334839,374.601959 555.768860,377.916504 566.796326,378.566681 
	C581.912659,379.457977 595.678162,374.908142 608.403564,366.878540 
	C620.900146,358.993378 631.574524,348.984467 641.617432,338.288971 
	C646.711060,332.864319 646.319824,332.368500 641.337097,327.217834 
	C635.495361,321.179199 633.342102,313.398224 633.189941,305.338684 
	C632.999268,295.235718 636.269043,285.695343 639.672974,276.283539 
	C640.010742,275.349762 640.560791,274.478882 640.799988,273.525543 
	C642.787170,265.604950 642.772095,265.599609 650.616333,265.698090 
	C661.002258,265.828400 667.898804,259.544830 672.979065,251.839310 
	C679.010742,242.690704 682.368103,232.379242 679.828552,221.015900 
	C679.010864,217.356888 677.333862,214.042725 675.312744,211.064850 
	C672.377136,206.739777 666.388550,205.813187 661.598389,208.313766 
	C660.269592,209.007462 658.968689,209.758896 657.616028,210.402008 
	C654.463379,211.901062 651.148560,213.264709 649.148132,208.965302 
	C647.821655,206.114517 650.925964,200.605270 654.285522,199.950989 
	C658.730530,199.085297 662.178284,195.823151 666.921997,195.617142 
	C666.837769,194.376831 667.006104,193.475708 666.695557,192.792206 
	C662.458435,183.468536 659.906311,173.423553 653.566101,164.990738 
	C648.605164,158.392410 645.142639,150.823090 638.979858,144.909088 
	C632.165833,138.370132 623.929260,134.537888 615.570068,131.136261 
	C608.797241,128.380203 602.692200,124.215057 595.574402,122.216644 
	C593.382385,121.601189 591.297852,119.734886 592.624695,116.840050 
	C593.862427,114.139801 596.174377,112.718925 599.148254,113.540024 
	C602.990784,114.600929 606.828918,115.796028 610.500427,117.335289 
	C620.731812,121.624786 630.702148,126.456268 640.404663,131.870895 
	C645.093506,134.487534 648.292358,138.583359 651.499390,142.474594 
	C660.872253,153.846954 668.951233,166.034805 673.968506,180.141403 
	C675.041077,183.157211 675.747498,186.959396 678.989380,189.413559 
	C684.911682,185.013458 691.717407,185.482452 698.513123,186.257172 
	C703.969604,186.879242 709.364197,185.812973 714.894775,186.386688 
	C728.057739,187.752151 740.906677,189.958618 752.713745,196.184677 
	C756.989075,198.439148 760.696777,201.654373 763.435791,205.733795 
	C771.615051,217.915604 775.580750,231.364792 776.470520,246.032318 
	C777.218506,258.365021 775.394348,270.186646 771.903320,281.870880 
	C767.929871,295.169647 759.285034,304.632782 747.401978,311.414307 
	C744.423157,313.114288 740.892151,313.943542 738.578613,316.658081 
	C738.950317,319.776184 741.553467,319.776184 743.459961,320.329071 
	C772.148987,328.649078 792.517883,346.567902 804.059753,373.981812 
	C807.947266,383.215454 810.082764,393.093109 810.850830,403.378479 
	C811.515991,412.286438 813.142517,421.182007 812.876648,430.142761 
	C812.472717,443.759521 812.271118,457.446899 810.656189,470.945465 
	C808.945129,485.248169 805.600159,499.350891 803.117920,513.566956 
	C799.867065,532.184509 795.582947,550.552185 789.960999,568.591858 
	C788.834045,572.207947 787.174194,575.701843 785.383667,579.050842 
	C784.304321,581.069702 782.548828,583.175354 779.778259,582.045959 
	C777.396667,581.075134 777.094055,578.584717 777.536804,576.462341 
	C778.383057,572.405396 779.749573,568.460327 780.737793,564.429077 
	C785.286926,545.871582 790.213013,527.392090 794.173523,508.708527 
	C798.272034,489.374359 800.712402,469.781555 801.946777,449.992279 
	C802.674438,438.326385 803.260681,426.666321 802.380859,415.090820 
	C800.635132,392.123413 794.760254,370.369110 778.509399,352.988770 
	C767.960388,341.706482 754.678040,334.457520 739.974060,329.859985 
	C734.593994,328.177795 729.764404,326.246796 727.818665,320.018494 
	C726.728333,316.528290 722.657410,317.214294 719.934814,317.088226 
	C709.933167,316.625000 700.158569,314.671082 690.317688,313.174377 
	C681.284363,311.800507 672.037415,312.878448 663.084106,310.493011 
	C659.261475,309.474579 655.048096,309.672882 651.537659,307.726990 
	C649.020020,306.331329 646.002502,304.417175 647.703857,300.681396 
	C649.286926,297.205261 652.516479,297.208191 655.443359,298.432343 
	C662.412109,301.346985 669.901489,301.071014 677.075073,301.465851 
	C689.396790,302.144043 701.454651,304.444397 713.606384,306.027618 
	C740.721069,309.560455 761.064819,294.364471 764.682495,267.043915 
	C766.699219,251.814178 765.935425,236.967697 760.387329,222.362457 
	C754.285645,206.299835 741.368103,201.073380 726.004456,198.197723 
	C712.579956,195.685028 699.147949,196.571640 685.703369,196.258286 
	C683.799866,196.213928 681.985535,196.370636 680.903381,198.226288 
	C679.638367,200.395538 681.798767,201.120575 682.750183,202.282700 
	C694.410461,216.525726 693.349304,231.753937 686.777771,247.716461 
	C680.321899,263.397858 669.456116,273.839172 652.941650,278.206635 
	C651.519470,278.582764 649.850159,278.934692 649.320068,280.564972 
	C646.146301,290.325806 642.263672,299.920868 644.490967,310.630768 
	C646.109985,318.415955 650.796509,322.765381 658.209229,324.784882 
	C672.965149,328.805023 687.880615,332.184631 701.972168,338.496216 
	C724.422913,348.551880 740.466614,364.994965 751.132874,386.784515 
	C759.348267,403.567535 762.199707,421.653015 764.236877,440.172302 
	C766.197998,458.000092 763.445740,475.107910 760.350647,492.294952 
	C755.589966,518.730957 750.722717,545.173584 744.174377,571.231445 
	C740.933716,584.126831 739.298584,597.366516 735.279297,610.075256 
	C733.488281,615.738403 730.560486,619.191711 727.862793,617.786560 
	C723.027527,615.267944 725.007507,611.057678 725.787903,607.205383 
	C727.073120,600.861633 728.285706,594.503174 729.588257,587.740234 
M754.508850,449.074127 
	C755.593994,433.242645 753.127808,417.848969 747.824524,403.021057 
	C744.082214,392.557617 739.467651,382.347626 732.478516,373.532410 
	C715.641052,352.295715 692.384521,342.996979 666.828735,336.804840 
	C657.042603,334.433716 652.577515,336.283386 647.193054,344.343384 
	C639.110474,356.442230 627.387329,365.347961 615.088013,373.110657 
	C596.428223,384.887787 576.418640,391.079071 554.326355,385.111877 
	C541.601624,381.674866 531.921692,374.450714 528.481384,360.739990 
	C527.028809,354.951019 525.156555,349.284698 522.049255,344.047913 
	C520.097168,340.758118 517.172180,340.620728 514.815369,341.996826 
	C502.917603,348.943878 490.563416,355.088196 479.090729,362.795441 
	C454.952240,379.011536 433.266388,398.078888 412.761383,418.605530 
	C409.262665,422.107971 409.596344,424.333221 413.015533,427.529633 
	C419.197815,433.309174 425.401794,439.112823 429.721619,446.597534 
	C432.064301,450.656525 435.589050,452.317810 440.601624,451.905029 
	C449.051453,451.209167 457.724548,451.190918 465.686371,454.374268 
	C482.891174,461.253143 496.346344,473.382721 508.956482,486.590820 
	C514.469604,492.365387 519.938660,498.884186 527.734314,501.034302 
	C533.881226,502.729614 540.283203,503.891205 546.570984,505.355133 
	C562.737610,509.119141 579.023315,512.375854 595.278442,515.753784 
	C610.411987,518.898682 625.639526,521.495483 640.974182,523.479370 
	C644.019043,523.873352 648.026672,524.140930 647.611694,528.553162 
	C647.209534,532.828735 643.609375,532.545776 640.272644,532.372192 
	C632.603943,531.973267 625.144043,530.425476 617.608643,529.068542 
	C597.650269,525.474487 577.922363,520.853821 558.101135,516.642761 
	C552.197327,515.388550 546.494324,512.761902 540.093079,513.056274 
	C540.093079,514.008301 539.965088,514.676880 540.111938,515.278442 
	C543.281860,528.268127 543.001892,541.187073 540.392944,554.301392 
	C538.088257,565.886353 535.537476,577.018066 524.825073,584.077454 
	C524.494934,584.294983 524.442139,584.933472 524.132324,585.686157 
	C530.046204,588.926819 536.279358,591.043884 542.690674,592.829163 
	C561.020752,597.933533 578.824646,604.872681 597.816345,607.661560 
	C618.158691,610.648804 638.462341,612.291138 658.572937,606.833557 
	C675.189575,602.324158 690.270386,594.806274 701.977234,581.655151 
	C717.848145,563.826294 729.898193,543.656433 739.011230,521.642090 
	C744.942688,507.313568 749.833923,492.643311 752.241455,477.337280 
	C753.657288,468.336426 753.677246,459.115997 754.508850,449.074127 
M470.852051,467.664429 
	C458.481476,460.545166 445.377045,459.235687 431.856689,463.357178 
	C415.746643,468.268066 401.326477,475.670074 393.337982,491.743622 
	C392.049011,494.337097 391.139404,496.921906 391.244781,499.848389 
	C391.338135,502.440247 391.672302,505.135162 394.129944,506.360504 
	C396.836670,507.710052 398.742676,505.632599 400.589233,503.858246 
	C412.333923,492.572937 425.851532,484.463623 441.860718,480.750702 
	C444.580322,480.119934 446.985107,479.892059 448.016449,483.003601 
	C448.973663,485.891418 447.392883,487.813049 444.835419,488.945404 
	C443.473999,489.548157 442.016541,489.947540 440.582092,490.369476 
	C431.741974,492.969574 423.418549,496.708679 415.798370,501.894135 
	C408.862457,506.613922 403.648926,512.849915 401.027130,520.862244 
	C400.046631,523.858765 398.671753,527.915100 401.850006,530.081543 
	C404.763794,532.067810 407.883209,529.667419 410.421173,527.728210 
	C422.297089,518.653748 435.523254,512.829346 450.409454,510.951508 
	C453.593903,510.549805 457.038422,510.990387 457.873352,514.296997 
	C458.752930,517.780579 455.660400,519.556885 452.636292,520.404663 
	C447.844482,521.747986 443.040375,523.188965 438.143402,523.985840 
	C428.158386,525.610779 421.086853,531.907715 414.279755,538.497864 
	C409.469025,543.155273 410.894318,551.584229 418.246460,553.947327 
	C422.901581,555.443481 426.942108,554.417969 430.665283,552.240417 
	C437.387482,548.308777 445.239899,547.753662 452.136475,544.457825 
	C453.688171,543.716248 455.360138,543.932312 457.043701,544.174072 
	C463.009491,545.031067 467.122711,548.554077 471.156403,552.796631 
	C477.894470,559.883667 484.807220,567.021973 494.788361,569.598694 
	C501.573669,571.350342 508.276672,573.283386 514.480774,576.615845 
	C516.203613,577.541321 517.817810,578.218506 519.513611,576.692566 
	C522.727295,573.800842 525.872498,570.978699 527.493164,566.675293 
	C529.868530,560.367798 530.537781,553.736816 531.769043,547.224121 
	C533.913330,535.881897 533.237671,524.710449 528.605469,513.964294 
	C528.143921,512.893372 527.786804,511.523071 526.474731,511.410858 
	C517.648438,510.656097 512.636841,503.980682 506.946198,498.612061 
	C495.575653,487.884949 484.912628,476.371613 470.852051,467.664429 
M359.351776,445.010651 
	C372.723816,451.829681 384.717072,460.522491 394.953857,471.779053 
	C402.542633,465.969940 410.059601,460.819214 418.768890,457.678497 
	C422.344818,456.388977 421.945099,453.843689 420.227753,451.262848 
	C407.999969,432.886658 391.119537,419.912201 370.662872,412.645325 
	C348.379333,404.729523 325.205200,402.035645 301.567535,407.098785 
	C279.263336,411.876312 260.037720,421.834778 245.191559,439.432159 
	C243.599930,441.318695 241.766571,443.703979 243.240189,446.648315 
	C246.022461,452.207397 247.672516,457.987946 247.494293,464.300171 
	C247.426834,466.689911 248.171631,469.102600 248.814758,473.227386 
	C278.875092,435.610443 316.166809,429.444153 359.351776,445.010651 
M374.235382,565.957764 
	C374.212799,568.031189 375.512665,568.746887 377.300781,569.250610 
	C390.224670,572.891296 403.204712,576.385132 415.329407,582.920593 
	C416.035797,580.879272 416.911957,579.200439 417.167755,577.431885 
	C417.711731,573.670776 418.762085,569.687195 418.008301,566.133423 
	C417.466309,563.578247 413.260925,563.661377 410.840088,562.231445 
	C404.060822,558.226929 399.326935,553.085876 400.581238,544.557312 
	C401.002411,541.693787 399.013489,541.220581 397.272369,540.395691 
	C391.951996,537.874817 389.820465,533.478088 389.947510,527.847107 
	C389.995972,525.699646 390.405151,523.553650 390.739838,521.421021 
	C391.142151,518.857483 390.425720,517.181458 388.030762,515.668030 
	C382.042847,511.884003 379.762756,506.334747 380.428741,499.143005 
	C380.954620,493.464417 383.267212,488.541718 385.663361,483.660400 
	C386.903503,481.133942 386.752563,479.551819 385.131165,477.438690 
	C382.895355,474.524994 380.622711,471.752655 376.511810,469.411499 
	C361.901794,499.576721 336.783997,508.768494 304.968414,503.479004 
	C305.275909,507.862823 306.699615,510.960724 306.352600,514.348267 
	C306.119904,516.619995 308.077942,516.778687 309.849579,516.838928 
	C313.498016,516.963013 317.133545,516.798157 320.749939,517.832825 
	C332.958466,521.325745 344.694733,525.776611 355.108215,533.269043 
	C366.064423,541.152100 374.384491,550.558716 374.235382,565.957764 
M341.042206,492.698425 
	C355.497833,487.650055 361.829987,474.644714 370.655060,463.884216 
	C341.177032,442.201843 296.853760,441.425110 274.760712,461.798767 
	C275.363403,462.358795 275.895142,462.987488 276.548828,463.439941 
	C285.771484,469.824005 292.857147,478.381165 298.023102,488.001190 
	C301.070221,493.675598 305.257874,494.159088 310.090576,494.667053 
	C320.219482,495.731689 330.297150,495.275879 341.042206,492.698425 
M234.081558,517.599792 
	C233.286850,520.310547 232.750107,523.053955 232.897079,525.536682 
	C243.661407,530.738342 255.773376,530.185364 266.390717,535.061584 
	C268.804016,536.169922 270.459900,535.113831 272.105804,533.431641 
	C278.108093,527.297363 285.020721,522.474976 293.118103,519.525269 
	C295.924225,518.503052 296.806610,516.722168 296.783508,513.843079 
	C296.736115,507.928223 293.615509,503.030457 291.542755,497.873138 
	C287.243073,487.174805 280.116272,478.450348 270.674866,471.754730 
	C267.873688,469.768219 265.037231,468.419739 261.825012,471.676788 
	C255.494873,478.095367 250.599243,485.580933 245.464096,492.886963 
	C243.894348,495.120300 242.537857,497.626343 242.172012,500.627075 
	C252.682632,506.007233 263.516754,508.285583 275.038483,506.979523 
	C278.549316,506.581543 281.917358,507.708221 282.661438,510.910492 
	C283.511047,514.567017 280.551605,516.578186 276.927734,516.864929 
	C270.305542,517.388916 263.708588,517.217896 257.128387,516.118103 
	C250.234497,514.965942 243.850510,512.194092 237.637039,509.803711 
	C235.066177,511.856689 235.132538,514.547180 234.081558,517.599792 
M230.026123,442.248169 
	C220.715652,441.176514 213.977829,445.442993 213.375076,452.787506 
	C212.239471,466.624756 218.735489,473.822052 231.359726,477.234558 
	C235.141617,478.256866 236.601105,476.952057 236.847000,473.275330 
	C237.404129,464.944885 235.725311,456.767181 235.230759,448.510193 
	C235.069656,445.820404 233.607880,443.452698 230.026123,442.248169 
M197.020844,477.058258 
	C197.702988,491.145630 206.886414,499.344757 219.365173,500.679199 
	C225.014709,501.283356 227.615509,498.950806 229.128723,493.131592 
	C230.553070,487.654175 226.581558,487.121674 223.171082,486.003082 
	C212.990631,482.664062 206.947281,475.612793 204.282440,465.376282 
	C203.904694,463.925232 204.433197,461.931732 201.996536,460.966461 
	C197.645584,465.147797 197.096680,470.650970 197.020844,477.058258 
M212.946686,509.801666 
	C202.295715,507.780426 194.377304,502.025757 190.074265,491.473358 
	C187.926804,493.929199 188.617569,495.494904 188.893036,497.131561 
	C190.743896,508.127869 198.943726,513.587280 207.773849,518.045593 
	C213.602020,520.988220 221.722382,517.209717 224.440872,510.934784 
	C220.728882,511.079254 217.082886,511.754486 212.946686,509.801666 
z"/>
<path fill="#000000" opacity="1.000000" stroke="none" 
	d="
M304.745789,68.630280 
	C320.446533,65.451988 335.647278,61.822643 351.028137,59.285229 
	C366.101318,56.798573 381.412933,55.781956 396.519012,53.463150 
	C412.805939,50.963085 429.275635,50.384060 445.575623,48.074284 
	C452.622711,47.075676 459.814117,47.010166 466.948181,46.726799 
	C488.385193,45.875317 509.820618,44.805645 531.267334,44.433659 
	C549.401001,44.119137 567.575928,44.109692 585.683228,44.986233 
	C601.414856,45.747776 617.245300,45.973614 632.833923,48.702061 
	C655.569519,52.681435 678.104431,56.966789 699.791809,65.677689 
	C726.805481,76.527885 750.476624,92.117554 770.794250,112.518784 
	C784.946228,126.729004 797.152710,142.671692 808.031250,159.764786 
	C817.296387,174.322723 824.362793,189.825562 831.086731,205.450165 
	C836.904541,218.969193 841.549622,233.062195 845.687622,247.309021 
	C849.021729,258.788330 851.591492,270.403229 854.249084,282.005432 
	C856.458679,291.651520 858.570618,301.336212 860.479736,311.063873 
	C864.393066,331.004333 865.432007,351.216766 867.265930,371.302032 
	C868.478943,384.586945 868.997803,398.125946 868.524963,411.562195 
	C868.392883,415.316467 867.126221,419.063873 866.114014,422.741150 
	C865.545349,424.806885 864.600037,427.101776 861.834290,426.828918 
	C858.987915,426.548126 858.696777,424.165741 858.688965,421.945953 
	C858.646912,409.953430 858.659790,397.960632 858.679810,385.967987 
	C858.705383,370.654724 857.176208,355.452759 855.668030,340.235748 
	C854.010498,323.510681 850.670105,307.086365 847.228333,290.686127 
	C840.932861,260.688416 832.349365,231.446136 820.423157,203.077499 
	C811.459656,181.756516 800.101562,161.977539 786.323120,143.668365 
	C774.327454,127.728363 760.756592,113.139717 744.216064,101.433777 
	C732.515320,93.153008 720.891296,84.850060 708.003052,78.555580 
	C698.579590,73.953270 688.595642,70.690979 678.607910,67.514702 
	C664.173523,62.924335 649.275635,60.197678 634.399475,57.835144 
	C619.228210,55.425739 603.806152,54.871826 588.412903,54.198689 
	C561.963867,53.042091 535.538269,53.365185 509.089783,53.598576 
	C493.989014,53.731827 478.940918,54.904678 463.894287,55.630390 
	C443.511047,56.613487 423.131042,58.415802 402.805054,60.766533 
	C385.821198,62.730740 368.962830,65.522530 352.008331,67.648689 
	C336.890106,69.544586 321.970734,73.125954 307.117310,76.778839 
	C289.493713,81.112991 272.168121,86.304962 255.432617,93.314911 
	C244.265915,97.992271 233.727371,103.934891 223.175079,109.874275 
	C213.261581,115.454109 203.784149,121.484406 195.962616,129.824005 
	C194.236725,131.664200 192.483948,132.610229 190.412842,130.771500 
	C188.396118,128.981049 188.862198,126.624321 190.389725,124.940514 
	C194.405487,120.513832 198.753281,116.458740 203.636276,112.902481 
	C221.111145,100.175613 240.312744,90.778320 260.222168,82.606865 
	C274.550323,76.726128 289.448547,72.750809 304.745789,68.630280 
z"/>
<path fill="#000000" opacity="1.000000" stroke="none" 
	d="
M195.921646,247.040314 
	C205.216553,232.838867 213.274353,218.271790 223.145065,204.877090 
	C233.304871,191.090088 244.438583,178.185120 256.088409,165.586761 
	C271.435638,148.990005 288.725037,134.848328 306.842072,121.643303 
	C315.402710,115.403679 324.645081,109.971306 334.838562,106.512886 
	C337.808472,105.505272 340.830353,105.261040 342.051178,108.580826 
	C343.181091,111.653442 340.440094,112.736946 338.004700,113.740440 
	C313.898254,123.673447 294.296051,140.026810 275.302887,157.376144 
	C258.890869,172.367722 244.429092,189.015564 231.799362,207.218552 
	C223.303146,219.463943 214.881042,231.740860 207.260864,244.635727 
	C197.434067,261.264618 189.030426,278.562958 180.499634,295.801971 
	C173.445053,310.057861 167.486053,324.858765 161.129623,339.456482 
	C155.361404,352.703369 149.979935,366.099915 145.844589,379.970306 
	C145.302200,381.789551 144.579575,384.304688 142.040237,383.756592 
	C139.450470,383.197510 139.449295,380.855011 139.611343,378.493835 
	C140.320862,368.155762 144.339569,358.793945 148.107239,349.382843 
	C156.323639,328.859375 165.221100,308.629791 174.527847,288.574005 
	C181.040314,274.539764 188.593369,261.056549 195.921646,247.040314 
z"/>
<path fill="#000000" opacity="1.000000" stroke="none" 
	d="
M197.824066,388.628052 
	C216.357803,386.080841 233.930740,380.874817 251.924347,377.668884 
	C265.635132,375.226074 279.099518,371.431885 292.765137,368.696381 
	C311.502014,364.945740 329.995819,360.046051 348.985474,357.442413 
	C358.836456,356.091736 368.373962,352.833252 378.278473,351.424561 
	C395.058929,349.037933 411.363098,344.345917 427.906250,340.804718 
	C436.185974,339.032440 444.113525,335.773102 452.575562,334.701904 
	C454.215240,334.494385 455.877899,334.254028 457.518036,334.320984 
	C459.436249,334.399292 460.406189,335.851990 460.956818,337.505859 
	C461.539917,339.257416 460.376404,340.309814 459.179047,341.271057 
	C457.441742,342.665741 455.401886,343.254547 453.231628,343.646576 
	C430.832062,347.693024 408.750732,353.260315 386.438721,357.763153 
	C370.649719,360.949524 354.742218,363.619812 339.022980,367.250305 
	C319.946014,371.656372 300.631897,375.025757 281.505737,379.231781 
	C263.670593,383.153961 245.805878,386.944031 228.008881,391.059875 
	C213.126709,394.501587 198.156769,397.605621 183.279236,401.106171 
	C179.727112,401.941925 176.363937,403.448486 172.637344,403.706879 
	C169.046982,403.955841 166.611694,402.580627 166.070755,399.111694 
	C165.507385,395.498810 168.479889,394.497223 171.173401,394.336395 
	C180.231125,393.795624 188.900330,391.641968 197.824066,388.628052 
z"/>
<path fill="#000000" opacity="1.000000" stroke="none" 
	d="
M521.863037,258.056519 
	C512.091370,261.602325 502.855591,260.953186 493.796722,256.978058 
	C486.432098,253.746399 482.997650,244.520370 485.093811,234.595215 
	C486.491547,227.977005 490.936462,223.099533 494.217529,217.552811 
	C494.955383,216.305511 495.943817,215.206467 497.143890,213.601974 
	C492.814240,212.663422 489.103241,211.524292 485.964630,208.824844 
	C482.683075,206.002441 480.848877,202.474274 480.838623,198.409119 
	C480.826080,193.445572 481.614502,188.495819 483.281311,183.713470 
	C484.183746,181.124176 485.872528,180.335617 488.253082,180.734787 
	C490.671692,181.140305 491.374268,182.975586 491.289459,185.197342 
	C491.163025,188.510880 491.355164,191.800095 490.658447,195.131973 
	C489.357086,201.355408 493.075348,204.953247 499.251251,203.456757 
	C505.008209,202.061783 510.396576,199.878510 513.075745,193.858215 
	C513.607178,192.664200 514.452576,191.555771 515.349304,190.589890 
	C517.142212,188.658615 519.384888,189.103699 521.350159,190.101746 
	C523.579468,191.233917 523.448975,193.215408 522.518372,195.274948 
	C519.801636,201.287338 515.664185,206.336456 511.223450,211.052628 
	C504.439178,218.257629 498.929260,226.255661 494.681396,235.154221 
	C491.739594,241.316727 494.062683,246.943954 500.510376,249.078995 
	C506.156281,250.948532 511.888458,251.800003 517.546204,249.138535 
	C520.684753,247.662140 523.330750,248.417984 524.809265,251.251648 
	C526.239441,253.992645 525.020264,256.407379 521.863037,258.056519 
z"/>
<path fill="#000000" opacity="1.000000" stroke="none" 
	d="
M641.442749,194.475952 
	C622.696777,185.460632 606.416199,173.324875 591.249390,159.900162 
	C581.343506,151.132126 572.617310,140.947296 565.382385,129.685196 
	C563.826965,127.264046 563.027649,124.585213 562.306335,121.831490 
	C561.669556,119.400589 562.097229,117.310616 564.369568,116.330917 
	C567.069214,115.166985 568.988647,117.035507 569.913757,119.218330 
	C571.952698,124.029037 574.934753,128.180710 578.031616,132.303436 
	C588.021912,145.603271 600.551819,156.074341 614.105042,165.563431 
	C623.903198,172.423477 633.542969,179.463669 644.167908,185.036682 
	C645.747864,185.865387 647.197632,187.143433 648.360535,188.509186 
	C649.508057,189.856857 649.592957,191.626892 648.385498,193.117584 
	C646.604492,195.316238 644.418396,196.058350 641.442749,194.475952 
z"/>
<path fill="#000000" opacity="1.000000" stroke="none" 
	d="
M528.917236,283.790558 
	C540.871765,284.190826 550.278381,279.565979 558.572876,272.017120 
	C561.263977,269.567932 564.348267,265.409485 568.096680,269.775635 
	C571.427490,273.655518 568.018616,276.811615 565.111084,279.408691 
	C548.233398,294.483948 528.870544,297.635986 507.540955,291.348755 
	C503.736877,290.227448 500.715454,287.908478 498.020660,285.194061 
	C495.642456,282.798492 496.051514,280.016846 498.044678,277.571777 
	C499.807190,275.409668 502.677399,275.011475 504.181396,277.003143 
	C510.647369,285.565704 519.822388,283.480103 528.917236,283.790558 
z"/>
<path fill="#000000" opacity="1.000000" stroke="none" 
	d="
M553.210327,199.266891 
	C557.076843,199.199890 558.426575,200.909821 558.658752,204.426208 
	C559.089355,210.949554 562.217224,214.239838 568.590210,215.743118 
	C574.995300,217.253952 578.242432,215.962433 581.960388,210.307831 
	C583.740173,207.601044 585.825439,205.346130 589.261475,207.307602 
	C592.937744,209.406235 591.943787,212.570892 590.387817,215.537033 
	C586.455444,223.033310 576.005310,227.351151 566.733704,225.382431 
	C557.088257,223.334351 549.443542,215.603546 548.887939,207.037140 
	C548.681335,203.851852 548.960754,200.588089 553.210327,199.266891 
z"/>
<path fill="#000000" opacity="1.000000" stroke="none" 
	d="
M671.773193,441.677490 
	C664.944336,459.184875 659.292114,476.760590 650.388123,492.974304 
	C645.246277,502.337311 638.822632,510.752808 631.126343,518.154175 
	C629.300598,519.909973 626.963318,521.377747 624.559082,518.985046 
	C622.411987,516.848206 622.500183,514.477600 624.810547,512.473145 
	C635.407715,503.278931 641.243652,490.979858 647.206909,478.695892 
	C655.420288,461.776825 661.592773,444.060089 668.082092,426.463959 
	C668.955750,424.094910 669.728210,421.830139 672.838013,422.952301 
	C675.587036,423.944336 676.453552,426.092224 675.781616,428.969025 
	C674.797180,433.183319 673.641052,437.334412 671.773193,441.677490 
z"/>
<path fill="#000000" opacity="1.000000" stroke="none" 
	d="
M469.408691,425.363159 
	C467.201050,432.040771 465.102386,438.346741 462.908966,444.619568 
	C462.534454,445.690613 461.856232,446.700928 461.140686,447.597504 
	C459.731079,449.363708 457.955627,450.909241 455.580566,449.876740 
	C452.981842,448.746979 453.603516,446.312958 454.072723,444.199799 
	C455.737183,436.703278 459.004181,429.747192 461.531708,422.542786 
	C463.285889,417.542664 464.552795,412.334167 467.654541,407.854553 
	C469.933655,404.562958 472.324615,403.120972 475.987885,406.567749 
	C475.393524,413.114197 471.429657,418.709595 469.408691,425.363159 
z"/>
</svg>