<svg version="1.1" id="Layer_1" xmlns="http://www.w3.org/2000/svg" xmlns:xlink="http://www.w3.org/1999/xlink" x="0px" y="0px"
	 width="100%" viewBox="0 0 800 800" enable-background="new 0 0 800 800" xml:space="preserve">
<path fill="#000000" opacity="1.000000" stroke="none" 
	d="
M245.759644,486.274384 
	C242.593491,482.996521 238.866776,482.011627 234.885529,481.074188 
	C220.149353,477.604340 205.491699,473.800720 190.807861,470.109344 
	C189.698593,469.830475 188.656052,469.136841 186.757309,469.982697 
	C185.561325,474.678894 185.791245,479.983765 185.394531,485.169952 
	C184.892563,491.731812 181.120636,496.671967 175.999939,496.755249 
	C169.914459,496.854248 165.684937,492.297882 165.679413,485.156830 
	C165.639969,434.174561 165.602356,383.191986 165.741867,332.209991 
	C165.770279,321.825409 172.094925,315.040405 180.344193,309.794952 
	C196.168701,299.732697 213.855759,294.321228 231.809097,289.839020 
	C257.689667,283.377686 283.931244,279.451691 310.675049,278.389709 
	C325.187744,277.813416 339.563293,277.423523 353.954041,279.584564 
	C357.936920,280.182709 361.779205,281.152344 365.551208,282.503754 
	C380.155914,287.736023 387.578796,299.398499 386.789734,314.936401 
	C386.353760,323.521240 386.711639,332.146423 386.711639,340.926483 
	C392.108643,341.455688 396.373718,339.919281 400.728119,339.211212 
	C432.745697,334.005096 464.345551,334.692352 495.262115,345.681641 
	C503.469208,348.598846 511.307404,352.277588 518.462402,357.200775 
	C525.364258,361.949799 532.956665,364.309204 541.111023,365.783386 
	C563.570190,369.843750 585.753357,374.974701 606.959412,383.743713 
	C632.536011,394.320068 644.431274,414.448303 647.279114,440.933777 
	C648.548584,452.739685 647.718567,464.424744 645.912720,476.213409 
	C644.614136,484.690857 645.402588,493.494354 645.346680,502.152985 
	C645.320618,506.192474 644.307861,509.799805 640.974426,512.288025 
	C637.967346,514.532654 634.507568,515.023010 631.039856,513.486450 
	C627.005859,511.698975 624.961731,508.267853 624.760803,504.011261 
	C624.512817,498.758392 624.701538,493.484924 624.701538,487.338470 
	C618.860474,489.808472 614.034912,491.914490 609.160278,493.900177 
	C565.930542,511.509766 521.818542,526.393127 476.250946,536.746338 
	C471.715057,537.776917 467.129852,538.635376 462.530365,539.325867 
	C459.290222,539.812378 458.067505,541.380493 458.019928,544.656799 
	C457.918610,551.634583 458.819183,558.679016 457.218384,565.578369 
	C456.027283,570.712036 452.301270,573.724060 447.304901,573.986267 
	C442.892273,574.217773 438.633667,571.294861 436.912872,566.787964 
	C436.074097,564.591125 435.717133,562.307312 435.733643,559.937561 
	C435.770752,554.606445 435.530487,549.266541 435.766174,543.946289 
	C435.915710,540.571289 434.519440,539.268738 431.381653,538.621277 
	C392.923157,530.686279 354.988892,520.548584 316.884644,511.133514 
	C298.319214,506.546234 279.705444,502.019409 261.832733,495.014496 
	C256.221893,492.815430 250.940613,490.020905 245.759644,486.274384 
M398.740326,350.326202 
	C394.022095,351.325775 389.272186,352.196320 384.590637,353.345306 
	C346.302521,362.742218 310.540375,377.556793 280.052368,403.209167 
	C264.845734,416.003967 251.964813,430.765961 245.264069,449.942566 
	C240.590622,463.317261 245.029419,474.391510 257.532562,481.029572 
	C269.839020,487.563171 283.205994,491.218658 296.571625,494.691162 
	C337.804230,505.403961 379.123535,515.784851 420.635834,525.362366 
	C433.247681,528.272095 445.907837,531.449280 459.112061,529.115417 
	C489.360077,523.768982 518.585327,514.669128 547.679504,505.103394 
	C576.014587,495.787231 603.853516,485.186737 630.879395,472.506012 
	C634.381042,470.863037 636.655823,468.717712 636.629333,464.649597 
	C636.568665,455.339020 637.248291,446.024750 635.665100,436.742615 
	C632.442566,417.849335 623.820862,402.901276 605.583069,394.882172 
	C579.579712,383.448547 552.119324,377.338593 524.066956,374.501251 
	C499.623535,372.028870 475.582214,375.770660 452.173157,383.321350 
	C410.476044,396.770813 375.045441,419.786011 345.893341,452.524658 
	C337.265045,462.214478 329.537292,472.731781 319.662018,481.291901 
	C316.866638,483.715027 313.930450,484.438354 311.376038,481.395660 
	C308.698425,478.206329 309.692230,475.271942 312.961456,472.904694 
	C316.492493,470.347870 319.474609,467.191071 322.183380,463.805298 
	C335.634583,446.992310 350.063324,431.158844 366.810059,417.492218 
	C392.036072,396.905731 420.086426,381.708435 451.268951,372.307343 
	C469.286560,366.875244 487.712952,363.846283 507.624115,363.180725 
	C504.725464,361.656586 502.863220,360.606354 500.939026,359.685486 
	C498.988922,358.752228 497.003235,357.881378 494.989319,357.095398 
	C463.905060,344.964203 431.951843,344.829498 398.740326,350.326202 
M198.815369,389.263672 
	C204.659027,387.003204 210.502686,384.742737 217.016373,382.223053 
	C210.898010,372.579468 208.946747,362.165070 207.617966,351.583710 
	C206.081589,339.349121 210.689987,331.713318 222.527023,328.908539 
	C229.560623,327.241943 236.159988,324.869843 242.655273,321.855255 
	C245.497253,320.536255 248.642593,319.860229 251.666016,318.944427 
	C274.210144,312.115845 297.583191,309.764282 320.733612,306.228546 
	C326.010376,305.422607 331.363373,305.275482 336.650909,306.239166 
	C350.214813,308.711212 361.547363,315.273346 370.980103,325.235840 
	C372.347961,326.680511 373.679810,328.159241 375.645813,330.292145 
	C375.645813,322.916626 375.926025,316.746857 375.578247,310.612732 
	C375.091187,302.022095 370.847473,295.965088 362.554810,292.872559 
	C353.847198,289.625244 344.761749,288.603394 335.618317,288.378937 
	C303.326294,287.586334 271.529419,291.787170 240.089630,298.778412 
	C222.174347,302.762177 204.813461,308.442627 188.629822,317.395508 
	C180.096954,322.115936 176.012314,328.603302 176.120605,338.744781 
	C176.511841,375.386383 176.405151,412.035095 176.186005,448.679321 
	C176.155914,453.711914 177.903122,455.812958 182.530350,456.920074 
	C194.338303,459.745331 206.030426,463.056824 217.846619,465.844330 
	C222.903305,467.037201 227.815155,469.246887 233.587677,469.225220 
	C229.211792,443.888275 244.482315,426.792572 257.786072,408.613892 
	C256.874786,408.340515 256.296021,408.073578 255.693558,407.999939 
	C244.035751,406.574066 234.043839,401.728271 225.811462,393.354736 
	C223.956818,391.468262 222.137436,391.780884 219.918503,392.556793 
	C208.750031,396.462250 197.685608,400.579346 187.394852,406.529175 
	C185.511307,407.618164 183.454193,408.718170 181.518494,406.577972 
	C179.461945,404.304169 179.438660,401.799103 180.889465,399.197144 
	C181.824966,397.519409 183.399384,396.556671 184.973694,395.620422 
	C189.138260,393.143646 193.543228,391.178528 198.815369,389.263672 
M365.587189,335.894928 
	C357.265656,325.155640 346.534363,318.509705 332.967834,316.654022 
	C326.237335,315.733429 319.719391,317.266144 313.163147,318.325989 
	C298.567322,320.685486 283.876038,322.333282 269.340973,325.220215 
	C254.099701,328.247467 240.517624,336.287323 225.155380,338.864716 
	C220.160645,339.702698 217.632385,343.774475 218.128113,348.931610 
	C218.571899,353.548401 219.117279,358.239655 220.388077,362.677490 
	C224.888901,378.395111 233.820145,390.345764 249.866684,395.955566 
	C253.419937,397.197815 257.397827,395.712067 260.667938,397.399902 
	C266.136566,400.222473 270.106354,398.349487 273.866913,394.387360 
	C275.118408,393.068817 276.620850,391.977631 278.063385,390.852814 
	C304.285919,370.405548 333.786987,356.562561 365.598236,347.346588 
	C367.597534,346.767365 369.919678,346.657227 371.420013,344.594513 
	C370.713409,341.175049 368.122681,338.969604 365.587189,335.894928 
z"/>
<path fill="#000000" opacity="1.000000" stroke="none" 
	d="
M563.934143,234.185150 
	C563.476013,235.947556 563.256226,237.547134 562.416626,238.692261 
	C554.746399,249.153381 547.032715,259.584442 539.175476,269.905273 
	C537.277283,272.398590 534.398560,273.225372 531.640625,271.289246 
	C528.794922,269.291473 528.925415,266.219330 530.683105,263.749084 
	C538.397156,252.907928 546.189636,242.115417 554.257690,231.537125 
	C557.181396,227.703751 561.388428,228.916885 563.934143,234.185150 
z"/>
<path fill="#000000" opacity="1.000000" stroke="none" 
	d="
M285.272034,216.236816 
	C288.194672,216.102081 289.994110,217.246124 291.368286,219.404236 
	C296.713593,227.798767 302.145599,236.138000 307.521362,244.513229 
	C308.326111,245.766983 309.142670,247.044907 309.710052,248.412750 
	C310.920044,251.329727 310.666443,254.087601 307.704468,255.774719 
	C304.733978,257.466644 302.231628,256.362701 300.429443,253.678955 
	C297.656952,249.550323 294.947296,245.378510 292.268677,241.188110 
	C288.963654,236.017731 285.616455,230.869904 282.477081,225.599396 
	C279.747711,221.017136 280.306702,219.273651 285.272034,216.236816 
z"/>
<path fill="#000000" opacity="1.000000" stroke="none" 
	d="
M474.237518,215.824188 
	C473.623596,228.997375 470.380798,241.360870 467.667389,253.808563 
	C467.057617,256.605957 464.767426,257.798126 461.912170,257.373230 
	C459.181519,256.966888 457.968964,255.003937 457.770020,252.484268 
	C457.451324,248.447495 458.841827,244.627899 459.550903,240.722305 
	C460.942932,233.054840 462.342743,225.388672 463.693665,217.713928 
	C464.163300,215.045822 465.356018,212.921021 468.098633,212.262161 
	C470.910858,211.586563 472.901855,212.916107 474.237518,215.824188 
z"/>
<path fill="#000000" opacity="1.000000" stroke="none" 
	d="
M387.307129,242.900421 
	C387.632904,245.479889 388.090729,247.608902 388.196899,249.755295 
	C388.364136,253.135742 387.013397,255.748230 383.393555,256.197296 
	C380.000336,256.618225 378.044342,254.633316 377.550140,251.401230 
	C375.943817,240.896179 374.314087,230.391647 372.964111,219.852249 
	C372.526917,216.439301 373.888367,213.367950 377.803406,212.907303 
	C381.527008,212.469147 383.210022,215.060135 383.724182,218.312500 
	C384.994385,226.347580 386.106079,234.407700 387.307129,242.900421 
z"/>
</svg>