<svg version="1.1" id="Layer_1" xmlns="http://www.w3.org/2000/svg" xmlns:xlink="http://www.w3.org/1999/xlink" x="0px" y="0px"
	 width="100%" viewBox="0 0 800 800" enable-background="new 0 0 800 800" xml:space="preserve">
<path fill="#000000" opacity="1.000000" stroke="none" 
	d="
M481.321167,184.522232 
	C480.468597,187.541122 482.873291,188.259888 484.288300,189.400375 
	C501.543518,203.308197 510.177917,221.797028 509.889709,243.455688 
	C509.563721,267.949036 498.879822,287.670868 477.488098,300.814331 
	C476.397827,301.484222 474.996948,301.797913 474.218964,303.501526 
	C481.730713,307.353821 489.231934,311.195618 496.727692,315.048096 
	C498.802002,316.114166 500.869232,317.194794 502.923889,318.298218 
	C512.414490,323.394836 512.419556,323.407013 520.866394,316.363525 
	C522.400696,315.084106 523.774231,313.604034 525.354431,312.388824 
	C530.137634,308.710571 532.314209,304.928284 532.273926,297.904053 
	C532.137756,274.176056 555.068970,265.294281 570.383606,270.727844 
	C582.685608,275.092468 590.776245,286.294800 591.008545,299.250366 
	C591.223267,311.222015 584.074585,321.961853 572.270203,326.821838 
	C569.450195,327.982880 567.648682,329.721497 566.012268,332.156158 
	C559.149292,342.366608 552.491211,352.655548 543.138916,361.017365 
	C526.975403,375.469116 509.014893,377.722656 489.230713,370.451782 
	C484.230896,368.614319 479.121582,366.988159 474.324402,364.712860 
	C470.335449,362.820892 468.784393,363.866394 467.670502,367.879333 
	C463.220825,383.909882 458.557800,399.881348 453.952942,415.868683 
	C452.387146,421.304901 450.768219,426.725922 449.156219,432.148743 
	C448.576599,434.098541 447.760834,435.969879 445.943604,437.052521 
	C444.023621,438.196411 443.838745,440.069824 443.078461,441.921143 
	C439.845520,449.793610 443.268280,454.990326 448.445099,460.746033 
	C475.617218,490.956665 501.838562,522.014526 529.376648,551.905273 
	C531.164429,553.845764 532.702698,556.016174 534.642090,558.435303 
	C538.972656,555.820923 543.117432,553.105103 547.455994,550.745728 
	C555.586609,546.324219 563.998779,542.619690 573.607056,544.570557 
	C586.200684,547.127502 592.946350,557.544983 590.608398,570.209961 
	C589.167664,578.014526 585.382446,584.576538 580.270996,590.415222 
	C568.780518,603.540344 555.067444,613.619995 538.727722,619.926331 
	C524.899231,625.263550 511.475433,622.789001 503.831696,611.177979 
	C495.130310,597.960327 482.838043,588.673889 471.759644,578.087158 
	C451.531921,558.757202 430.717072,540.040955 410.102478,521.117310 
	C406.177490,517.514282 401.905579,514.282837 398.061218,510.600677 
	C395.647552,508.288849 394.103607,508.653503 391.894836,510.870453 
	C382.490143,520.309814 372.809509,529.447205 362.257111,537.638306 
	C349.891785,547.236755 335.724213,549.536194 320.692535,548.071289 
	C304.417572,546.485168 288.502838,542.972961 272.965179,537.893433 
	C270.149353,536.972900 268.606445,538.010315 266.915161,539.837708 
	C262.625427,544.472656 258.746063,549.516357 253.555496,553.263062 
	C246.575668,558.301270 239.126022,561.928711 230.301468,559.257202 
	C220.771866,556.372375 215.090118,546.320129 216.131088,535.469177 
	C217.021515,526.187683 219.986832,517.565369 224.298187,509.430054 
	C230.479126,497.766998 237.611252,486.704254 247.063385,477.357941 
	C258.659546,465.891541 276.644592,467.197571 286.429626,480.301331 
	C288.181366,482.647186 290.104065,483.924042 292.842590,484.431366 
	C301.840332,486.098145 310.837463,487.772522 319.812286,489.557373 
	C323.770081,490.344482 326.759247,489.433136 329.458221,486.182068 
	C334.561157,480.035187 339.986237,474.149750 345.412842,468.280853 
	C347.268585,466.273895 347.673309,464.680481 346.082336,462.200562 
	C338.103607,449.764008 336.216095,436.300323 339.799164,422.011780 
	C340.078888,420.896362 340.709473,419.462952 340.283142,418.640900 
	C336.955780,412.225433 339.805939,406.252960 341.406219,400.226044 
	C345.291962,385.591827 349.308228,370.992310 353.236267,356.369232 
	C353.702911,354.632019 353.947968,352.835297 354.360413,350.737305 
	C349.828735,349.314209 345.529846,350.597137 341.314911,350.331970 
	C326.449524,349.396851 315.537750,357.631195 304.626221,365.964966 
	C302.841217,367.328308 302.900146,368.849152 303.135956,370.785492 
	C304.216278,379.655121 302.950409,388.408783 295.677307,393.987732 
	C287.427399,400.315887 277.833374,405.371979 266.988129,404.598419 
	C249.015793,403.316498 237.851929,386.000214 243.160629,368.418549 
	C245.871674,359.439972 251.208069,352.292084 259.781830,348.138794 
	C263.648682,346.265625 266.602753,343.764954 269.247375,340.404144 
	C277.514038,329.898895 287.006104,320.558807 297.397461,312.141998 
	C308.425507,303.209473 321.605713,299.961914 335.201752,297.709686 
	C349.962463,295.264526 364.696655,292.659088 379.571381,290.101379 
	C380.084351,288.186707 378.319946,287.301147 377.338928,286.129730 
	C367.284943,274.124023 361.268341,260.438568 360.774780,244.707825 
	C359.874268,216.008698 378.438049,189.568161 405.702972,179.609344 
	C420.592072,174.170944 435.518982,172.660034 451.318939,175.001312 
	C459.318420,176.186691 466.772552,171.893158 472.492432,165.720032 
	C473.166412,164.992661 473.637726,164.081757 474.257141,163.298767 
	C475.978973,161.122116 478.182465,160.196747 480.874969,161.143158 
	C483.413208,162.035339 484.231140,164.053833 484.344177,166.635483 
	C484.610199,172.711472 483.947083,178.602768 481.321167,184.522232 
M256.618713,387.795349 
	C263.839783,395.208282 270.691376,395.765717 279.145569,389.580353 
	C280.373322,388.682129 281.557587,387.711029 283.161743,387.812714 
	C287.959045,388.116882 289.785370,384.902863 291.369751,381.181763 
	C293.194519,376.896149 292.509552,372.731842 291.233032,368.510925 
	C290.092010,364.738159 290.974182,361.762909 294.449738,359.463440 
	C299.724976,355.973236 304.704865,352.029907 310.033173,348.628204 
	C316.341553,344.600769 322.729187,340.406952 330.492004,339.898743 
	C339.622223,339.301025 348.774933,338.966644 357.923401,338.748993 
	C367.341309,338.524902 369.079315,341.124084 366.537354,350.236389 
	C361.398315,368.658386 356.533966,387.157532 351.311249,405.555298 
	C350.106262,409.800018 351.186462,411.813873 355.211456,413.462646 
	C380.317871,423.746796 406.266663,429.431854 433.512207,428.725830 
	C437.097748,428.632935 438.896362,427.313324 439.888214,423.856018 
	C446.402405,401.149963 453.082184,378.491516 459.675049,355.807953 
	C461.713074,348.795868 463.856689,347.869232 470.508850,351.121918 
	C478.899048,355.224426 487.621857,358.512756 496.478821,361.445099 
	C509.458954,365.742584 521.373169,363.850708 532.283630,355.443207 
	C543.497437,346.801910 551.110413,335.296722 557.868347,323.203369 
	C559.872498,319.616882 562.140015,317.781769 566.109985,317.020752 
	C573.403320,315.622803 578.962585,309.008301 579.648254,301.672699 
	C580.415405,293.465088 576.379456,285.630371 569.693909,282.481262 
	C562.824036,279.245300 556.093750,279.310699 549.889954,283.978729 
	C543.572571,288.732208 542.047302,295.386902 543.643860,302.742493 
	C544.415710,306.298340 544.388916,309.316193 541.654602,311.923737 
	C535.267273,318.014954 528.696350,323.883087 521.765625,329.370911 
	C515.448425,334.372955 509.306885,334.439697 502.393646,330.517395 
	C489.792084,323.367737 476.652649,317.241852 463.602173,310.954224 
	C460.905243,309.654846 458.481018,309.341797 455.497559,310.036804 
	C435.439728,314.709595 416.103607,312.724976 397.927032,302.737732 
	C394.170563,300.673676 390.580627,300.140442 386.476654,300.647339 
	C371.281342,302.524048 356.213348,305.166779 341.175568,307.990204 
	C332.860840,309.551331 324.331726,310.190643 316.490906,313.841583 
	C299.305847,321.843475 287.385162,335.756836 275.913635,350.101868 
	C273.848846,352.683838 271.860809,354.552887 268.662811,355.672241 
	C255.145905,360.403381 249.353333,375.308380 256.618713,387.795349 
M386.072327,278.421326 
	C396.785065,290.793579 410.361877,297.873688 426.471039,300.250732 
	C454.325073,304.360809 488.188629,290.602753 496.269318,256.727051 
	C502.549042,230.401291 490.491119,202.449081 466.022614,191.433517 
	C448.978302,183.760269 430.865753,183.071915 412.862152,189.206635 
	C373.485291,202.624237 360.047699,246.344437 386.072327,278.421326 
M423.965332,518.512024 
	C428.646118,522.772461 433.369324,526.987366 438.000244,531.301331 
	C456.530731,548.563416 475.066895,565.819824 493.504364,583.180847 
	C496.007355,585.537659 497.815033,585.582886 500.112213,583.092041 
	C505.983582,576.725586 511.946930,570.443176 517.923950,564.175293 
	C520.698669,561.265503 520.696899,559.022339 517.789551,555.761902 
	C488.963013,523.434326 460.343872,490.921814 431.630676,458.492950 
	C429.579132,456.175903 428.721039,453.761078 429.597717,450.716553 
	C430.195068,448.641907 430.361725,446.433502 431.053375,444.397858 
	C432.325562,440.653595 431.216095,439.202332 427.218140,439.285919 
	C401.504181,439.823486 377.008850,434.164429 353.322754,424.504547 
	C352.561340,424.194061 351.772919,423.868103 350.829102,424.450989 
	C349.810303,426.817932 349.425232,429.403015 349.264954,432.085602 
	C348.401489,446.538422 354.369781,457.958496 364.964905,467.219177 
	C384.408295,484.213776 403.945892,501.100555 423.965332,518.512024 
M314.154510,499.529816 
	C304.842529,497.793182 295.488129,496.249359 286.242004,494.213562 
	C283.075867,493.516479 281.200043,494.262878 279.467957,496.712585 
	C274.589722,503.612061 271.410919,511.144318 269.832550,519.493958 
	C269.047668,523.645996 270.129852,525.513916 274.139160,526.757446 
	C288.794983,531.302979 303.743317,534.418640 318.898499,536.656128 
	C333.162659,538.762146 346.393646,536.765991 357.862427,527.217590 
	C366.829498,519.752075 375.020050,511.455536 383.596527,503.572754 
	C385.956879,501.403290 385.625397,499.903900 383.345459,497.955048 
	C374.995514,490.817719 366.759979,483.546692 358.458893,476.351929 
	C357.479706,475.503235 356.524933,474.458832 354.517212,474.801849 
	C348.469391,481.613373 342.068329,488.597992 335.937439,495.812195 
	C332.267151,500.130981 328.192352,502.405670 322.394897,500.840149 
	C320.007721,500.195526 317.471313,500.103363 314.154510,499.529816 
M529.675720,568.801086 
	C527.893677,568.826355 527.222534,570.354187 526.237488,571.407715 
	C521.807129,576.146118 517.537659,581.040833 512.988159,585.660583 
	C504.338959,594.443237 504.273865,594.382874 512.297363,604.025085 
	C512.828491,604.663330 513.425659,605.247009 513.995972,605.852478 
	C518.747437,610.895935 524.355408,612.989014 531.137329,610.634399 
	C549.933716,604.108521 565.415955,593.090637 576.479370,576.396057 
	C580.047791,571.011292 581.745483,564.806030 577.348572,559.145935 
	C572.831177,553.330994 566.626160,555.029602 560.835754,557.090271 
	C554.695679,559.275391 549.065308,562.477661 543.717773,566.227051 
	C539.713379,569.034668 535.513306,571.568298 529.675720,568.801086 
M258.350159,532.742615 
	C259.778717,531.379150 259.370056,529.808289 259.090607,528.105103 
	C258.440186,524.141052 258.498413,520.166687 259.250458,516.181458 
	C261.492462,504.300537 266.532959,493.835114 274.973328,485.156830 
	C267.999725,478.081390 259.779968,478.924164 252.521500,487.472321 
	C244.402740,497.033630 237.432114,507.382874 232.284424,518.865906 
	C229.483963,525.112915 227.051605,531.498657 227.227982,538.524963 
	C227.442993,547.090576 233.026505,550.872192 241.055267,547.943604 
	C243.452515,547.069214 245.531601,545.688354 247.321838,543.930786 
	C250.885696,540.431763 254.354752,536.836121 258.350159,532.742615 
z"/>
<path fill="#000000" opacity="1.000000" stroke="none" 
	d="
M245.688583,219.200439 
	C256.463593,221.549881 266.842743,223.758606 277.207642,226.032135 
	C280.839844,226.828842 283.638489,228.798569 282.644989,232.896729 
	C281.683746,236.861923 278.651794,237.501297 274.796478,236.640152 
	C262.988434,234.002594 251.119156,231.640121 239.281937,229.131668 
	C235.691666,228.370865 233.493439,226.046967 234.161285,222.413986 
	C234.844879,218.695511 237.764709,217.517761 241.396683,218.235336 
	C242.698639,218.492569 243.990585,218.800430 245.688583,219.200439 
z"/>
<path fill="#000000" opacity="1.000000" stroke="none" 
	d="
M249.222473,266.103973 
	C257.789642,263.870422 265.971375,261.774750 274.141724,259.635529 
	C277.681213,258.708771 281.037964,258.623993 282.140320,262.933167 
	C283.246002,267.255493 280.696320,269.256683 276.730652,270.218719 
	C267.232513,272.522949 257.750397,274.901886 248.308670,277.425934 
	C244.659409,278.401520 241.429504,278.482971 240.410736,274.163208 
	C239.404724,269.897583 241.941132,267.705872 245.928680,266.905029 
	C246.902878,266.709381 247.864838,266.452759 249.222473,266.103973 
z"/>
<path fill="#000000" opacity="1.000000" stroke="none" 
	d="
M270.388733,182.457230 
	C268.945557,179.263794 268.993347,176.545135 271.839294,174.657028 
	C274.724792,172.742661 277.172729,174.048141 279.451874,176.094864 
	C286.380554,182.316971 293.350403,188.493195 300.290985,194.702087 
	C303.215759,197.318512 304.878082,200.473694 301.703247,203.715927 
	C298.717255,206.765366 295.706604,205.100662 292.970032,202.638428 
	C285.553223,195.965240 278.062592,189.374161 270.388733,182.457230 
z"/>
<path fill="#000000" opacity="1.000000" stroke="none" 
	d="
M189.598114,570.468140 
	C183.434082,575.066467 177.576279,579.458252 171.690643,583.812439 
	C169.069366,585.751648 166.097107,586.798584 163.650085,583.996826 
	C160.954193,580.910034 161.928894,577.592590 164.906036,575.264343 
	C170.674088,570.753479 176.622696,566.467773 182.588470,562.217957 
	C185.094528,560.432678 188.039169,559.904175 190.349899,562.337769 
	C192.772690,564.889343 192.540955,567.751770 189.598114,570.468140 
z"/>
<path fill="#000000" opacity="1.000000" stroke="none" 
	d="
M183.943604,515.901855 
	C182.965805,513.560608 182.073135,511.597565 181.313873,509.584198 
	C180.180695,506.579376 180.582352,503.867737 183.713150,502.429199 
	C186.993668,500.921844 189.725967,502.286316 191.182312,505.300079 
	C194.425903,512.012329 197.386993,518.862061 200.410385,525.679260 
	C201.769073,528.742798 200.997803,531.443115 197.989258,532.789795 
	C194.715103,534.255310 191.733414,533.415405 190.113022,529.899597 
	C188.032547,525.385559 186.090271,520.807800 183.943604,515.901855 
z"/>
<path fill="#000000" opacity="1.000000" stroke="none" 
	d="
M204.992935,574.838013 
	C210.835800,573.126526 213.664825,574.902466 213.206039,580.382141 
	C212.585587,587.792542 211.334381,595.158020 210.142761,602.508545 
	C209.722198,605.102905 207.662109,606.407349 205.087463,606.468323 
	C202.426697,606.531250 200.026733,604.927490 200.089478,602.542664 
	C200.335190,593.203308 200.512024,583.773376 204.992935,574.838013 
z"/>
<path fill="#000000" opacity="1.000000" stroke="none" 
	d="
M168.445679,548.815125 
	C165.416565,548.231140 162.774902,547.886536 160.207687,547.244324 
	C157.154816,546.480652 155.776825,544.190918 156.307373,541.236328 
	C156.830307,538.324219 158.860062,536.355713 161.976364,536.794128 
	C169.033234,537.787048 176.076675,538.935669 183.066132,540.320923 
	C186.281021,540.958191 187.816345,543.422485 187.137878,546.694031 
	C186.497040,549.784302 184.140732,551.035095 181.172852,550.712219 
	C177.054459,550.264099 172.966873,549.532898 168.445679,548.815125 
z"/>
<path fill="#000000" opacity="1.000000" stroke="none" 
	d="
M241.354919,588.589233 
	C241.734604,591.732239 240.885468,593.890686 238.095291,594.892212 
	C235.374359,595.868896 233.153458,594.867615 231.530746,592.707214 
	C229.246918,589.666565 226.969513,586.594299 225.020584,583.337341 
	C223.454803,580.720703 224.148804,578.014526 226.572266,576.278870 
	C229.047592,574.506104 231.886810,574.942932 233.718521,577.263733 
	C236.465683,580.744446 239.515625,584.066040 241.354919,588.589233 
z"/>
<path fill="#000000" opacity="1.000000" stroke="none" 
	d="
M504.806091,342.316345 
	C508.124542,343.406616 509.620819,345.969421 512.028259,348.408905 
	C508.345123,349.635071 505.737030,352.730469 501.978760,350.360870 
	C500.341888,349.328735 499.255493,347.859833 499.686981,345.827271 
	C500.216705,343.331940 502.179810,342.546478 504.806091,342.316345 
z"/>
</svg>