<svg version="1.1" id="Layer_1" xmlns="http://www.w3.org/2000/svg" xmlns:xlink="http://www.w3.org/1999/xlink" x="0px" y="0px"
	 width="100%" viewBox="0 0 1024 672" enable-background="new 0 0 1024 672" xml:space="preserve">
<path fill="#000000" opacity="1.000000" stroke="none" 
	d="
M429.185150,75.206551 
	C443.513550,60.299187 461.018158,51.421230 479.880127,44.659492 
	C494.849274,39.293282 509.998322,35.116867 526.042114,35.074406 
	C527.204285,35.071327 528.595886,34.576744 529.493103,35.048313 
	C538.685974,39.879898 549.240112,38.170395 558.813477,41.395382 
	C575.989868,47.181625 589.309387,57.879871 599.875854,72.261322 
	C604.096985,78.006378 607.618713,84.269302 611.898010,89.966522 
	C617.803467,97.828682 619.183411,107.346855 622.229065,116.254463 
	C624.164795,121.915871 626.148560,126.796745 631.856750,130.549286 
	C643.865601,138.443817 644.945801,156.133743 640.228943,166.860535 
	C639.106506,169.412933 637.551697,171.828323 637.443542,174.943741 
	C640.507141,176.908340 644.095215,177.061401 647.416870,177.572372 
	C657.708252,179.155518 667.416931,182.422760 676.792847,186.796341 
	C687.672485,191.871384 698.148743,197.657639 707.992981,204.570755 
	C718.830322,212.181335 728.167175,221.463074 736.519348,231.578629 
	C744.451599,241.185638 751.792236,251.420624 757.403015,262.572937 
	C762.006836,271.723755 766.656250,280.938446 769.328796,290.996643 
	C770.857239,296.748901 773.645752,302.156250 775.366577,307.869598 
	C778.947876,319.759796 781.733215,331.818329 783.507812,344.163208 
	C785.069092,355.024689 787.428894,365.880157 787.080811,376.810242 
	C786.351685,399.700317 785.964783,422.735962 777.819580,444.650940 
	C777.138977,446.482056 777.094055,448.288483 778.090088,449.951721 
	C782.337769,457.044403 784.089355,464.857880 785.992737,472.839966 
	C787.825378,480.525787 788.572021,488.171295 789.494690,495.927521 
	C791.394531,511.899353 789.217773,527.445129 785.749939,542.882935 
	C781.631042,561.218872 773.752014,577.963989 760.421875,591.266113 
	C743.383606,608.268616 722.549072,617.761780 698.241272,619.534241 
	C687.538269,620.314636 676.984680,620.087524 666.448059,618.337524 
	C660.983643,617.429871 656.920959,619.602661 654.365173,624.080688 
	C650.523499,630.811707 644.804260,634.700500 637.440125,636.064392 
	C633.743530,636.749023 631.900879,640.076050 628.441284,641.047546 
	C617.552856,644.105103 606.446716,644.914795 595.313782,643.862732 
	C583.524414,642.748474 572.160156,639.350586 561.063232,635.287048 
	C551.864502,631.918640 542.694580,628.405579 533.767944,624.387756 
	C529.260498,622.359131 524.878052,621.794495 520.187012,622.427124 
	C503.178284,624.721191 486.071930,625.375732 468.938446,625.426697 
	C456.658722,625.463257 444.518982,625.249451 432.545105,621.136963 
	C427.294586,619.333679 421.085022,622.116699 415.530457,623.610291 
	C398.022034,628.318298 380.435181,632.489929 362.516754,635.436035 
	C348.522430,637.737000 334.828552,637.887756 321.017120,634.449768 
	C310.312897,631.785217 302.162933,626.358337 298.254730,615.697021 
	C296.843506,611.847351 292.516998,610.627991 290.902985,607.054443 
	C287.278107,599.028687 283.923126,590.948242 279.077606,583.439514 
	C275.359650,577.678162 276.121246,570.660583 278.578156,563.982483 
	C268.011566,558.898804 259.415375,551.622253 251.023880,544.020386 
	C242.116074,535.950745 237.037216,525.563721 232.550156,514.736938 
	C226.826904,500.927460 225.427032,486.469849 229.018234,472.228119 
	C233.446960,454.664856 243.116760,440.054626 258.540314,429.770966 
	C269.257721,422.625092 281.039642,418.351196 293.728882,416.425354 
	C295.321869,416.183594 296.890900,415.783752 298.855286,415.377747 
	C295.048553,410.524719 290.359100,406.045349 290.927521,399.973358 
	C291.466217,394.218567 289.454437,389.967926 286.762817,385.365387 
	C284.146362,380.891357 283.757324,375.815369 285.863495,370.911987 
	C286.824829,368.673889 286.505676,366.918640 285.494385,364.796265 
	C282.224182,357.932922 284.290497,352.068756 291.057861,348.518494 
	C293.986481,346.982117 297.013367,345.633057 300.140137,344.129395 
	C298.726624,335.005859 296.005371,326.483673 293.669220,317.838501 
	C290.332947,305.492279 288.447693,292.841064 288.037994,280.011322 
	C287.895416,275.546265 290.316345,272.682678 294.084930,271.113403 
	C301.760742,267.917175 309.415344,264.511444 317.371582,262.200348 
	C323.135254,260.526123 328.840271,263.271179 334.148987,265.601898 
	C343.402161,269.664368 352.887299,273.238739 361.369904,278.534515 
	C372.437775,244.605042 394.655121,220.873001 425.369934,204.518936 
	C427.441284,203.416061 428.487732,202.392120 427.767212,199.916183 
	C423.101807,183.884583 422.576477,167.109985 419.217773,150.904663 
	C416.280518,136.732620 415.360657,122.646622 415.807007,108.389885 
	C416.195984,95.966187 420.023041,84.625885 429.185150,75.206551 
M709.664856,220.865097 
	C691.656189,204.506470 670.211609,194.513718 647.187256,187.700821 
	C637.361267,184.793289 627.312317,183.600220 618.163757,190.329529 
	C617.510681,190.809937 616.679565,191.127396 615.882751,191.320724 
	C609.337708,192.908630 605.568909,197.650467 602.453857,203.110550 
	C590.799194,223.538940 579.087708,243.713303 557.341370,255.716797 
	C542.303589,264.017303 526.147217,267.524811 509.491364,267.901672 
	C496.802673,268.188782 484.066193,266.232452 472.230774,260.434692 
	C463.099670,255.961670 455.213257,250.229080 448.792511,242.304611 
	C441.815857,233.694077 436.891205,223.945526 432.225952,213.044952 
	C401.253937,228.126221 382.961548,253.506271 370.108582,283.919769 
	C370.486267,285.299530 371.901886,286.018707 373.013947,286.972626 
	C379.190552,292.270813 385.576172,297.342651 391.507935,302.900055 
	C393.771729,305.020996 395.364929,305.271332 397.974915,303.950226 
	C412.690002,296.501953 427.985687,291.057770 444.169434,287.194550 
	C467.465576,281.633484 491.181366,280.583282 514.731079,277.707855 
	C517.879639,277.323456 520.482666,277.976654 522.161194,281.312378 
	C523.742554,284.454987 526.345398,286.872559 529.710632,288.327545 
	C531.440979,289.075745 532.710693,290.339203 533.386169,292.195953 
	C536.670349,301.223145 540.175598,310.160675 542.668213,319.472748 
	C545.369141,329.563049 548.550842,339.523773 551.368225,349.584290 
	C552.225586,352.645935 553.923401,353.681549 557.040466,353.847412 
	C578.110413,354.968506 596.819031,362.855743 613.938416,374.671814 
	C619.612793,378.588318 624.757812,381.801208 632.308411,380.939697 
	C642.090271,379.823608 651.618652,383.688446 661.421021,384.294281 
	C667.353882,384.660980 667.701050,384.947083 667.696899,378.863495 
	C667.692932,373.031281 666.189026,367.437744 664.888977,361.759735 
	C661.879211,348.613922 657.815308,335.871735 652.112366,323.671936 
	C649.449219,317.974823 646.377930,312.469604 643.555237,306.845459 
	C642.367249,304.478394 642.669189,302.258789 644.890564,300.626068 
	C647.362915,298.808960 648.859924,300.551392 650.272949,302.312134 
	C652.253052,304.779480 654.128052,307.293640 655.666931,310.097137 
	C661.675354,321.042969 666.775208,332.372070 670.459778,344.310333 
	C674.134827,356.218262 677.505066,368.187225 677.423767,380.827087 
	C677.411499,382.732056 677.355042,384.766724 678.485779,386.468475 
	C684.245667,387.097717 689.819946,387.885376 695.257996,389.561096 
	C698.054932,390.422882 699.795593,391.814789 699.136597,394.883392 
	C698.507568,397.812927 696.483215,398.862244 693.535339,398.489441 
	C690.894409,398.155426 688.211792,398.139984 685.576416,397.775391 
	C667.865723,395.325256 649.986755,394.149628 631.597107,390.397980 
	C640.959961,408.957184 640.111938,426.842377 629.318787,444.982147 
	C640.729553,444.652100 650.799194,445.808411 660.857422,446.275269 
	C674.294128,446.898895 685.904907,452.698578 698.025452,456.967651 
	C706.875244,460.084686 715.756836,463.806885 722.642090,470.760040 
	C723.675232,471.803314 725.127808,471.702087 726.441528,471.524109 
	C731.882263,470.787079 737.350586,470.106873 742.330627,467.538696 
	C758.576233,459.160828 766.579468,444.746490 770.530701,427.804413 
	C773.011230,417.168121 773.198669,406.167816 774.113220,395.276672 
	C775.064514,383.948456 774.524597,372.844635 773.829651,361.576813 
	C772.704590,343.333710 769.069946,325.511108 763.380005,308.423096 
	C755.991821,286.234680 747.103149,264.440430 731.847900,246.022202 
	C724.858093,237.583176 719.109558,228.075089 709.664856,220.865097 
M736.644836,481.266785 
	C735.179565,483.608887 737.526062,484.554321 738.510803,485.782471 
	C741.680847,489.736176 743.885010,494.176514 745.591492,498.877228 
	C746.268066,500.741119 746.779297,503.061401 744.843811,504.361115 
	C742.726135,505.783081 740.681519,504.438477 738.964722,503.014526 
	C736.880554,501.285919 735.555115,498.949432 734.125366,496.697510 
	C733.059265,495.018311 732.057434,493.254028 730.739563,491.785675 
	C714.273804,473.440247 692.706238,464.065796 669.475037,458.493073 
	C651.574585,454.199005 633.255859,455.512543 614.977783,457.211182 
	C594.787781,459.087494 576.652161,466.783478 559.049500,475.832458 
	C539.120239,486.077515 520.100708,498.033722 500.020447,508.041473 
	C479.335144,518.350891 459.443207,530.118408 439.214447,541.268066 
	C432.729095,544.842651 430.311615,550.775635 429.484863,557.180847 
	C427.501465,572.547729 429.313812,587.613281 434.838226,602.194885 
	C437.374603,608.889709 441.887024,612.820007 449.020752,613.874573 
	C462.586823,615.880188 476.220459,614.787720 489.753601,614.166504 
	C505.970062,613.422302 522.228821,611.914734 538.270569,609.446594 
	C561.875793,605.814697 585.672668,603.158447 608.923157,597.415466 
	C621.994507,594.186890 635.384216,591.858826 647.856628,586.753479 
	C660.296448,581.661438 672.863525,576.626831 684.136719,569.049683 
	C687.153198,567.022156 690.075500,567.523682 692.021790,570.363342 
	C693.735657,572.864014 691.983887,575.334961 690.087708,576.821655 
	C685.788147,580.192871 681.485168,583.587524 676.243347,585.602234 
	C671.320557,587.494385 666.583862,589.870850 661.581177,592.116882 
	C662.946960,596.242981 666.038391,599.583252 665.411499,604.014526 
	C664.848755,607.992249 667.047424,608.642822 670.414978,608.819153 
	C679.899048,609.315735 689.362976,609.536011 698.843079,608.781494 
	C720.795715,607.034546 739.022583,597.759155 753.496643,581.312988 
	C773.947449,558.075745 778.351624,529.607239 778.338135,500.205109 
	C778.333069,489.186371 776.528076,478.017700 773.749939,467.178253 
	C773.018127,464.323242 772.414734,461.424347 769.962769,458.994934 
	C761.454529,470.185516 749.827698,476.336426 736.644836,481.266785 
M428.506622,142.029114 
	C429.834747,149.044373 429.919830,156.189453 431.128418,163.260422 
	C434.336670,182.030670 438.463287,200.474716 446.863251,217.673599 
	C454.120789,232.533417 463.583313,245.079895 480.342346,250.664444 
	C495.738007,255.794708 511.078491,256.524170 527.017395,253.914856 
	C552.488464,249.745071 570.714478,235.704910 583.846741,214.185074 
	C588.271362,206.934464 592.789978,199.764511 598.088806,193.107712 
	C603.091675,186.822739 610.425415,183.579224 616.675232,178.947281 
	C623.935059,173.566803 629.172913,167.077835 631.291565,158.239029 
	C633.271912,149.976761 630.163940,139.818222 623.847961,135.861069 
	C615.546936,130.660217 606.341003,128.456284 597.323181,133.240875 
	C589.648499,137.312820 582.325806,136.118500 574.643494,134.534378 
	C568.141113,133.193573 563.619812,128.901642 558.647461,124.924126 
	C554.863586,121.897308 553.488586,118.181480 552.272095,114.055901 
	C551.750977,112.288689 552.552490,110.692032 553.826416,109.553192 
	C555.278809,108.254753 556.902649,108.778755 558.432251,109.685684 
	C560.866150,111.128777 563.446472,112.394150 565.318237,114.586571 
	C573.149597,123.759331 582.961975,126.717911 594.493042,123.614670 
	C600.288452,122.054985 606.315552,123.557045 612.763428,122.145508 
	C609.905823,115.084717 607.581177,108.402939 605.230042,101.768471 
	C601.832764,92.182045 595.360291,84.205521 589.567932,75.898933 
	C583.442444,67.114647 575.786865,60.269184 566.376648,55.241966 
	C553.737915,48.489994 540.505371,46.169121 526.073242,47.070755 
	C513.424194,47.860992 500.984436,48.140430 489.090393,53.250492 
	C483.939392,55.463524 478.006104,55.966385 473.028229,58.449173 
	C461.489136,64.204460 450.196106,70.382187 441.187500,80.105743 
	C434.258270,87.584877 428.229523,94.992065 427.849152,105.955605 
	C427.441345,117.710335 427.617065,129.412415 428.506622,142.029114 
M444.067810,526.574829 
	C452.343781,521.478577 460.619751,516.382324 469.113342,511.152069 
	C459.382782,504.995422 449.955414,499.213715 440.719238,493.141266 
	C428.695099,485.235779 414.898834,481.053802 402.259521,474.489532 
	C379.999817,462.928864 356.727417,453.556854 334.080719,442.834625 
	C326.635986,439.309875 321.903015,435.558502 320.906128,427.519928 
	C320.437988,423.744843 317.909729,422.276672 314.629425,422.588043 
	C300.660065,423.913910 286.570862,425.898712 274.137482,432.465881 
	C253.536224,443.347290 240.832428,460.144073 238.829422,484.284943 
	C237.676361,498.182190 241.462540,510.520874 248.131012,522.267700 
	C255.706375,535.612061 267.331268,544.887390 279.849030,553.228271 
	C282.455994,554.965393 284.511261,554.835938 286.988403,552.787903 
	C302.313324,540.117798 319.759094,537.334412 338.500549,542.823486 
	C352.194427,546.834229 366.190094,547.883118 380.280884,548.647644 
	C393.429626,549.361023 405.931488,545.430298 418.687134,543.328308 
	C419.447754,543.202942 420.318848,542.808105 420.830505,542.254150 
	C427.175690,535.385010 435.369629,531.235168 444.067810,526.574829 
M407.664734,341.870331 
	C408.242493,343.593292 408.987854,345.279755 409.372101,347.044861 
	C413.182892,364.549255 416.374298,382.211121 420.848022,399.542633 
	C426.064697,419.752411 429.586121,440.369751 435.798981,460.333954 
	C438.012787,467.447723 437.838226,467.672180 444.897614,466.031097 
	C461.380798,462.199280 477.987000,458.897705 494.458984,455.072998 
	C513.902283,450.558258 533.444397,446.735779 553.110168,443.433685 
	C553.988525,443.286224 555.138733,443.175323 555.535950,441.761780 
	C552.938416,439.952179 549.909668,439.114044 546.909241,438.258728 
	C536.022888,435.155396 525.190369,431.957916 515.228333,426.355408 
	C507.151245,421.812958 504.998505,416.473297 508.663544,408.333832 
	C509.779175,405.856201 508.805328,404.801025 507.094147,403.390411 
	C498.157806,396.023865 498.641174,388.972748 508.481201,383.030426 
	C510.007416,382.108734 511.392822,381.402557 510.927155,379.287811 
	C509.252197,371.681335 513.516785,367.177643 519.066528,363.082306 
	C524.365540,359.171906 529.817810,355.848053 536.478149,354.900299 
	C538.049622,354.676697 539.887756,354.795685 541.058044,352.694366 
	C539.307129,346.570953 537.385193,340.218109 535.681274,333.807312 
	C532.821350,323.048096 528.859009,312.601990 526.645569,301.658203 
	C525.973694,298.336700 524.216187,296.997650 520.554077,298.191589 
	C515.519714,299.832916 510.251068,300.697083 505.095032,301.903259 
	C479.358521,307.923859 453.412720,312.892029 427.493774,318.008728 
	C419.397125,319.607147 411.322052,321.314941 402.824768,323.057220 
	C404.414459,329.267426 405.927582,335.178558 407.664734,341.870331 
M389.777618,388.622009 
	C384.710236,370.021545 380.531006,351.168427 377.352753,332.212158 
	C375.894470,323.514435 371.506744,320.470154 364.546448,317.687225 
	C344.504303,309.673981 324.053680,302.535309 305.415619,291.344635 
	C303.497009,290.192657 301.349304,289.422272 298.686005,288.186157 
	C299.000885,291.641571 298.881927,294.349426 299.536407,296.855286 
	C303.271240,311.154724 306.327301,325.605011 309.377045,340.057007 
	C310.107025,343.516174 311.722870,345.388763 315.476318,346.166138 
	C321.655884,347.446045 327.665955,349.465057 332.964783,353.197296 
	C338.373230,357.006775 340.526581,362.341156 338.933624,368.419647 
	C338.036957,371.841156 338.948761,373.487579 341.054932,375.664551 
	C345.680481,380.445709 346.297363,384.942047 343.246460,390.943970 
	C342.250366,392.903564 342.912811,394.039032 344.171814,395.301941 
	C351.073334,402.224731 346.854675,414.631042 338.602966,418.104614 
	C335.539001,419.394409 332.319885,420.050507 329.200958,420.883484 
	C329.800079,429.683289 331.977966,432.514130 339.568176,434.691071 
	C340.837311,435.055084 342.135834,435.440735 343.291260,436.058533 
	C360.452820,445.235138 379.385498,450.503815 396.352936,460.131836 
	C398.851837,461.549805 401.511230,463.102539 405.314819,463.121979 
	C401.457916,438.120819 394.824921,413.953857 389.777618,388.622009 
M324.048248,550.598938 
	C312.115051,550.196350 301.283630,553.189026 292.502869,561.588989 
	C287.814087,566.074402 286.421539,571.823853 288.528839,578.045837 
	C290.298859,583.271973 293.535889,586.908203 299.622986,587.271973 
	C302.750732,587.458862 305.833405,588.350281 308.945038,588.871826 
	C311.858917,589.360229 313.454926,591.159790 313.441864,593.984070 
	C313.428467,596.885925 311.116699,597.864441 308.703217,598.174438 
	C306.737244,598.426819 304.712097,598.181458 302.716583,598.251953 
	C301.145477,598.307495 299.063904,597.643616 298.535736,599.870361 
	C298.079163,601.795288 299.726410,602.792969 301.093140,603.770386 
	C305.933228,607.231567 310.976196,609.885925 317.286926,608.888977 
	C318.852570,608.641602 320.585663,609.157532 322.191986,609.534790 
	C324.568787,610.093140 326.171692,611.718201 325.831055,614.155334 
	C325.515747,616.411560 323.545654,617.223022 321.330414,617.275269 
	C318.742676,617.336182 316.193359,617.561523 313.980164,619.419617 
	C316.166992,622.467712 319.251740,623.372070 322.231934,624.299622 
	C332.786316,627.584717 343.640289,627.430481 354.392273,626.102478 
	C365.590088,624.719421 376.698029,622.579163 387.645508,619.721130 
	C400.442993,616.380066 413.263397,613.126892 426.886993,609.626709 
	C417.432861,592.069397 415.866028,573.524536 418.873505,554.023132 
	C414.891754,555.272888 411.654846,556.731323 408.270721,557.277161 
	C390.214172,560.189514 372.160065,559.735901 354.129974,556.798645 
	C344.304810,555.198059 334.848419,551.839905 324.048248,550.598938 
M523.848877,420.644867 
	C526.475464,421.675018 529.035339,422.944977 531.739380,423.696472 
	C549.694275,428.686340 567.895752,433.258087 583.698364,443.550995 
	C591.378296,448.553192 598.854370,450.141724 607.498413,447.685883 
	C610.209167,446.915771 612.867249,446.500946 615.172180,444.485870 
	C630.942200,430.698914 634.347778,398.703613 609.358948,383.785370 
	C596.129089,375.887146 582.704590,369.170074 567.501770,365.806030 
	C553.842468,362.783478 540.806152,363.857208 527.867920,368.523682 
	C524.968506,369.569427 522.696228,371.519409 521.465881,374.479095 
	C519.710144,378.702820 520.353088,379.844727 524.940918,379.999756 
	C534.571228,380.325195 544.234863,380.236847 553.768188,381.846619 
	C559.634827,382.837280 565.622681,383.588226 570.821838,386.902527 
	C572.481873,387.960754 573.709351,389.355194 573.135071,391.432312 
	C572.567566,393.485077 570.748779,394.106445 568.851929,394.239594 
	C567.538879,394.331726 566.126465,394.380951 564.891968,394.007690 
	C552.282959,390.195709 539.326782,390.134186 526.341919,390.255707 
	C522.849548,390.288391 519.355591,390.117798 515.862610,390.128204 
	C513.461975,390.135376 511.391846,391.292450 510.905731,393.564209 
	C510.338684,396.214325 512.282715,397.832764 514.607056,398.760223 
	C515.673035,399.185577 516.829041,399.404083 517.959106,399.647308 
	C526.433716,401.471375 535.091248,401.776611 543.677124,402.635223 
	C552.829590,403.550476 561.671021,405.748627 570.451355,408.339813 
	C573.524109,409.246613 574.893005,411.406036 574.515503,414.332397 
	C574.211975,416.685425 572.172974,417.658325 569.977417,417.057037 
	C555.791809,413.172363 541.210449,411.961304 526.661133,410.594971 
	C523.190308,410.269012 518.426636,407.491547 516.758606,412.869202 
	C515.258728,417.704742 520.258423,418.470856 523.848877,420.644867 
M483.284821,503.436493 
	C493.785492,498.452759 504.641968,494.091370 514.702881,488.338562 
	C529.572144,479.836365 544.665344,471.770905 559.700195,463.585144 
	C566.505249,459.880096 573.931702,457.546173 581.769958,453.895905 
	C576.245728,451.179260 571.559448,448.874725 566.690552,446.480377 
	C564.811707,449.652618 562.087830,450.712921 558.840454,451.489288 
	C544.791077,454.848358 530.723328,457.979126 516.495178,460.601227 
	C497.246704,464.148529 478.242462,469.022095 459.135437,473.335358 
	C451.949310,474.957550 444.768707,476.604095 436.629517,478.457214 
	C440.824646,480.782074 444.017517,482.489655 447.151489,484.299255 
	C458.775452,491.011169 469.613892,499.172974 483.284821,503.436493 
M612.627197,607.335754 
	C591.577881,612.490173 570.068542,615.206360 548.171692,618.983643 
	C567.994385,630.607056 603.469299,637.156189 617.866638,632.115784 
	C616.244324,624.772278 616.945618,624.092468 624.475098,625.366943 
	C627.583618,625.893066 630.721436,626.290039 633.861389,626.575012 
	C637.136841,626.872253 640.088501,626.290527 641.700867,622.744934 
	C639.594971,622.084900 637.502014,621.822754 635.857422,620.822998 
	C633.265808,619.247742 629.002686,617.811340 630.019470,614.301208 
	C631.128540,610.472351 635.468628,611.321411 638.686035,611.882812 
	C642.137207,612.485046 645.533813,613.390686 649.047485,612.632080 
	C652.683472,611.846985 655.328979,606.921570 654.468628,602.706238 
	C653.532043,598.117065 651.479126,596.660583 646.548523,598.125854 
	C635.577271,601.386292 624.725891,605.054443 612.627197,607.335754 
M425.731201,455.627960 
	C421.833160,439.176880 417.874695,422.739838 414.053345,406.270966 
	C409.853668,388.171692 405.615753,370.078278 401.727814,351.910980 
	C400.028625,343.970947 396.369293,336.444336 396.609253,328.091156 
	C396.672455,325.892181 395.424744,325.077698 393.423584,325.364288 
	C390.543823,325.776703 387.682159,326.315582 384.396729,326.870789 
	C386.981323,335.121246 388.062775,343.188904 389.895050,351.088226 
	C393.118408,364.984802 396.805298,378.773926 400.019562,392.672485 
	C402.789062,404.647949 405.149750,416.717560 407.729736,428.737274 
	C410.233673,440.402557 412.981903,452.019714 415.234589,463.732697 
	C416.336578,469.462677 418.695160,471.321136 424.663666,470.050873 
	C428.207397,469.296600 429.498871,467.623901 428.200714,464.043793 
	C427.297699,461.553558 426.753326,458.933258 425.731201,455.627960 
M304.730743,279.613861 
	C309.532257,282.243744 314.076782,285.282288 318.979431,287.787476 
	C333.949097,295.436798 349.919983,300.676605 365.222931,307.506378 
	C371.437164,310.279785 377.701355,312.967560 384.064545,315.372192 
	C388.897766,317.198639 389.888000,316.955963 393.054688,315.268433 
	C385.032959,312.448273 379.009216,306.491425 372.788208,301.250397 
	C360.982666,291.304565 348.196991,283.254211 334.094543,277.160278 
	C332.114258,276.304565 329.643372,276.028839 328.172272,274.656403 
	C324.076355,270.835236 319.888855,271.295410 315.554993,273.653564 
	C311.892822,275.646271 307.109650,275.362640 304.730743,279.613861 
M505.380737,288.644989 
	C496.745880,290.699951 487.810730,289.702576 479.121582,291.238647 
	C471.272705,292.626160 463.451141,294.281433 455.546204,295.213562 
	C442.241180,296.782471 429.760254,301.028015 417.458832,305.992920 
	C414.736969,307.091492 412.137726,308.493988 408.424042,310.259491 
	C423.729736,310.038849 436.996490,305.799713 450.430511,303.088287 
	C470.744690,298.988190 491.095154,294.994385 511.388672,290.756165 
	C513.254456,290.366486 514.914368,290.190186 514.742310,287.255280 
	C511.714935,288.120361 508.969208,288.717224 505.380737,288.644989 
M295.814911,381.823486 
	C297.854889,385.378632 300.916473,387.237488 304.965912,387.974884 
	C312.509369,389.348572 320.090851,389.894501 327.724121,389.490479 
	C329.664154,389.387756 331.671082,388.771729 333.458221,387.970123 
	C336.216278,386.733032 336.539795,384.316711 334.664795,382.294983 
	C332.072937,379.500214 329.037140,376.736084 324.820007,377.291931 
	C316.578430,378.378204 308.644348,376.572144 300.630920,375.297119 
	C295.381195,374.461884 294.147888,375.924622 295.814911,381.823486 
M314.918396,410.287415 
	C320.660950,411.931885 326.357117,411.525726 332.073090,410.049957 
	C335.350708,409.203766 338.932587,408.743713 338.536682,404.113831 
	C338.226990,400.491913 334.568878,397.874573 330.100250,398.382660 
	C323.639740,399.117157 317.217468,398.451294 310.778503,398.461151 
	C307.443878,398.466248 303.932098,397.099152 300.691040,398.975342 
	C302.138580,405.981171 305.427307,408.652100 314.918396,410.287415 
M298.534882,365.225433 
	C300.305328,365.601318 302.101257,365.885406 303.841736,366.369080 
	C311.086395,368.382477 318.544342,368.323181 325.953461,368.661774 
	C329.709137,368.833435 331.238281,367.443909 329.314667,363.523651 
	C328.232452,361.318207 326.983917,359.615082 324.674500,358.682800 
	C317.540833,355.803101 310.006805,354.610138 302.458374,353.749115 
	C298.858887,353.338562 296.135895,355.617279 294.746368,358.962830 
	C293.485199,361.999329 295.629852,363.518127 298.534882,365.225433 
z"/>
<path fill="#000000" opacity="1.000000" stroke="none" 
	d="
M535.430725,106.488449 
	C515.437866,113.326248 495.924652,115.160828 476.622650,105.485550 
	C472.248657,103.293037 468.456879,100.380844 465.265839,96.669853 
	C463.422607,94.526268 462.810059,92.559677 465.048889,90.117882 
	C467.206909,87.764244 469.274048,87.259621 472.053040,88.885429 
	C479.835052,93.438171 487.963257,97.366478 496.948242,98.633278 
	C509.902130,100.459663 522.702087,99.495163 535.078857,94.863945 
	C536.164856,94.457573 537.285767,93.715958 538.354797,93.775040 
	C541.275513,93.936470 544.965820,92.196709 546.569824,96.347214 
	C547.556519,98.900352 544.490234,103.521469 541.067505,104.787270 
	C539.354492,105.420792 537.566895,105.852730 535.430725,106.488449 
z"/>
<path fill="#000000" opacity="1.000000" stroke="none" 
	d="
M480.507690,153.263458 
	C483.092438,152.984436 483.815460,153.876862 484.346832,156.194534 
	C487.214813,168.703430 484.985687,180.584641 480.551819,192.272812 
	C480.021088,193.671829 479.383118,195.029800 478.816040,196.415482 
	C476.117188,203.010712 477.909698,205.757141 485.111145,205.605408 
	C489.634827,205.510071 493.901794,203.980988 498.111786,202.406876 
	C500.389648,201.555191 502.794159,200.880173 504.329681,203.426514 
	C505.788971,205.846359 503.773224,207.394226 502.334442,208.986267 
	C496.194427,215.780258 479.246735,215.964874 473.994904,213.513870 
	C468.538513,210.967438 466.048767,204.084213 468.181641,197.757660 
	C470.993591,189.416885 474.247589,181.188660 475.039642,172.312866 
	C475.378998,168.509933 475.520599,164.689026 475.732880,160.875214 
	C475.916290,157.580536 476.787720,154.699295 480.507690,153.263458 
z"/>
<path fill="#000000" opacity="1.000000" stroke="none" 
	d="
M508.938599,236.200760 
	C502.954834,237.271225 497.598389,236.645645 492.612091,233.891083 
	C490.482971,232.714905 488.603088,230.936279 489.697388,228.286728 
	C490.727142,225.793335 493.007233,226.993759 494.929108,227.277466 
	C502.773315,228.435394 510.089874,227.696518 516.338196,221.972992 
	C518.544006,219.952454 521.606445,217.071548 524.572693,219.780228 
	C527.924011,222.840500 525.344971,226.248566 523.203186,229.042938 
	C519.738464,233.563339 514.592346,234.992950 508.938599,236.200760 
z"/>
<path fill="#000000" opacity="1.000000" stroke="none" 
	d="
M535.741333,159.495911 
	C532.471191,168.126709 526.102417,171.281860 517.667847,171.317062 
	C512.490234,171.338669 509.417328,168.297531 507.009186,164.266113 
	C506.217377,162.940567 505.830963,161.382751 507.237061,160.165802 
	C508.380341,159.176346 509.768402,158.277206 511.326508,159.079041 
	C518.363647,162.700378 523.920166,160.609177 529.201172,155.260849 
	C532.105469,152.319519 535.089539,154.229324 535.741333,159.495911 
z"/>
<path fill="#000000" opacity="1.000000" stroke="none" 
	d="
M465.131897,169.775726 
	C468.759521,170.195374 469.400177,172.799927 468.397308,174.896851 
	C466.357269,179.162460 464.066956,183.647827 458.570801,184.476776 
	C453.327271,185.267624 448.748901,183.976181 445.247559,179.735260 
	C443.504852,177.624420 443.318604,175.158783 443.826935,172.669861 
	C444.303589,170.336105 446.176270,169.407974 447.816498,171.088821 
	C453.183594,176.588791 458.025665,175.130310 462.937683,170.597580 
	C463.393250,170.177170 464.132294,170.063980 465.131897,169.775726 
z"/>
<path fill="#000000" opacity="1.000000" stroke="none" 
	d="
M443.087799,153.061493 
	C440.506897,152.886932 438.096405,153.015121 437.370789,150.318604 
	C436.595337,147.436798 438.863586,146.072205 440.767639,144.838043 
	C443.826599,142.855286 447.319672,142.451904 450.849579,143.137421 
	C452.826935,143.521423 454.871918,144.325546 455.076111,146.736328 
	C455.274048,149.073135 453.551239,150.348114 451.678497,151.181137 
	C449.096008,152.329865 446.407227,153.211929 443.087799,153.061493 
z"/>
<path fill="#000000" opacity="1.000000" stroke="none" 
	d="
M467.583344,352.149780 
	C466.819855,348.848816 466.134430,345.940857 465.419586,343.040192 
	C464.825989,340.631409 464.403625,338.267822 467.707336,337.548798 
	C470.714966,336.894196 473.004028,337.789215 473.863373,340.985016 
	C475.193512,345.931366 476.444550,350.898987 477.784210,356.070160 
	C483.165436,355.987762 488.173096,354.923523 493.055664,353.404388 
	C496.445862,352.349579 498.359070,353.151062 499.538208,356.596588 
	C500.769043,360.193176 498.740662,361.668213 496.017181,362.462250 
	C492.201324,363.574768 488.301605,364.563538 484.368866,365.063507 
	C480.742432,365.524567 480.150513,367.164551 480.622009,370.456726 
	C482.199829,381.474152 484.501495,392.345520 487.320679,403.085175 
	C488.400269,407.197937 487.500244,409.836060 483.617096,410.731476 
	C479.716827,411.630798 479.059082,408.145660 478.461914,405.452911 
	C476.102325,394.812622 473.664764,384.178986 471.760193,373.453400 
	C470.942657,368.849548 468.847839,367.604218 464.657745,368.476562 
	C461.573120,369.118805 458.470032,369.689362 455.356201,370.168732 
	C453.124725,370.512299 451.354187,369.814423 450.887909,367.330780 
	C450.419281,364.834839 451.402679,363.060974 453.863922,362.331940 
	C456.889435,361.435822 459.912384,360.420074 463.011108,359.908539 
	C467.536804,359.161407 469.603516,357.210052 467.583344,352.149780 
z"/>
</svg>